<svg xmlns="http://www.w3.org/2000/svg" width="91.153" height="91.153" viewBox="0 0 91.153 91.153">
  <g id="Group_2450" data-name="Group 2450" transform="translate(-58.51 979.451) rotate(17)">
    <g id="Background" transform="translate(-210 -960)">
      <circle id="Ellipse_9" data-name="Ellipse 9" cx="36.5" cy="36.5" r="36.5" fill="#fed317"/>
    </g>
    <g id="Illustration" transform="translate(-194.73 -949.651)">
      <path id="Path_652" data-name="Path 652" d="M-161.524-892.991c.031,0,.074,0,.14,0C-161.431-892.99-161.477-892.987-161.524-892.991Zm-.98-.205h-.026C-162.485-893.185-162.466-893.181-162.5-893.2Zm6.3-1.351.144-.087C-156.3-894.531-156.187-894.566-156.2-894.547Zm19.521-5.873.046.011C-136.63-900.413-136.65-900.416-136.681-900.421Zm-12.542-4.051-.011,0C-149.2-904.48-149.2-904.478-149.223-904.472Zm1.817,6.276.028-.008C-147.255-898.263-147.31-898.24-147.405-898.2Zm-11.258-2.314.015,0-.019,0Zm-.464.135c.2-.063.308-.1.46-.135l-.164.007C-158.93-900.46-159.028-900.413-159.128-900.375Zm-6.641.264a.094.094,0,0,1-.036.018C-165.831-900.068-165.829-900.065-165.769-900.111Zm9.541,5.579.014-.005a.055.055,0,0,0,.012-.01Zm5.17-9.174a1.1,1.1,0,0,0,.168-.065Zm5.515-1.932.16-.049-.153.036Zm-.894.266c.034-.014.374-.115.06-.027C-146.411-905.385-146.868-905.238-146.438-905.371Zm-8.978,3.713c-.23.108-.356.153-.241.126.39-.161.085-.055.439-.2C-155.131-901.775-155.508-901.613-155.417-901.658Zm0,0,.118-.055Zm-8.73,7.012a1.431,1.431,0,0,0,.117.193c-.036-.058-.067-.12-.1-.179Zm2.894,1.637c.038.011.076.017.115.026l-.054-.026Zm2.984-.7c-.115.046-.251.1-.368.142C-158.383-893.665-158.224-893.691-158.268-893.712Zm-3.031-20.922.009.008C-161.3-914.641-161.3-914.647-161.3-914.634Zm-.084-2.25-.022-.057C-161.405-916.852-161.394-916.89-161.383-916.883Zm-4.187,2.138v0C-165.572-914.755-165.571-914.753-165.57-914.745Zm4.407-5.333,0-.009C-161.167-920.134-161.167-920.113-161.163-920.078Zm-2.717,8.3,0,0,0,.005Zm.108.119a.386.386,0,0,1-.108-.117l0,.065C-163.843-911.7-163.808-911.679-163.772-911.663Zm1.736-.735a.021.021,0,0,1,.017,0C-162.009-912.407-162.011-912.41-162.036-912.4Zm.657-4.475v-.005s0,0,0-.005Zm-3.917,2.736s0-.013-.018-.058A.507.507,0,0,1-165.3-914.137Zm-.619-1.858h.011l-.015-.054A.356.356,0,0,1-165.915-916Zm.075.285c.006.01.051.165.013.019C-165.833-915.7-165.864-915.817-165.84-915.71Zm1.268,2.928c-.023-.024.049.092.027.066.052.067.073.106.067.064C-164.549-912.773-164.512-912.67-164.572-912.782Zm3.291-1.15-.009.072.007.006A.208.208,0,0,0-161.28-913.932Zm-.045-1.182-.026.02v.021Zm-.1-1.017c0,.042.008.092.007.135C-161.423-916.089-161.387-916.143-161.422-916.131Zm1.055,7-.01-.038,0,.021Zm-1.563-.761v0C-161.91-909.889-161.916-909.891-161.929-909.893Zm.9-1.9h0Zm-.02.024c.009-.026.01-.023.02-.025a.137.137,0,0,0-.022-.032C-161.052-911.8-161.046-911.786-161.048-911.764Zm-1.6,1.189h0l0,0Zm2.1.717h0c0-.019-.009-.032-.006-.012Zm-.067-.292,0-.024.006.035Zm-.089-.386h-.01l.008.017A.044.044,0,0,1-160.708-910.537Zm-.028-.092s-.02-.053-.01-.005C-160.741-910.631-160.731-910.593-160.736-910.628Zm-.223-1.02c.008.009,0-.034.008-.024-.012-.029-.01-.037-.026-.026C-160.974-911.653-160.958-911.691-160.958-911.649Zm-1.24.718h.027l0-.007C-162.181-910.941-162.187-910.937-162.2-910.93Zm-.312.211.006,0-.026-.015Zm-.1.11s-.007,0-.005,0S-162.659-910.617-162.609-910.609Zm5.651-1.012c.015.077.024.126.032.164Zm.273,1.345.015.027C-156.687-910.3-156.7-910.325-156.686-910.277Zm2.171,7.051-.291.128Zm-1.362-9.249.048.187C-155.869-912.586-155.863-912.453-155.877-912.475Zm16.587,3.034.016-.051C-139.277-909.5-139.283-909.475-139.29-909.441Zm-20.743-11.618v.013C-160.029-921.091-160.03-921.083-160.034-921.059Zm9.671,15.913.032-.01C-150.189-905.223-150.252-905.2-150.363-905.146Zm-9.015-4.14-.005-.017.006.022Zm.165.531a5.51,5.51,0,0,1-.165-.526l.015.187Zm19.668.251c-.01.029-.019.06-.03.089A.863.863,0,0,0-139.545-908.5Zm-17.266-2.387c-.007-.035-.017-.07-.024-.106C-156.824-910.942-156.816-910.91-156.811-910.891Zm1.988,7.81a.134.134,0,0,1,.047-.012C-154.737-903.116-154.737-903.119-154.823-903.081Zm-1.062-9.429,0,.018a.077.077,0,0,0,.007.017Zm-4.3-6.249a1.438,1.438,0,0,0,.016-.208C-160.181-918.865-160.185-918.805-160.189-918.759Zm8.23-3.017h-.266l.378,0Zm-4.226.008-.012.01.194,0Zm-1.094.017c.042,0,.454-.006.076-.008C-157.244-921.756-157.8-921.75-157.279-921.751Zm-2.748,8.866c-.046-.484-.029-.113-.064-.552-.017-.113.027.359.011.242C-160.048-912.9-160.027-912.749-160.027-912.885Zm-.071-.458.018.149Zm4.192,5.652c-.015-.047-.042-.116-.094-.256.026.079.046.159.077.236Zm-1.1-4.221-.016.067.011.073Zm.044-3.007c.316-.027.5,0,.462-.036Zm22.877-8.136-.015,0C-134.072-923.048-134.062-923.048-134.082-923.055Zm2.4,1.2.051-.068C-131.73-921.843-131.679-921.867-131.68-921.852Zm-11.292-2.013,0,0C-142.96-923.871-142.963-923.869-142.972-923.865Zm12.493-.055-.013-.006C-130.559-923.93-130.53-923.925-130.479-923.92Zm-11.167,1.143h0Zm.234-.011a.98.98,0,0,1-.232.012l.077.037Zm3.3.009c.008,0,.011,0,.014.006S-138.1-922.781-138.116-922.779Zm6.427.939.006,0a.024.024,0,0,0,0-.008Zm-12.056-1.442s.018-.006.075-.045C-143.709-923.3-143.731-923.289-143.746-923.281Zm3.682-2.612.131-.089-.039.026Zm-1.358.969.065-.05a.714.714,0,0,1-.066.038Zm-.347.241c-.012.012-.2.151-.022.025C-141.777-924.671-141.637-924.773-141.768-924.683Zm-1.653,1.9c-.048.007.151.006.1.012.123-.007.188,0,.132-.022C-143.393-922.794-143.237-922.772-143.422-922.779Zm.1.012-.063,0Zm8.11-.525a.451.451,0,0,0,.115.015l-.1-.021Zm1.75.454.041.049-.013-.035Zm1.262.966c-.039-.052-.092-.107-.134-.156C-132.234-921.926-132.215-921.837-132.2-921.873Zm-2.08-.063,0,0C-134.31-921.937-134.3-921.935-134.277-921.935Zm-2,3.657,0,0,0,0Zm.068-.064a.163.163,0,0,1-.066.065l.047.011Zm3.173-2.5h0Zm-4.5,1.581,0,.044,0-.063Zm.053.7.01,0-.006-.032A.139.139,0,0,1-137.481-918.557Zm.019.169c0,.007.014.1.008.012C-137.457-918.382-137.463-918.451-137.462-918.387Zm.66.517c.035-.036.057-.048.029-.049-.068.045-.005.025-.068.064C-136.853-917.838-136.791-917.887-136.8-917.87Zm2.574-2.045-.042.012v.008C-134.259-919.894-134.249-919.9-134.229-919.916Zm.531-.407-.01.007.034.008Zm.448-.4c-.02.014-.038.037-.058.051C-133.269-920.7-133.223-920.693-133.249-920.718Zm-4.589,10.394-.007-.01C-137.843-910.317-137.841-910.31-137.838-910.324Zm-.152,1.342.038-.047C-138.029-908.987-137.989-908.995-137.99-908.982Zm2.853-8.9,0,0C-135.129-917.888-135.13-917.887-135.137-917.884Zm-.264,7.085.008-.005C-135.368-910.844-135.381-910.829-135.4-910.8Zm-1.969-4.776v0Zm.008.163a.471.471,0,0,1-.009-.161l-.038.053Zm-.133,2.287a.022.022,0,0,1-.011.013C-137.5-913.1-137.5-913.1-137.5-913.125Zm-.5,4.151,0,0a.013.013,0,0,0,0-.007Zm2.347-8.478s.013,0,.052-.032A.489.489,0,0,1-135.65-917.452Zm2.471-1.911.089-.065-.027.018Zm-.91.71.042-.037a.367.367,0,0,1-.046.027Zm-.247.2c.008-.01.1-.084.013-.02C-134.331-918.468-134.456-918.365-134.336-918.458Zm-2.6,1.993c-.064.057-.1.081-.06.072.117-.081.017-.034.123-.105C-136.85-916.523-136.96-916.44-136.936-916.465Zm-.75,5.452.026-.069-.005-.008A.208.208,0,0,0-137.687-911.013Zm-.214,1.151.005-.021-.035.034Zm-.15.835s0-.008,0-.014S-138.1-909-138.051-909.027Zm-24.94,16.884a4.207,4.207,0,0,1-.42-.19A3.92,3.92,0,0,0-162.991-892.143Zm3.261.158.077-.026C-159.8-891.973-159.862-891.96-159.73-891.985Zm3.7,2.727c0,.117,0,.269-.005.453Zm-.005.453c0,.121,0,.254,0,.409Zm-10.99-19.5c-.007.02.037-.041.024-.01.088-.154.183-.305.281-.455A3.691,3.691,0,0,0-167.022-908.307Zm39.978-15.463-.193.141A1.763,1.763,0,0,0-127.044-923.77Zm-21.012,26.923-.034.013Zm-4.006-25.95.09,0C-151.547-922.8-151.734-922.8-152.062-922.8Zm6.435,41.516h0Zm-1.512.016c.644-.019,1.01-.019,1.5-.017l-.5-.035Zm-19.144-32.258c.042.092.088.183.133.274C-166.189-913.327-166.232-913.417-166.282-913.522Zm24.512,14.585h0Zm.4,7.582c0-.082,0-.163,0-.241h-.01a.64.64,0,0,1,.008.143Zm2.56,8.994-.544,0,.379,0h.2c.033,0,.069,0,.1,0C-138.7-882.376-138.739-882.384-138.806-882.361Zm-22.582-9.476c-.115,0-.229,0-.344-.015A1.674,1.674,0,0,0-161.388-891.837Zm19.507-7.065c-.338.087-.707.181-.3.085a21.524,21.524,0,0,1,2.224-.475c-.122.019-.586.082-1.111.2-.229.046-.47.1-.7.159C-141.234-899.051-141.544-898.99-141.882-898.9Zm.507,7.3h0Zm14.837-32.547-.507.374.437-.336.058-.045.029-.022-.035-.009-.14-.034-.238-.059a.46.46,0,0,0,.105.041l.119.037.076.022.042.012c.012,0-.022.019-.031.028l-.42.3-.455.335-.2.187-.242.156c-.864.652.277-.16-.587.492-.275.159-1.207.859-2.167,1.582l-.716.539-.118.088c-.026.008-.01.034,0,.056l.02.066c.011.033.032.112.05.177s.036.131.049.2a5.813,5.813,0,0,1,.162,1.183c.056.369.033-.15-.051-.654s-.234-.987-.1-.6a9.242,9.242,0,0,1,.178,1.188c0-.083.007-.166.007-.249a9.774,9.774,0,0,1,.006,2.164,11.04,11.04,0,0,1-.325,1.71,11.548,11.548,0,0,1-1.471,3.3l.056-.105a20.465,20.465,0,0,1-1.257,1.659c-.158.151.34-.417.058-.123a9.1,9.1,0,0,1-2,1.769l-.414.257-.362.206-.087.05-.02.012h.023l.046,0,.183-.009.34-.023c-.044.02.019.035.181.053s.354.033.547.054a6.517,6.517,0,0,1,2.267.4c.084.038.168.079.252.121l-.252-.121.27.129.006,0,.053.026,0,0a6.125,6.125,0,0,1,2.008,1.639c.275.313,3.2,3.839,2.292,10.642-.369,2.758-3.011,8.021-10.366,8.2l-.719.018.273-.666c.6-1.469,1.526-3.737,1.84-4.554a1.527,1.527,0,0,0-.225-.143c-.794-.481-1.718-1.029-1.782-1.063-.26-.157.081.045.064.033l-.938-.558c-.228-.146,1.573.93,1.135.661l1.392.838.03.017-.33-.2-.8-.485.245.146c-.781-.473-1.772-1.062-2.716-1.62l-.008,0,.1.058-.217-.13c-.5-.3-.987-.582-1.415-.832l-1.079-.631,0,0,.039.023.078.046.156.091.311.182.26.154-.441-.259-.22-.13-.11-.065-.056-.032-.027-.016h0l-.005,0,0,0-.008,0-.006,0,.011,0h0l1.245-.221c.73-.129,1.425-.271,2.095-.422.174-.041.442-.1.637-.153.8-.19,1.851-.476,2.868-.823.179-.061.355-.123.527-.186.134-.049.264-.1.394-.15l.283-.113q.28-.113.541-.228c.138-.061.275-.121.407-.183l.1-.045c.009-.008.049-.015.033-.023l-.048-.024-.371-.187c-.051-.025-.1-.046-.15-.065l-.037-.015c-.168-.064-.326-.106-.457-.157-.04-.012-.077-.021-.113-.03a8.606,8.606,0,0,0-3.047-.132l-.242.031-.105.012-.174.023-.049.007-.228.036a.3.3,0,0,1-.062.01c-.522.086-1.062.2-1.616.336l-.42.113-.178.051a.265.265,0,0,0-.06.021c.22-.057.5-.132.8-.206-.547.141-.783.2-1.035.278.362-.109-.493.132-.657.176-1.757.548-2.754.912-4.59,1.636l-.071.026-.131.053c.007.321.012.883.01,1.867,0,.2.009.285.013.161,0,1.13,0,1.191-.005,2.155.015-1.537,0,.3.012.466,0,.246,0,.39,0,.476,0,.026,0,.043,0,.055s.013,0,.014,0,0,0,.012,0,.05,0,.165,0c.164,0,.556-.007.582-.011.53.01-.77.025-.62.038h1.5l-.01-.005h.283l-.062.006h1.471a2.4,2.4,0,0,0-.642-.053c.074-.009.932.009,1.363.01.625.007,1.1,0,1.552,0l.672-.006h.442c.039,0,.082,0,.119,0l-.233,0-.4,0h.572c.035,0,.085-.012.069.041,0,.111,0,.229,0,.348,0,.433.007.873.008,1-.005.039-.028-.792-.034-.317,0,1.869.028,3.641.046,3.525l-.019-2.865c.014-.1.015,2.034.032,1.916l0,2.638c0-.333-.006-1.351-.013-.951,0,1.133,0,.587-.008,1.344-.013-.7-.032-1.713-.05-2.637v2.079c.018.752.038,1.328.047,1.577,0,1.02-.035.663-.041.42,0,.251,0,.469,0,.665,0,.1,0,.189,0,.276a.936.936,0,0,0,.012.223l.8-.018.811-.018.526-.006.314,0h.182c.03,0,.065,0,.095,0a.112.112,0,0,1,.03.054v0a1.676,1.676,0,0,1,.007.228v.361c0,.135,0,.265,0,.381-.043.027-.155.008-.188.015h-.12c-.144,0-.217,0-.171,0-.372-.007-.714-.024-.4-.032l-1.708.037c.263,0,.091-.031.2-.036-.719,0-1.225.037-.77.039l-2.195-.023c-.415,0,.038.029.342.031-.938.012-1.489.011-1.934.009,1.081-.013.86-.04.727-.062l-1.01,0-2.336.069a3.543,3.543,0,0,0,.358-.038c-.279.027-4.1.047-5.97.051h.281c.378-.011-1.23-.012-1.887,0,.111-.006.263-.005.544-.007-1.249-.016-1.62.049-2.893.03a9.528,9.528,0,0,0,1.321-.026l-1.865.015-.219,0h-.127c-.041,0-.108.019-.089-.042,0-.137,0-.254-.006-.343,0-.156-.011-.206-.019-.092,0-.162,0-.32,0-.464v-.114c.006-.006.023,0,.034,0h.32a1.2,1.2,0,0,1,.3.013l1.161-.015.581-.008.276,0h.049v-.107a.642.642,0,0,0,0,.077c0,.013,0,.022,0,.016a.454.454,0,0,0,0-.084c0-.08,0-.2,0-.367v.45c0,.01,0,.026,0,.03h-.123l-.236,0-.9.011-.779.007-.659-.005c-.014.011.148.018.182.026s.022.007-.02.011l-.106.007a.2.2,0,0,0-.037,0c0,.015,0,.03,0,.047l0,.108v-.15c0-.005.018,0,.027,0h.059l.227,0,.433,0,.8-.01.726-.011.337-.006h.064c.009,0,.024,0,.028,0v-.032l0-.142c-.015-.855-.029-1.6-.043-2.388l.015-2.213-.01-.093.026-.385c-.006-.277-.012-.453-.009-.51s.006.019.01.128c0-.232-.005-.443-.007-.555a4.2,4.2,0,0,1,.044.722c0,.2-.009.4-.014.609.008.261.016.477.023.476v-.838c0-.079-.006-.161-.009-.247,0-.064,0-.129,0-.191,0,.077,0,.149,0,.223v-.375c0,.05,0,.1,0,.152-.017-1.06-.039-2.27-.056-1.323l.015-1.289c-.007-.38-.012-.648-.015-.866,0-.038,0-.076,0-.112v-.055c0-.02,0-.038.022-.031l.2,0,.265,0,1.67-.019c.1.009-.39.018-.058.024,1.343-.032,3.279.035,3.571.007.543,0,.656-.01.719-.016l.106-.009.236-.008c-.005,0-.015,0-.011.006s.037.019.027-.039l-.018-.787c.008-.331.012.754.023-.17,0-.79-.008-1.417-.012-2.01v-.883c0-.149,0-.3,0-.454q0-.1,0-.194v-.048c0-.006,0-.02,0-.02l-.022.009-.37.164c-.1.045-.15.069-.167.078-.033.019.07-.02.181-.063.221-.086.476-.187-.253.126-.221.077-.417.139-1.328.53-.475.219-.406.2-1.219.563l.041-.047-.963.417a2.712,2.712,0,0,1-.408.159c-.614.277-1.042.459-1.367.593-1.142.507.867-.311,1.139-.418-1.137.467-1.912.814-2.568,1.06l1-.436a23.132,23.132,0,0,1-3.046,1.218c.769-.234,1.631-.649,1.2-.474-.351.155-.712.294-1.076.421-.13.038.623-.221.119-.055a12.674,12.674,0,0,1-1.248.382l.015-.005a7.21,7.21,0,0,1-1.75.178c-.025,0-.1-.01-.246-.018a4.618,4.618,0,0,1-1.357-.288c.409.13-.02.015-.562-.3a4.971,4.971,0,0,1-.8-.6c-.176-.164-.293-.283-.4-.4a4.2,4.2,0,0,1-.7-1.049c.1.178.11.207.217.382a6.943,6.943,0,0,1-.323-.634,16.525,16.525,0,0,1-.816-1.984c-.366-.966-.7-1.946-.754-2.008-.284-.961-.022-.065.443,1.133q-.171-.5-.333-1.011c.141.408.256.752.42,1.184-.456-1.319-.877-2.565-1.086-3.3-.065-.26-.025-.161-.02-.182s-.03-.158-.2-.9c-.114-.527-.148-.77-.167-.851s-.012,0,0,.1c.021.21.059.528-.045-.115-.021-.156-.034-.313-.042-.471s-.026-.314-.021-.473a5.228,5.228,0,0,1,.076-1.395l.011-.056a6.341,6.341,0,0,1,.8-2.723c.148-.283.232-.415.268-.484a9.361,9.361,0,0,1,1.44-1.754,8.6,8.6,0,0,1,.815-.688l.138-.1.015-.011s-.007-.009-.01-.014l-.085-.1-.134-.171c.166.205-.378-.522-.434-.648a10.583,10.583,0,0,1-.66-1.089c.077.126.107.145.156.218a11.977,11.977,0,0,1-.6-1.221c.11.24.221.481.1.169a11.165,11.165,0,0,1-.677-2.015c.023.123.076.363.13.561a10.178,10.178,0,0,1-.368-2.417c.007.068.035.328.049.393a5.929,5.929,0,0,0,.2,1.318c-.072-.359-.1-.565-.117-.677s-.012-.134-.012-.134.022.1-.012-.25c-.092-1.028-.065-1.457-.1-1.185a8.827,8.827,0,0,1,.127-1.357,7.15,7.15,0,0,1,.346-1.344l-.049.226a4.6,4.6,0,0,1,.467-1.007,4.832,4.832,0,0,0-.372.82,5.265,5.265,0,0,1,.456-.88c.092-.147.129-.191.161-.248a1.39,1.39,0,0,1,.214-.268,3.581,3.581,0,0,1,.921-.666l.018.021.284-.14c.089-.039.175-.066.253-.1a3.016,3.016,0,0,1,.436-.137,2.435,2.435,0,0,1,.41-.08,2.817,2.817,0,0,1,.471-.031c.44-.026.064-.025-.166-.017-.115,0-.192.01-.111,0a6.352,6.352,0,0,1,.842-.027c.183.018.47.045.782.1s.647.13.933.21c.319.086.2.041-.049-.034-.111-.034-.249-.068-.387-.1.183.039.355.081.5.122.131.037.249.075.355.112.051.018.118.044.116.041l.127,0c.364.007.592.018.809.029.435.02.828.039,2.2.019a5.519,5.519,0,0,0-1.437-.053c1.06-.018,2.086.039,3.191.008l-.72.037c.4,0,.845-.013,1.061-.018l-.09.028c1.365-.05,2.54.023,3.351-.043a13.463,13.463,0,0,0,1.56.016c-1.123.038-3.221,0-3.37.049.523.014.991-.009,1.5,0-.353.007-.867.02-1,.03,1.727.027,2.71-.029,3.758-.043l-1.849.012c.149-.048.832-.008,1.351-.047.925.026,1.649-.013,2.4,0l-.415,0c.5,0,.917,0,1.266.011l.232.006c.026.007.038-.013.062-.025l.094-.061.337-.218c.415-.265.706-.443,1.036-.672a11.342,11.342,0,0,0,1.4-1.029c.521-.38-2.187,1.545-1.279.832.986-.6,1.925-1.378,4.011-2.771-.885.651.554-.334-.238.244.977-.689,1.007-.724,1.431-1.046l.309-.187c1.249-.937.274-.249,2.2-1.626-.639.469.8-.514.313-.154.538-.374,1.058-.746,1.443-1.032l-.069.053,1.107-.773c.318-.182.779-.682.626-.112l-.038.871c-.009.3-.02.684-.037,1.23l.023-.216c-.02.714-.042,1.474-.064,2.259-.013.393-.027.792-.041,1.194l0,.1c.006.017-.016.056.013.056l.2.047.592.144,4.613,1.116-.925-.238c.206.052.632.15,1.113.264l.983.237.348.087.168.042C-126.55-924.191-126.449-924.187-126.538-924.144ZM-156-886.58c-.006.4-.009.753,0,.981C-156-885.964-156-886.291-156-886.58Zm-4.234-29.455c-.005.015-.031-.292-.035-.116a7.674,7.674,0,0,0,.082,1.3c-.026-.351-.038-.7-.053-1.055.011-.037.035.749.05.705.015.323.023.647.047.971-.011-.122-.035-.5-.035-.349.025.417.011.216.023.494-.036-.281-.076-.7-.108-1.064.011.28.026.565.044.852.036.28.073.5.088.588.031.375-.012.246-.027.158.066.738.115.723.206,1.462-.011-.093-.024-.185-.031-.278.024.174.114.807.109.738.012.147.019.284-.017.123l.147.644c-.02-.095-.036-.027-.048-.067.045.262.122.436.09.272.091.51.065.384.143.8.039.148.026-.021,0-.13.092.333.135.531.175.69-.107-.382-.114-.3-.124-.245.032.125.065.249.1.372l.081.221c.069.194.141.386.224.574a.539.539,0,0,0-.077-.114c.034.043.144.4.317.821s.379.9.53,1.206l-.048-.092a5.52,5.52,0,0,0,.315.619,1.583,1.583,0,0,1-.1-.175,2.5,2.5,0,0,0,.272.453c.09.121.163.253.291.448-.235-.352-.274-.427-.277-.4l.171.275.209.295c.13.182.226.309.191.23a2.255,2.255,0,0,1,.236.328,7.393,7.393,0,0,0,.581.622c-.046-.043-.091-.076.079.106l-.473-.49c-.134-.158-.248-.3-.319-.4-.025,0,.08.15-.079-.017a7.621,7.621,0,0,0,1.44,1.4l.319.249.16.125c.025.019.034.029.05.039l.061-.027.027-.025.138-.037c.09-.049.146-.082.166-.089s0,.008-.039.029l.182-.094c.035,0-.088.075-.222.155l-.209.083c-.07.039-.12.083-.139.054,0,0,0,0-.005,0l.026.02a.018.018,0,0,0,.008,0c.068-.03.139-.064.207-.095l.112-.066.066-.026-.153.081.344-.157-.191.076c.347-.184.74-.4.417-.261l.436-.191.981-.52c.011,0,0,.01-.009.019s-.018.018.017,0l.087-.051c0-.019-.051-.041-.071-.062l-.3-.235c-.2-.165-.332-.324-.385-.346-.3-.27-.147-.091-.326-.276.01.007.031.021-.019-.035l-.219-.215c-.077-.1.2.2-.025-.062a6.592,6.592,0,0,1-.836-1.155c-.353-.6.106.286-.178-.234a2.279,2.279,0,0,0-.214-.491,4.329,4.329,0,0,1-.238-.441l.034.008a2,2,0,0,1-.2-.516,4.768,4.768,0,0,1-.2-.516c-.079-.218-.066-.133-.03.022s.112.371.125.424a7.805,7.805,0,0,1-.3-.991l.132.382c-.12-.415-.187-.607-.229-.747a1.821,1.821,0,0,1-.1-.424c.076.285.185.622.154.45l-.127-.407c-.006-.05.07.234.026.043-.042-.115-.109-.355-.144-.459l0,.005q-.079-.321-.144-.646c.009.031.01.016-.006-.073l-.11-.494c.032.152.015-.007-.016-.231-.1-.642-.144-.505-.183-1.009.011.072.012.085.023.158l-.021-.259a3.807,3.807,0,0,1-.119-.784,4.186,4.186,0,0,0-.1-.788c0-.368.01-.028.081.444l-.012-.393c.014.158.021.293.041.463,0-.129-.011-.256-.02-.378s-.022-.259-.032-.382c0-.044-.008-.088-.011-.131s-.026-.1.034-.089l.237-.024.252-.032c.1,0,.061.013.068.022s.019.008.068.007l.1-.005.21-.016.108-.008.049,0c.018,0,.032,0,.028.016l.013.143c.007.076.014.134.018.145s.012.019.013-.055c0-.138,0-.346.031.06l-.01.345c.074.6.092,1.051.155,1.557.018.114.029.169.036.2.055.54.213,1.115.282,1.515-.028-.092.024.232.029.282.064.237.12.476.2.708-.1-.31-.108-.293-.143-.346.051.224.1.324.141.474-.033-.09-.065-.181-.043-.061.077.246.158.49.253.73-.01-.045-.036-.129-.058-.2l.284.836c-.016-.02-.058-.106-.074-.125a2.359,2.359,0,0,0-.169-.453c.169.505.032.13.1.376.135.351.217.484.2.385a4.747,4.747,0,0,0,.185.455,4.046,4.046,0,0,0,.226.442l-.066-.058.2.345-.185-.266c.171.341.2.366.232.4a2.868,2.868,0,0,1,.291.435l-.021.017c.177.274.3.319.421.542.2.237-.3-.446.158.129.078.1.259.314.4.47.094.071.065.037,0-.029-.043-.053-.1-.123-.154-.178.072.076.134.145.191.2l.176.161c.094.091.149.153.2.212a2.745,2.745,0,0,0,.649.459c-.145-.1-.075-.072-.058-.075s-.019-.033-.348-.254c.165.1.3.215.474.317a.794.794,0,0,1,.07.048c.019.005.025,0,.056-.015.091-.039.183-.081.274-.13l-.23.14c.135-.058.282-.137.354-.173l-.019.039c.444-.249.876-.342,1.131-.515-.176.124.351-.139.545-.193-.376.18-1.11.437-1.142.5.185-.06.336-.148.514-.205-.118.055-.289.14-.332.168.6-.217.921-.4,1.28-.543-.214.08-.424.169-.635.254.034-.065.284-.119.45-.224.331-.092.569-.222.838-.3-.07.024-.073.029-.143.055a11.1,11.1,0,0,1,1.209-.325c.278-.086.8-.274.6-.235.223-.088-.939.315-.553.124.428-.06.826-.3,1.734-.5-.383.138.241-.024-.1.095a5.373,5.373,0,0,0,.621-.214l.135-.011a5.725,5.725,0,0,1,.959-.326c-.28.09.349-.052.136.02.236-.056.465-.115.634-.17l-.031.011c.862-.2.713-.131,1.5-.316h-.082c.514-.125,1.1-.232,1.7-.328l.447-.067.223-.032.062-.009c.012-.007.04.005.04-.017q.054-.173.107-.339c.044-.135.082-.268.114-.4-.028.091-.06.182-.091.272.061-.2.169-.667.255-.937-.015.066-.033.181-.053.241a.944.944,0,0,0,.142-.378l0-.1.045-.1c.088-.387-.06.106.023-.282a4.659,4.659,0,0,0,.227-.959c.076-.435.138-.887.193-1.053-.019-.275-.109.745-.122.444a3.658,3.658,0,0,0,.083-.426l-.045.084a23.25,23.25,0,0,0,.269-2.721l.006.044a3.293,3.293,0,0,0,0-.759c.018-.079.022.2.039.048-.076-.674.075-1.346,0-1.757.034.024.062-.142.089-.3-.008-.3-.019-.585-.032-.861v-.011a3.665,3.665,0,0,0-.893-2.219l-.01-.011.006.006-.009-.01,0,0-.014-.015a3.7,3.7,0,0,0-1.05-.825l-.01-.005a3.656,3.656,0,0,0-.631-.257l-.009,0a3.688,3.688,0,0,0-1.057-.154h-8.009c-.081,0-.137,0-.146,0-.1,0,.011,0,.024,0h-.043l-.358,0c-.011,0-.01,0,0,0h-2.792c-.042,0-.193,0-.3.005l-1.865-.005h-2.765a.807.807,0,0,0-.176.016c.3,0,.9-.013.989,0-.3,0-.814.008-.841.015-.309-.013.564,0,.158-.015l-.4.007c.14-.005-.188-.009-.251-.012l-.882,0c-.064.005-.149-.013-.193.011-.009.069-.019.14-.029.213-.019.149-.038.309-.06.489l0,.023c-.016.14-.032.289-.048.451-.016.245-.022.441-.008.353-.036.416-.043.438-.066.792.055-.565-.011.111,0,.172a1.858,1.858,0,0,1-.03.293c0,.061,0,.205,0,.215-.02.195-.01-.284-.025-.231-.011.179-.021.365-.03.555l.006,0,0,.1,0-.023c-.008.177-.016.357-.022.543.02,0,.047-.08.063-.235.007.028-.022.343-.026.5-.027.461,0,.7-.006,1.087l-.008-.293C-160.253-916.69-160.242-916.124-160.235-916.035Zm21.856-6.715a.663.663,0,0,0-.152,0A1.416,1.416,0,0,0-138.379-922.75Zm-17.942,13.8a3.73,3.73,0,0,0,.137.4A1.882,1.882,0,0,0-156.321-908.955Zm.679,5.889c.1.083.2.159.283.218C-155.467-902.937-155.573-903.02-155.642-903.065Zm-5.333-8.758c-.008-.025-.008-.007-.025-.027-.009.009,0,.039,0,.042-.015.02-.02.018-.027.019a.106.106,0,0,0,.007-.078l-.027.018c-.015.034-.025.064-.038.1a.131.131,0,0,0-.01-.038c.006.027-.1.1-.157.138l.008-.006c.005-.015-.045.01-.058.03,0-.007.005-.008.014-.014-.047.006-.023.067-.073.071.035-.02.035-.034.027-.042-.022.027-.091.06-.059.08-.021.006-.034.02-.042,0l-.055.063c0-.007,0-.018-.019-.007.04-.022.058-.073.091-.068-.011-.018-.031-.018-.023-.045a.5.5,0,0,0-.117.166l-.072.03,0,.01-.025-.014c0,.01-.007.018-.01.017s0-.005,0-.011a.055.055,0,0,0-.012.016c-.01-.01-.007-.031,0-.05h.026a.031.031,0,0,0,0-.026l-.022.014,0,.012h-.008l0-.007-.011.007h.007c-.022.034-.045.076-.007.072l-.046.012a.455.455,0,0,1-.066.095c-.008-.006,0-.022-.012-.022-.021.052-.114.034-.107.062-.027.027,0,.029-.015.049,0,0,0-.01-.008-.006l-.012.033c-.014,0,.014-.027-.018-.016a.257.257,0,0,1-.1.089c-.051.041.046.019,0,.047a.052.052,0,0,0-.063-.006c-.008.02,0,.03-.02.054l-.013-.024c-.023.017-.039.034-.05.017a.061.061,0,0,1-.04.034c-.027.037.057.029.071.032-.046.007-.064.034-.1.02l.027-.028c-.085.017-.041.077-.1.048.024-.014.043-.045.021-.049l-.025.035c-.008,0,.016-.017,0-.014a.314.314,0,0,0-.02.05v0l-.057.045c.012-.007.009-.018,0-.011l-.03.039c.008-.015-.009-.014-.03-.006-.055.026,0,.083-.058.085.006,0,0-.007.011-.011l-.027,0a.033.033,0,0,1,0,.038.125.125,0,0,1-.016.017l0,0c-.006,0-.012.01.021.026-.028-.013-.02-.005-.035-.029l-.026-.005s.011,0,.011-.011c-.042-.006-.028.025-.007.032-.016,0-.059-.018-.063,0s.076.005.078.014a.27.27,0,0,0-.052,0c.052.01.024.018.034.034a.022.022,0,0,0,.014,0c-.012.011.081.023.1.054-.012,0,0,.031,0,.041l.068.027c-.03-.012-.043.005-.061.017.018.012.034.01.047.017-.012,0-.024,0-.022.015l.079.019a.039.039,0,0,0-.011-.017c.014.011.053.025.061.055-.007.005-.019.005-.027.011,0-.032-.024-.024-.043-.019.04.029.005.012.014.039a.038.038,0,0,0,.063-.011c.025.032.031.044.077.052l-.026.018.035.016-.047.01c.042.061.043-.031.095.031l-.017.021c.03.011.068-.019.066.022.034.005-.015-.061.043-.023a.129.129,0,0,0,.027.06c.026,0,.007-.036-.006-.042.091.054-.008.114.089.142-.013-.035.055-.027-.006-.072.039.008.032.075.081.073l-.042.014a.07.07,0,0,0,.039.008l-.02.021c.068-.011.056.07.118.035-.047.03.03.018.033.045-.053.006-.089-.066-.122-.031.006.022.033.013.038.035a.11.11,0,0,0-.046,0c.031.057.092.033.129.044l-.058-.029c.033-.035.028.01.065-.01.01.04.053.024.064.052-.005,0-.009,0-.014,0,.057.038.025.115.047.132s.076.029.073,0c.026,0-.084-.041-.014-.071-.012.084.083.024.124.114-.046,0-.006.047-.046.045a.074.074,0,0,0,.073,0l0,.027c.075-.014.038-.032.122-.012-.034,0,.007.047-.02.05a.083.083,0,0,0,.062.017h0c.076.034.039.063.118.08l0-.017a1.939,1.939,0,0,1,.293.14l-.024-.029c.005.012.071.013.086.05-.006,0-.019,0-.023-.006a.051.051,0,0,0,.007.06l.022-.019,0,.023c.032.019.011-.039.043-.02-.022.078.133.088.126.164.051-.038-.057-.042-.007-.073a.071.071,0,0,0,.023.041l.01-.034c.088.071.111.119.2.159l-.007,0c.025.029.045.032.074.012,0,.018-.028.014-.023.034.1-.051.079.118.144.079a.2.2,0,0,0-.021.1l.071.038c-.021-.073-.04-.15-.061-.225l-.006-.021,0,.013-.019-.069h0q-.116-.422-.217-.863a.029.029,0,0,1-.007-.012.147.147,0,0,0-.02-.069c0-.011.005,0,.005,0l-.011-.036s0,0,.007.006c-.005-.025-.011-.049-.017-.074v0l0-.02,0,0c-.013-.06-.028-.118-.041-.178a.14.14,0,0,1-.011-.022c-.01-.077-.044-.213-.041-.242a.176.176,0,0,0,.009.041c-.009-.044-.018-.09-.026-.135l0-.007a.035.035,0,0,1,0-.019l-.011-.057c-.008-.014-.017-.023-.023-.022.01.027.029.08.02.091-.01-.027-.022-.074-.03-.075.007-.031.014.051.017.012a.117.117,0,0,0-.014-.035c.008.012.005-.019.007-.026-.012-.063-.013-.1-.024-.167l0,0c0-.013-.005-.024-.007-.037s-.028-.041-.033-.032a.667.667,0,0,0-.012-.074c0,.055,0-.011-.015-.014-.008-.033,0-.013.005-.029s-.01-.018-.014-.018c.007-.02.03.021.041.011s-.005-.033-.008-.048h-.007l0-.009.008,0c0-.016,0-.032-.008-.048a.063.063,0,0,0-.051.028c-.01,0,0-.033,0-.048.007-.045-.023-.063-.024-.1l.014.026a.168.168,0,0,0-.019-.065c.005,0,.032.022.036.005-.008-.064-.049-.12-.065-.114l.035.1c-.013.006-.026-.067-.042-.061l-.011-.091c0,.011.013.046.018.031-.008-.039,0-.021,0-.047a1.146,1.146,0,0,0,.069.094l-.012-.073a.511.511,0,0,0-.06-.056c0-.035.031-.028.038-.02-.009-.07-.056-.064-.057-.1l0,.02c0-.007,0-.046-.008-.037.007-.016.022-.052.028-.046a.035.035,0,0,0-.031,0s.023-.045.027-.049C-160.948-911.89-160.975-911.837-160.975-911.823Zm-1.295.893c-.019,0-.033,0-.03.027C-162.286-910.9-162.276-910.921-162.269-910.931Zm.093-1.34a.326.326,0,0,0-.089.054A.637.637,0,0,0-162.177-912.271Zm-2.2-.174-.038-.072a1.807,1.807,0,0,0,.122.177c.017.04.023.084-.009.048l.136.137c-.019-.021-.03.01-.041,0,.043.064.1.088.077.046.07.133.06.1.114.206.028.034.021-.021,0-.049a1.3,1.3,0,0,1,.127.162c-.077-.086-.085-.051-.094-.026l.061.08c.069.055.137.11.209.161a.112.112,0,0,0-.053-.006.947.947,0,0,1,.172.167c.027.049.05.008.1-.021l.15-.1-.025.017c-.028.03.119-.058.172-.105-.007.011-.021.019-.046.035.123-.056.121-.132.248-.186-.1.066-.118.089-.107.095.079-.064.28-.185.22-.186.058-.03.1-.066.109-.049l.195-.155c-.014.013-.021.031.041-.008a2.336,2.336,0,0,1-.286.2c.008.019.058,0,.013.052a3.976,3.976,0,0,0,.448-.384l.206-.118,0-.014h.049c.022-.022.034-.036.041-.038s0,.006-.006.016a.4.4,0,0,0,.046-.038c.015.007-.011.043-.04.079l-.062.024c-.019.022-.032.04-.028.045l.073-.048.018-.022.02-.007-.018.016.034-.022-.015.006c.085-.077.181-.166.087-.125l.123-.063c.12-.112.1-.092.252-.218.014,0-.025.038.008.024.1-.106.312-.164.323-.2.086-.065.042-.058.068-.083,0,0,0,.009.012,0s.008-.023,0-.037c.006-.015.018.04.023,0a2.088,2.088,0,0,1-.052-.39c-.024-.2-.034.09-.046-.08a.215.215,0,0,0,.026-.156.556.556,0,0,1-.047-.141l.027,0c-.009-.088-.021-.157,0-.16a.556.556,0,0,1-.02-.159c-.026-.132-.047.1-.054.134a1.159,1.159,0,0,1,.018-.3l.015.116c.019-.251-.055-.233,0-.352,0,.085.024.186.037.135l-.022-.122c.007-.015.009.07.015.013-.008-.035-.027-.106-.039-.137l0,0-.018-.222c0,.042.012.052.011.009l-.022-.145c.009.045.016,0,.018-.067,0-.188-.073-.148-.049-.295,0,.019,0,.026,0,.046l.01-.076c-.067-.014-.019-.442-.086-.457.023-.107.016-.008.05.129l.016-.114c0,.046,0,.085.007.134a.923.923,0,0,0-.034-.37c.008-.057.05.044.037-.118-.015-.23-.049.044-.058-.094l.034-.1a2.052,2.052,0,0,1,0-.456.2.2,0,0,0-.01-.058c.016-.158-.034-.332-.022-.451.007.028.024-.068.034-.082l-.019-.216c.008.1.03.092.05.11,0-.067-.012-.1-.014-.145.007.028.014.057.024.021l-.031-.227a.349.349,0,0,0-.007.061,1.154,1.154,0,0,1,.011-.259c.008.007.015.035.023.043a.16.16,0,0,0,.008.142c0-.156.007-.039.025-.113,0-.11-.025-.156-.044-.128a.912.912,0,0,0,0-.291l.03.026,0-.117.033.1c.031-.222-.051-.043-.022-.29h.027c-.005-.1-.05-.131-.014-.2-.012-.093-.046.156-.042-.062a.974.974,0,0,0,.041-.181c-.007-.059-.027.016-.033.068.012-.29.1-.18.088-.465-.027.1-.05-.088-.064.15-.011-.115.056-.22.033-.341l.031.08a.57.57,0,0,0-.009-.115l.027.012c-.04-.15.044-.269-.014-.362.047.065.006-.109.031-.165.027.123-.03.344.016.364.019-.054,0-.106.019-.159a.462.462,0,0,0,.02.109,1.141,1.141,0,0,0-.007-.4l-.006.2c-.046-.02,0-.09-.034-.149.034-.1,0-.177.028-.256,0,.021,0,.023,0,.044.018-.215.1-.267.116-.352s.005-.245-.022-.19c-.007-.07-.015.287-.066.157.087-.115,0-.256.08-.517.013.121.05-.063.058.044a.4.4,0,0,0-.016-.193l.029-.035c-.016-.088-.027-.1-.034-.108a.235.235,0,0,1-.018-.08c.008.013.019,0,.03-.023s-.011-.026.021-.028a.268.268,0,0,0-.125-.014l.007,0a2.623,2.623,0,0,0-.413-.1l.019.019c-.3-.021-.672-.1-.981-.094l.107.02c-.033-.011-.207.011-.3-.012a.416.416,0,0,1,.07-.005c0-.018-.039-.045-.113-.05l-.028.027-.03-.022c-.112,0,.033.037-.079.04-.068-.081-.481.016-.585-.031-.068.066.212-.021.135.044a.319.319,0,0,0-.124-.008l.03.029c-.166.021-.284.026-.393.051a1.337,1.337,0,0,0-.353.1l.008-.011a.244.244,0,0,0-.184.106c-.027-.005.038-.047-.005-.042-.127.157-.361.127-.425.245-.014-.034-.07-.029-.125-.025-.065.05-.13.1-.191.16a4.954,4.954,0,0,0-1.061,3.321v.044c0,.049,0,.1,0,.148v.017c0,.053,0,.107,0,.161a.269.269,0,0,0,.005.048c0,.03,0,0,0-.006v.011l.005.1s0,0,0,0c.01.261.033.531.067.806,0,.011.01.054.015.084.022.2.083.533.11.682.039.186.089.4.153.625.014.03.026.051.03.05a1.48,1.48,0,0,1-.077-.275,1.773,1.773,0,0,0,.077.23c.012.089-.048-.156-.026-.04a1.057,1.057,0,0,0,.037.109c-.016-.038.005.055.008.073.057.188.086.3.154.5v.006l.044.121c.033.064.065.115.061.089.043.112.038.122.082.215-.05-.156.01.031.031.041.042.1.007.037.023.083a.262.262,0,0,0,.033.053c.013.056-.054-.066-.06-.046.021.049.041.1.062.148l0,0,.013.027-.008,0c.02.047.042.094.064.141.018-.008.031-.037.021-.082a.9.9,0,0,1,.051.136,2.433,2.433,0,0,0,.144.279l-.045-.072a1.5,1.5,0,0,0,.1.182c0,.006-.062-.063-.046-.015a.855.855,0,0,0,.217.309l-.161-.259c.007-.016.116.183.125.164.043.083.087.165.135.245-.019-.03-.078-.121-.063-.081a.657.657,0,0,1,.065.128l-.19-.233q.056.1.116.206c.057.06.107.1.126.122.052.1.006.079-.012.06C-164.528-912.6-164.487-912.629-164.374-912.445Zm3.1-1.793a.3.3,0,0,0,.013.122C-161.255-914.173-161.244-914.2-161.271-914.238Zm-4.025,13.91a1.283,1.283,0,0,1,.3.035A.74.74,0,0,0-165.3-900.328Zm1.819,6.554c-.045-.054-.19-.176-.257-.244A.939.939,0,0,0-163.476-893.774Zm8.285.077c-.485.2-.738.3-1.051.458C-156.031-893.317-155.473-893.572-155.192-893.7Zm19.342-5.366c-.04-.016-.078-.034-.119-.049l-.106-.036c-.074-.024-.149-.047-.225-.068l.42.142C-135.869-899.072-135.86-899.067-135.849-899.064Zm.558.259-.045-.025-.034-.017-.21-.107-.05-.02c.055.028.11.057.163.082Zm-.228-.119.15.077c-.058-.031-.118-.062-.178-.091Zm.314.167h0l0,0Zm-4.118-8.22-.08.011-.059.008c-.138.019-.278.041-.418.062l-.018,0-.022,0q-.253.039-.509.081c-.067.013-.114.022-.122.025-.088.014.01,0,.02-.008l-.026,0-.315.057c-.008,0-.008,0,0,0q-.292.052-.589.109l-.055.011c-.141.027-.285.058-.428.087l.047-.009-.114.022c-.4.083-.808.17-1.218.265-.033.01-.162.041-.248.063-.559.123-1.484.372-1.945.5-.639.177-1.276.367-1.9.568a.6.6,0,0,0-.14.062c.243-.086.734-.246.813-.258-.245.078-.669.215-.688.23-.258.07.462-.154.125-.056l-.324.112c.113-.042-.157.042-.21.055-.556.186-.878.29-1.469.5l-.019.006-.368.138c-.194.082-.347.153-.274.132-.335.134-.355.133-.638.252.459-.169-.091.032-.132.069a1.311,1.311,0,0,1-.238.088c-.047.022-.161.074-.167.082-.16.056.216-.117.168-.111q-.223.094-.441.189l.005,0-.083.036.016-.014c-.144.064-.287.127-.428.191.01.017.081.009.208-.036-.019.016-.274.114-.4.172-.368.153-.541.276-.84.417l.222-.12c-.05.021-.485.243-.551.283-.014,0,.214-.137.075-.076a10.313,10.313,0,0,0-.991.534c.275-.131.543-.276.814-.416.035,0-.574.3-.534.3l-.765.352c.1-.045.389-.186.27-.14-.327.153-.171.077-.392.173.207-.107.506-.267.771-.412-.212.1-.421.2-.63.292-.21.117-.37.21-.44.247-.3.125-.209.051-.14.015-.587.252-.563.289-1.165.522l.228-.082-.6.235c-.124.035-.241.054-.109,0l-.527.222c.078-.032.018-.039.049-.056-.215.078-.362.152-.221.114-.433.117-.324.094-.677.182-.126.042.02.025.114,0-.283.1-.456.135-.593.173.329-.1.256-.108.208-.119-.11.032-.218.061-.327.091-.229.083-.459.164-.692.236a.394.394,0,0,0,.1-.062,11.468,11.468,0,0,1-1.87.369l.089-.013c.059-.014-.038,0-.177.013s-.32.026-.424.04a1.443,1.443,0,0,1,.173-.019,8.533,8.533,0,0,1-.924.068c.37-.007.442-.021.423-.032l-.6.023c-.195,0-.333,0-.261.016a1.417,1.417,0,0,1-.352-.034c-.247-.025-.5-.028-.743-.072.055.007.1.005-.11-.038a3.744,3.744,0,0,0,.591.077l.445.04c.012-.021-.144-.038.056-.048-.2,0-.378-.017-.539-.031s-.308-.019-.443-.043l-.388-.053-.368-.082c-.117-.035-.226-.074-.329-.094a.882.882,0,0,0-.325,0l-.024.018a.707.707,0,0,0-.117.013,1.38,1.38,0,0,0-.131.081c-.014.006,0-.008.028-.029a.669.669,0,0,0-.131.1c-.029.008.046-.088.157-.162a.919.919,0,0,1,.183-.056.824.824,0,0,0,.142-.05.91.91,0,0,0-.233.054c-.018.008-.036.019-.054.029l.038-.022c-.016.007-.029.018-.045.025l.007,0-.038.023a.118.118,0,0,0-.02.009c-.016.009-.032.017-.048.027-.285.2-.371.562-.236.311a.823.823,0,0,0-.132.358.979.979,0,0,0,.1.417l.2.494c0,.033-.059-.111-.03-.01.176.392.323.993.381,1.072a3.478,3.478,0,0,0,.155.331c-.007-.009-.019-.026,0,.034l.108.238c.029.1-.1-.221,0,.059.188.467.3.741.436,1.138.224.55-.055-.249.126.216a1.26,1.26,0,0,0,.145.426c.083.142.084.117.226.355l-.032,0a3.792,3.792,0,0,1,.239.4l.3.358c.273.272-.154-.244-.187-.33a5.138,5.138,0,0,0,.554.644,2.861,2.861,0,0,1-.252-.219,2,2,0,0,0,.5.412,1.961,1.961,0,0,1,.3.2c-.22-.108-.465-.275-.356-.177a3.179,3.179,0,0,0,.315.171c.034.027-.182-.093-.042-.007a2.318,2.318,0,0,0,.379.138h-.005a3.134,3.134,0,0,0,.621.163c-.12-.02-.152-.018-.031.006a4.022,4.022,0,0,0,.422.037c-.129-.007,0,.022.192.029a1.576,1.576,0,0,0,.477-.037,2.074,2.074,0,0,1,.383-.05l-.133.019.219-.014a4.191,4.191,0,0,1,.65-.164,2.321,2.321,0,0,0,.636-.214c.3-.075.028.013-.352.152l.326-.076-.378.112a4.766,4.766,0,0,0,1.03-.357c.16-.05-.105.1.338-.089.623-.273-.137.009.237-.159l.285-.086c.47-.232.838-.366,1.245-.536a1.679,1.679,0,0,0,.155-.078c.437-.172.889-.424,1.219-.554-.073.04.195-.059.237-.068l.577-.275c-.256.121-.236.136-.275.176.183-.081.264-.129.388-.186-.073.04-.147.08-.046.048l.6-.3c-.038.012-.109.043-.168.068.153-.068.48-.228.707-.308-.016.017-.088.057-.1.073a1.324,1.324,0,0,0-.379.181c.422-.191.108-.042.318-.117.3-.132.409-.213.324-.2a8.223,8.223,0,0,0,.787-.354l-.053.057.313-.147-.243.146c.618-.246.091-.1.775-.375l.013.024a2.99,2.99,0,0,1,.544-.259c.247-.124-.448.151.145-.11.111-.031.341-.118.515-.185s-.079,0-.223.063c.825-.357.558-.133,1.333-.491-.284.095.21-.146-.444.125.306-.146.631-.214.947-.376l-.2.12c.118-.048.245-.113.308-.142l-.016.037c.386-.208.763-.276.981-.429-.149.114.3-.121.472-.161-.323.159-.961.367-.987.43.16-.049.291-.123.447-.168-.1.047-.251.118-.287.142a11.526,11.526,0,0,0,1.106-.464l-.549.218c.027-.063.245-.1.387-.195.286-.08.489-.195.722-.26l-.123.049a9.132,9.132,0,0,1,1.044-.28c.239-.076.685-.245.514-.213.191-.079-.807.281-.478.1.372-.044.709-.267,1.493-.448-.329.126.209-.018-.085.091a3.476,3.476,0,0,0,.533-.193l.117-.008a4.562,4.562,0,0,1,.826-.294c-.242.077.3-.035.119.026.2-.045.4-.1.549-.147l-.027.009c.748-.168.62-.1,1.3-.239l-.071,0a11.8,11.8,0,0,1,3.023-.18c-.112-.018-.224-.028-.336-.036a5.374,5.374,0,0,1,.942.1c-.06-.008-.163-.018-.218-.03a.812.812,0,0,0,.343.106l.092-.012c.029.013.059.023.087.038.342.084-.092-.063.251.021.091.058.457.159.819.312a3.44,3.44,0,0,1,.507.251,1.231,1.231,0,0,1,.313.225c.113.047-.018-.059-.16-.142s-.285-.16-.156-.119c.088.065.134.083.321.218l-.047-.074c.108.077.229.165.245.179s.042.006.065,0l.1-.053c.173-.094.319-.189.466-.277a6.929,6.929,0,0,0,.9-.675l-.022.03a1.892,1.892,0,0,0,.448-.463c.06-.037-.1.138,0,.057.322-.47.766-.858.847-1.214.02.032.112-.084.188-.2a3.168,3.168,0,0,0,.176-.716,3.2,3.2,0,0,0-.684-2.331l-.015-.017h0a5.212,5.212,0,0,0-2.01-1.552C-134.843-907.313-136.871-907.309-139.323-906.977Zm6.829-12.9-.048.036,0,0-.01.007-.129.1a.227.227,0,0,0-.036.032c-.025.018,0-.005,0-.007l-.007.006-.084.066s0,0,0,0l-.649.489c-.008.009-.042.037-.064.056-.17.121-.455.342-.572.424l-.5.378c-.023.024-.039.042-.035.046a1.819,1.819,0,0,1,.228-.175,2.407,2.407,0,0,0-.186.159c-.079.044.128-.1.028-.04-.049.037-.067.057-.088.075.029-.029-.049.026-.065.034l-.422.31-.006,0-.1.078c-.053.05-.093.095-.068.084-.1.074-.106.072-.186.138.139-.089-.027.017-.033.04-.083.065-.034.017-.074.043a.272.272,0,0,0-.043.046c-.051.026.051-.07.03-.07l-.129.1,0,0-.024.019,0-.009-.124.094c.012.016.043.022.085,0,0,.012-.085.053-.122.08-.116.069-.156.133-.248.2l.062-.058a1.6,1.6,0,0,0-.162.132c-.007,0,.051-.073.006-.048-.162.119-.294.258-.274.264l.234-.2c.017,0-.165.144-.145.149l-.228.168c.028-.022.112-.092.073-.072a.645.645,0,0,1-.12.08c.058-.058.139-.144.211-.221l-.191.144c-.054.064-.092.118-.109.141-.089.063-.078.015-.061-.006-.173.128-.142.164-.317.292l.069-.043c-.039.033-.191.141-.171.134-.039.019-.084.026-.049-.007-.058.046-.033.065-.023.142,0-.028-.031-.01-.035-.022,0,.077.031.132.036.083a2.321,2.321,0,0,1-.034.236c0,.044.03,0,.033-.036a1.229,1.229,0,0,1,0,.207c-.007-.119-.036-.092-.06-.078,0,.034,0,.068,0,.1l.057.258c-.005-.013-.032-.041-.036-.039a3.336,3.336,0,0,1,.008.642v-.03c-.008-.041-.023.131-.016.2a.171.171,0,0,1,0-.059c-.027.133.037.176,0,.312.01-.123,0-.149-.013-.143.006.1-.019.336.018.289-.01.065-.009.123-.026.117l.006.251c0-.019-.012-.036-.019.037a2.7,2.7,0,0,1,.016-.349c-.021-.005-.035.047-.049-.021a4.542,4.542,0,0,0,.035.592l-.034.236.01.011-.029.039a.193.193,0,0,1,0,.055c0,.005-.005,0-.008-.015a.407.407,0,0,0,0,.06c-.015.008-.027-.035-.037-.081l.02-.064c-.006-.03-.012-.052-.019-.05,0,.027-.005.055-.008.082l.007.032-.007.02,0-.035c0,.02,0,.04-.006.06l.008-.025c.007.115.018.247.044.146l-.028.137c.01.164.008.136.009.335-.011.01-.014-.043-.024-.009.018.147-.075.346-.051.38-.007.117.019.051.018.126,0,0-.008-.012-.011.01l.01.09c-.012.034,0-.082-.025.015a2.374,2.374,0,0,1-.037.411c-.022.2.054-.08.026.089a.222.222,0,0,0-.063.147.551.551,0,0,1,.012.148l-.026-.01c-.012.088-.018.159-.038.156a.554.554,0,0,1-.022.159c-.008.135.072-.088.087-.117a1.446,1.446,0,0,1-.09.288l.012-.117c-.076.24,0,.241-.079.344.019-.084.019-.188,0-.14l-.008.125c-.01.013.008-.071-.011-.017,0,.036,0,.11,0,.143v0l-.037.221c.009-.042,0-.054-.008-.012l-.014.147c0-.046-.016,0-.035.061-.048.183.034.162-.026.3l.007-.046-.028.071c.061.03-.095.435-.034.467-.05.1-.017,0-.016-.139l-.044.107c.008-.046.022-.083.027-.133a.728.728,0,0,0-.053.206c-.005.053.007.055.012.068-.016.025-.051,0-.059.073-.006.048.014.021.031,0s.034-.042.035-.032a.947.947,0,0,0-.058.086.268.268,0,0,1,.12-.052s.033-.026.033-.03c.145-.062.271-.188.378-.237-.019.021.068-.017.085-.017l.166-.135c-.073.06-.059.076-.062.1.055-.038.075-.065.111-.092-.019.022-.038.043,0,.032l.168-.152a.349.349,0,0,0-.054.028,1.271,1.271,0,0,1,.217-.136c0,.011-.02.032-.021.043a.157.157,0,0,0-.111.087c.128-.087.035-.016.107-.044.092-.06.112-.108.078-.108a.756.756,0,0,0,.226-.177v.039l.087-.077-.053.086c.19-.116,0-.067.208-.2l.017.021c.069-.065.067-.121.146-.139.062-.068-.149.064.019-.07a.7.7,0,0,0,.157-.094c.044-.055-.06.009-.091.041.234-.224.213-.06.408-.279-.088.05.026-.1-.15.06.073-.087.193-.115.261-.215l-.033.077a.5.5,0,0,0,.073-.087l.012.027c.069-.138.207-.174.222-.282-.005.079.074-.079.129-.1-.058.11-.241.241-.219.287.049-.029.068-.081.116-.109a.5.5,0,0,0-.055.1,1.126,1.126,0,0,0,.254-.313l-.131.147c-.023-.045.057-.068.069-.134.087-.052.117-.13.179-.181-.014.016-.011.02-.026.036.139-.162.238-.154.3-.217s.144-.2.09-.167c.035-.061-.176.225-.144.09.135-.045.149-.2.345-.385-.049.11.075-.028.028.068a.4.4,0,0,0,.083-.174l.042-.016c.057-.165-.012-.058.111-.278-.031.081.084-.064.063,0a.667.667,0,0,0,.087-.169l0,.01c.128-.22.144-.155.243-.366l-.024.012c.119-.282.332-.6.448-.891l-.061.092a2.406,2.406,0,0,1,.135-.276.354.354,0,0,1-.023.068c.018.005.057-.018.091-.085l-.013-.038.031-.019c.047-.1-.049.014,0-.09.049-.014.1-.126.154-.243a.748.748,0,0,1,.146-.275c-.026-.093-.086.2-.1.1a.436.436,0,0,0,.067-.108l-.041.012a4.452,4.452,0,0,0,.294-.732l0,.014a.313.313,0,0,0,.037-.217c.023-.017.009.061.035.024-.033-.209.16-.36.127-.49.031.015.073-.026.114-.064.018-.086.035-.168.049-.244h0A8.325,8.325,0,0,0-132.493-919.88Zm-4.814-2c-.08.12-.233,0-.278.082-.006-.033-.042-.056-.077-.077l-.136.046h0c.061.44.149,1.148.224,2.042l0,.017v.008c0,.028,0,.058.007.086v.009c0,.031,0,.062.007.094a.107.107,0,0,0,.006.027c0,.017,0,0,0,0v.006l.007.06s0,0,0,0c.012.152.023.309.033.471a.439.439,0,0,1,.009.048c0,.12.019.327.019.409q.01.178.019.36c.006.019.012.032.017.031a.613.613,0,0,1-.011-.165.8.8,0,0,0,.022.14c-.01.052-.009-.094-.016-.026a.394.394,0,0,0,.01.066c-.007-.023-.007.032-.01.042,0,.105,0,.187.005.3v0c0,.025,0,.049,0,.075.01.041.022.074.028.059,0,.07,0,.074,0,.133.01-.1,0,.019.013.029,0,.045-.007.016-.009.038,0,.007.007.019.01.015-.008.037-.024-.014-.036,0s0,.057,0,.087l.005-.009v.016l-.005.005v.03l.044-.034a.432.432,0,0,0,.011-.078c.006-.016.013,0,.027-.007.03,0,.07-.068.118-.1l-.034.037a.545.545,0,0,0,.091-.079c.005,0-.022.052.005.039.094-.067.162-.158.146-.167l-.129.122c-.013-.007.091-.087.075-.1l.131-.1c-.016.013-.063.055-.039.046.055-.043.03-.02.071-.043-.03.037-.072.093-.108.144l.11-.082a.9.9,0,0,0,.05-.1c.052-.035.054,0,.046.017.1-.073.07-.11.171-.182l-.041.023a1.2,1.2,0,0,0,.1-.078c.025-.008.055,0,.037.016l.068-.092c-.011.013.014.028.012.036.036-.026.041-.071.016-.057a.774.774,0,0,1,.127-.056c.019-.017-.02-.023-.037-.014a.437.437,0,0,1,.094-.073c-.048.047-.021.061,0,.074l.05-.038.078-.134a.1.1,0,0,0,0,.042c0-.031.183-.177.276-.244l-.014.01c-.013.022.071-.032.1-.065,0,.009-.011.013-.024.024.074-.03.054-.095.131-.122-.058.041-.062.059-.053.065.04-.043.154-.117.111-.127.034-.017.058-.041.066-.025l.1-.1c-.006.009-.007.023.027,0-.066.045-.109.118-.156.126.011.018.042.009.022.046a1.385,1.385,0,0,0,.225-.263l.118-.07v-.012l.034.007c.01-.015.016-.026.02-.026s0,.005,0,.013a.14.14,0,0,0,.023-.026c.013.008,0,.035-.009.062l-.038.011c-.008.017-.01.027-.005.033l.037-.028.007-.016.012,0-.009.011.019-.014-.01,0c.042-.053.088-.115.031-.094l.072-.036a1.263,1.263,0,0,1,.126-.149c.011,0-.008.029.012.022.047-.076.183-.094.18-.127.049-.046.008-.036.037-.069,0,0,0,.011.011,0l.028-.047c.02-.007-.028.04.022.012a.771.771,0,0,1,.177-.157c.088-.075-.065,0,.015-.06a.093.093,0,0,0,.094-.021c.019-.03.007-.038.045-.078l.014.024c.039-.032.068-.061.081-.044a.189.189,0,0,1,.069-.06c.052-.059-.079-.01-.1-.008.072-.03.106-.072.16-.072l-.049.047c.134-.06.083-.115.172-.107-.04.028-.077.076-.045.071l.047-.055c.011,0-.029.028,0,.016a.614.614,0,0,0,.045-.073v0l.1-.082c-.02.014-.018.026,0,.012l.057-.064c-.016.021.011.013.043-.006.091-.059.028-.106.113-.134-.01.007-.009.011-.019.018l.042-.016c-.031-.057.2-.161.165-.219.064-.017.013.01-.031.083l.063-.025a.51.51,0,0,0-.059.05.318.318,0,0,0,.154-.15c.032-.012.009.056.077-.01.1-.091-.049-.023.009-.079l.066-.007a.546.546,0,0,1,.042-.047.043.043,0,0,1,.016-.01c.006-.006.042-.008.032-.022a.037.037,0,0,0-.018-.01.021.021,0,0,0-.008-.017.133.133,0,0,1-.03-.027.36.36,0,0,1-.074-.089c.015.008,0-.043,0-.055l-.088-.08a.064.064,0,0,0,.078.016.516.516,0,0,0-.061-.053c.015.007.031.015.027-.006q-.053-.038-.106-.071a.108.108,0,0,0,.017.029c-.02-.023-.073-.061-.091-.1.009,0,.025,0,.034,0,.008.042.037.043.062.047-.06-.06-.01-.019-.027-.06-.043-.043-.081-.037-.083-.013a.254.254,0,0,0-.128-.093l.03-.015-.056-.032.064,0c-.084-.094-.051.027-.146-.072l.016-.022c-.047-.026-.087,0-.1-.044-.053-.012.053.075-.053.021a.289.289,0,0,0-.07-.076c-.039-.008.008.043.03.051-.161-.074-.045-.145-.209-.183.041.041-.064.028.051.084-.06-.016-.093-.086-.165-.085l.054-.017a.187.187,0,0,0-.065-.009l.016-.024c-.094.016-.129-.084-.2-.036.049-.04-.059-.014-.083-.042.077-.02.181.06.205.022-.024-.026-.058-.016-.081-.039a.211.211,0,0,0,.066,0c-.087-.068-.166-.023-.229-.031l.11.021c-.024.043-.05-.007-.092.021-.045-.041-.1-.016-.135-.044.011,0,.013,0,.025,0-.114-.035-.132-.111-.179-.125s-.14-.006-.112.021c-.041.007.161.015.08.065-.054-.083-.142,0-.283-.069.07-.021-.033-.046.029-.061a.153.153,0,0,0-.112.028l-.019-.026c-.1.045-.027.045-.17.061.049-.017-.055-.037-.018-.053a.22.22,0,0,0-.108.018l.005,0c-.144.011-.118-.036-.249-.006l.013.014c-.171.047-.387.034-.562.077l.063.006c-.02,0-.115.035-.173.022a.154.154,0,0,1,.039-.013c0-.018-.028-.04-.071-.038l-.013.03-.02-.018c-.065.01.024.036-.04.046-.05-.075-.278.036-.347-.019-.033.065.123-.016.085.045a.162.162,0,0,0-.074-.01l.021.031a1.95,1.95,0,0,0-.447.062l0-.009c-.064,0-.1.019-.114.056C-137.322-921.85-137.28-921.87-137.308-921.879Zm2.655-1.31a.683.683,0,0,0-.18-.018A.345.345,0,0,0-134.652-923.189Zm.531,3.241c.03-.014.05-.016.053-.048C-134.088-920-134.109-919.962-134.122-919.947Zm-3.65,9.23a.306.306,0,0,0,.015-.122C-137.773-910.785-137.789-910.758-137.772-910.717Zm8.31-12.828c.021-.005.125-.045.069-.051s-.031.014-.035.024c0,0-.019,0-.022-.008a.034.034,0,0,1-.015-.012.252.252,0,0,1-.012-.034.069.069,0,0,0-.04-.036,1.108,1.108,0,0,0-.209-.046c.13.052-.117.028.19.1-.135-.015-.3-.113-.465-.122l.117-.009a1.161,1.161,0,0,0-.164-.022l.02-.024c-.218,0-.378-.115-.515-.081.1-.03-.154-.034-.231-.073.178,0,.485.118.519.077-.075-.033-.151-.027-.224-.06a.907.907,0,0,0,.158.008,2.353,2.353,0,0,0-.576-.1l.281.057c-.034.041-.127-.023-.214,0-.133-.059-.251-.049-.361-.091.03.007.033,0,.063.011a2.693,2.693,0,0,1-.49-.2c-.117-.035-.348-.063-.272-.023-.1-.01.407.083.218.1-.156-.114-.364-.058-.729-.2.172.014-.087-.065.065-.049a.792.792,0,0,0-.276-.027l-.049-.036a1.289,1.289,0,0,1-.43-.025c.124.011-.135-.069-.039-.063a1.372,1.372,0,0,0-.272-.045h.014c-.364-.075-.288-.1-.623-.154l.029.022c-.11-.016-.226-.038-.345-.062l-.392-.089-.143-.035-.071-.018-.035-.009c-.011,0,0-.022,0-.032,0-.1.006-.2.009-.291,0-.125,0-.247,0-.364l-.018.161a3.96,3.96,0,0,1,.014-.451,1.017,1.017,0,0,1,0,.1c.018,0,.046-.058.054-.168l-.026-.043.023-.044c.006-.168-.041.048-.035-.12.082-.095.034-.722.11-.864-.054-.116-.019.317-.067.19a.954.954,0,0,0,.03-.182l-.036.036c.037-.507.073-.7.081-1.151l.007.019a.647.647,0,0,0-.013-.32c.018-.033.023.083.04.021-.083-.287.088-.564.029-.739.033.011.068-.056.1-.121l.014-.361-4.239,2.956-.035.024-.018.012-.174.121-.007.006-.017.011-.19.132a.6.6,0,0,0-.055.044c-.036.024,0,0,.005-.009l-.015.01-.121.087s0,0,0,0l-.964.672c-.013.012-.063.049-.1.075-.25.167-.674.468-.847.583l-.746.52c-.036.031-.061.055-.057.059a3.861,3.861,0,0,1,.339-.24c-.1.076-.276.2-.281.214-.114.064.192-.139.046-.05-.072.051-.1.076-.133.1.045-.038-.07.038-.093.05l-.624.426-.008,0-.157.109c-.08.066-.14.122-.107.106-.143.1-.155.1-.275.19.2-.126-.04.025-.052.051-.124.089-.048.025-.107.062a.541.541,0,0,0-.068.06c-.073.039.083-.089.057-.086l-.191.133,0,0-.036.026,0-.011-.184.129c.012.016.05.018.109-.011a2.013,2.013,0,0,1-.179.113,1.655,1.655,0,0,0-.2.137.47.47,0,0,1-.075.06.366.366,0,0,1,.032-.033.556.556,0,0,0-.065.045l-.018.014.028,0,.038,0c0,.005-.147.029-.111.035a1.783,1.783,0,0,0,.506-.045l-.382.018a.278.278,0,0,1,.087-.014c.079,0,.157-.009.148-.017l.409,0c-.052,0-.21.006-.148.013a1.415,1.415,0,0,1,.209.008l-.424.05h.335c.117-.018.209-.039.248-.047.158,0,.1.035.065.041.311,0,.307-.046.62-.042l-.118-.007c.074,0,.343,0,.314,0,.062.008.119.029.05.035l.278-.032c-.041,0-.014.031-.031.035.111,0,.19-.032.119-.036.218.019.164.009.34.032.064,0-.006-.03-.053-.033a2.692,2.692,0,0,1,.3,0c-.167.009-.134.036-.113.06h.159l.36-.061a.151.151,0,0,0-.056.037,7.52,7.52,0,0,1,.925-.029h-.043a1.015,1.015,0,0,0,.292.007.329.329,0,0,1-.084,0c.194.021.251-.043.448-.019-.179,0-.214.009-.2.021.147-.011.486,0,.415-.034.094.007.179,0,.171.019l.36-.022c-.027,0-.05.014.056.016a4.911,4.911,0,0,1-.5.006c-.005.021.071.032-.026.05a8.237,8.237,0,0,0,.849-.074l.343.015.015-.01.06.026a.4.4,0,0,1,.079-.009c.008,0,0,.006-.02.01.04,0,.064,0,.07-.01.017.013-.024.036-.1.047l-.095-.015c-.041.008-.07.016-.07.023h.126l.038-.008.03,0-.035,0h.067a.246.246,0,0,1-.032,0c.084,0,.154-.059.2-.077s.051-.037-.023-.022l.2-.047a3.936,3.936,0,0,1,.455-.168c.018.005-.055.032,0,.026a5.206,5.206,0,0,1,.548-.1c.166-.036.065-.037.171-.062,0,0-.014.011.018.007l.125-.037c.053,0-.115.03.029.019a2.972,2.972,0,0,1,.6-.07c.3-.011-.129-.04.122-.04a.436.436,0,0,0,.226.036.836.836,0,0,1,.213-.025l-.01.027c.13.006.234.006.233.026a1.074,1.074,0,0,1,.234.024c.2.011-.137-.075-.183-.091a2.412,2.412,0,0,1,.433.1c-.057-.011-.115-.012-.172-.018.356.09.352.03.5.12-.122-.03-.273-.048-.2-.017l.18.026c.019.012-.1-.018-.024.009.053,0,.158.018.205.026h0l.314.1c-.059-.021-.077-.016-.018.005s.135.05.2.074c-.064-.021-.005.016.08.061.249.122.229.049.4.184l-.06-.034.088.07c.07-.059.527.4.588.369.1.139,0,.01-.182-.093.039.042.08.08.118.124-.053-.045-.1-.083-.157-.126.16.154.323.291.415.374.046.073-.079-.022.079.163.21.272,0-.082.129.082l.028.072a.278.278,0,0,0,0,.031.207.207,0,0,1,.026.023c.011-.006.02-.019.03-.024l.015-.009.046-.032.211-.148a.418.418,0,0,0,.061-.06c.191-.126.359-.319.5-.415-.027.031.092-.041.114-.046l.233-.207c-.1.092-.086.1-.093.137.076-.061.105-.1.156-.14-.027.031-.055.061-.008.038l.238-.226a.756.756,0,0,0-.074.049,2.68,2.68,0,0,1,.3-.224c0,.013-.03.044-.033.057a.325.325,0,0,0-.155.134c.177-.139.048-.029.144-.083.126-.1.16-.16.116-.149a1.888,1.888,0,0,0,.329-.261l-.009.045.128-.109-.086.112c.27-.179.016-.078.312-.281l.017.021a.6.6,0,0,0,.062-.063.211.211,0,0,0,.015-.03c.008-.017.013-.024.054-.035.013-.02-.023,0-.042,0S-129.489-923.52-129.462-923.544Zm-32.023.337c.086.016.181.036.276.057C-161.3-923.169-161.386-923.189-161.485-923.207Zm-4.45,10.359c-.072-.133-.148-.264-.215-.4C-166.049-913.046-165.983-912.926-165.935-912.848Zm27.294,30.551h0v-.055a.207.207,0,0,0-.032,0v0a.094.094,0,0,1,.03,0Zm-17.388-6.037a1,1,0,0,1,.01-.131C-156.023-888.587-156.026-888.589-156.029-888.334Zm-11.016-19.9.026-.042a.487.487,0,0,0,.022-.044Zm19.587,16.644c.016,0-.118,0-.565-.005Zm9.19.507-.154.384.016-.033C-138.195-891.255-138.048-891.623-138.268-891.079Zm-3.226-3.45.507.3C-140.922-894.189-141.193-894.349-141.495-894.529Zm-.791-.458-.194-.123-.31-.18Zm5.966-4.227a.193.193,0,0,0-.035,0l.5.162Zm-2.735-.174c-.111,0-1.6.2-.2.025C-139.146-899.383-138.033-899.441-139.054-899.388Zm-2.312,16.905c0,.12-.014.141.047.133l.236,0,.341,0c.159,0,.171-.007-.012-.015l-.58,0c-.024-.009-.009-.028-.016-.065,0-.062-.008-.109,0-.706C-141.361-883.45-141.361-882.165-141.366-882.482Zm0-.407c0,.23,0,.339,0,.407Zm-11.575-11.722c-.123.046-.306.124-.672.281l.615-.249Zm-11.02,1.958.167.118c-.1-.08-.2-.161-.29-.249Zm-3.931-8.794c.087.389.213.839.321,1.222C-167.818-901.056-167.884-901.561-167.9-901.447Zm10.54-16.319-.023-.02C-157.378-917.755-157.367-917.769-157.356-917.766Zm.08-1.117,0,0C-157.285-918.9-157.283-918.9-157.277-918.883Zm1.05,2.409v0Zm.01.057a.062.062,0,0,1-.011-.056l-.038.018Zm-.656-3.806c.03-.058-.079-.009-.046-.061.014.009.018.019.045.024l-.008-.035a1.085,1.085,0,0,0,.278.042l0,.008c.039.014.06.008.078-.024.008.017-.02.026-.005.041.07-.093.136.068.179,0a.193.193,0,0,0,.029.1h.087l-.015,1.248v.01s0,0,0,0v.057s0,.007,0,.011v.046a.061.061,0,0,0,0,.021c0,.01,0,0,0,0v0l0,.036,0,0v.074h0l0,.217a.179.179,0,0,1,.005.026c-.006.07,0,.185-.009.238l0,.229c.005.011.01.02.016.02,0-.03-.012-.091,0-.1a.319.319,0,0,0,.014.085c-.013.031,0-.057-.014-.016a.125.125,0,0,0,.007.04c-.005-.014-.01.019-.012.025,0,.057-.006.119-.009.182h0v.046c.008.025.019.046.026.037a.7.7,0,0,0,0,.081c.014-.057,0,.011.012.017,0,.037-.007.013-.011.03s.007.021.011.022c-.01.02-.025-.026-.038-.021v.053h.005v.011l-.005,0v.052a.06.06,0,0,0,.054-.02c.009,0-.009.035-.011.051-.015.046.012.071.006.11l-.008-.03a.188.188,0,0,0,.007.073c-.005,0-.028-.03-.034-.012,0,.07.027.136.044.133l-.018-.107c.014,0,.014.076.031.072l0,.1c0-.012-.005-.05-.013-.035,0,.042,0,.022-.009.05-.011-.028-.03-.069-.049-.106v.081a.5.5,0,0,0,.046.062c0,.038-.035.024-.041.015,0,.075.045.075.04.151l.007-.029c0,.018,0,.083,0,.076-.008.015-.03.028-.035.011l.032.068c0-.01-.031,0-.035-.008,0,.027.031.046.036.029a.348.348,0,0,1-.032.082c0,.015.03,0,.033-.012a.159.159,0,0,1,0,.072c-.008-.041-.036-.032-.059-.028v.038a.6.6,0,0,1,.059.1.088.088,0,0,0-.037-.023.219.219,0,0,1,.022.126c0,.013.007.041-.008.042l-.049,0h-.075c.013-.009-.061-.017-.08-.008,0-.006.01,0,.02,0-.047-.021-.061.043-.108.018.043,0,.051-.008.05-.02-.036.01-.118,0-.1.033-.023-.007-.043,0-.041-.02l-.087.021c.007,0,.012-.014-.013-.016.049,0,.1-.028.122-.005,0-.021-.016-.033.007-.05a.571.571,0,0,0-.206.071l-.083-.016,0,.01-.014-.026c-.01.006-.017.011-.019.009s0-.006,0-.01a.058.058,0,0,0-.021.007c0-.014.012-.03.027-.044l.023.015c.01-.008.015-.016.015-.023h-.028l-.01.008-.007-.005.008,0h-.014l.005,0c-.04.017-.085.038-.05.056l-.048-.016a.381.381,0,0,1-.157.041c0-.009.03-.017.015-.024a.154.154,0,0,1-.11-.008c-.016-.02.012-.07-.007-.063-.008-.051-.025-.009-.033-.045,0,0,.01,0,.01-.01l-.02-.043c.007-.02.014.041.023-.013a.352.352,0,0,1-.017-.153c-.006-.07-.042.03-.038-.03a.055.055,0,0,0,.04-.053c-.012-.02-.026-.017-.034-.051l.027,0c0-.031-.007-.056.014-.056a.071.071,0,0,1-.005-.056c-.015-.047-.056.034-.066.044.02-.046.007-.078.041-.1l.008.041c.034-.086-.041-.083.019-.122,0,.03.013.065.029.048l-.015-.043c.007,0,.005.025.014.005a.339.339,0,0,0-.031-.049h0l-.005-.078c0,.015.01.018.011,0l-.016-.051c.008.016.016,0,.021-.023.009-.065-.067-.053-.037-.1,0,.007,0,.009,0,.016l.013-.026c-.064-.006-.008-.154-.073-.161.026-.037.016,0,.047.046l.019-.04a.214.214,0,0,0,0,.047.127.127,0,0,0-.026-.13c.009-.02.05.016.039-.041-.014-.08-.049.015-.057-.034l.034-.034a.273.273,0,0,1,0-.16.038.038,0,0,0-.011-.02c.015-.055-.037-.116-.026-.157.008.01.023-.024.032-.029l-.024-.075c.011.033.032.032.053.038,0-.023-.014-.035-.017-.051.008.01.015.02.025.008l-.036-.079a.044.044,0,0,0-.006.021c0-.02-.015-.063,0-.091.009,0,.017.012.025.015-.024.023,0,.037.013.05,0-.054.005-.013.021-.039,0-.039-.03-.055-.049-.045a.119.119,0,0,0-.009-.1l.03.009-.01-.041.038.033c.021-.077-.053-.015-.036-.1h.027c-.011-.034-.057-.045-.024-.071-.017-.032-.038.055-.045-.021a.144.144,0,0,0,.03-.064c-.009-.017-.021,0-.026.015,0-.085.09-.059.055-.154-.02.035-.055-.03-.053.053-.018-.04.041-.078.009-.119l.037.027a.085.085,0,0,0-.017-.04l.028,0c-.05-.052.024-.095-.042-.126.052.022,0-.038.017-.058.037.043,0,.121.047.127.014-.02-.009-.037.005-.056a.106.106,0,0,0,.029.038c.027-.064-.028-.1-.041-.141l.011.069c-.048-.006-.008-.031-.046-.051.026-.034-.012-.062,0-.09,0,.008,0,.008,0,.016,0-.076.079-.1.081-.125s-.02-.086-.042-.066c-.014-.024.015.1-.05.056.075-.042-.028-.089.023-.182.027.041.043-.024.063.013a.08.08,0,0,0-.039-.067l.024-.013c-.054-.059-.048-.014-.077-.1.019.03.035-.035.052-.012a.093.093,0,0,0-.02-.066l0,0c-.013-.09.031-.073,0-.155l-.015.008a1.922,1.922,0,0,1-.023-.491l-.016.049a.338.338,0,0,0,0-.077c0-.016-.007-.045.007-.049a.181.181,0,0,1,.055.008.1.1,0,0,1-.034.007.186.186,0,0,0,.1.047l0-.027.03.021c.059,0-.043-.039.019-.039a.247.247,0,0,0,.168.043.665.665,0,0,1,.093.006A.06.06,0,0,1-156.872-920.223Zm-.451,3.382c-.012.008,0,.031.006.043C-157.311-916.818-157.3-916.828-157.323-916.841Zm-.029-.921v0l0,0Zm1.09-.771,0-.038v.038Zm.01.383a.049.049,0,0,1-.006.018h.01Zm.01.129s-.005-.046-.008-.008C-156.247-918.025-156.241-917.968-156.242-918.021Zm.023,1.118c-.007-.012-.006.036-.012.024.007.03,0,.046.021.032C-156.2-916.9-156.227-916.858-156.219-916.9Zm-1.154.191.007,0c.007,0,.008-.012.009-.027Zm.015-.431v.008l.027-.013Zm-.041-.362c0,.015.006.032,0,.047C-157.4-917.489-157.363-917.508-157.4-917.5Z" transform="translate(168.187 931.661)" fill="#111"/>
    </g>
  </g>
</svg>
