<svg xmlns="http://www.w3.org/2000/svg" width="90.494" height="97.946" viewBox="0 0 90.494 97.946">
  <g id="Group_2451" data-name="Group 2451" transform="translate(224.725 68.148) rotate(19)">
    <g id="Background" transform="translate(-210 0.235)">
      <g id="Group_203" data-name="Group 203">
        <rect id="Rectangle_50" data-name="Rectangle 50" width="68.115" height="80.136" rx="10" fill="#61eaea"/>
      </g>
    </g>
    <g id="Illustration" transform="translate(-200.154 9.972)">
      <path id="Path_117" data-name="Path 117" d="M-142.123,84.031l.04-.029C-142.088,84.016-142.06,84.03-142.123,84.031Zm-.271-1.46.007,0C-142.354,82.56-142.369,82.562-142.394,82.571Zm2.875,2.128v0Zm.013.116a.2.2,0,0,1-.014-.115l-.046.038Zm-3.492-2.2a.806.806,0,0,1,.008-.106C-143.008,82.526-143.015,82.557-143,82.614Zm5.478.667a1.056,1.056,0,0,0,.018.175c-.015.064-.005-.117-.018-.033a.507.507,0,0,0,.008.082c-.006-.029-.011.039-.014.052,0,.066,0,.122,0,.184a.479.479,0,0,1-.006.075v.008h0v0l-.106,0,0,0h-.092c-.051.01-.094.024-.075.032-.087,0-.091-.007-.165,0,.118.016-.023,0-.036.015-.075,0-.027-.008-.061-.012-.012,0-.043.008-.045.014-.041-.012.053-.031.041-.047h-.108v.007h-.022l0-.007h-.107a.065.065,0,0,0,.043.066c-.005.011-.071-.011-.1-.012a1.429,1.429,0,0,0-.226.009l.061-.011a.638.638,0,0,0-.149.01c0-.007.061-.035.024-.043-.147-.009-.267.054-.253.075a.871.871,0,0,1,.2-.042c0,.015-.147.022-.134.046a.716.716,0,0,0-.175.041c.02-.01.086-.036.057-.037a.3.3,0,0,1-.092.022.861.861,0,0,1,.18-.112.8.8,0,0,0-.165.043.462.462,0,0,0-.082.1c-.064.035-.064-.011-.051-.028-.128.085-.091.127-.187.231a.391.391,0,0,1,.042-.035c-.024.024-.1.122-.082.116-.023.018-.06.029-.049,0a.643.643,0,0,0-.019.134c0-.019-.033-.02-.036-.03-.021.051.008.1.023.067-.049.09-.03.069-.071.147,0,.031.036,0,.044-.019a.943.943,0,0,1-.006.138c-.009-.079-.042-.065-.071-.056,0,.008,0,.017,0,.026v.05c.024.06.049.12.074.181a.124.124,0,0,0-.045-.027,1.521,1.521,0,0,1,.035.457V85.3c-.012-.029-.02.094-.008.145-.007-.009-.005-.02-.006-.042-.025.1.053.124.024.222,0-.088-.012-.106-.025-.1.013.07,0,.241.042.216-.008.071,0,.135-.025.115l0,.067c0,.009.006.027,0,.03l-.03,0-.127.014c.02,0,.03-.017-.045-.02a1.038,1.038,0,0,0,.191-.014.349.349,0,0,1,.008-.142c-.026-.01-.04.023-.062-.036,0,.045.018.109,0,.137l-.112.023c-.088.017-.128.037-.194.053l-.169-.018-.007.013-.03-.032c-.021.008-.035.014-.039.011s0-.007.01-.012a.182.182,0,0,0-.042.008c-.007-.017.023-.037.055-.054l.047.018c.02-.01.035-.019.035-.028h-.062l-.019.01-.014-.006.017,0h-.029l.012,0c-.081.021-.174.048-.1.069l-.1-.019a1.407,1.407,0,0,1-.242.053c-.007-.012.039-.022.008-.03a.522.522,0,0,1-.233-.006l-.022-.005,0-.028c0-.019,0-.035.006-.047s0-.043-.008-.046c-.009-.111-.031-.038-.041-.118,0,0,.012.01.012-.012l-.026-.063c.009-.025.018.058.028-.013a.991.991,0,0,1-.023-.293c-.008-.144-.051.061-.047-.06a.117.117,0,0,0,.049-.11c-.015-.04-.032-.035-.043-.1l.033,0c0-.063-.009-.114.016-.114a.234.234,0,0,1-.008-.114c-.019-.1-.068.07-.081.092.024-.094.008-.159.048-.212l.01.083c.04-.183-.051-.155.013-.234.006.051.024.115.043.083a.575.575,0,0,0-.025-.077c.008-.01.014.044.018.007a.331.331,0,0,0-.053-.079h0a.659.659,0,0,0-.051-.126c.01.023.025.024.015,0a.654.654,0,0,0-.059-.069c.022.018.017-.01,0-.049-.064-.1-.118-.018-.154-.1.009.009.013.007.022.016l-.022-.042c-.029.027-.079-.01-.135-.037s-.116-.043-.132-.006c-.045-.043,0-.024.087-.029-.016-.016-.035-.029-.053-.045.026.007.047.018.076.024a.2.2,0,0,0-.214-.027c-.032-.015.034-.061-.066-.051-.159.016.033.059-.065.07l-.071-.042a.912.912,0,0,1-.326,0,.09.09,0,0,0-.042.013c-.113-.018-.236.047-.322.034.02-.01-.049-.028-.059-.039l-.077.015-.132.015c.123-.013.121-.039.133-.065-.065,0-.11.018-.163.022.036-.01.068-.019.034-.031-.086.016-.176.026-.277.038a.3.3,0,0,0,.065.01h-.1a.125.125,0,0,1,0-.039.754.754,0,0,1,.006-.171c.011,0,.021.029.032.03-.022.089-.013.134.031.127-.031-.136,0-.041.012-.125,0-.1-.038-.144-.061-.1a.544.544,0,0,0-.013-.262l.038.017-.012-.083.046.067c.024-.159-.065-.029-.045-.206h.034c-.013-.068-.071-.092-.031-.145-.022-.066-.047.113-.055-.043a.372.372,0,0,0,.036-.145c-.014-.074-.034.033-.035.071a.734.734,0,0,1,.009-.168.222.222,0,0,1,.036-.087.152.152,0,0,0,.033-.065.271.271,0,0,0,.006-.061c0-.022-.018-.075.029-.067-.063-.011-.058-.028-.066-.042l0,0c.063-.018.179.018.243-.012a.511.511,0,0,0-.064.046.507.507,0,0,0,.115-.022v.035c.168-.063.232.027.3-.054-.043.065.078,0,.12.02-.086.046-.247,0-.258.06.04.018.076-.011.114.006a.248.248,0,0,0-.077.037c.132.033.208-.037.288-.053l-.142.015c.011-.059.063-.01.1-.057.071.031.126-.016.184,0-.015,0-.016.006-.032.006.155,0,.2.1.259.1s.175-.026.133-.052c.049-.017-.205.02-.117-.06.086.088.193-.026.345.011-.066.044.054.045-.008.08.081-.025.081-.04.106-.078l.033.019c.068-.105.007-.058.112-.167-.026.05.073,0,.055.039a.161.161,0,0,0,.069-.1v.007c.084-.126.116-.077.149-.221l-.023.005a1.618,1.618,0,0,0,.024-.288c0-.125,0-.251-.014-.364l-.015.08c.01-.024-.033-.153,0-.223a.22.22,0,0,1,.009.052c.022,0,.054-.03.059-.084l-.034-.021.026-.022c0-.083-.048.024-.048-.059.048-.024.05-.114.051-.206,0-.13,0-.275.045-.292-.07-.123-.012.21-.075.1a.393.393,0,0,0,.031-.119l-.043,0a1.306,1.306,0,0,1,.032-.224l.206.015.186.011c.066,0,.134,0,.181,0l-.009.01c.079.016.122.008.158-.03.016.02-.041.031-.01.049.14-.115.28.082.365,0,0,.041.029.081.062.12h.179v1.216a.841.841,0,0,0,.841.841h.283a.11.11,0,0,0,.034-.005c.021,0,0,0,0,.005h.009l.073,0s0,0-.006,0h.586c.008,0,.04,0,.061-.007l.15,0c.006,0,.005,0,.009,0h.02v.008a.128.128,0,0,1,0,.043V82.8c0,.081,0,.153,0,.2v.448c.006.023.013.04.019.04A.779.779,0,0,1-137.52,83.281Zm-3.353,1.461c-.015.017,0,.064.008.088C-140.857,84.79-140.843,84.769-140.873,84.742Zm-2.114-2.252a.135.135,0,0,0,0,.018.06.06,0,0,1,.025-.016C-142.97,82.487-142.983,82.477-142.987,82.49Zm2.827,3.467a.018.018,0,0,1-.01-.012C-140.18,85.949-140.18,85.953-140.16,85.957ZM-142.075,84h0a.023.023,0,0,0,0,.006Zm3.954-.127s.009.006.043.006A.222.222,0,0,1-138.122,83.87Zm.041-1.2h.055l-.078,0Zm.556.333.012,0,0-.04A.156.156,0,0,1-137.525,83Zm.021.227c0-.009-.007-.094-.01-.016C-137.51,83.22-137.5,83.336-137.5,83.227Zm-1.7.808c-.041.04-.063.058-.031.057.075-.05,0-.031.077-.071C-139.149,84-139.223,84.053-139.208,84.036Zm-1.723.975.008.005c.009-.01.009-.025.01-.056Zm-.113-.735.012-.038-.019.028Zm-.513-.224a.462.462,0,0,1,.071,0C-141.535,84.052-141.562,84.009-141.558,84.052Zm-40.177-10.308.011.007C-181.73,73.737-181.735,73.732-181.735,73.744Zm-1.466-.892-.055.028C-183.17,72.88-183.207,72.866-183.2,72.852Zm5.617-.177h0C-177.574,72.677-177.577,72.677-177.583,72.675Zm-6.465-1.255.01,0C-183.995,71.41-184.014,71.412-184.049,71.421Zm3.683,2.233v0l0,.006Zm.007.15a.285.285,0,0,1-.008-.149l-.049.046Zm2.938-1.871a1.815,1.815,0,0,0,.018.238c-.016.088-.006-.16-.018-.045a.85.85,0,0,0,.008.112c-.006-.039-.011.053-.014.071,0,.093,0,.169,0,.25,0,.029,0,.065-.006.095v.019h0v0l-.143,0-.006,0h-.126c-.07.01-.128.024-.1.032-.118,0-.124-.007-.225,0,.161.016-.032,0-.049.015-.1,0-.036-.008-.084-.012a.2.2,0,0,0-.061.014c-.056-.012.081-.031.065-.047h-.157v.007h-.03l.006-.007h-.152c0,.025.02.053.065.066-.008.011-.1-.011-.143-.012a2.66,2.66,0,0,0-.308.009l.083-.011a1.227,1.227,0,0,0-.2.009c0-.006.083-.035.033-.042a.716.716,0,0,0-.369.056l.3-.023c.011.016-.213.018-.2.039a1.535,1.535,0,0,0-.262.01c.031-.009.129-.019.09-.026a.769.769,0,0,1-.132.006,1.764,1.764,0,0,1,.281-.081h-.083a1.112,1.112,0,0,0-.157.016.6.6,0,0,0-.14.086c-.1.029-.077-.018-.056-.034-.194.078-.167.126-.324.245a.584.584,0,0,1,.063-.04.723.723,0,0,0-.143.137c-.035.021-.079.034-.054-.005a.965.965,0,0,0-.071.169c.01-.024-.028-.027-.027-.04-.042.062-.022.128,0,.089a2.026,2.026,0,0,0-.115.19c-.008.041.037.005.047-.022-.016.091-.026.143-.036.185,0-.105-.031-.092-.06-.084a1.117,1.117,0,0,0-.011.112c.018.08.041.158.065.238a.13.13,0,0,0-.045-.038,2.823,2.823,0,0,1,.035.625v-.029c-.012-.04-.02.128-.008.2a.136.136,0,0,1-.006-.057c-.025.13.053.169.024.3,0-.12-.012-.145-.025-.138.013.1,0,.328.042.28-.008.063,0,.12-.024.115l.027.243c0-.018-.017-.034-.02.038a1.811,1.811,0,0,1-.008-.34c-.026,0-.04.048-.062-.017a2.182,2.182,0,0,0,.038.323,2.458,2.458,0,0,1,.05.336c-.073.037-.253,0-.309,0l-.01.013-.04-.032a.168.168,0,0,1-.053.011c-.005,0,0-.007.014-.012a.33.33,0,0,0-.058.008c-.009-.017.032-.037.075-.054l.064.018c.027-.01.047-.019.047-.028h-.085l-.026.01-.02-.006.023,0h-.039l.016,0c-.111.021-.238.048-.139.069l-.135-.018a2.819,2.819,0,0,1-.324.053c-.01-.012.041-.022.006-.03a.86.86,0,0,1-.293,0,.292.292,0,0,1-.031-.006l0-.037c0-.025,0-.046.005-.061,0-.035,0-.058-.008-.066-.009-.153-.03-.063-.041-.143,0,0,.012.01.012-.011l-.026-.086c.009-.035.018.079.028-.018a1.835,1.835,0,0,1-.023-.4c-.008-.2-.051.084-.048-.082.021-.024.047-.046.049-.15a.452.452,0,0,1-.043-.141l.033.006c0-.086-.009-.155.016-.156a.432.432,0,0,1-.008-.156c-.019-.13-.068.1-.081.126a1.088,1.088,0,0,1,.049-.29l.01.114c.041-.243-.051-.23.022-.342,0,.083.017.183.036.134l-.018-.12c.009-.014.007.069.017.014a.991.991,0,0,0-.039-.134l0,0a1.122,1.122,0,0,0-.029-.191c.006.036.019.043.015.006a1.015,1.015,0,0,0-.053-.116c.022.033.018-.007,0-.063-.064-.155-.129-.076-.169-.2.01.014.016.014.026.029l-.025-.061c-.035.019-.1-.048-.167-.1s-.153-.1-.178-.06c-.061-.061,0-.027.12,0l-.07-.068c.035.017.061.038.1.055a.351.351,0,0,0-.292-.1c-.043-.021.054-.052-.086-.067-.2-.009.027.062-.087.059l-.08-.046a1.692,1.692,0,0,1-.446,0,.154.154,0,0,0-.057.013c-.154-.018-.324.047-.44.034.027-.01-.066-.028-.08-.039l-.21.031c.093-.013.089-.039.106-.065-.065,0-.1.018-.141.022.027-.01.055-.019.02-.031l-.22.046a.26.26,0,0,0,.059.007,1.037,1.037,0,0,1-.261,0,.2.2,0,0,0,.049-.031.129.129,0,0,0,.138-.017c-.152.006-.038-.006-.111-.025-.1,0-.212.038-.165.061l-.219-.012a.4.4,0,0,1-.1,0l-.016-.116a.264.264,0,0,0,.038.01l-.014-.167a1.058,1.058,0,0,0,.047.113c.011-.155,0-.162-.021-.179s-.034-.059-.024-.171h.033c-.013-.093-.071-.125-.031-.2-.021-.091-.046.155-.055-.058a.732.732,0,0,0,.036-.179c-.016-.068-.04.052-.035.1a.6.6,0,0,1,.009-.172.517.517,0,0,1,.035-.132.416.416,0,0,0,.031-.1.535.535,0,0,0,.006-.085c.006-.03-.024-.1.042-.088-.082-.012-.07-.029-.076-.042s-.026-.026-.032,0a1.31,1.31,0,0,0-.011.173.76.76,0,0,1,0-.139c.008-.016-.008-.055.02-.05l.075.006a.917.917,0,0,0,.278,0c-.039.015-.073.031-.1.045a.98.98,0,0,0,.165-.022l-.011.035c.171-.063.273.027.365-.054-.059.065.107,0,.163.02-.118.046-.337,0-.353.06.055.018.1-.012.157.006a.383.383,0,0,0-.1.037.9.9,0,0,0,.393-.053l-.193.015c.016-.059.087-.01.141-.057.1.031.173-.016.252,0-.021,0-.022.006-.044.006.211,0,.27.1.354.1s.238-.026.182-.052c.067-.017-.281.02-.16-.06.12.091.248-.037.51.025-.115.034.067.053-.035.078a.241.241,0,0,0,.173-.056l.038.024c.131-.1.031-.054.216-.16-.056.052.095,0,.055.045a.284.284,0,0,0,.129-.105l0,.008c.156-.15.173-.087.264-.272l-.026.007a1.548,1.548,0,0,0,.114-.4,2.9,2.9,0,0,0,0-.471l-.015.109a1.489,1.489,0,0,1,0-.3.4.4,0,0,1,.009.071c.022,0,.054-.041.059-.115l-.033-.029.026-.03c0-.113-.048.033-.048-.08.1-.066.009-.488.095-.585-.071-.077-.009.214-.074.13a.37.37,0,0,0,.029-.124l-.043.025c.015-.189.026-.33.036-.46.005-.081.01-.158.016-.239-.035-.121.1-.081.2-.092l-.012.01a.473.473,0,0,0,.3-.031c.032.02-.076.031-.016.049.206-.115.387.082.507,0-.007.041.04.081.084.12h.244v1.917a1.092,1.092,0,0,0,1.092,1.092h.22a.232.232,0,0,0,.047-.005c.029,0,0,0-.006.005h.013l.1,0s0,0,0,0h.792c.011,0,.054,0,.083-.007l.426,0h.242v.008a.073.073,0,0,0,0,.019v.613c.006.032.012.055.019.055A1.414,1.414,0,0,1-177.421,71.933Zm-4.3,2.194c-.015.024,0,.088.008.12C-181.71,74.193-181.7,74.164-181.726,74.127Zm1.241,1.6a.925.925,0,0,0-.129,0A.37.37,0,0,0-180.485,75.728Zm-.313.031a.019.019,0,0,1-.014-.012C-180.824,75.751-180.824,75.755-180.8,75.759Zm-2.393-2.912h-.005a.014.014,0,0,0,0,.006Zm4.954-.127s.012.006.059.006A.4.4,0,0,1-178.237,72.72Zm-.367-1.2h.075l-.107,0Zm1.178.026.012,0a.063.063,0,0,0-.009-.034C-177.418,71.516-177.43,71.533-177.426,71.543Zm.021.316c0-.012-.007-.128-.01-.021C-177.411,71.85-177.4,72.007-177.4,71.859Zm-2.374.97c-.068.04-.1.06-.062.06.117-.049.016-.036.127-.071C-179.689,72.8-179.8,72.846-179.779,72.829Zm-2.006,1.665.008.007a.161.161,0,0,0,.01-.076Zm-.067-1.1.015-.044-.022.028Zm-.663-.473a1.025,1.025,0,0,1,.1.022C-182.482,72.927-182.515,72.875-182.515,72.919Zm45.6-7.2h0a.8.8,0,0,1-.01.149c0-.031,0-.054,0-.079a.578.578,0,0,1-.016.137c0-.016.01-.035.012-.046a.431.431,0,0,1-.013.049v0a.573.573,0,0,1-.1.185L-152.8,86.013a.577.577,0,0,1-.453.219.58.58,0,0,1-.454-.219l-6.613-8.349-.183-.231-.131-.166-.915-1.155-.055-.069-.067-.086-1.109-1.4c-.155-.194-.263-.328-.283-.349-.194-.247.022.023.05.055l-.084-.106-.68-.853c-.02-.028-.017-.026,0-.006l-1.326-1.674h0l-.011-.014-3.967-5.009-.114-.141-.223-.278a.69.69,0,0,1-.14-.245l0-.009a.534.534,0,0,1-.025-.075,1.059,1.059,0,0,1,0-.242.737.737,0,0,1,.045-.249c.075-.156.172-.3.262-.465l.577-1,1.209-2.094.839-1.448,2.482-4.3a.547.547,0,0,1,.075-.1v0h0a.572.572,0,0,1,.38-.183l.026,0,.016,0,2.276-.006.309-.006.209-.008a.262.262,0,0,0,.071-.007l-1.751.014c-.294.007-.567,0-.789,0,.9-.027,2.018-.012,2.087-.028.947.012-1.726.01-.484.019l1.216-.012c-.428.008.576.009.768.012l5.509-.006.073,0,.569,0,.012,0,.4-.663.276-.476c.236-.411.375-.662.266-.49l.665-1.1.251-.416.151-.253.08-.134c.008-.018.027-.042.033-.059l-.021.035-.053.086-.105.172-.1.164c-.024.04.029-.048.112-.187.068-.149.268-.335.043-.278-.194,0-.359,0-.4.008-1.113,0-.389-.008-.9-.012-.185,0-.628.008-.658.014-.6-.012.873-.031.7-.047h-1.7l.012.007h-.32l.071-.007h-1.663a2.521,2.521,0,0,0,.725.066c-.084.011-1.053-.011-1.54-.012-1.413-.018-2.156.016-3.331.009l.9-.011-2.2.01c-.044-.007.895-.035.358-.043-2.112,0-4.115.035-3.983.056l3.237-.023c.114.016-2.3.018-2.165.039l-2.98,0c.377,0,1.526-.007,1.075-.016-1.28,0-.664,0-1.518-.01l2.979-.061h-2.347c-.85.023-1.5.047-1.785.058-1.153,0-.75-.043-.475-.051-2.266,0-2.238.056-4.522.052l.858.008c-.539,0-2.5,0-2.288,0-.453-.01-.868-.036-.364-.043l-2.023.04c.3,0,.1-.038.23-.044-.813,0-1.384.04-.87.045l-2.48-.039c-.469,0,.043.037.386.041-1.061.01-1.683.006-2.186,0,1.214-.011.974-.045.823-.073h-1.181l-.247.007-.219.007a.485.485,0,0,0-.094.006l.068.083,1.176,1.444a3.547,3.547,0,0,0-.282-.293c.217.23,2.851,3.652,4.134,5.331l-.194-.251c-.27-.332.829,1.115,1.292,1.7-.082-.1-.185-.233-.379-.485.839,1.135,1.157,1.42,2.009,2.579a9.9,9.9,0,0,0-.929-1.169c.66.839,2.157,2.811,1.874,2.374.411.549.79,1.035.738,1l1.619,2.066c-.122-.153-.236-.279.23.332-.892-1.171-1.791-2.277-2.241-2.908-.044-.014.282.433-.165-.113,1.738,2.246,2.722,3.453,3.838,4.852l1.508,2,.074.076.239.364c.2.244.323.4.36.451s-.019-.013-.1-.108l.26.334c-.091.092-.209.17-.242.2s0-.025.157-.154l.054-.047-.053-.064-.109-.13-.218-.262-.405-.557c-.187-.228-.341-.413-.348-.408l.576.75.177.214.127.175-.156-.2.25.326-.094-.13.143.179.075.095a.485.485,0,0,1-.086.075l-.346.276-.306.246-.152.122c-.055.079-.084-.026-.12-.054a1.76,1.76,0,0,0-.2-.227.452.452,0,0,0,.051.08l.071.1a1.85,1.85,0,0,0,.147.188,2.108,2.108,0,0,1-.156-.2l-.109-.146-.218-.291-.436-.584-2.169-2.741c-.06-.1.285.336.065.035-.955-1.181-2.221-2.966-2.449-3.207-.754-.968-.335-.387-.818-1,.026.027.076.081-.061-.1l-.584-.719c-.221-.3.533.665-.094-.17-1.1-1.4-1.752-2.227-2.651-3.417-1.3-1.68.513.752-.576-.673-.144-.222-.265-.422-.945-1.312-.372-.46-.337-.387-.957-1.178l.065.03-.723-.94a2.9,2.9,0,0,1-.286-.4c-.475-.595-.792-1.012-1.03-1.33-.874-1.107.578.866.768,1.134-.826-1.115-1.422-1.866-1.871-2.518l.755.968-.913-1.206-.3-.385a1.262,1.262,0,0,1-.129-.18.7.7,0,0,1-.074-.205.963.963,0,0,1,.01-.354.791.791,0,0,1,.1-.326c.1-.173.209-.362.371-.619l-.324.6a.8.8,0,0,0-.112.332c-.006.049-.013.095-.019.139a.7.7,0,0,0,0,.149.624.624,0,0,0,.13.338c.035.034,0,.008-.056-.132a.664.664,0,0,1-.045-.363,1.4,1.4,0,0,1,.069-.34l.305-.585c.081-.129-.35.656-.055.137l.668-1.3-.006.016,1.025-1.893c-.126.237-.126.255.053-.07l.72-1.361c-.218.418.023,0,.358-.6.958-1.735.687-1.432,1.456-2.765l-.23.429.393-.686c.011-.184,2.223-4.1,2.234-4.284.567-.974.055-.06-.6,1.23l.594-1.043-.674,1.246c.783-1.366,1.455-2.687,1.844-3.446.3-.522-.173.444.636-1.067,1.144-2.133-.273.374.415-.907l.541-.9c.859-1.646,1.549-2.85,2.3-4.222.167-.313.246-.467.283-.546l.305-.552a.853.853,0,0,1,.238-.306.735.735,0,0,1,.382-.15.739.739,0,0,1,.7.361.817.817,0,0,1,.078.184l.046.15.092.3c.243.785.473,1.521.643,2.126-.092-.28.175.7.207.845l.668,2.167a5.292,5.292,0,0,0-.384-1.078l.441,1.425-.106-.309c-.023-.06-.023-.04.024.141l.045.142c.015.035.009.057.033.07l.229.111.535.261,1.07.521-.569-.3c.53.27,1.684.839,2.431,1.246l-.407-.173a13.448,13.448,0,0,0-1.335-.664,8.1,8.1,0,0,1,1.056.568c1.032.526,1.471.71,1.211.551l1.355.7a.722.722,0,0,1,.358.737.726.726,0,0,1-.242.438.724.724,0,0,1-.248.142l-.229.076.234-.113-1.173.377.937-.338c-2.256.672-.394.19-2.9.943l-.017-.03c-.957.31-1.27.466-2.028.659-.927.309,1.609-.449-.581.237-.391.1-1.227.348-1.859.537-.634.211.338-.067.853-.227-3.127.982-1.992.495-4.89,1.439,1.02-.29-.825.326,1.57-.418-1.138.375-2.266.65-3.447,1.056l.764-.283c-.43.132-.908.3-1.139.375l.087-.063-.389.137-.03.011.02.029.037.055.1.153.542.858c.34.542.64,1.016.92,1.38-.4-.5.622.968.931,1.5-.721-1.045-1.958-3.068-2.1-3.179.3.508.611.938.9,1.428-.222-.332-.548-.813-.639-.935,1.021,1.663,1.676,2.563,2.327,3.553l-1.136-1.754c.141.111.515.787.869,1.257.536.9,1.014,1.563,1.457,2.292l-.256-.392c.294.46.6.949.659,1.06.007.008.014.035.021.027l.022-.031.043-.06.09-.125.259-.373c.32-.456.548-.767.792-1.148a11.881,11.881,0,0,0,1.012-1.684c.377-.624-1.61,2.562-.978,1.421.776-1.047,1.407-2.275,2.982-4.632-.639,1.065.436-.587-.138.362.36-.572.544-.87.675-1.091l.173-.3a1.6,1.6,0,0,1,.222-.334.714.714,0,0,1,.112-.079.721.721,0,0,1,.215-.185.659.659,0,0,1,.317-.112l.237-.012.321-.018.352-.023c.217-.012.547-.021,1.882-.046-.9.028,1.072.038.389.063.74,0,1.463-.014,2-.036l-.1,0c2.7-.03,2.214.027,4.676-.02l-.245-.017,2.552-.038a.843.843,0,0,1,.408.062.764.764,0,0,1,.323.287l.344.594.686,1.19,2.681,4.645-.524-.941c.257.453,1.135,1.914,1.592,2.767l-.386-.657a7.433,7.433,0,0,0,.564,1.1l.183.251.139.294a1.228,1.228,0,0,1,.1.2.772.772,0,0,1,.041.173c.008.077.013.121.016.145.008.043.01,0,.013-.048s.006-.09.013-.048c0,.021.008.064.015.14a.766.766,0,0,1-.088.437c-.233.3-.906,1.414-1.608,2.583l-.462.766-.071.118-.018.029c-.008.011-.015.021,0,.017h.066l.258,0c.579,0,1.067.013,1.329.034.416-.037-.163-.038-.732-.038h-.409l-.254,0c-.086,0-.08-.012.033-.028l.468.015.826.01-.274-.042,4.356.024,1.868.007h1.028l.559,0a.73.73,0,0,1,.627.346.721.721,0,0,0-.109-.125,2.065,2.065,0,0,1,.24.381l.181.322.312.54c.188.319.342.564.489.781.1.222-.327-.506-.115-.1,1.128,1.736,1.983,3.623,2.679,4.676-.072-.044.145.415.348.848l1.182,2.061a.577.577,0,0,1,.075.247c0,.009,0,.016,0,.025v0l0,.066V65.6c0,.045.006.086.007.121Zm-33.5,3.642.671.882C-170.013,69.884-170.253,69.566-170.416,69.365Zm-13.3-15.172c-.354-.475-.529-.726-.794-1.022C-184.368,53.381-183.932,53.92-183.717,54.193Zm6.139-3.381c-.023-.015-.086,0-.118.008C-177.642,50.828-177.614,50.842-177.578,50.812Zm2.454-.136a.265.265,0,0,0,.087.017.282.282,0,0,0-.052-.045c.013,0,.03.012.033-.006-.031-.022-.1-.1-.145-.143a.277.277,0,0,0,.025.053.952.952,0,0,1-.132-.211c.013,0,.035.017.048.017a.126.126,0,0,0,.087.106c-.085-.123-.014-.035-.037-.106-.058-.088-.112-.1-.116-.069a.694.694,0,0,0-.16-.228h.044l-.071-.087.088.051c-.094-.194-.076,0-.187-.21l.028-.019c-.061-.07-.126-.066-.13-.147-.066-.064.043.153-.077-.018a.7.7,0,0,0-.064-.168c-.05-.047-.007.065.02.1-.186-.255-.007-.227-.2-.439.032.094-.1-.031.025.159-.077-.08-.075-.207-.169-.282l.078.038a.444.444,0,0,0-.077-.081l.034-.011c-.128-.085-.117-.235-.231-.262.086.014-.06-.086-.069-.146.1.073.179.279.237.26-.014-.055-.064-.08-.078-.133a.4.4,0,0,0,.086.067c-.067-.168-.18-.216-.252-.3l.115.153c-.058.019-.055-.067-.123-.086-.025-.1-.1-.135-.13-.21.011.018.017.015.028.033-.114-.173-.062-.275-.1-.345s-.148-.184-.14-.123c-.05-.047.165.222.034.165.013-.149-.162-.185-.249-.436.09.077.009-.084.084-.013a.316.316,0,0,0-.139-.127l0-.047c-.143-.1-.069,0-.232-.185.064.056-.016-.105.035-.064a.514.514,0,0,0-.12-.14l.008.006c-.147-.2-.077-.19-.227-.361l0,.029c-.2-.22-.377-.548-.562-.791l.045.1c-.009-.033-.137-.155-.163-.251a.369.369,0,0,1,.045.054c.017-.014.024-.062-.011-.126l-.044-.006.006-.039c-.06-.094-.023.053-.083-.041.046-.106-.25-.409-.229-.536-.1-.025.106.183.006.147a.358.358,0,0,0-.041-.118l-.022.044a6.443,6.443,0,0,0-.372-.671l.014,0c-.043-.1-.081-.143-.139-.162.005-.03.056.029.049-.016-.2-.1-.133-.361-.263-.415.038-.016.047-.077.056-.134l-.129-.2-1.713,2.969-.014.026-.008.013-.071.122,0,0-.007.011-.077.134a.173.173,0,0,0-.018.042c-.016.024,0,0,0-.008l-.005.009-.047.089s0-.006,0-.009l-.1.176h0l-.292.505c0,.011-.022.049-.035.074-.106.171-.275.474-.348.589l-.3.521c-.01.03-.016.053-.01.057a1.37,1.37,0,0,1,.134-.241,1.937,1.937,0,0,0-.1.212c-.056.067.074-.139.007-.047a.85.85,0,0,0-.048.1c.014-.037-.036.04-.047.053l-.258.43,0,0-.062.108c-.026.065-.041.121-.022.1-.057.1-.068.1-.112.191.093-.129-.018.026-.011.049-.048.089-.025.026-.051.065a.2.2,0,0,0-.018.059c-.038.041.009-.077-.013-.071l-.073.126.007,0-.014.025,0-.009-.075.129a.076.076,0,0,0,.089-.022c.006.012-.057.077-.08.116a2.609,2.609,0,0,0-.144.267l.031-.076a1.158,1.158,0,0,0-.092.178c-.008,0,.011-.088-.02-.049a1.353,1.353,0,0,0-.111.23c-.014.045,0,.054.013.049a.383.383,0,0,1,.028-.069l.064-.133c.022-.006-.1.2-.058.177-.006.013-.049.052-.009.043l-.029.005s0-.006-.016,0c.029.011.012.006.038.017l-.1.023c-.008-.012,0-.04.008-.074l.01-.035-.086.149h.061l.021,0a.606.606,0,0,0,.143-.053c.1,0,.068.043.043.05.206,0,.2-.056.412-.052l-.078-.008c.049,0,.228,0,.208,0,.041.011.079.037.033.043l.184-.04c-.027,0-.009.038-.021.044.074,0,.126-.039.079-.045a1.788,1.788,0,0,1,.226.039c.043,0,0-.037-.035-.04a.958.958,0,0,1,.2,0c-.111.011-.089.045-.075.073h.106l.239-.074a.128.128,0,0,0-.037.045,2.72,2.72,0,0,1,.614-.035h-.029c-.039.012.126.02.194.008-.011.007-.027,0-.056.006.128.026.167-.053.3-.024-.119,0-.142.012-.136.025.1-.013.323,0,.275-.042.063.008.119,0,.113.024l.239-.027c-.018,0-.033.017.037.02a1.748,1.748,0,0,1-.334.008c0,.026.047.04-.017.062a2.989,2.989,0,0,0,.563-.091l.228.018.01-.013.04.032c.029-.008.047-.014.053-.011s0,.007-.013.012a.29.29,0,0,0,.057-.008c.009.017-.031.037-.074.054l-.063-.018c-.027.01-.047.019-.047.028h.084l.025-.01.02.006-.023,0h.039l-.016,0c.109-.021.234-.048.136-.069l.132.018a2.653,2.653,0,0,1,.318-.053c.01.012-.04.022-.006.03.138-.039.337.043.367.009.112-.009.047-.03.118-.041,0,0-.01.012.01.012l.084-.026c.034.009-.077.018.018.028a1.767,1.767,0,0,1,.393-.023c.193-.008-.083-.051.081-.047.024.021.045.046.147.049a.432.432,0,0,1,.138-.043l-.006.033c.085,0,.153-.009.153.016a.4.4,0,0,1,.153-.008c.128-.02-.094-.068-.124-.081a1.087,1.087,0,0,1,.285.049l-.112.01c.238.041.226-.051.337.022-.082,0-.18.017-.132.036l.118-.018c.014.009-.068.007-.014.017a1.352,1.352,0,0,0,.133-.039v0l.214-.008c-.041,0-.051.012-.01.013l.14-.02c-.043.009,0,.02.064.026.181.01.145-.083.285-.048-.02,0-.024,0-.044,0l.072.016c.015-.079.424-.012.44-.093.1.031.007.02-.124.059l.109.022a1.191,1.191,0,0,0-.129.006.7.7,0,0,0,.356-.033c.055.011-.043.061.113.047.22-.018-.042-.06.09-.071l.1.042a.921.921,0,0,1,.229-.016,1.222,1.222,0,0,1,.159.015c.01,0,.013-.008.013-.012.071.017.043-.035.026-.046a.056.056,0,0,0,.048,0A.4.4,0,0,0-175.124,50.675Zm13.811-1.763a1.161,1.161,0,0,1,.119-.174c-.058.1-.017.1.014.107l.064-.091.086-.25a.13.13,0,0,0,.014.058,3.067,3.067,0,0,1,.346-.552l-.017.025c-.014.041.094-.1.125-.164,0,.014-.012.026-.03.052.1-.1.059-.175.163-.271-.074.1-.077.13-.062.132.049-.092.2-.28.134-.263.045-.049.074-.1.089-.084l.124-.223c-.007.018-.006.039.039-.02-.086.114-.132.249-.2.295.019.018.061-.018.04.051a3.383,3.383,0,0,0,.269-.541l.154-.187,0-.016.05-.016c.011-.029.017-.049.023-.052s0,.006,0,.018a.324.324,0,0,0,.028-.054c.019,0,.011.049,0,.1l-.053.044c-.008.029-.012.052-.005.057l.051-.073.007-.028.017-.013-.01.022.024-.034-.013.011c.049-.107.1-.23.027-.158l.1-.1a3.087,3.087,0,0,1,.151-.306c.016,0-.007.047.021.023.053-.143.241-.268.232-.314.061-.1,0-.058.039-.125,0,.005,0,.016.016,0l.03-.088c.028-.024-.033.077.034,0a1.959,1.959,0,0,1,.222-.354c.111-.172-.092.042.01-.1.032-.009.065-.013.13-.1a.493.493,0,0,1,.049-.145l.024.024c.05-.075.086-.137.107-.123a.477.477,0,0,1,.087-.137c.063-.122-.114.043-.142.061.1-.1.137-.181.214-.22l-.06.1c.179-.183.1-.226.223-.279-.051.07-.1.166-.051.135l.057-.114c.016-.007-.036.063.006.022a1.394,1.394,0,0,0,.05-.138v0l.124-.189c-.026.035-.021.051.005.016l.069-.133c-.018.043.017.011.06-.041.118-.151.02-.173.135-.274-.013.018-.011.023-.024.041l.057-.053c-.055-.059.249-.375.193-.435.088-.071.02.005-.028.142l.084-.082c-.024.04-.051.069-.074.115a.782.782,0,0,0,.19-.328c.021-.02.027,0,.038,0s.033-.01.045-.039c.023-.045,0-.035-.022-.031s-.039.007-.038,0a.292.292,0,0,0,.072-.029.029.029,0,0,1,0-.022c.006-.01.008-.016,0-.014a.309.309,0,0,0-.05-.014.05.05,0,0,0-.026.012.052.052,0,0,0-.034,0l-.12.016a.876.876,0,0,1-.214.019c.028-.009-.069-.027-.084-.038l-.219.032c.1-.014.092-.04.11-.066-.068,0-.1.018-.147.022.029-.01.057-.02.021-.031l-.23.047a.319.319,0,0,0,.062.006,1.074,1.074,0,0,1-.264,0c.007-.01.035-.02.042-.031a.141.141,0,0,0,.144-.018c-.159.006-.04-.006-.116-.025-.112,0-.157.039-.128.061a.773.773,0,0,0-.3.014l.024-.038-.118.013.1-.047c-.227-.023-.041.065-.294.047v-.034c-.1.014-.13.071-.206.032-.094.022.161.045-.06.056a.774.774,0,0,0-.187-.035c-.071.016.054.04.1.034-.334.021-.208-.115-.506-.066.1.024-.086.069.157.064-.116.022-.228-.047-.348-.008l.078-.046a.486.486,0,0,0-.115.022l.009-.035c-.149.063-.277-.026-.365.056.061-.065-.111,0-.17-.019.122-.047.351,0,.367-.061-.057-.017-.108.012-.163,0a.442.442,0,0,0,.109-.037.967.967,0,0,0-.41.055l.2-.016c-.016.059-.091.011-.147.058-.1-.031-.18.016-.262,0,.022,0,.023-.006.045-.006-.22,0-.282-.094-.369-.1s-.249.028-.189.053c-.07.018.292-.021.167.06-.126-.091-.258.037-.532-.023.12-.034-.071-.052.036-.078a.355.355,0,0,0-.193.05l-.039-.03c-.17.068-.039.059-.3.1.087-.024-.1-.042-.038-.064a.574.574,0,0,0-.193.027l.009,0a3.68,3.68,0,0,0-.452,0l.024.018c-.312.054-.7.026-1.027.054l.114.014a1.631,1.631,0,0,1-.318,0,.431.431,0,0,1,.073-.009c0-.022-.042-.054-.12-.058l-.03.034L-164.39,43c-.118,0,.035.048-.083.049-.069-.1-.509-.007-.611-.092-.08.072.223.008.136.073a.394.394,0,0,0-.129-.028l.027.042a7.356,7.356,0,0,0-.812-.043l.013-.009a.278.278,0,0,0-.225.031c-.024-.02.058-.032.014-.049-.2.116-.4-.08-.52,0,.007-.041-.042-.081-.088-.119h-.255l0,.006,1.95,3.06.016.025.008.013.082.128,0,0,.006.011.088.139a.237.237,0,0,0,.031.039c.015.026,0,0-.008,0l.006.01.06.088s0,0,0,0l.444.7c.008.009.034.045.052.069.108.182.309.489.383.614l.344.539c.023.024.041.041.047.038a1.538,1.538,0,0,1-.16-.244,2.151,2.151,0,0,0,.149.2c.036.085-.094-.138-.04-.03a1.006,1.006,0,0,0,.07.094c-.028-.031.021.053.027.07l.279.453,0,.006.071.112c.048.056.092.1.085.073.067.1.063.113.124.2-.077-.15.016.029.041.035.06.089.013.036.036.08a.238.238,0,0,0,.045.047c.021.055-.067-.047-.07-.024l.083.13.005,0,.017.026-.01,0,.085.133a.077.077,0,0,0,.019-.092c.014,0,.045.092.07.132a2.9,2.9,0,0,0,.181.266l-.056-.067a1.311,1.311,0,0,0,.122.174c0,.007-.076-.054-.054-.006.109.256.168-.024.136.006l-.033.065c-.013.009-.028-.024-.046-.041,0-.008.022.012.035.022s.012,0,.015-.013a.04.04,0,0,0,0-.024c0,.011.068-.089.122-.165-.02.031-.079.124-.047.094a.571.571,0,0,1,.093-.114c-.03.063-.074.161-.108.244-.006.014-.016.032-.022.047L-162,50l.006-.016c.025-.073.039-.132.047-.158.067-.089.077-.035.067-.008.128-.178.079-.209.209-.387l-.054.063c.027-.045.141-.2.123-.183.034-.03.078-.048.056,0l.08-.183c-.013.026.025.03.023.043.046-.063.045-.132.012-.094a2.022,2.022,0,0,1,.17-.173C-161.234,48.866-161.291,48.887-161.313,48.912Zm2.865-4.146c.039-.042.068-.058.065-.107C-158.408,44.671-158.433,44.736-158.447,44.766Zm-1.458,2.192a.535.535,0,0,0,.065-.085A.272.272,0,0,0-159.905,46.958Zm4.876,3.854c-.024-.015-.091,0-.124.008C-155.1,50.828-155.067,50.842-155.029,50.812Zm3.2-.086s0,.008,0,.013c-.013-.02-.048-.047-.035-.071a.239.239,0,0,1,.041.009c-.02.026.014.035.053.061-.046-.071,0-.014,0-.051-.037-.063-.078-.063-.092-.041a.7.7,0,0,0-.15-.238l.045,0-.069-.1.088.06c-.092-.209-.077,0-.185-.232l.028-.017c-.059-.077-.126-.077-.128-.163-.065-.071.04.162-.078-.024a.771.771,0,0,0-.061-.179c-.049-.053-.008.067.019.1-.183-.279,0-.237-.191-.471.03.1-.1-.04.021.168-.076-.089-.07-.221-.164-.306l.078.045a.484.484,0,0,0-.076-.089l.035-.009c-.128-.1-.113-.253-.228-.289.086.021-.059-.094-.067-.157.1.083.175.3.234.287-.013-.058-.064-.088-.076-.143a.413.413,0,0,0,.086.076.961.961,0,0,0-.249-.328l.113.167c-.059.015-.054-.073-.123-.1-.023-.1-.1-.148-.127-.228.011.019.016.017.027.037-.112-.188-.056-.29-.1-.367s-.146-.2-.139-.138c-.05-.052.162.242.031.174.017-.154-.16-.2-.242-.472.089.086.01-.087.086-.007a.346.346,0,0,0-.138-.143l.006-.049c-.143-.114-.071-.006-.231-.21.064.063-.014-.111.037-.064a.57.57,0,0,0-.118-.154l.008.006c-.145-.217-.073-.2-.222-.391l0,.03c-.2-.243-.369-.6-.551-.863l.043.105a1.58,1.58,0,0,1-.16-.273.4.4,0,0,1,.044.059c.017-.013.026-.063-.008-.132l-.044-.009.007-.04c-.059-.1-.024.054-.083-.048.049-.107-.244-.444-.22-.574-.1-.034.1.2,0,.153a.381.381,0,0,0-.039-.126l-.024.044a7.286,7.286,0,0,0-.361-.724l.014.006c-.042-.106-.079-.155-.138-.179.006-.031.056.035.05-.012-.2-.115-.126-.385-.256-.45.039-.014.05-.076.06-.135l-.126-.22-2.085,2.959-.017.025-.009.011-.088.124,0,0-.008.011-.094.133a.209.209,0,0,0-.023.043c-.019.024,0,0,0-.008l-.006.009-.058.088s0-.006,0-.009l-.124.175h0l-.355.5c0,.011-.029.049-.044.075-.127.168-.333.469-.42.585l-.367.52c-.014.031-.022.054-.017.058a1.5,1.5,0,0,1,.165-.24,2.111,2.111,0,0,0-.128.213c-.065.066.091-.139.012-.048a1.008,1.008,0,0,0-.06.1c.018-.037-.041.039-.055.052l-.312.428,0,0-.076.107c-.033.065-.056.123-.035.106-.07.1-.081.1-.137.19.109-.128-.021.025-.016.05-.059.089-.029.026-.06.064a.224.224,0,0,0-.025.059c-.043.04.018-.079,0-.074l-.088.126.006,0-.017.025,0-.01-.091.128a.078.078,0,0,0,.092-.017c0,.013-.067.076-.1.114a2.955,2.955,0,0,0-.177.267l.041-.077a1.325,1.325,0,0,0-.114.179c-.008,0,.021-.09-.015-.053-.12.164-.2.343-.175.345l.16-.268c.02,0-.112.191-.088.192l-.084.116c-.026.035-.065.09-.065.088-.009.013.063-.1.028-.066-.039.056-.037.053-.042.056a.116.116,0,0,0-.026.02,1.806,1.806,0,0,1,.085-.209l.015-.037-.137.2c0,.006-.005.012-.007.017-.02.065,0,.078.006.082-.033.032-.008.027-.034.043a.25.25,0,0,1-.07.027c.222,0,.193-.056.421-.052l-.082-.008c.052,0,.24,0,.22,0,.043.011.084.037.035.043l.194-.04c-.029,0-.01.038-.022.044.078,0,.133-.039.084-.045a1.973,1.973,0,0,1,.238.039c.045,0,0-.037-.037-.04a1.065,1.065,0,0,1,.21,0c-.117.011-.094.045-.079.073h.112l.252-.074a.13.13,0,0,0-.039.045,3.035,3.035,0,0,1,.648-.035h-.031c-.041.012.134.02.205.008-.012.007-.029,0-.059.006.136.026.176-.053.314-.024-.125,0-.15.012-.144.025.1-.013.341,0,.291-.042.066.008.125,0,.119.024l.253-.027c-.019,0-.035.017.039.02a1.941,1.941,0,0,1-.352.008c0,.026.049.04-.018.062a3.318,3.318,0,0,0,.595-.091l.24.018.01-.013.041.032a.158.158,0,0,1,.056-.011c.005,0,0,.007-.014.012a.321.321,0,0,0,.06-.008c.01.017-.033.037-.078.054l-.066-.018c-.029.01-.049.019-.049.028h.088l.027-.01.02.006-.024,0h.041l-.017,0c.115-.021.247-.048.144-.069l.14.018a2.924,2.924,0,0,1,.336-.053c.011.012-.043.022-.006.03.146-.039.356.043.388.009.118-.009.049-.03.124-.041,0,0-.011.012.011.012l.089-.026c.036.009-.082.018.018.028a1.971,1.971,0,0,1,.416-.023c.2-.008-.088-.051.085-.047.025.021.048.046.155.049a.478.478,0,0,1,.146-.043l-.006.033c.09,0,.161-.009.161.016a.447.447,0,0,1,.162-.008c.136-.02-.1-.068-.131-.081a1.211,1.211,0,0,1,.3.049l-.118.01c.252.041.238-.051.355.022-.086,0-.19.017-.139.036l.125-.018c.015.009-.071.007-.014.017.036-.008.108-.026.141-.039v0l.225-.008c-.043,0-.053.012-.01.013l.148-.02c-.045.009,0,.02.067.026.191.01.153-.083.3-.048-.022,0-.025,0-.047,0l.076.016c.016-.079.448-.012.464-.093.108.031.008.02-.132.059l.115.022a1.331,1.331,0,0,0-.136.006.783.783,0,0,0,.376-.033c.058.011-.045.061.119.047.232-.018-.044-.06.1-.071l.1.042a1.84,1.84,0,0,1,.462,0,.167.167,0,0,0,.059-.013.932.932,0,0,0,.243-.015l.114-.016.048,0a.013.013,0,0,1,.008,0c-.006.009.022.029.037.04.02-.008.029-.018.031-.029,0,.013.021.039.039.063.03,0,.024-.017.036-.021s0,.019.037.031S-151.806,50.748-151.83,50.726Zm.359,1.4c0-.006-.012-.009-.036,0A.225.225,0,0,1-151.471,52.126Zm-18.087,13.792a.487.487,0,0,1-.006-.049.324.324,0,0,1-.009-.049c0-.089-.02-.09.011.089C-169.561,65.912-169.559,65.914-169.558,65.918Zm22.433-.926c.2,0,.185-.055.4-.051l-.077-.008c.049,0,.225,0,.206,0,.041.01.078.036.033.043l.182-.04c-.027,0-.009.038-.02.044.073,0,.124-.04.078-.045a1.735,1.735,0,0,1,.223.039c.042,0,0-.037-.035-.041a.956.956,0,0,1,.2,0c-.109.011-.088.045-.074.073h.1l.236-.074a.125.125,0,0,0-.036.045,2.663,2.663,0,0,1,.607-.035h-.029c-.039.012.125.02.192.008-.012.007-.027,0-.056.005.127.026.165-.053.295-.023-.118,0-.141.012-.134.025.1-.013.319,0,.272-.042.062.008.118,0,.112.024l.236-.027c-.018,0-.033.017.036.02a1.68,1.68,0,0,1-.33.008c0,.026.047.04-.017.062a2.963,2.963,0,0,0,.557-.091l.225.018.009-.013.039.032a.152.152,0,0,1,.052-.011c.005,0,0,.007-.013.012a.319.319,0,0,0,.057-.008c.009.017-.031.037-.073.054l-.062-.018c-.027.01-.046.019-.046.028h.082l.025-.01.019.006-.023,0h.039l-.016,0c.108-.021.231-.047.135-.069l.131.019a2.582,2.582,0,0,1,.315-.053c.01.012-.04.022-.006.031.136-.039.333.043.363.009.11-.009.046-.03.116-.041,0,0-.01.012.01.012l.084-.026c.034.009-.077.018.017.028a1.707,1.707,0,0,1,.389-.023c.191-.008-.082-.051.079-.048.024.021.045.046.146.049a.411.411,0,0,1,.136-.043l-.006.033c.083,0,.151-.009.151.016a.41.41,0,0,1,.152-.008c.127-.019-.094-.068-.123-.081a1.039,1.039,0,0,1,.283.049l-.111.01c.236.041.224-.051.333.022-.081,0-.178.017-.13.036l.117-.018c.014.009-.067.007-.013.017a1.229,1.229,0,0,0,.132-.038l0,0,.211-.008c-.04,0-.05.012-.01.013l.138-.02c-.042.01,0,.02.063.026.178.01.143-.083.281-.047-.02,0-.023,0-.044,0l.071.016c.015-.079.42-.012.435-.093.1.031.007.02-.123.059l.108.022a1.164,1.164,0,0,0-.128.006.691.691,0,0,0,.352-.033c.054.011-.043.061.112.047.218-.018-.041-.059.09-.071l.095.042a.882.882,0,0,1,.226-.016,1.544,1.544,0,0,1,.165.015c.01,0,.013-.008.013-.012.071.018.041-.036.026-.047a.051.051,0,0,0,.046,0,.351.351,0,0,0-.057-.046.23.23,0,0,0,.082.015c-.019-.029-.035-.027-.052-.05.019.014.03.015.035,0l-.144-.159a.244.244,0,0,0,.023.053.925.925,0,0,1-.12-.214c.012,0,.034.018.047.019a.124.124,0,0,0,.081.108c-.078-.125-.013-.035-.032-.106-.053-.09-.106-.109-.112-.074a.671.671,0,0,0-.148-.232h.044l-.066-.09.085.055c-.084-.2-.075,0-.176-.215l.029-.018c-.056-.071-.122-.07-.122-.151-.062-.066.035.153-.076-.021a.709.709,0,0,0-.055-.169c-.047-.049-.01.064.016.1-.172-.261,0-.225-.175-.443.027.095-.1-.035.016.159-.073-.083-.063-.208-.153-.286l.076.041a.428.428,0,0,0-.073-.083l.035-.009c-.123-.09-.1-.238-.216-.269.084.018-.056-.088-.062-.147.1.076.164.283.222.267-.011-.055-.06-.081-.071-.135a.373.373,0,0,0,.082.071c-.059-.169-.169-.221-.236-.306l.106.156c-.059.016-.051-.068-.118-.091-.02-.1-.1-.138-.119-.214.01.018.016.016.026.034-.1-.176-.047-.275-.087-.346s-.138-.188-.133-.128c-.048-.048.153.226.025.165.021-.147-.151-.191-.225-.443.085.08.013-.083.085-.009a.311.311,0,0,0-.132-.132l.007-.047c-.137-.1-.069,0-.222-.193.061.058-.011-.1.038-.062a.494.494,0,0,0-.112-.143l.008.005c-.136-.2-.067-.191-.208-.366l-.005.028c-.189-.226-.346-.559-.519-.807l.04.1c-.008-.033-.129-.159-.15-.255a.377.377,0,0,1,.042.055c.017-.013.027-.061,0-.126l-.043-.007.008-.038c-.055-.1-.025.052-.08-.044.051-.1-.228-.416-.2-.541-.1-.029.1.185,0,.146a.353.353,0,0,0-.035-.118l-.025.043a6.32,6.32,0,0,0-.336-.68l.014.006c-.039-.1-.073-.145-.131-.167.007-.029.055.031.05-.013-.193-.1-.114-.363-.24-.422.039-.014.051-.074.063-.13l-.118-.206h0l-1.685,2.939-.015.026-.007.011-.071.124v0l-.007.01-.076.133a.23.23,0,0,0-.018.042c-.015.024,0,0,0-.008l-.006.01-.046.087s0-.006,0-.009l-.388.676c0,.011-.022.048-.034.073-.1.169-.271.468-.342.583l-.3.516c-.01.03-.016.053-.01.056a1.328,1.328,0,0,1,.132-.238,1.9,1.9,0,0,0-.1.21c-.056.066.073-.137.006-.047a.806.806,0,0,0-.047.1c.013-.037-.035.039-.047.053l-.254.426,0,0-.061.106c-.025.064-.041.12-.022.1-.056.1-.067.1-.111.189.092-.128-.018.025-.01.049-.047.088-.025.026-.051.064a.2.2,0,0,0-.018.058c-.038.041.008-.077-.014-.07l-.071.125.006,0-.014.025,0-.009-.073.128a.076.076,0,0,0,.088-.022c.006.012-.056.077-.079.114a2.381,2.381,0,0,0-.141.265l.031-.075a1.135,1.135,0,0,0-.09.177c-.008,0,.01-.087-.021-.049-.1.163-.153.339-.129.339l.124-.264c.02,0-.087.189-.063.188l-.068.116-.034.058a.156.156,0,0,1-.015.022c-.006.012.042-.085.015-.056-.046.083-.02.029-.054.071a1.278,1.278,0,0,1,.055-.2l.01-.036-.111.194s0,.011,0,.016c-.011.061.008.071.018.073C-147.038,64.951-147.08,64.981-147.125,64.991Zm5.686-.109c.053.008.081.022.117-.008C-141.345,64.859-141.407,64.877-141.439,64.882Zm-13.5-4.494-.015.026-.007.011-.071.124v0l-.006.01-.076.132a.213.213,0,0,0-.018.043c-.015.024,0,0,0-.008l-.005.01-.046.087s0-.006,0-.009l-.388.676c0,.011-.022.048-.034.073-.1.169-.271.468-.342.583l-.3.516c-.01.03-.015.053-.01.056a1.306,1.306,0,0,1,.132-.238,1.8,1.8,0,0,0-.1.21c-.056.066.073-.137.006-.047a.869.869,0,0,0-.047.1c.014-.037-.035.039-.047.053l-.254.426,0,0-.061.106c-.025.064-.041.12-.022.1-.056.1-.067.1-.11.189.092-.128-.018.025-.01.049-.048.088-.025.026-.051.064a.216.216,0,0,0-.018.058c-.037.041.008-.077-.013-.07l-.071.125.006,0-.014.025,0-.009-.073.128a.076.076,0,0,0,.088-.022c.006.012-.057.077-.079.114a2.562,2.562,0,0,0-.141.265l.031-.075a1.135,1.135,0,0,0-.09.177c-.008,0,.01-.087-.02-.049-.1.163-.154.339-.13.339l.124-.264c.02,0-.087.189-.063.188l-.068.116-.034.058a.154.154,0,0,1-.015.022c-.006.012.042-.085.015-.056-.046.083-.02.029-.054.071a1.288,1.288,0,0,1,.055-.2l.01-.036-.111.194c0,.005,0,.012,0,.016-.011.061.008.071.018.073.022.018-.019.048-.064.059.2,0,.185-.055.4-.051l-.077-.008c.049,0,.225,0,.206,0,.041.01.078.036.033.043l.182-.04c-.027,0-.009.038-.021.044.073,0,.124-.04.078-.045a1.723,1.723,0,0,1,.223.039c.042,0,0-.037-.035-.041a.957.957,0,0,1,.2,0c-.11.011-.088.045-.074.073h.1l.236-.074a.123.123,0,0,0-.037.045,2.665,2.665,0,0,1,.607-.035h-.029c-.038.012.125.02.192.008-.011.007-.027,0-.055.005.127.026.165-.053.294-.023-.117,0-.141.012-.134.025.1-.013.319,0,.273-.042.062.008.117,0,.112.024l.236-.027c-.018,0-.033.017.037.02a1.684,1.684,0,0,1-.331.008c0,.026.047.04-.017.062a2.953,2.953,0,0,0,.557-.091l.225.018.009-.013.039.032a.154.154,0,0,1,.052-.011c.005,0,0,.007-.013.012a.307.307,0,0,0,.056-.008c.009.017-.031.037-.073.054l-.062-.018c-.027.01-.046.019-.046.028h.083l.025-.01.019.006-.023,0h.039l-.016,0c.108-.021.231-.047.134-.069l.131.019a2.574,2.574,0,0,1,.315-.053c.01.012-.04.022-.006.031.137-.039.334.043.363.009.11-.009.046-.03.116-.041,0,0-.01.012.01.012l.084-.026c.034.009-.077.018.017.028a1.708,1.708,0,0,1,.389-.023c.191-.008-.082-.051.079-.048.024.021.045.046.146.049a.415.415,0,0,1,.137-.043l-.006.033c.084,0,.151-.009.151.016a.408.408,0,0,1,.151-.008c.127-.019-.094-.068-.123-.081a1.033,1.033,0,0,1,.283.049l-.11.01c.236.041.224-.051.333.022-.081,0-.178.017-.13.036l.117-.018c.014.009-.067.007-.013.017a1.224,1.224,0,0,0,.132-.038l0,0,.211-.008c-.04,0-.05.012-.01.013l.139-.02c-.043.01,0,.02.063.026.178.01.143-.083.281-.047-.02,0-.024,0-.044,0l.071.016c.015-.079.42-.012.435-.093.1.031.007.02-.123.059l.108.022a1.164,1.164,0,0,0-.128.006.69.69,0,0,0,.352-.033c.054.011-.043.061.112.047.218-.018-.041-.059.09-.071l.1.042a.88.88,0,0,1,.226-.016,1.544,1.544,0,0,1,.165.015c.01,0,.013-.008.013-.012.071.018.041-.036.026-.047a.051.051,0,0,0,.046,0,.369.369,0,0,0-.058-.046.233.233,0,0,0,.082.015c-.019-.029-.035-.027-.051-.05.019.014.03.015.034,0l-.144-.159a.29.29,0,0,0,.023.053.924.924,0,0,1-.12-.214c.013,0,.035.018.047.019a.123.123,0,0,0,.081.108c-.078-.125-.012-.035-.032-.106-.053-.09-.106-.109-.112-.074a.675.675,0,0,0-.148-.232h.044l-.066-.09.085.055c-.084-.2-.075,0-.176-.215l.029-.018c-.057-.071-.122-.07-.122-.151-.062-.066.035.153-.076-.021a.694.694,0,0,0-.056-.169c-.047-.049-.01.064.016.1-.172-.261,0-.225-.175-.443.027.095-.1-.035.016.159-.073-.083-.063-.208-.153-.286l.076.041a.415.415,0,0,0-.073-.083l.035-.009c-.123-.09-.1-.238-.216-.269.084.018-.056-.088-.062-.147.1.076.164.283.223.267-.012-.055-.06-.081-.071-.135a.374.374,0,0,0,.082.071c-.059-.169-.169-.221-.236-.306l.106.156c-.059.016-.051-.068-.118-.091-.02-.1-.1-.138-.119-.214.01.018.016.016.026.034-.1-.176-.047-.275-.086-.346s-.138-.188-.133-.128c-.048-.048.153.226.025.165.021-.147-.151-.191-.225-.443.085.08.013-.083.085-.009a.311.311,0,0,0-.132-.132l.007-.047c-.137-.1-.069,0-.222-.193.061.058-.011-.1.038-.062a.488.488,0,0,0-.112-.143l.008.005c-.136-.2-.067-.191-.208-.366l0,.028c-.19-.226-.347-.559-.519-.807l.04.1c-.008-.033-.129-.159-.15-.255a.379.379,0,0,1,.042.055c.018-.013.027-.061,0-.126l-.043-.007.008-.038c-.055-.1-.025.052-.08-.044.051-.1-.228-.416-.2-.541-.1-.029.1.185,0,.146a.366.366,0,0,0-.035-.118l-.024.043a6.4,6.4,0,0,0-.336-.68l.014.006c-.038-.1-.073-.145-.13-.167.007-.029.054.031.049-.013-.192-.1-.114-.363-.24-.422.039-.014.051-.074.063-.13l-.118-.206h0Zm4.512,5.807a2,2,0,0,0,.294,0C-150.238,66.195-150.336,66.194-150.423,66.2Zm-1.431-1.314c.053.008.081.022.116-.008C-151.761,64.859-151.823,64.877-151.854,64.882Zm-5.848,1.4a1.936,1.936,0,0,0,.344-.008A.988.988,0,0,0-157.7,66.279Zm-2.2-9.243c.022.015.082,0,.112-.008C-159.837,57.02-159.864,57.006-159.9,57.036Zm-2.36.141a.264.264,0,0,0-.085-.019c.018.026.038.033.049.045-.013,0-.029-.013-.033.006.029.022.09.1.134.142a.236.236,0,0,0-.022-.052.87.87,0,0,1,.116.207c-.012,0-.034-.018-.046-.018a.117.117,0,0,0-.079-.1c.076.121.012.034.03.1.052.087.1.1.11.07a.628.628,0,0,0,.143.225h-.044l.064.086-.084-.052c.081.19.075,0,.171.208l-.029.017c.055.069.12.067.119.146.061.063-.032-.149.075.019a.641.641,0,0,0,.053.164c.046.047.01-.062-.014-.095.167.252-.007.22.168.43-.025-.092.1.033-.014-.155.071.079.06.2.148.277l-.075-.039a.4.4,0,0,0,.071.08l-.035.01c.121.086.1.23.211.259-.083-.016.054.085.059.143-.095-.073-.159-.274-.217-.258.01.053.059.079.068.13a.354.354,0,0,0-.08-.067c.056.164.164.214.23.295l-.1-.151c.059-.016.05.066.116.087.018.095.094.133.114.207-.009-.017-.015-.015-.025-.033.1.171.043.267.081.337s.134.181.13.122c.047.046-.148-.219-.022-.16-.023.144.147.184.217.428-.083-.077-.014.081-.084.01a.3.3,0,0,0,.129.127l-.008.045c.135.1.069,0,.217.185-.059-.056.01.1-.039.061a.465.465,0,0,0,.11.138l-.008-.005c.132.2.063.186.2.354l.005-.027c.185.218.336.54.5.779l-.038-.1c.007.032.126.154.145.247a.351.351,0,0,1-.041-.053c-.018.013-.028.059,0,.122l.043.007-.008.037c.053.092.026-.051.079.041-.053.1.22.4.191.524.1.027-.092-.179,0-.143a.329.329,0,0,0,.033.115l.025-.042a6.032,6.032,0,0,0,.323.658l-.014-.006c.037.1.071.141.127.161-.007.029-.053-.03-.049.014.189.1.108.353.232.408-.039.015-.051.073-.064.128l.114.2v0l1.632-2.845.012-.022.007-.011.069-.12v0l.006-.01.074-.129a.16.16,0,0,0,.017-.041c.015-.023,0,0,0,.008l0-.009.045-.085s0,.006,0,.008l.1-.168h0l.278-.485c0-.011.021-.046.033-.071.1-.163.262-.453.331-.564l.286-.5c.01-.029.015-.051.009-.054a1.245,1.245,0,0,1-.128.23,1.762,1.762,0,0,0,.1-.2c.054-.064-.07.133-.006.045a.778.778,0,0,0,.045-.1c-.013.035.035-.038.046-.051l.246-.411,0,0,.059-.1c.024-.062.039-.116.02-.1.054-.1.065-.1.107-.183-.089.123.017-.024.009-.047.046-.086.024-.025.05-.062a.18.18,0,0,0,.017-.056c.037-.039-.007.075.014.068l.069-.121-.006,0,.014-.024,0,.009.071-.123a.074.074,0,0,0-.087.02c-.006-.012.055-.074.077-.11a2.356,2.356,0,0,0,.136-.256l-.029.073a1.066,1.066,0,0,0,.087-.171c.008,0-.009.085.021.048.094-.158.147-.328.124-.329l-.12.256c-.019,0,.083-.183.06-.183l.066-.112c.022-.038.049-.08.049-.08s-.043.088-.016.058c.03-.055.025-.043.031-.05a.084.084,0,0,0,.023-.02,1.355,1.355,0,0,1-.053.195l-.01.035.108-.187c0-.005,0-.011,0-.016.01-.06-.008-.071-.018-.073.014-.016.009-.018.007-.021a.028.028,0,0,1,.012-.016.183.183,0,0,1,.061-.027c-.2,0-.175.056-.382.053l.075.008c-.047,0-.218,0-.2.005-.039-.01-.076-.036-.032-.043l-.176.041c.026,0,.009-.038.02-.044-.071,0-.12.04-.075.045a1.73,1.73,0,0,1-.216-.038c-.041,0,0,.037.034.04a.882.882,0,0,1-.19,0c.106-.011.085-.045.072-.073h-.1l-.228.075a.127.127,0,0,0,.035-.045,2.514,2.514,0,0,1-.587.037h.028c.037-.012-.121-.02-.185-.007.011-.007.026-.005.053-.006-.123-.025-.159.054-.285.024.114,0,.136-.012.13-.026-.093.013-.308,0-.263.043-.06-.008-.113,0-.108-.024L-157.1,57c.017,0,.032-.017-.035-.02a1.614,1.614,0,0,1,.32-.009c0-.026-.045-.039.016-.062a2.784,2.784,0,0,0-.538.093l-.218-.018-.009.013-.038-.032a.146.146,0,0,1-.051.011s0-.007.013-.012a.3.3,0,0,0-.055.008c-.008-.017.03-.037.071-.054l.06.017c.026-.01.045-.019.044-.028h-.08l-.024.01-.018-.006.022,0h-.037l.015,0c-.1.021-.223.049-.13.07l-.127-.018a2.481,2.481,0,0,1-.3.054c-.01-.012.039-.022.006-.031-.132.04-.322-.042-.351-.008-.106.009-.044.03-.112.041,0,0,.01-.012-.01-.012l-.08.026c-.033-.009.074-.018-.017-.028a1.6,1.6,0,0,1-.377.024c-.185.008.079.051-.077.047a.168.168,0,0,0-.141-.048.4.4,0,0,1-.132.043l.006-.033c-.081,0-.146.009-.147-.016a.375.375,0,0,1-.146.008c-.123.02.09.068.119.081-.121-.024-.2-.007-.273-.048l.107-.01c-.228-.04-.216.052-.322-.021.078,0,.172-.017.126-.036l-.113.019c-.014-.009.065-.007.012-.017a1.266,1.266,0,0,0-.127.039l0,0-.2.008c.039,0,.048-.012.009-.013l-.134.02c.041-.01,0-.02-.061-.025-.173-.009-.138.084-.272.048.019,0,.022,0,.042,0l-.069-.016c-.014.079-.406.013-.42.094-.1-.031-.007-.019.119-.059l-.1-.022a1,1,0,0,0,.123-.006.64.64,0,0,0-.34.034c-.052-.011.041-.062-.108-.047-.211.018.04.06-.087.071l-.092-.042a.829.829,0,0,1-.219.016,1.474,1.474,0,0,1-.159-.014c-.01,0-.013.008-.013.012-.066-.017-.044.034-.029.045a.058.058,0,0,0-.047,0A.4.4,0,0,0-162.258,57.177Zm-5.695,7.814c.2,0,.185-.055.4-.051l-.077-.008c.048,0,.224,0,.206,0,.041.01.078.036.033.043l.182-.04c-.027,0-.009.038-.02.044.073,0,.124-.04.078-.045a1.727,1.727,0,0,1,.223.039c.042,0,0-.037-.035-.041a.953.953,0,0,1,.2,0c-.109.011-.088.045-.074.073h.1l.236-.074a.127.127,0,0,0-.037.045,2.655,2.655,0,0,1,.606-.035h-.029c-.039.012.125.02.191.008-.011.007-.027,0-.055.005.127.026.165-.053.293-.023-.117,0-.14.012-.134.025.1-.013.318,0,.272-.042.062.008.117,0,.112.024l.236-.027c-.017,0-.033.017.037.02a1.676,1.676,0,0,1-.33.008c0,.026.046.04-.017.062a2.942,2.942,0,0,0,.556-.091l.225.018.01-.013.039.032a.152.152,0,0,1,.052-.011c.005,0,0,.007-.013.012a.319.319,0,0,0,.057-.008c.009.017-.031.037-.073.054l-.062-.018c-.027.01-.046.019-.046.028h.082l.025-.01.019.006-.023,0h.039l-.016,0c.108-.021.231-.047.134-.069l.131.019a2.58,2.58,0,0,1,.314-.053c.01.012-.04.022-.006.031.136-.039.333.043.363.009.11-.009.046-.03.116-.041,0,0-.01.012.01.012l.083-.026c.034.009-.077.018.017.028a1.7,1.7,0,0,1,.389-.023c.191-.008-.081-.051.079-.048.024.021.045.046.145.049a.415.415,0,0,1,.136-.043l-.006.033c.084,0,.15-.009.151.016a.406.406,0,0,1,.151-.008c.127-.019-.093-.068-.123-.081a1.029,1.029,0,0,1,.282.049l-.11.01c.235.041.223-.051.332.022-.08,0-.177.017-.13.036l.117-.018c.014.009-.067.007-.013.017a1.222,1.222,0,0,0,.132-.038l0,0,.211-.008c-.04,0-.05.012-.01.013l.139-.02c-.043.01,0,.02.063.026.178.01.143-.083.281-.047-.02,0-.023,0-.044,0l.071.016c.015-.079.419-.012.434-.093.1.031.007.02-.123.059l.108.022a1.153,1.153,0,0,0-.127.006.686.686,0,0,0,.351-.033c.054.011-.042.061.112.047.218-.018-.041-.059.09-.071l.095.042a.877.877,0,0,1,.226-.016l.1.007.051,0,.018,0c.01,0,.014-.008.014-.012.067.017.048-.034.031-.045a.054.054,0,0,0,.047,0,.39.39,0,0,0-.059-.047.245.245,0,0,0,.084.018c-.018-.027-.038-.033-.049-.046.013,0,.029.013.032-.006-.036-.034-.094-.1-.14-.153a.271.271,0,0,0,.022.053.929.929,0,0,1-.12-.214c.012,0,.034.018.047.019a.123.123,0,0,0,.081.108c-.078-.125-.013-.035-.032-.106-.053-.09-.106-.108-.112-.073a.674.674,0,0,0-.148-.232H-160l-.066-.089.084.055c-.084-.2-.075,0-.175-.215l.029-.017c-.057-.072-.122-.07-.122-.151-.062-.066.034.153-.076-.021a.7.7,0,0,0-.055-.169c-.047-.049-.01.063.016.1-.172-.26,0-.225-.175-.443.026.095-.1-.035.016.159-.072-.083-.063-.208-.153-.286l.075.041a.4.4,0,0,0-.072-.083l.035-.009c-.123-.09-.1-.238-.216-.269.084.018-.055-.088-.061-.147.1.076.164.283.222.267-.011-.055-.06-.082-.071-.135a.362.362,0,0,0,.082.07c-.059-.169-.168-.221-.236-.3l.106.155c-.059.016-.051-.068-.118-.09-.02-.1-.1-.137-.118-.214.01.018.016.016.026.034-.1-.176-.047-.275-.086-.346s-.138-.187-.133-.127c-.048-.048.152.226.024.164.021-.147-.151-.19-.224-.442.085.08.013-.083.085-.009a.305.305,0,0,0-.132-.132l.007-.047c-.137-.1-.069,0-.221-.192.061.058-.011-.105.039-.063a.492.492,0,0,0-.112-.143l.008.005c-.136-.2-.066-.191-.207-.365l-.005.028c-.189-.226-.346-.558-.518-.805l.04.1c-.008-.033-.129-.159-.15-.255a.372.372,0,0,1,.041.055c.018-.013.027-.061,0-.126l-.043-.008.008-.038c-.055-.1-.025.051-.08-.044.051-.1-.228-.415-.2-.54-.1-.029.1.185,0,.146a.353.353,0,0,0-.035-.118l-.024.043a6.3,6.3,0,0,0-.335-.679l.014.006c-.038-.1-.073-.145-.13-.167.007-.029.054.031.049-.014-.192-.1-.113-.363-.239-.421.039-.014.051-.074.063-.13l-.118-.205-1.691,2.931-.014.025-.008.012-.071.122v0l-.006.01-.077.133a.174.174,0,0,0-.018.042c-.016.024,0,0,0-.008l0,.008-.047.089s0-.006,0-.009l-.388.673c0,.01-.022.048-.035.073-.1.167-.271.465-.343.58l-.3.515c-.01.03-.016.053-.01.056a1.326,1.326,0,0,1,.133-.237,1.811,1.811,0,0,0-.1.209c-.056.066.073-.137.006-.047a.768.768,0,0,0-.047.1c.013-.037-.035.039-.047.052l-.255.425,0,0-.061.106c-.025.064-.041.12-.022.1-.056.1-.067.1-.111.189.092-.127-.018.025-.01.049-.048.088-.025.026-.051.064a.212.212,0,0,0-.018.058c-.037.041.008-.077-.013-.07l-.072.124.007,0-.014.025,0-.009-.073.127a.075.075,0,0,0,.088-.022c.006.012-.057.077-.079.114a2.526,2.526,0,0,0-.141.264l.031-.075a1.162,1.162,0,0,0-.09.176c-.008,0,.01-.087-.02-.049-.1.163-.154.338-.13.338l.125-.264c.02,0-.087.188-.063.188l-.068.115-.034.057a.124.124,0,0,1-.015.021c-.006.012.042-.083.015-.055-.046.082-.02.029-.054.071a.336.336,0,0,1,.015-.069l.04-.128c0-.012.007-.024.01-.036l-.111.194,0,.016c-.011.061.009.071.018.073C-167.866,64.951-167.907,64.981-167.953,64.991Zm5.675-.109c.053.008.081.022.116-.008C-162.184,64.859-162.246,64.877-162.277,64.882Zm23.7,1.291h-.108l-.18,0-.345.014a.943.943,0,0,0-.306.037l.806-.023c.094.016-.555.018-.521.039l-.79,0c.1,0,.405-.007.285-.016-.339,0-.176,0-.4-.01.224-.014.554-.039.844-.061h-.674c-.226.022-.4.047-.475.057-.306,0-.2-.043-.126-.05-.6,0-.593.056-1.2.052l.228.008c-.143,0-.663,0-.607,0-.12-.011-.23-.037-.1-.044l-.536.04c.079,0,.027-.038.061-.044-.216,0-.367.039-.231.045-.421-.024-.316-.01-.658-.039-.124,0,.012.037.1.04-.281.01-.446.006-.58,0,.323-.011.259-.045.219-.073h-.308l-.7.074a.328.328,0,0,0,.107-.045c-.084.032-1.229.039-1.789.035h.084a3.122,3.122,0,0,0-.566-.008,1.028,1.028,0,0,1,.163-.006c-.374-.026-.486.053-.867.024.346,0,.414-.012.4-.026-.283.013-.94,0-.8.042-.182-.008-.346,0-.33-.024l-.7.027c.052,0,.1-.017-.107-.02.391,0,.768-.035.974-.008.01-.026-.136-.04.051-.062-.754.012-1.166.058-1.641.091l-.663-.018-.028.013-.115-.032a1.134,1.134,0,0,1-.153.011c-.015,0,.006-.007.039-.012-.07,0-.133,0-.166.008-.026-.017.091-.037.216-.054l.183.018a.424.424,0,0,0,.142-.028h-.251l-.074.01-.057-.006.067,0h-.112l.045,0c-.318.021-.68.048-.4.069l-.386-.018c-.454.034-.375.027-.927.053-.03-.012.117-.022.018-.03-.4.039-.983-.043-1.07-.009-.326.009-.136.03-.342.041.01,0,.029-.012-.031-.012l-.245.026c-.1-.009.226-.018-.051-.028-.474.02-.752.034-1.147.023-.563.008.241.051-.235.047a1.207,1.207,0,0,0-.428-.049,3.219,3.219,0,0,1-.4.043l.017-.033a1.5,1.5,0,0,1-.446-.016,3.371,3.371,0,0,1-.446.008c-.374.02.275.068.363.081-.368-.024-.622-.008-.832-.049l.326-.01a7.272,7.272,0,0,1-.981-.021c.238,0,.524-.017.383-.036l-.345.019c-.041-.009.2-.007.039-.017-.1.008-.3.026-.389.039l0,0-.623.008c.118,0,.147-.012.029-.013l-.408.02c.125-.009,0-.02-.186-.026-.526-.01-.421.084-.829.047l.129,0-.21-.016c-.044.079-1.236.012-1.281.093-.3-.031-.021-.02.363-.059l-.318-.022c.129,0,.237,0,.375-.006a5.8,5.8,0,0,0-1.037.033c-.159-.011.125-.061-.329-.047-.642.018.122.06-.264.071l-.279-.042c-.493.035-.861.007-1.276,0a1.2,1.2,0,0,0-.163.014c-.442-.018-.926.047-1.26.034.078-.01-.19-.028-.23-.039l-.6.031c.266-.013.254-.04.3-.065-.188,0-.277.018-.4.022.078-.01.157-.02.057-.031a1.275,1.275,0,0,0-.346.044.394.394,0,0,0,.064.007l-.041,0c-.01,0-.045,0-.018.018a.256.256,0,0,1,.058.09.4.4,0,0,1-.062-.029.12.12,0,0,0-.045-.073l-.045-.039c-.022-.016,0-.013-.006-.021s-.035,0-.025.006l.018.023.022.029c.01.013.009.015.005.014s-.033-.021-.008.026c.1.128.234.236.2.155a5.757,5.757,0,0,0,.513.628l-.071-.029.212.247-.2-.178c.369.5.122.05.538.605l-.025.022c.176.2.278.237.375.424.177.19-.239-.376.146.1.053.1.187.283.291.425.112.119-.006-.059-.095-.176.511.63.234.48.763,1.074-.156-.236.2.141-.217-.378.214.235.35.52.587.755l-.169-.141c.073.094.17.189.214.236h-.044c.3.282.451.614.666.754-.155-.093.193.236.275.379-.245-.235-.6-.756-.674-.755.084.134.193.226.274.355a2.74,2.74,0,0,0-.215-.213,7.068,7.068,0,0,0,.741.85l-.356-.425c.074,0,.163.189.3.282.148.236.32.377.445.567l-.081-.094a8.032,8.032,0,0,1,.552.854c.141.19.444.519.364.376.134.141-.513-.617-.236-.4.143.327.469.534.887,1.161-.23-.237.079.184-.123-.031a2.338,2.338,0,0,0,.368.386l.044.1a3.759,3.759,0,0,1,.584.582c-.166-.171.143.249.014.12a4.137,4.137,0,0,0,.35.4l-.02-.018c.459.552.335.484.769.974l-.026-.062c.572.638,1.22,1.5,1.791,2.182l-.182-.254c.051.08.4.448.544.682-.036-.042-.1-.111-.132-.153-.012.02.03.124.158.293l.077.044.033.083c.2.254-.022-.1.18.15.042.208.86,1.1.967,1.373.193.128-.374-.487-.173-.338a2.756,2.756,0,0,0,.2.3l-.012-.084c.593.783.8,1.1,1.348,1.778l-.029-.022a1.946,1.946,0,0,0,.408.466c.024.063-.124-.106-.063,0,.43.359.615.91.886,1.122-.044.01.008.141.056.263l.434.548.008-.01,6.2-7.826.047-.06.024-.03.259-.327.009-.012.015-.018.3-.376c.039-.052.066-.088.069-.1.053-.065,0,.009-.007.017l.018-.022.18-.233c.007-.006.006,0,0,0l1.408-1.778c.018-.028.094-.126.143-.192l.941-1.176,1.4-1.766a.449.449,0,0,0,.073-.124c-.146.194-.439.581-.5.631.146-.193.4-.524.409-.546.168-.187-.28.362-.065.112.105-.134.147-.194.194-.258-.065.093.1-.113.138-.151l.914-1.14.013-.014.229-.289c.115-.162.2-.3.152-.244.209-.266.227-.275.4-.505-.3.352.058-.069.075-.119.181-.233.071-.075.158-.179a1.6,1.6,0,0,0,.1-.145c.108-.117-.118.2-.079.174l.28-.354-.008,0,.053-.067-.006.02.27-.341c-.02-.014-.078.013-.167.105,0-.024.182-.212.263-.313.246-.283.342-.458.541-.7l-.139.193c.018-.018.1-.119.176-.222l.069-.094c.009-.018.036-.041.013-.034.055-.041-.026.094.054.008l.027-.034Zm-21.2.114-.134.007Zm.974,0,.024-.01C-158.831,66.282-158.849,66.287-158.81,66.287Zm7.584-.059.259.012Zm-13.876.105-.157.029C-165.014,66.36-165.122,66.347-165.1,66.333Zm7.519,12.571.024.037C-157.553,78.942-157.565,78.926-157.583,78.9Zm16.514-9.56.007-.008C-141.088,69.363-141.083,69.359-141.07,69.344Zm-23.023,1.532.014.023C-163.989,70.99-164.026,70.947-164.093,70.876Zm19.987-4.647h0Zm-.453.013a2.965,2.965,0,0,1,.449-.014l-.15-.045Zm-6.389-.01a.082.082,0,0,1-.039-.012C-151.024,66.223-151.025,66.227-150.949,66.231Zm-14.124.1h-.015a.037.037,0,0,0-.014.006Zm25.02,1.65.11-.129C-139.942,67.843-139.969,67.873-140.053,67.978Zm-5.407,6.91.135-.169-.192.239Zm2.025-2.585c.058-.069.063-.073.1-.111l0-.016Zm.632-.82c-.018.029-.223.293-.03.054C-142.815,71.509-142.541,71.151-142.8,71.483Zm1.931-5.266c-.239.009-.364,0-.255.026.4.006.094-.021.452-.012C-140.582,66.224-140.967,66.224-140.872,66.217Zm0,0,.122-.006Zm-15.78.12.019-.008a1.289,1.289,0,0,0-.218-.01Zm-3.452-.012h.059l-.111-.033Zm-2.9.056.376-.006C-162.883,66.382-163.033,66.337-163,66.381Zm1.215-1.515-.008.011C-161.779,64.871-161.772,64.867-161.786,64.867Zm2.051-.044a.069.069,0,0,0,0-.027C-159.753,64.8-159.741,64.809-159.735,64.823Zm-1.035-2.131,0-.009C-160.806,62.652-160.794,62.668-160.77,62.692Zm-6,2.233h0Zm.154-.013a.342.342,0,0,1-.152.014l.051.046Zm2.165.01a.023.023,0,0,1,.013.012C-164.424,64.93-164.423,64.926-164.449,64.922Zm4.713-.095h0v0Zm-7.478-1.07a.342.342,0,0,1-.034.047S-167.237,63.8-167.214,63.757Zm1.44-2.6-.037.063.054-.089Zm-.541.972a.291.291,0,0,1-.031.039l.009.009Zm-.163.311c0-.012.056-.112,0-.023C-166.478,62.428-166.548,62.565-166.478,62.44Zm-1.342,2.5.045-.007c.016,0,.018-.007,0-.018-.037-.009-.019.02-.059.01C-167.86,64.928-167.8,64.928-167.82,64.935Zm5.3-.12-.006.008a.156.156,0,0,0,.074.01Zm1.169.012h-.02l.038.033Zm.982-.056-.127.006C-160.406,64.771-160.355,64.816-160.366,64.772Zm5.738-13.968-.009.01C-154.621,50.809-154.614,50.8-154.628,50.8Zm2.28-.047.057-.029C-152.381,50.73-152.342,50.744-152.348,50.758Zm-.44-1.858,0-.01C-152.826,48.856-152.814,48.873-152.789,48.9Zm-7.166,1.963h0Zm.164-.013a.391.391,0,0,1-.163.015l.054.045Zm2.314.011a.024.024,0,0,1,.014.012C-157.449,50.868-157.449,50.864-157.476,50.86Zm5.117-.1h.005a.013.013,0,0,0,.005-.006Zm-7.922-1.1a.459.459,0,0,1-.041.047S-160.309,49.707-160.28,49.667Zm1.743-2.565.066-.09-.02.026Zm-.662.958.008.01.029-.049A.267.267,0,0,1-159.2,48.061Zm-.168.275c0-.012.071-.113,0-.024C-159.367,48.324-159.455,48.462-159.368,48.336Zm-1.7,2.536c.05-.008.061,0,.053-.025-.035-.01-.026.02-.065.011C-161.1,50.866-161.042,50.865-161.064,50.872Zm5.647-.111a.176.176,0,0,0,.079.01l-.072-.018Zm1.236,0,.04.033-.019-.032Zm1.071-.055-.136.006C-153.153,50.709-153.1,50.754-153.11,50.709Zm-5.047-6.384,0,.013C-158.148,44.322-158.147,44.314-158.156,44.326Zm.8-1.335a.115.115,0,0,0-.022.027C-157.362,43.019-157.36,43-157.352,42.991Zm-3.17-.069-.01,0C-160.578,42.933-160.558,42.93-160.522,42.922Zm-.669,5.812,0,0,0-.005Zm.084-.143a.4.4,0,0,1-.082.142l.069-.018Zm1.348-1.894a.025.025,0,0,1,.018-.005C-159.736,46.679-159.739,46.676-159.759,46.7Zm2.412-3.711h0l0,.006Zm-5.334,6.439s0-.014-.028-.056A.412.412,0,0,1-162.681,49.425Zm-1.788-2.72.042.067-.058-.1Zm.679,1.047.013,0-.035-.045A.252.252,0,0,1-163.79,47.752Zm.172.248c.01.008.1.143.02.014C-163.607,48-163.676,47.9-163.618,48Zm1.705,1.753c-.013.032.067-.083.053-.05.043-.076.073-.111.032-.091C-161.916,49.725-161.83,49.651-161.913,49.752Zm3.319-4.863-.057.049,0,.01C-158.632,44.942-158.619,44.924-158.594,44.889Zm.677-.971-.013.017.05-.014Zm.553-.852c.006,0,.008,0-.013-.01.009-.018-.031.055-.052.083A.224.224,0,0,1-157.363,43.066ZM-177.2,50.8l-.008.01C-177.19,50.809-177.184,50.8-177.2,50.8Zm2.06-.044a.065.065,0,0,0-.007-.026C-175.158,50.733-175.144,50.747-175.137,50.76Zm-1.147-2.1,0-.009C-176.321,48.626-176.309,48.641-176.284,48.665Zm-5.96,2.2h0Zm.156-.013a.352.352,0,0,1-.154.015l.051.045Zm2.193.011a.023.023,0,0,1,.014.012C-179.87,50.868-179.87,50.864-179.9,50.86Zm4.759-.094h0l0-.006Zm-7.921-.879a.386.386,0,0,1-.035.047S-183.082,49.926-183.058,49.886Zm1.422-2.571.055-.09-.017.026Zm-.534.97.023-.049a.281.281,0,0,1-.032.04Zm-.143.265c0-.012.057-.113,0-.023C-182.313,48.54-182.383,48.678-182.312,48.552Zm-1.11,2.308c-.032.008.1.008.068.014.082-.009.125,0,.088-.026C-183.4,50.841-183.3,50.868-183.422,50.859Zm5.478-.1a.157.157,0,0,0,.075.01l-.068-.018Zm1.171,0,.038.033-.018-.032Zm1.014-.055-.129.006C-175.8,50.709-175.748,50.754-175.759,50.709Zm34.813,14.157-.008.011C-140.939,64.871-140.933,64.867-140.947,64.867Zm2.045-.044a.063.063,0,0,0-.005-.026C-138.92,64.8-138.907,64.81-138.9,64.823Zm-1.047-2.147,0-.009C-139.984,62.636-139.973,62.652-139.948,62.676Zm-5.989,2.249h0Zm.154-.013a.344.344,0,0,1-.153.014l.051.046Zm2.169.01a.023.023,0,0,1,.013.012C-143.589,64.93-143.589,64.926-143.615,64.922Zm4.714-.094h0l0-.006Zm-7.487-1.075a.432.432,0,0,1-.034.047S-146.411,63.792-146.388,63.753Zm1.436-2.609-.037.063.054-.089Zm-.539.976a.268.268,0,0,1-.032.04l.009.009Zm-.163.312c0-.012.056-.112,0-.023C-145.654,62.419-145.724,62.556-145.654,62.431Zm-1.339,2.5.045-.007c.016,0,.017-.007,0-.018-.039-.009-.02.02-.06.01C-147.033,64.928-146.974,64.928-146.993,64.935Zm5.314-.12-.007.008a.159.159,0,0,0,.074.01Zm1.172.012h-.02l.038.033Zm.983-.056-.128.006C-139.564,64.771-139.513,64.816-139.524,64.772Zm-20.738-7.727.008-.011C-160.269,57.04-160.275,57.045-160.262,57.045Zm-1.978.049a.063.063,0,0,0,.006.026C-162.221,57.121-162.234,57.107-162.24,57.094Zm1,2.057,0,.009C-161.209,59.19-161.22,59.175-161.244,59.151Zm5.808-2.178h0Zm-.149.014a.322.322,0,0,1,.147-.015l-.049-.046Zm-2.1,0a.021.021,0,0,1-.013-.012C-157.707,56.974-157.707,56.978-157.682,56.982Zm-4.557.107h0v0Zm7.217,1.023a.363.363,0,0,1,.033-.045S-155,58.073-155.022,58.111Zm-1.352,2.463-.052.086.016-.025Zm.507-.929-.021.047a.222.222,0,0,1,.031-.038Zm.136-.255c0,.012-.054.109,0,.022C-155.73,59.4-155.663,59.269-155.731,59.39Zm1.3-2.429c-.045.008-.055,0-.045.025.033.009.021-.02.058-.01C-154.389,56.967-154.446,56.968-154.427,56.961Zm-5.12.125a.145.145,0,0,0-.072-.01l.065.018Zm-1.12,0-.037-.033.017.032Zm-.97.059.124-.007C-161.6,57.144-161.648,57.1-161.637,57.143Zm10.275,7.723-.008.011C-151.355,64.871-151.348,64.867-151.362,64.867Zm2.046-.044a.063.063,0,0,0-.006-.026C-149.335,64.8-149.322,64.81-149.316,64.823Zm-1.048-2.147,0-.009C-150.4,62.636-150.388,62.652-150.364,62.676Zm-5.989,2.249h0Zm.154-.013a.344.344,0,0,1-.153.014l.051.046Zm2.169.01a.023.023,0,0,1,.013.012C-154,64.93-154,64.926-154.03,64.922Zm4.714-.094h0v0Zm-7.487-1.075a.372.372,0,0,1-.034.047S-156.827,63.792-156.8,63.753Zm1.4-2.546.054-.089-.017.026Zm-.525.961.022-.049a.272.272,0,0,1-.031.04Zm-.141.263c0-.012.056-.112,0-.023C-156.07,62.419-156.139,62.557-156.07,62.431Zm-1.355,2.489c-.024.008.035.008.016.015l.045-.007c.016,0,.018-.007,0-.018C-157.4,64.9-157.384,64.93-157.424,64.92Zm5.33-.1-.006.008a.156.156,0,0,0,.074.01Zm1.172.012h-.02l.038.033Zm.983-.056-.127.006C-149.979,64.771-149.928,64.816-149.939,64.772Zm13.011,1.1v0l0,.012C-136.928,65.876-136.927,65.872-136.928,65.874Zm-45.7-19.683.237-.448Zm-1.758,3.223-.034.084C-184.344,49.346-184.315,49.282-184.387,49.414Zm14.826,23.149.837-.627Zm-3.5-43.991.259-.533C-173.244,28.852-173.036,28.5-173.059,28.572Zm22.639,21.5.078.145A.666.666,0,0,0-150.421,50.076Zm-3.825,5.663h.041C-154.346,55.737-154.322,55.738-154.245,55.739ZM-177.1,44.874l.052.088C-176.777,45.359-176.892,45.183-177.1,44.874Zm-5.728,7.292h0Zm-.788-.032-.021,0,.018.02.035.04.063.07.356.416-.31-.385-.075-.094a.443.443,0,0,1-.031-.04h.049l.687,0-.565-.046Zm19.784,3.641c.149-.009.315-.016.489-.02A2.572,2.572,0,0,0-163.83,55.774Zm-5.032,16.249.057-.04.155-.116a.983.983,0,0,1-.148.1C-168.852,72.01-168.879,72.033-168.862,72.023Zm-4.245-43.353.027-.048a.475.475,0,0,0,.022-.051Zm19.549,23.468c-.018,0,.132.006.639.006ZM-166.8,69.482l.716.907-.211-.269Zm.487-9.747.284-.478.008-.039Zm2.233-3.837,0,0,.009-.008Zm.1-.08a.8.8,0,0,0-.1.077C-163.978,55.812-163.911,55.79-163.971,55.817Zm-.108.085a.56.56,0,0,0-.053.051,4.418,4.418,0,0,0-.237.392c-.061.113-.688,1.207-.107.206l.154-.273A1.789,1.789,0,0,1-164.079,55.9Zm-7.511-3.722c1.492.006.354-.021,1.7-.012.35-.008-1.1-.007-.743-.014C-171.532,52.163-172,52.159-171.591,52.181Zm.96-.026.46-.005ZM-182.1,56.4c-.084-.123-.22-.3-.493-.659l.442.606Zm.014-11.289-.108.2.23-.351ZM-176.9,35.5l-.673,1.247A10.783,10.783,0,0,0-176.9,35.5Zm26.945-8.049-.029-.036C-149.98,27.47-149.966,27.446-149.952,27.45Zm-.407-1.354-.006,0C-150.394,26.107-150.382,26.1-150.36,26.1Zm-2.746,2.724h0Zm.1-.013a.158.158,0,0,1-.1.014l.034.046Zm1.453.01a.022.022,0,0,1,.009.012C-151.532,28.826-151.532,28.821-151.549,28.817Zm1.6-1.361v0l-.006,0Zm-4.925,1.391s-.008-.006-.039-.006A.173.173,0,0,1-154.872,28.847Zm-1.067-.471-.028.041.041-.057Zm-.184.495-.033.005a.124.124,0,0,1,.031.008Zm.186,0c.008,0,.11-.011.014-.01C-155.931,28.866-156.008,28.869-155.938,28.872Zm2.1-.041c.055-.009.083,0,.058-.026-.09-.006-.022.021-.1.012C-153.908,28.825-153.82,28.824-153.842,28.831Zm3.59-.121,0,.008c.009.009.022.009.049.01Zm.307-.124V28.6l.033-.025Zm-.056-.659c0,.027.008.059.006.086C-150,27.955-149.957,27.921-150,27.928Zm1.8.788.035-.029C-148.222,28.688-148.2,28.7-148.2,28.715Zm1.995.081.006,0C-146.174,28.786-146.186,28.788-146.208,28.8Zm-1.046-2.724h0Zm-.1.013a.156.156,0,0,1,.1-.014l-.034-.046Zm-.854,2.635h0a.017.017,0,0,0,0-.006Zm2.685-2.676s.008.006.038.006A.167.167,0,0,1-145.524,26.045Zm1.687.521-.026-.04.036.058Zm-.459-.558,0,.013.035-.005A.1.1,0,0,1-144.3,26.009Zm-.184.012c-.007,0-.108.012-.014.01C-144.487,26.026-144.412,26.023-144.481,26.02Zm-2.008.055c.02-.008-.065-.007-.044-.014-.053.009-.081,0-.057.026C-146.5,26.094-146.569,26.067-146.489,26.075Zm-1.946,1.353-.008,0c-.009.009-.009.022-.01.049Zm-.012.769v-.013l-.033.025Zm.051.464s-.008,0-.006,0S-148.439,28.7-148.4,28.66Zm-6.591,2.912.055.029C-154.983,31.531-154.972,31.57-154.988,31.573Zm5.212.884v0C-149.777,32.466-149.777,32.464-149.775,32.457Zm-3.471,1.774,0,.01C-153.206,34.27-153.219,34.255-153.246,34.231Zm2.461-4.107h0Zm-.161.013a.374.374,0,0,1,.159-.014l-.053-.046Zm-2.267-.011a.024.024,0,0,1-.014-.012C-153.24,30.118-153.24,30.122-153.213,30.126ZM-155,31.567l0,0h.008Zm5.178.226s-.006.012-.006.06A.419.419,0,0,1-149.82,31.793Zm.047,3.1,0,.109,0-.033Zm-.018-1.088a.278.278,0,0,1,.008-.053l-.012,0Zm0-.346c0-.012-.012-.172-.01-.022C-149.8,33.445-149.8,33.564-149.8,33.455Zm-.055-3.2c.008.033.007-.1.014-.07-.008-.049,0-.059-.025-.032C-149.87,30.2-149.842,30.139-149.851,30.256Zm-5.386-.023.007-.008a.164.164,0,0,0-.077-.01Zm-.711.017h.041l0,0A.16.16,0,0,0-155.948,30.25Zm.576.682-.081-.106C-155.4,30.9-155.4,30.966-155.372,30.932Zm10.408-6.221-.016.01C-144.949,24.715-144.937,24.711-144.964,24.711Zm-5.205.059-.177-.012Zm8.385,2.474.083.074C-141.8,27.177-141.766,27.247-141.785,27.243Zm-4.592,11.274-.02.022C-146.395,38.545-146.387,38.534-146.377,38.517Zm-10.961-7.993,0-.006C-157.329,30.54-157.331,30.536-157.337,30.524Zm14.839,2.051-.013.014C-142.549,32.669-142.529,32.636-142.5,32.576Zm-12.576-7.666-.008.008.012-.008Zm.318-.148a1.008,1.008,0,0,0-.314.147.6.6,0,0,1,.118-.022A.624.624,0,0,1-154.757,24.762Zm-3.212,4.777c-.008-.035-.012-.121-.014-.128.015-.066.013,0,.022.06s.025.1.027.049a.568.568,0,0,1,.048-.279l-.014,0c.007-.019.017-.036.026-.053v.026a.525.525,0,0,1,.029-.061l.133-.2c-.021-.013-.067,0-.125.07a2.717,2.717,0,0,1,.165-.227c.157-.2.2-.336.328-.51l-.081.142c.023-.027.192-.293.214-.339.01,0-.061.155,0,.077a2.615,2.615,0,0,0,.354-.635l-.307.5c-.025.008.216-.359.186-.35l.3-.45c-.037.058-.148.235-.095.172a1.962,1.962,0,0,1,.161-.224c-.074.136-.179.338-.269.516l.255-.383c.067-.142.114-.257.134-.306.119-.173.111-.09.09-.044.23-.342.179-.37.412-.715l-.093.126c.051-.084.254-.377.227-.35.054-.063.118-.112.073-.031l.171-.329c-.026.048.021.037.013.059.083-.123.107-.232.051-.157.179-.227.129-.175.282-.354.045-.072-.035-.014-.072.037a1.052,1.052,0,0,1,.253-.333c-.128.128-.108.17-.088.169a.158.158,0,0,0,.035,0,.582.582,0,0,1,.187-.167.606.606,0,0,1,.075-.056,1,1,0,0,1,.346-.09.2.2,0,0,0-.073.045,10.811,10.811,0,0,1,1.228-.035h-.058a1.474,1.474,0,0,0,.388.008.463.463,0,0,1-.112.006c.257.026.334-.053.6-.024-.237,0-.284.012-.272.025.194-.013.645,0,.55-.042.125.008.237,0,.227.024l.478-.027c-.036,0-.066.017.073.02-.268,0-.528.035-.668.008-.007.026.094.039-.035.061.517-.012.8-.058,1.127-.091l.455.018.019-.013.079.032a.585.585,0,0,1,.105-.011c.01,0,0,.007-.026.012.048,0,.092,0,.114-.008.018.017-.063.037-.149.054l-.126-.018c-.054.01-.093.02-.092.028h.167l.051-.01.039.006-.047,0h.079l-.032,0c.218-.021.467-.048.272-.069l.265.018c.311-.034.257-.026.636-.053.021.012-.08.022-.012.03.277-.039.675.043.735.009.223-.009.093-.03.235-.041-.007,0-.02.012.021.012l.169-.026c.068.009-.155.018.035.028a7.032,7.032,0,0,1,.787-.023c.387-.008-.165-.051.161-.047a.591.591,0,0,0,.294.049,1.542,1.542,0,0,1,.276-.043l-.012.033c.169,0,.3-.009.306.016a1.622,1.622,0,0,1,.306-.008c.257-.019-.189-.068-.249-.081a4.2,4.2,0,0,1,.571.049l-.224.01c.477.041.452-.051.673.022-.163,0-.36.017-.263.036l.237-.018c.028.009-.135.007-.027.017.068-.008.206-.026.267-.039l0,0,.428-.008c-.081,0-.1.012-.02.013l.28-.02c-.086.009,0,.02.128.026a1.283,1.283,0,0,0,.327-.031.385.385,0,0,1,.306.083.665.665,0,0,0-.1-.046.715.715,0,0,1,.15.1c.018-.01.086.022.159.1a2.8,2.8,0,0,1,.184.252c.12.175.24.35.283.34.088.188-.008.023-.187-.175l.1.194c-.052-.072-.088-.137-.148-.211a2.732,2.732,0,0,0,.422.574c.051.1-.1-.038.086.214.259.357,0-.1.159.112l.071.183a6.543,6.543,0,0,1,.487.728.577.577,0,0,0,.073.086c.153.263.391.5.507.7-.037-.039.049.124.055.153l.254.327c-.112-.145-.13-.124-.169-.137.074.106.12.148.171.219-.038-.039-.075-.079-.048-.016l.278.335a1,1,0,0,0-.059-.1l.134.189a1.113,1.113,0,0,1,.146.257c-.016-.013-.057-.068-.075-.076a.46.46,0,0,0-.166-.22c.17.246.036.065.1.2.132.192.16.317.175.237a.784.784,0,0,1-.011.349.925.925,0,0,1-.05.15c-.023.056-.056.109-.081.159l-.005-.059-.115.192.063-.176c-.261.341.01.1-.273.485l-.029-.018c-.092.159-.079.243-.192.338-.082.159.209-.226-.018.125a2.653,2.653,0,0,0-.227.272c-.051.1.046-.011.1-.093-.3.467-.3.232-.562.709.128-.146-.034.171.219-.208-.1.193-.281.328-.376.538l.045-.148a1.648,1.648,0,0,0-.1.193l-.018-.035c-.106.267-.316.417-.342.6.012-.132-.114.176-.2.255.092-.217.37-.55.339-.608-.075.079-.1.175-.177.252a1.272,1.272,0,0,0,.086-.191,3.356,3.356,0,0,0-.39.67l.2-.324c.032.059-.088.148-.108.263-.132.14-.177.289-.28.407l.043-.074a3.837,3.837,0,0,1-.47.521c-.1.13-.241.4-.157.326-.06.12.293-.467.226-.226-.208.145-.243.424-.583.817.1-.206-.118.081-.026-.1a1.135,1.135,0,0,0-.164.329l-.066.045a1.834,1.834,0,0,1-.235.519c.071-.148-.145.138-.093.023a1.95,1.95,0,0,0-.183.317l.006-.017c-.262.418-.257.313-.479.7l.04-.026c-.286.516-.727,1.114-1.046,1.632l.132-.169a5.706,5.706,0,0,1-.333.5c.02-.033.049-.092.071-.12-.021-.008-.089.035-.175.154l0,.065-.055.034c-.124.185.076-.027-.048.157-.152.054-.545.789-.724.9-.025.165.244-.344.2-.17a1.347,1.347,0,0,0-.16.185l.063-.018c-.4.546-.57.738-.9,1.241l.006-.025a.932.932,0,0,0-.213.368c-.042.025.035-.108-.026-.049a1.228,1.228,0,0,1-.3.465,1.335,1.335,0,0,1-.454.251c.008-.043-.108-.069-.189-.122a.573.573,0,0,1-.391-.239l-3.9-5.633-.037-.052-.017-.026-.16-.231-.007-.009-.013-.019-.177-.256a.778.778,0,0,0-.057-.073c-.032-.048.006,0,.011.007l-.013-.018-.116-.162c0-.006,0,0,0,0l-.887-1.282c-.015-.017-.064-.084-.1-.13-.222-.333-.621-.9-.772-1.128l-.691-1c-.04-.047-.067-.073-.072-.069.1.134.3.4.317.451-.1-.134-.266-.368-.282-.375-.086-.151.183.255.065.062-.067-.1-.1-.134-.133-.177.05.06-.051-.093-.068-.124l-.564-.829-.006-.01-.145-.209c-.086-.106-.16-.188-.138-.143l-.251-.367c.169.271-.039-.045-.061-.084C-158,29.5-157.952,29.636-157.968,29.539ZM-144.216,26l0,0v0Zm-1.744-1.272a.473.473,0,0,0,.236-.008A.933.933,0,0,0-145.96,24.726Zm-2.616,1.344c.006-.017.011-.026.022-.028C-148.585,26.03-148.576,26.057-148.576,26.071Zm-.042.071,0-.01c.021.069.048.151.069.087l-.018.086a1.171,1.171,0,0,1,.053.206c-.012.007-.022-.026-.031,0,.039.09-.043.219-.009.238.009.072.03.031.041.076,0,0-.012-.006-.012.007l.026.055c-.009.022-.018-.05-.028.012a.752.752,0,0,1,.023.255c.008.126.051-.054.047.052a.1.1,0,0,0-.049.1c.015.035.032.031.043.09l-.034,0c0,.055.009.1-.016.1a.174.174,0,0,1,.008.1c.02.084.068-.061.081-.081-.024.082-.008.139-.049.185l-.01-.073c-.041.155.051.147-.022.218,0-.053-.017-.116-.036-.086l.018.077c-.009.009-.007-.044-.017-.009a.619.619,0,0,0,.039.087h0l.008.139c0-.026-.012-.033-.013-.006l.02.091c-.01-.028-.02,0-.026.042-.01.117.084.094.048.184,0-.013,0-.015,0-.029l-.016.047c.079.01.012.275.092.285-.034,0-.018.029-.059-.081l-.022.071a.5.5,0,0,0-.006-.084c-.031.115.008.13.03.128-.011.018-.061.025-.046.06.046.008.046-.054.073-.059a.111.111,0,0,0-.015.043c.032-.017.026-.016.057-.012l.136.014a.07.07,0,0,0,.036-.013c.1.018.206-.047.281-.034-.017.01.043.028.051.039l.134-.031c-.059.013-.057.039-.067.065a.719.719,0,0,0,.09-.022c-.017.01-.035.019-.013.031l.141-.046a.109.109,0,0,0-.038-.007.406.406,0,0,1,.161,0c0,.011-.022.021-.026.031-.042-.029-.066,0-.088.017.1-.006.024.006.071.025.069,0,.1-.038.079-.061a.293.293,0,0,0,.181-.013l-.015.038.072-.012-.059.046c.139.024.026-.065.18-.045v.033c.059-.013.08-.071.126-.031.058-.021-.1-.047.037-.055a.331.331,0,0,0,.114.036c.043-.016-.033-.04-.061-.035.2-.02.127.116.31.068-.063-.024.052-.068-.1-.065.071-.022.139.049.213.009l-.048.045a.2.2,0,0,0,.071-.022l-.006.035c.091-.063.17.027.224-.054-.038.065.068,0,.1.02-.075.046-.215,0-.225.06.035.017.066-.012.1.006a.206.206,0,0,0-.067.036c.115.033.181-.036.251-.053l-.123.015c.01-.059.055-.01.09-.057.062.031.11-.016.161,0-.013,0-.014.006-.028.005.134,0,.172.1.226.1s.152-.026.116-.052c.043-.017-.179.02-.1-.06.077.091.158-.037.326.025-.073.034.043.052-.022.078a.16.16,0,0,0,.118-.049l.024.029c.1-.067.024-.059.182-.1-.053.024.063.043.023.064a.225.225,0,0,0,.118-.026l-.006,0c.16-.017.131.038.277,0l-.014-.018a4.924,4.924,0,0,1,.629-.049l-.069-.015c.021.01.133-.033.194,0a.141.141,0,0,1-.045.008.076.076,0,0,0,.073.059l.018-.033.019.026c.072,0-.021-.048.051-.048.042.1.312.009.374.095.049-.071-.137-.009-.083-.074a.172.172,0,0,0,.079.029l-.016-.043a2.717,2.717,0,0,0,.5.047l-.008.01c.069.016.107.008.138-.03.014.02-.035.031-.008.049.122-.115.244.082.318,0a.193.193,0,0,0,.054.12h.155l-1.232-1.854-.01-.015s0,0,0,0l-.054-.082,0,0c0-.006-.008-.011-.011-.017l-.045-.067a.14.14,0,0,0-.025-.028c-.009-.016,0,0,.006,0l0-.006-.039-.052s0,0,.006,0l-.073-.11h0l-.214-.322a.4.4,0,0,1-.031-.035l-.147-.228a.11.11,0,0,0-.125-.077h-.394c-.02.006-.035.013-.035.02a.567.567,0,0,1,.179,0,.821.821,0,0,0-.152.018c-.056-.015.1-.005.029-.018a.373.373,0,0,0-.072.009c.025-.007-.034-.011-.046-.015l-.325-.008,0,0h-.08c-.045.01-.082.024-.066.032-.075,0-.079-.008-.144,0,.1.016-.02,0-.031.015-.065,0-.023-.008-.053-.012-.011,0-.037.008-.039.013-.035-.012.047-.031.035-.047h-.094v.007h-.019l0-.007h-.093a.064.064,0,0,0,.037.066c0,.011-.062-.011-.091-.012-.083-.017-.128.016-.2.01l.053-.011a.488.488,0,0,0-.13.01c0-.007.053-.035.021-.043-.125,0-.243.035-.235.056l.191-.023c.007.017-.136.018-.128.039l-.176,0c.022,0,.09-.007.063-.016a.212.212,0,0,1-.09-.01c.05-.014.123-.038.187-.061h-.149a.953.953,0,0,0-.107.058c-.068,0-.044-.043-.028-.051-.134,0-.132.056-.267.052l.051.008a1.236,1.236,0,0,0-.135,0c-.027-.01-.051-.036-.021-.043l-.12.04c.018,0,.006-.038.014-.044-.048,0-.082.04-.051.045a.82.82,0,0,1-.147-.039c-.028,0,0,.037.022.04a.412.412,0,0,1-.129,0c.072-.011.057-.045.049-.073h-.069l-.155.074a.131.131,0,0,0,.024-.045,1.162,1.162,0,0,1-.4.035h.019c.025-.012-.082-.02-.126-.008.007-.007.018,0,.036-.005-.083-.026-.108.053-.193.023.077,0,.092-.012.088-.025-.063.013-.209,0-.179.042-.041-.008-.077,0-.073-.024l-.155.027c.011,0,.021-.017-.024-.02.087,0,.171-.036.217-.008,0-.026-.03-.04.012-.062a.575.575,0,0,0-.31.089l-.043-.009-.009.032.013.01a.113.113,0,0,0-.033,0c.007.015.014.023.011.024s-.007,0-.012-.008a.061.061,0,0,0,.008.025c-.017,0-.037-.013-.054-.045l.018-.029a.144.144,0,0,0-.028-.045V26.1l.01.02-.006.011,0-.017Zm.124,1.52c.015-.015,0-.056-.008-.076C-148.51,27.62-148.524,27.638-148.494,27.662Zm-1.365,2.441a.374.374,0,0,1-.1.006.626.626,0,0,1,.069.008c-.027,0-.228,0-.2,0-.043-.011-.082-.037-.034-.044l-.191.04c.028,0,.01-.038.022-.044-.076,0-.13.039-.082.045a1.9,1.9,0,0,1-.233-.039c-.044,0,0,.037.036.04a1.02,1.02,0,0,1-.206,0c.114-.011.092-.045.078-.073h-.11l-.247.074a.126.126,0,0,0,.038-.045,2.91,2.91,0,0,1-.635.035h.03c.04-.012-.131-.02-.2-.008.012-.007.028,0,.058-.006-.133-.025-.172.053-.308.024.122,0,.147-.012.141-.025-.1.013-.334,0-.285.042-.065-.008-.123,0-.117-.024l-.247.027c.018,0,.034-.018-.038-.02a1.867,1.867,0,0,1,.346-.008c0-.026-.049-.04.018-.062a3.225,3.225,0,0,0-.582.091l-.235-.018-.01.013-.041-.032c-.029.008-.048.014-.054.011s0-.007.014-.012a.305.305,0,0,0-.059.008c-.009-.017.033-.037.077-.054l.065.018c.028-.01.048-.02.048-.028h-.086l-.027.01-.02-.006.024,0h-.04l.016,0c-.113.021-.242.048-.141.069l-.137-.018a2.908,2.908,0,0,1-.329.053c-.011-.012.041-.022.006-.031-.143.039-.349-.043-.38-.009-.116.009-.048.03-.122.041,0,0,.01-.012-.011-.012l-.087.026c-.035-.009.08-.018-.018-.028a1.891,1.891,0,0,1-.407.023c-.2.008.086.051-.083.047-.024-.021-.047-.046-.152-.049a.463.463,0,0,1-.143.043l.006-.033c-.088,0-.158.009-.158-.017a.44.44,0,0,1-.159.008c-.132.019.1.068.129.081a1.142,1.142,0,0,1-.3-.049l.115-.01c-.237-.041-.256.052-.326-.022.041,0,.174-.017.114-.036-.035.006-.094.013-.11.018s.046-.006.006-.017a.117.117,0,0,0-.058.036v0l-.086.006c.018,0,0-.012-.018-.013s.008.027.031.047c-.026-.02-.035-.015-.024.011a.118.118,0,0,0,.081.06.141.141,0,0,1,.028.006c.005,0,0,0,.023.045-.01-.016-.02-.022-.026-.032,0,.016.018.045.027.066.073-.032.259.354.335.321.035.1-.012.017-.122-.072l.046.105c-.029-.036-.046-.071-.081-.106a.749.749,0,0,0,.236.284c.023.053-.076,0,.028.122.145.177.024-.069.112.037l.022.105a1.761,1.761,0,0,1,.26.371.154.154,0,0,0,.044.04c.075.139.226.243.282.348-.024-.017.016.071.015.09l.147.158c-.065-.07-.084-.052-.115-.051.041.053.07.071.1.106-.024-.017-.048-.035-.037,0l.165.158a.266.266,0,0,0-.029-.054.994.994,0,0,1,.145.213c-.013,0-.037-.017-.049-.016a.135.135,0,0,0-.094-.106c.093.124.016.035.043.107.063.089.119.1.121.068a.723.723,0,0,0,.174.23l-.045,0,.076.088-.092-.051c.106.2.076,0,.2.21l-.027.02c.065.07.13.064.139.147.07.063-.051-.155.079.017a.783.783,0,0,0,.074.17c.053.047,0-.066-.026-.1.2.257.02.232.224.445-.037-.1.1.03-.033-.163.082.08.086.21.185.284l-.081-.037a.446.446,0,0,0,.082.081l-.034.012c.134.084.131.238.247.263-.087-.013.065.086.078.148-.106-.072-.2-.281-.253-.261.017.055.069.08.086.134a.4.4,0,0,0-.091-.067c.078.17.194.216.271.3l-.124-.153c.058-.02.059.067.129.086.031.1.113.135.143.212-.012-.017-.017-.015-.029-.033.125.175.077.28.124.351s.159.184.148.122c.053.047-.178-.223-.043-.167-.005.153.173.186.275.441-.094-.077,0,.086-.085.015a.334.334,0,0,0,.148.127l0,.049c.15.1.07,0,.244.184-.068-.056.022.107-.032.067a.535.535,0,0,0,.129.14l-.009-.005c.159.2.088.193.249.363l0-.029c.216.22.41.552.61.8l-.051-.1c.011.033.147.155.179.253a.4.4,0,0,1-.048-.054c-.016.015-.021.064.018.129l.044,0,0,.04c.065.095.02-.055.086.039-.041.11.275.413.261.544.1.023-.116-.184-.014-.151a.387.387,0,0,0,.048.12l.02-.045a6.992,6.992,0,0,0,.412.678l-.015,0c.049.1.09.145.15.163,0,.031-.058-.029-.049.017.205.094.153.367.287.418-.037.017-.043.079-.049.138l.141.2V35.5a.239.239,0,0,0-.005-.048c0-.03,0,0,.005.006v-.011l0-.1s0,0,0,0v-.806c0-.012,0-.055-.007-.084.007-.207,0-.564.007-.706v-.623c-.006-.033-.013-.056-.02-.056a1.432,1.432,0,0,1,0,.285,1.962,1.962,0,0,0-.018-.242c.015-.089.005.163.018.046a.876.876,0,0,0-.008-.114c.007.04.011-.054.015-.072,0-.188.005-.316.008-.519l0-.006v-.129c-.01-.071-.024-.13-.032-.1,0-.12.007-.127,0-.229-.016.163,0-.032-.016-.05,0-.1.009-.037.012-.085a.212.212,0,0,0-.013-.062c.012-.057.031.081.047.066V31.7h-.007v-.03l.007.007v-.154c-.025,0-.053.021-.066.066-.011-.008.011-.1.012-.145a2.75,2.75,0,0,0-.009-.314l.011.084a1.229,1.229,0,0,0-.01-.207c.007,0,.035.084.043.034a.738.738,0,0,0-.056-.375l.023.3c-.016.01-.018-.216-.039-.2l0-.281c0,.036.007.144.016.1a.529.529,0,0,1,.01-.143c.014.08.038.2.061.3v-.237c-.023-.081-.047-.143-.058-.17,0-.108.043-.071.051-.045a.411.411,0,0,0-.026-.186C-149.807,30.084-149.838,30.1-149.859,30.1Zm-5.629.064c-.056-.008-.084-.022-.122.008C-155.586,30.189-155.52,30.172-155.488,30.166Zm5.475-1.4c-.015-.015-.057,0-.078.008C-150.056,28.785-150.037,28.8-150.013,28.77Zm-.909-3.972a1.951,1.951,0,0,0,.2,0A.917.917,0,0,0-150.922,24.8Zm-5.31,4.094h.057l.047,0h.4c.021-.006.036-.013.036-.02a.59.59,0,0,1-.183,0,.816.816,0,0,0,.155-.018c.057.015-.1.005-.029.018a.367.367,0,0,0,.073-.008c-.026.007.035.011.047.015l.332.008,0,0h.083c.045-.01.083-.024.067-.032.077,0,.081.008.147,0-.1-.016.02,0,.032-.015.067,0,.023.008.054.012.011,0,.038-.008.04-.014.037.012-.047.031-.036.047h.1v-.007h.019l0,.007h.1a.065.065,0,0,0-.039-.066c.005-.011.063.011.093.012.085.018.13-.016.2-.009l-.054.011a.506.506,0,0,0,.132-.01c0,.007-.054.035-.022.043.128,0,.249-.035.24-.056l-.2.023c-.007-.016.139-.018.131-.039l.18,0c-.023,0-.092.007-.065.016a.223.223,0,0,1,.092.01c-.051.014-.126.038-.191.061h.152a.941.941,0,0,0,.109-.058c.069,0,.045.043.029.051.137,0,.135-.056.273-.052l-.052-.008a1.29,1.29,0,0,0,.138,0c.027.01.052.037.022.043l.122-.04c-.018,0-.006.038-.014.044.049,0,.084-.04.053-.045a.835.835,0,0,1,.15.039c.028,0,0-.037-.023-.041a.43.43,0,0,1,.132,0c-.073.011-.059.045-.05.073h.07l.159-.074a.13.13,0,0,0-.024.045,1.208,1.208,0,0,1,.407-.036h-.019c-.026.012.084.02.129.008-.008.007-.018,0-.037.006.085.025.11-.053.2-.024-.079,0-.094.012-.09.025.065-.013.214,0,.183-.042.041.008.079,0,.075.024l.158-.027c-.012,0-.022.017.024.02-.089,0-.175.035-.222.008,0,.026.031.04-.011.062a1.4,1.4,0,0,0,.373-.091l.151.018.006-.012.026.032c.019-.008.031-.014.035-.011s0,.007-.009.012a.15.15,0,0,0,.038-.008c.006.017-.021.037-.049.054l-.042-.018c-.018.01-.031.019-.031.028h.055l.017-.01.013.006-.015,0h.026l-.011,0c.072-.021.155-.047.09-.069l.088.018a1.229,1.229,0,0,1,.211-.053c.007.012-.027.022,0,.031.092-.039.224.043.244.009.074-.009.031-.03.078-.041,0,0-.007.012.007.012l.056-.026c.022.009-.052.018.011.028a.775.775,0,0,1,.261-.023c.128-.008-.055-.051.053-.048a.1.1,0,0,0,.1.049c.036-.016.031-.032.092-.043l0,.033c.056,0,.1-.009.1.016a.186.186,0,0,1,.1-.008c.085-.019-.063-.068-.082-.081.082.024.144.008.186.049l-.071.01c.159.04.052-.046.138.024-.022,0-.05.015-.027.035a.181.181,0,0,0,.035-.018c.012.009-.021.007.006.017.008-.009.022-.023.01-.041l0,0-.007-.064c0,.01.012.019.014.006a.227.227,0,0,1-.019-.057c.01.029.02,0,.026-.042.01-.12-.083-.1-.047-.188,0,.013,0,.016,0,.029l.016-.048c-.079-.01-.012-.281-.092-.291.031-.068.019,0,.059.083l.022-.073a.48.48,0,0,0,.006.086.32.32,0,0,0-.034-.236c.011-.037.062.029.047-.075-.018-.146-.059.028-.071-.06l.042-.064a.729.729,0,0,1,0-.29.074.074,0,0,0-.013-.037c.018-.1-.047-.211-.034-.287.01.018.028-.043.039-.053l-.031-.136c.013.061.04.058.065.069a.773.773,0,0,0-.022-.092c.01.018.019.036.031.013l-.046-.143a.112.112,0,0,0-.007.039.416.416,0,0,1,0-.165c.011,0,.02.022.031.027-.029.043,0,.067.017.09-.006-.1.006-.025.025-.073,0-.069-.038-.1-.061-.08a.308.308,0,0,0-.013-.185l.038.015-.012-.074.046.06c.024-.142-.065-.026-.045-.184h.034c-.013-.053-.069-.031-.028-.069-.019-.011-.048.051-.053.013a.148.148,0,0,0,.035-.066c-.016,0-.039.05-.034.051-.022-.021.054-.128-.059-.092.024.026-.024.067.022.068-.014.01-.018,0-.03-.014a.112.112,0,0,0-.1,0l.049-.045a.2.2,0,0,0-.072.022l.006-.035c-.093.062-.173-.028-.228.054.039-.064-.069,0-.106-.02.077-.046.22,0,.23-.06-.035-.017-.067.012-.1-.006a.208.208,0,0,0,.069-.036c-.118-.033-.185.036-.257.053l.126-.015c-.01.059-.057.01-.092.057-.063-.031-.112.016-.164,0,.014,0,.014-.006.028-.005-.137,0-.176-.1-.23-.1s-.155.026-.118.052c-.044.018.183-.02.1.06-.078-.091-.161.037-.332-.025.075-.034-.044-.053.023-.078a.165.165,0,0,0-.121.049l-.024-.029c-.106.067-.025.059-.186.1.054-.024-.065-.043-.023-.064a.23.23,0,0,0-.121.026l.006,0c-.163.017-.134-.037-.283,0l.015.018a5.211,5.211,0,0,1-.642.049l.071.015c-.022-.01-.136.033-.2,0a.174.174,0,0,1,.046-.009.078.078,0,0,0-.075-.059l-.019.034-.019-.026c-.074,0,.022.048-.052.048-.043-.1-.318-.009-.382-.095-.05.072.14.009.085.074a.176.176,0,0,0-.081-.029l.017.043a2.875,2.875,0,0,0-.507-.047l.008-.01c-.071-.016-.109-.008-.141.031-.015-.021.036-.032.009-.05-.125.115-.249-.082-.325,0A.193.193,0,0,0-154.2,26h-.159l-1.257,1.892-.01.016,0,0-.055.084v0c-.005.006-.008.013-.014.02l-.044.066a.169.169,0,0,0-.017.035c-.012.015,0,0,0-.006l0,.005-.034.057s0,0,0-.006l-.293.441c0,.008-.012.026-.02.043l-.155.225C-156.3,28.9-156.243,28.886-156.232,28.892Zm5.872-4.125a.048.048,0,0,1,.027.012C-150.308,24.775-150.307,24.771-150.36,24.767Zm8.56,2.463.005.008a.023.023,0,0,0,.01.005Zm-16.182,2.182s-.014.026-.006.126A.437.437,0,0,1-157.982,29.412Zm3.443,5.156-.034-.052-.084-.122Zm-1.4-1.981.066.086a.965.965,0,0,1-.051-.088Zm-.35-.491c.016.017.15.2.032.029C-156.271,32.108-156.454,31.857-156.287,32.1Zm-.045-5.331c.083-.142.134-.211.075-.16-.156.223-.018.065-.162.265C-156.447,26.926-156.3,26.705-156.331,26.764Zm0,0-.042.073Zm9.886-2.1-.013.008a.611.611,0,0,0,.15.01Zm2.37.012h-.041l.076.033Zm1.533,1.343-.149-.212C-142.587,25.947-142.567,26.058-142.543,26.016Z" transform="translate(185.474 -24.645)" fill="#111"/>
    </g>
  </g>
</svg>
