<svg xmlns="http://www.w3.org/2000/svg" width="92.182" height="99.773" viewBox="0 0 92.182 99.773">
  <g id="Group_2460" data-name="Group 2460" transform="translate(198.438 -46.131) rotate(-19)">
    <g id="Background" transform="translate(-210 0.372)">
      <g id="Group_1264" data-name="Group 1264">
        <rect id="Rectangle_103" data-name="Rectangle 103" width="69.386" height="81.63" rx="10" fill="#61edea"/>
      </g>
    </g>
    <g id="Illustration" transform="translate(-196.684 10.528)">
      <path id="Path_743" data-name="Path 743" d="M-163.888,34.3l.115-.006Zm2.429-.007.059-.011C-161.511,34.285-161.557,34.289-161.459,34.29Zm18.77-.06.639.013Zm-11.057,3.432.378.093C-153.946,37.568-153.7,37.664-153.746,37.662Zm-2.486,41.629-.1.032C-156.343,79.332-156.3,79.316-156.231,79.291ZM-135.8,68.728V68.7C-135.8,68.794-135.8,68.778-135.8,68.728ZM-150.405,57.6c0,.021,0,.044,0,.067C-150.395,57.984-150.4,57.845-150.405,57.6Zm14.535-12.721c0,.014,0,.023,0,.036v-.036Zm-.014-1.122c.021.478.018.75.015,1.111l.047-.371ZM-142,34.233a.433.433,0,0,1-.1-.012C-142.191,34.225-142.193,34.229-142,34.233Zm-11.812,3.412.034.011a.171.171,0,0,0,.036.006Zm17.973,26.45c0-.012-.006.087-.006.419C-135.846,64.3-135.844,64.181-135.843,64.1Zm-6.548,19.625c.037-.016.072-.036.108-.053-.1.051-.207.1-.311.149Zm5.481-5.782c.1-.2.111-.212.162-.327l0-.029C-136.795,77.705-136.858,77.82-136.91,77.938Zm.768-2.276c.04-.076.215-1.176.028-.149C-136.131,75.6-136.333,76.4-136.142,75.663Zm.268-22.288c.008.23.007-.723.014-.488-.009-.592,0-.9-.027-.63C-135.893,53.237-135.865,52.49-135.874,53.375Zm.016-.434v0Zm0,0c0,.079,0,.16,0,.248C-135.856,53.068-135.857,52.993-135.858,52.941Zm-20.261-18.6.048-.008c-.1-.009-.245-.009-.54-.011Zm-7.8-.015h.034c-.06-.011-.134-.022-.222-.033Zm4.359,1.4c.609.19.949.348.887.281ZM-154.353,77l.226-.087Zm-1.652.587-.036.025C-155.968,77.576-155.938,77.561-156.006,77.585Zm-12.85,4.615-.443.144Zm16.99-12.793-.029-.283C-151.893,69.565-151.879,69.371-151.865,69.406ZM-156.587,38.4l-.074-.029C-156.67,38.375-156.637,38.385-156.587,38.4Zm-19.478,23.947v.02C-176.063,62.3-176.064,62.311-176.065,62.348Zm24.283-9.062,0-.049C-151.794,53.007-151.791,53.108-151.782,53.285Zm-24.209,26.408v0Zm.014.816c-.021-.348-.019-.545-.015-.808l-.047.27Zm6.652,1.853a.253.253,0,0,1,.071-.012C-169.195,82.325-169.2,82.321-169.326,82.363Zm17.467-12.9v-.026a.132.132,0,0,0-.006-.026Zm-24.16-3.741a2.436,2.436,0,0,0,.006-.305C-176.017,65.565-176.018,65.652-176.02,65.717Zm-.047-15.712,0-.552,0,.163Zm.018,5.522c0,.145,0,.168-.008.265l.013.018Zm0,1.754c0,.06.011.873.01.111C-176.038,57.33-176.042,56.728-176.044,57.281Zm.056,16.234c-.008-.167-.007.527-.015.355.009.43,0,.656.027.459C-175.97,73.616-176,74.159-175.988,73.515Zm-.016.3c0-.052,0-.1,0-.161C-176.007,73.725-176.006,73.775-176,73.812Zm16.29,5.04c.07-.015.171-.051.374-.122l-.344.1Zm5.792-2.047.2-.035h-.1Zm2.008-3.617c0,.213,0,.463.007.677C-151.916,73.4-151.87,73.131-151.914,73.188Zm-20.072-40.346-.012.011C-171.977,32.846-171.967,32.842-171.987,32.842Zm3.07-.047.077-.029C-168.96,32.767-168.908,32.78-168.917,32.794Zm-2.988-6.182h-.005C-171.892,26.614-171.895,26.614-171.9,26.612Zm7.356,6.265.013,0C-164.473,32.866-164.5,32.869-164.548,32.877Zm-11.2-4.3,0-.007,0,.008Zm-.062.207a.655.655,0,0,1,.06-.206l-.068.05Zm-.189.888v0c0,.014,0,.03,0,.043Zm-.016.192s0,.008,0,.012,0,.014,0,.021C-176.01,29.891-176.011,29.881-176.012,29.867Zm.654,1.8a.03.03,0,0,1,0,.023C-175.343,31.7-175.339,31.7-175.358,31.665Zm6.427,1.135h.007l.007-.006Zm-3.887-6.142s.017.006.083.007A.742.742,0,0,1-172.818,26.658Zm4.363-.046h-.105l.149,0Zm-1.674.01,0,.013.077,0A.513.513,0,0,1-170.128,26.621Zm-.433.022c.016,0,.18-.007.03-.01C-170.548,26.637-170.768,26.645-170.562,26.643Zm-4.182.669c.031-.033-.116.077-.084.045-.085.077-.127.118-.076.1C-174.758,27.338-174.884,27.409-174.744,27.312Zm1.7,5.478a.281.281,0,0,0,.1.016l-.091-.023Zm1.684.012h-.029l.054.034Zm1.414-.057-.184.007C-170,32.744-169.926,32.79-169.942,32.745ZM-152.453,86.4l.231,0Zm2.855-.006.064-.011C-149.655,86.386-149.705,86.39-149.6,86.391Zm15.056-5.587c0-.159.007-.382.012-.7Zm-32.011,5.634-.423.029C-166.313,86.466-166.6,86.452-166.553,86.438Zm-10.913-41.462c0-.038,0-.083,0-.118C-177.466,44.847-177.466,44.9-177.466,44.976Zm42.85-9.312v.029C-134.613,35.592-134.614,35.61-134.616,35.664Zm-42.729,37.159c0-.023,0-.048,0-.073C-177.356,72.408-177.353,72.558-177.345,72.823Zm42.8-11.2v0Zm.014,1.221c-.021-.52-.019-.816-.015-1.21l-.047.4Zm-.01,21.452c.02.542.009,1.2,0,1.76,0,.088,0,.194-.009.272l-.261,0-.332-.006a3.483,3.483,0,0,0-.4.008c-.877.009-.365.031-.922.041.027,0,.079-.012-.083-.013l-.662.027c-.268-.009.609-.018-.137-.029-1.276.02-2.025.035-3.091.024-1.518.008.65.052-.632.048a8.35,8.35,0,0,0-1.155-.05c-.423.016-.366.033-1.084.043l.045-.034a10.543,10.543,0,0,1-1.2-.017c-.544.016-.918.013-1.2.008-1.008.02.742.07.977.083-.992-.025-1.676-.008-2.242-.05l.877-.011c-1.872-.041-1.775.053-2.643-.022.642,0,1.411-.018,1.033-.037l-.929.019c-.109-.009.531-.007.1-.018l-1.046.039.012,0-1.54.007c.193,0,.2-.012-.061-.013l-1.1.02c.337-.01-.008-.02-.5-.026-1.417-.01-1.134.085-2.233.048l.348,0-.565-.016c-.12.08-3.331.012-3.452.095-.805-.032-.056-.02.979-.06l-.857-.022,1.012-.006c-1.125-.033-2.184.011-2.793.034-.429-.011.338-.063-.887-.048-1.73.018.328.061-.711.072l-.753-.043c-1.327.035-2.318.007-3.437,0-.253,0-.377.009-.439.014-1.191-.018-2.5.048-3.394.034a5.782,5.782,0,0,0-.621-.04l-1.62.031a2.664,2.664,0,0,0,.816-.066l-1.089.022c.21-.01.423-.02.155-.032l-1.7.047.459.007c-.425,0-1.345.019-1.952,0,.054-.011.263-.021.315-.032a6.729,6.729,0,0,0,1.065-.017,4.051,4.051,0,0,1-.857-.026c-.827,0-1.167.039-.95.062l-1.086-.008h-.421c-.02,0-.006-.027-.01-.038v-.1l0-.206c0-.185-.009-.392-.016-.644l.038.181-.013-.877.048.711c.025-1.682-.066-.309-.046-2.178l.034-.005a15.042,15.042,0,0,1-.031-1.524c-.022-.7-.048,1.193-.057-.446.018-.289.03-.911.036-1.383-.015-.459-.035.194-.036.588-.013-2.281.118-1.437.07-3.6-.025.757-.07-.633-.066,1.16-.023-.856.05-1.684.009-2.576l.046.581c0-.321-.016-.682-.022-.857l.035.072c-.063-1.1.028-2.051-.054-2.706.065.456,0-.822.02-1.26.047.907,0,2.6.061,2.722.018-.423-.011-.8.006-1.208.009.285.025.7.037.809.034-1.395-.037-2.189-.054-3.035l.015,1.493c-.06-.121-.011-.672-.059-1.091.032-.748-.016-1.332,0-1.941,0,.161,0,.173.006.335,0-1.628.1-2.081.1-2.728s-.027-1.84-.053-1.4c-.018-.521.02,2.162-.061,1.232.093-.929-.037-1.912.026-3.937.034.887.054-.521.079.271-.008-.965-.022-1-.05-1.431l.03-.291c-.069-1.261-.06-.3-.1-2.205.025.64.043-.766.066-.278,0-.529-.008-1.046-.027-1.432l0,.07c-.018-1.933.038-1.582,0-3.343l-.019.175c-.054-2.305-.023-5.219-.05-7.605l-.014.77c0-.373-.032-1.589,0-2.281,0,.149.011.405.009.545a3.786,3.786,0,0,0,.06-.884l-.034-.221.026-.232c0-.874-.049.257-.049-.617.1-.51.009-3.764.1-4.517-.073-.594-.009,1.654-.075,1,.011-.266.024-.386.029-.954l-.043.2c.022-2.645.059-3.654.048-6.009l.01.095a13.688,13.688,0,0,0-.031-1.665c.021-.174.032.43.05.1-.117-1.477.084-2.951,0-3.851.042.053.083-.309.122-.65V25.432h29.762c.178,0,.3,0,.321-.005.228,0-.031,0-.054.005h.077l.8,0c.025,0,.022,0,0,0h6.1c.087,0,.423,0,.649-.007l3.286,0h1.669v0h.01v.05c0,.029,0,.059,0,.084,0,.093,0,.178,0,.255v4.734c0,.083,0,.159.005.223a1.056,1.056,0,0,0,.014.2c-.006-.654-.017-1.962,0-2.163.006.653.01,1.781.019,1.84-.016.676-.006-1.234-.018-.346,0,.451.007.653.009.869a4.341,4.341,0,0,0-.015.549c0,1.486-.005,2.343-.009,3.937v1.049a3.472,3.472,0,0,0,.032.764c0,.912,0,.96,0,1.74.016-1.241,0,.243.016.376,0,.8-.009.278-.013.644,0,.132.008.449.014.47-.012.428-.032-.622-.047-.5v1.214l.007-.008v.229l-.007-.05v1.188a1.29,1.29,0,0,0,.067-.519c.011.061-.011.753-.012,1.1-.018,1.01.016,1.541.01,2.381l-.011-.64c0,.139,0,1.375.01,1.571-.007.032-.035-.64-.043-.255,0,1.509.036,2.94.057,2.847l-.024-2.313c.017-.081.019,1.642.04,1.547l0,2.13a6.189,6.189,0,0,0-.016-.768c0,.915,0,.475-.011,1.085-.016-.556-.04-1.38-.062-2.131V50.49c.023.608.048,1.077.059,1.279,0,.824-.044.536-.051.339,0,1.619.057,1.6.052,3.232l.009-.613c0,.385,0,1.785,0,1.635-.011.323-.037.621-.044.26l.041,1.446c0-.212-.038-.073-.045-.164,0,.581.04.989.045.621-.024,1.134-.011.852-.04,1.772,0,.335.038-.031.041-.276.01.758.006,1.2,0,1.562-.011-.869-.045-.7-.074-.589v.826l.076,1.878a1.9,1.9,0,0,0-.046-.289c.032.225.04,3.311.036,4.821V68c-.012-.305-.021.993-.009,1.525-.007-.09,0-.212-.005-.44-.026,1.009.054,1.309.024,2.337a5.072,5.072,0,0,0-.025-1.067c.013.763,0,2.532.043,2.162a7.456,7.456,0,0,1-.025.888l.028,1.876c0-.14-.018-.26-.02.289,0-1.052-.036-2.07-.009-2.624-.026-.027-.04.368-.063-.136.012,2.029.059,3.142.093,4.421l-.018,1.787.013.075-.032.311c.007.223.014.366.011.412s-.007-.016-.012-.1c0,.187.007.356.008.448a2.22,2.22,0,0,1-.055-.583c.006-.161.012-.327.018-.492a2.908,2.908,0,0,0-.029-.383v.675c0,.066.007.128.01.2,0,.052,0,.1-.006.154,0-.062,0-.121,0-.181v.3c0-.041,0-.081,0-.124.021.856.048,1.833.07,1.068l-.019,1.041c.034,1.222.027,1.01.054,2.5C-134.519,84.425-134.529,84.028-134.538,84.3Zm-.037-5.654c.009-.322.011-.608,0-.792C-134.572,78.146-134.573,78.408-134.575,78.641ZM-140.7,34.2c.3.008.558.011.728,0Zm-18.016.085c.167.016.621,0,.85-.008A5.874,5.874,0,0,0-158.719,34.282Zm-17.293-4.4c-.011.17.06.221.061.4-.024-.163-.04-.194-.052-.184.027.134.07.445.1.371.013.086.038.159.016.158a2.534,2.534,0,0,0,.13.3c-.013-.021-.032-.037,0,.056a1.574,1.574,0,0,1-.15-.439c-.027,0-.023.074-.068-.009a2.015,2.015,0,0,0,.362.7c.044.095.1.185.145.28l.018,0,.006.063c.03.027.05.043.053.052s-.007,0-.021-.008a.577.577,0,0,0,.054.059c-.006.02-.056-.012-.107-.051l-.038-.081c-.028-.027-.05-.045-.058-.04.022.034.043.067.066.1l.03.023.012.026-.024-.023.033.044-.009-.021c.106.115.243.225.17.11l.11.149c.17.136.146.109.357.262,0,.018-.059-.016-.026.019.171.089.359.3.416.294.138.07.072,0,.163.04-.006,0-.018,0,.007.017l.115.027c.039.029-.1-.029.01.037l.519.149c.257.058-.1-.079.116-.02.027.027.051.056.189.079a1.846,1.846,0,0,1,.191-.023l-.01.034c.115,0,.208,0,.208.027a.912.912,0,0,1,.216-.006c.183-.02-.134-.07-.177-.082a2.081,2.081,0,0,1,.406.049l-.159.011c.339.042.321-.052.479.022-.116,0-.256.018-.187.037l.168-.019c.02.009-.1.007-.019.018.048-.008.146-.027.19-.039l0,0,.3-.008c-.058,0-.072.012-.014.014l.2-.02c-.061.009,0,.02.091.026.256.01.205-.085.4-.048l-.063,0,.1.016c.022-.08.6-.012.625-.095.146.032.01.02-.177.06l.155.023c-.063,0-.116,0-.183.006a1.364,1.364,0,0,0,.506-.034c.078.011-.061.063.161.048.313-.018-.059-.061.129-.072l.136.043a3.262,3.262,0,0,1,.622,0,.3.3,0,0,0,.08-.014c.216.018.452-.048.615-.035-.038.01.093.029.113.04l.293-.031c-.129.014-.124.04-.148.066.092,0,.135-.018.2-.022-.038.01-.077.02-.028.032l.308-.047a.5.5,0,0,0-.083-.007,1.859,1.859,0,0,1,.353,0c-.01.011-.047.021-.057.032a.236.236,0,0,0-.193.017c.212-.006.053.007.156.026.149,0,.211-.039.172-.062a1.342,1.342,0,0,0,.4-.013l-.032.038.158-.013-.129.047c.3.025.056-.066.394-.046v.034c.13-.014.175-.072.276-.031.127-.022-.216-.047.081-.056a1.43,1.43,0,0,0,.251.036c.08-.014-.025-.033-.1-.036.4-.01.255.117.642.07-.137-.025.115-.07-.21-.066.155-.023.305.049.467.009l-.105.046a.817.817,0,0,0,.155-.022l-.013.035c.2-.063.371.028.49-.055-.082.065.149,0,.228.02-.164.047-.471,0-.493.061.077.018.145-.012.219.006a.694.694,0,0,0-.146.037,1.684,1.684,0,0,0,.549-.054l-.271.015c.022-.06.122-.011.2-.059a3.415,3.415,0,0,0,.351,0c-.029,0-.031.006-.061.005.295,0,.377.1.494.1s.333-.027.254-.053c.095-.018-.391.02-.223-.061.169.093.346-.037.713.026-.161.034.094.053-.049.079.176-.008.153-.022.2-.049l.055.029c.068-.023.011-.075.009-.094a.705.705,0,0,1-.036-.136c.012.024.023.018.034-.012s.021-.079.032-.035a.986.986,0,0,0-.027-.26l0,.013c-.018-.35.038-.287,0-.605l-.018.032c-.054-.417-.023-.945-.05-1.377l-.015.152a2.847,2.847,0,0,1,0-.426.762.762,0,0,1,.009.1c.022,0,.055-.056.06-.16l-.034-.04.027-.042c0-.158-.049.047-.049-.112.1-.092.009-.681.1-.818-.073-.108-.009.3-.075.181a.671.671,0,0,0,.029-.173l-.043.036c.022-.479.059-.662.048-1.088l.009.017a.47.47,0,0,0-.031-.3c.021-.032.032.078.05.019-.117-.267.084-.534,0-.7.042.01.083-.056.122-.118v-.341h-5.381a.441.441,0,0,0-.066.005c-.041,0,0,0,.009-.005h-.016l-.142,0s0,0,0,0h-1.108c-.017,0-.075,0-.115.007-.283-.007-.773,0-.969-.007h-.857c-.045.006-.077.013-.077.02a2.713,2.713,0,0,1,.391,0c-.118.006-.322.01-.333.019-.122-.016.224-.006.063-.018-.083,0-.119.006-.157.009.055-.007-.075-.011-.1-.015l-.713-.009-.008,0h-.181c-.1.01-.174.025-.139.032-.165,0-.174-.007-.315,0,.225.016-.044,0-.068.016-.144,0-.05-.009-.117-.013a.4.4,0,0,0-.085.014c-.077-.012.112-.032.091-.047h-.157c-.021,0-.042,0-.063,0l0,.007-.041,0,.009-.008c-.071,0-.142,0-.212.011,0,.025.034.052.1.062-.01.011-.134-.006-.2.006a1.664,1.664,0,0,0-.412.093l.107-.039a1.355,1.355,0,0,0-.266.084c-.008-.006.1-.07.029-.057a.948.948,0,0,0-.447.246,2.479,2.479,0,0,1,.368-.182c.018.01-.267.118-.24.137a2.744,2.744,0,0,0-.332.172c.04-.025.16-.106.107-.085a.915.915,0,0,1-.169.091,3.98,3.98,0,0,1,.328-.249,3.108,3.108,0,0,0-.292.155,1.725,1.725,0,0,0-.16.171c-.12.084-.1.022-.079-.005-.237.173-.19.222-.4.42a1.05,1.05,0,0,1,.081-.073c-.047.05-.216.231-.193.216-.048.034-.1.064-.065.007l-.122.231c.019-.032-.024-.032-.019-.049-.065.082-.061.171-.025.117l-.193.253c-.024.055.036.012.058-.025a1.891,1.891,0,0,1-.117.25c.056-.143.012-.13-.022-.125-.018.039-.039.077-.056.118a3.45,3.45,0,0,0-.045.36.162.162,0,0,0-.031-.063c.016.046-.1.529-.1.809C-176.006,29.646-176.019,29.778-176.012,29.879Zm3.317,2.979c.077.008.116.023.167-.008A.465.465,0,0,0-172.695,32.858Zm-2.837-1.379a.45.45,0,0,0-.07-.123A.981.981,0,0,0-175.531,31.479Zm1.667,52.57c1.275-.464,1.959-.757,2.754-1.073l1.132-.381.043-.029.206-.039c.138-.057.226-.095.256-.1s-.007.01-.061.034l.28-.108c.05,0-.142.09-.349.182l-.316.093a1.261,1.261,0,0,0-.231.112l.425-.151.122-.054.1-.029-.113.045.193-.068-.08.023c.532-.211,1.139-.455.65-.305l.662-.215c.758-.3.627-.251,1.555-.608.056-.007-.19.091-.019.04.67-.28,1.682-.55,1.819-.635.549-.2.22-.111.567-.245-.016.01-.046.029.057-.007l.408-.172c.172-.051-.377.154.1,0,.8-.3,1.263-.485,1.939-.712.953-.346-.427.1.382-.186a3.767,3.767,0,0,0,.744-.211c.261-.109.219-.113.669-.283l-.018.043a4.758,4.758,0,0,1,.762-.252c.337-.136.574-.217.755-.276.628-.243-.49.1-.643.14.633-.2,1.058-.366,1.428-.454l-.549.206c1.193-.379,1.1-.446,1.672-.569-.4.141-.883.331-.639.265l.579-.225c.072-.016-.332.125-.06.04l.646-.27-.007,0,.968-.35c-.122.045-.126.057.042,0l.686-.264c-.209.084.012.018.325-.087.9-.307.686-.333,1.39-.544l-.218.081.362-.111a1.313,1.313,0,0,1,.348-.163l.267-.1c.018,0,.011-.019.011-.032v-.185a6.7,6.7,0,0,0-.048-1.154c.032-.538.02-.038.06.654l.023-.573c0,.233,0,.427.006.676a18.171,18.171,0,0,0-.034-1.867c.011-.287.063.226.048-.592-.018-1.156-.061.219-.072-.475l.043-.5c-.035-.887-.007-1.549,0-2.3,0-.169-.009-.252-.014-.294.018-.8-.048-1.668-.035-2.268.01.14.029-.343.04-.415l-.031-1.083c.013.479.04.458.066.546,0-.338-.018-.5-.022-.728.01.141.02.283.032.1l-.047-1.136c0,.067-.006.2-.007.307,0-.284-.02-.9,0-1.3.011.036.021.176.032.21a3.011,3.011,0,0,0,.017.712,1.835,1.835,0,0,1,.026-.573c0-.553-.039-.78-.062-.635.009-.625.017-.823-.013-1.461l.038.121-.013-.586.047.475c.025-1.124-.066-.207-.046-1.455l.034,0a6.73,6.73,0,0,1-.031-1.018c-.022-.466-.048.8-.056-.3.017-.193.03-.609.036-.924-.015-.307-.035.129-.036.392-.013-1.524.118-.96.07-2.4-.025.506-.07-.423-.066.775-.023-.572.049-1.125.009-1.722l.046.389c0-.215-.016-.456-.022-.573l.035.049c-.063-.737.028-1.371-.055-1.808.066.3,0-.549.02-.842.047.606,0,1.738.061,1.819.018-.283-.012-.535.006-.807.009.19.025.468.037.54.034-.932-.037-1.462-.054-2.028l.015,1a6.062,6.062,0,0,1-.059-.729c.032-.5-.016-.89,0-1.3,0,.107,0,.116.005.224,0-1.088.1-1.39.1-1.823s-.027-1.229-.053-.938c-.018-.348.02,1.445-.061.823.093-.621-.037-1.277.026-2.631.034.593.053-.348.079.181a7.439,7.439,0,0,0-.05-.956l.03-.194a11.816,11.816,0,0,1-.1-1.473c.025.428.044-.512.066-.186,0-.353-.008-.7-.027-.957l0,.047c-.018-1.291.038-1.057,0-2.234l-.019.117q-.009-.29-.016-.6c0-.078,0-.156-.005-.236.019-.064-.057-.056-.1-.075l-1.227-.39-2.441-.777.529.188c-.159-.062-1.032-.3-1.5-.482.1.029.261.073.348.1a1.718,1.718,0,0,0-.543-.24l-.151-.013-.139-.073c-.556-.18.148.1-.408-.081-.294-.2-2.389-.786-2.841-1.025-.4-.053,1.049.35.614.278-.166-.065-.238-.1-.6-.225l.111.081c-1.674-.567-2.3-.811-3.8-1.287l.063.011A6.087,6.087,0,0,0-165,35.618c-.1-.056.283.058.082-.027-.975-.194-1.85-.689-2.447-.8.046-.029-.171-.142-.376-.25l-1.2-.389h-7.128V45.162c0,.041,0,.073,0,.1v.726c0,.009,0,.014,0,.023v.9c0,.119,0,.2.005.215,0,.15,0-.014-.005-.035v.066l0,.519c0,.016,0,.015,0,0v4.081c0,.06,0,.283.007.432,0,.759-.005,1.889-.007,2.739v4c0,.053,0,.1.005.148a.48.48,0,0,0,.015.134c-.006-.437-.017-1.311,0-1.445.006.436.01,1.19.019,1.229-.016.452-.005-.824-.018-.231,0,.3.007.436.009.581-.007-.2-.011.276-.015.367,0,.992,0,1.567-.009,2.631l0,.034v.665c.011.357.025.642.032.513,0,.608,0,.64,0,1.163.016-.829,0,.163.016.251a3.012,3.012,0,0,1-.013.43c0,.088.009.3.014.314-.013.286-.032-.413-.047-.335v.812l.007-.005v.153l-.007-.034V67.1c.025,0,.054-.119.067-.346.012.041-.011.5-.012.736-.018.675.016,1.029.009,1.591l-.011-.428c0,.093,0,.919.009,1.05-.007.021-.035-.427-.043-.171a17.488,17.488,0,0,0,.057,1.9l-.024-1.546c.017-.054.019,1.1.04,1.034l0,1.423c0-.18-.007-.729-.017-.513,0,.611,0,.317-.01.725-.016-.364-.04-.916-.063-1.423v1.118c.023.407.048.721.059.855,0,.551-.044.358-.052.227,0,1.082.057,1.069.053,2.16l.009-.409c0,.258,0,1.193,0,1.093-.011.216-.037.415-.044.174l.041.966c0-.142-.038-.049-.045-.11,0,.388.041.661.046.415-.024.758-.011.57-.04,1.184,0,.224.038-.02.041-.185.01.506.006.8,0,1.044-.011-.58-.045-.466-.075-.393v.554l.076,1.253a.837.837,0,0,0-.046-.193c.033.15.04,2.212.036,3.221v-.151c-.006-.1-.011.064-.013.3,0,.115,0,.246,0,.372l0,.122c.023.005.066-.022.09-.029a.545.545,0,0,1-.072.031c-.021.014-.022,0-.02-.026v-.069c0,.031,0,.059,0,.086v.021a.089.089,0,0,0,.018,0l.036-.012.148-.054.319-.131a6.757,6.757,0,0,1,.737-.272c-.587.206-.7.26-.664.262a11.526,11.526,0,0,0,1.347-.522,3.318,3.318,0,0,1,.568-.175l1.173-.445c-.086.036-.158.075.188-.045-.664.23-1.292.5-1.65.593C-173.808,83.99-173.554,83.915-173.864,84.049Zm15.4-5.577a3.162,3.162,0,0,0,.58-.214A6.165,6.165,0,0,0-158.461,78.471Zm-12.246,4.414c.187-.06.354-.119.5-.172C-170.412,82.777-170.593,82.837-170.707,82.885Zm25.017,3.489a7.02,7.02,0,0,0-.925.008C-146.433,86.4-145.938,86.381-145.69,86.375Zm4.26-3.2-.1.062C-141.5,83.217-141.465,83.2-141.431,83.176Zm1-.71-.5.372Q-140.675,82.658-140.431,82.466Zm3.079-3.6c-.12.2-.262.423-.42.692Q-137.551,79.221-137.352,78.868Zm.44-.862c.037-.08.071-.161.107-.242-.121.264-.264.541-.337.712ZM-135.8,44.7l-.076-1.722a1.585,1.585,0,0,0,.046.265c-.032-.207-.039-3.042-.036-4.429v.209c.012.28.021-.913.008-1.4.007.082.005.195.006.4.026-.927-.054-1.2-.024-2.146a4.2,4.2,0,0,0,.026.98c-.013-.7,0-2.326-.043-1.986,0-.219.005-.423.007-.57.027-.1-.068-.055-.042-.078l-1.7.027c.128,0,.239-.018-.265-.02.484,0,.959-.007,1.377-.013l.567-.005h.082a.241.241,0,0,1,0,.074c0,.067-.005.129-.007.19.026.025.041-.338.063.124-.017-.176.043-.411-.086-.446h-.074a.3.3,0,0,0-.051.01l-.594.009-1.033.023-1.772.054-1.642-.019-.069.013-.285-.032c-.206.008-.336.014-.379.011s.014-.007.095-.012l-.411.008a1.862,1.862,0,0,1,.535-.055l.452.018a2.336,2.336,0,0,0,.352-.028h-.619l-.185.011-.142-.006.166,0h-.278l.113,0c-.786.021-1.684.049-.981.07l-.956-.019c-1.123.034-.928.027-2.295.054-.075-.012.289-.023.044-.031-1,.04-2.432-.044-2.65-.009-.8.009-.335.031-.847.041.024,0,.072-.012-.077-.013l-.608.027c-.246-.009.56-.018-.126-.029-1.172.02-1.86.035-2.84.024-1.394.008.6.052-.581.048a7.052,7.052,0,0,0-1.061-.05c-.388.016-.336.033-1,.043l.042-.034a8.908,8.908,0,0,1-1.1-.017c-.5.016-.843.013-1.1.008-.926.02.682.07.9.083-.911-.025-1.54-.008-2.059-.05l.806-.011c-1.72-.041-1.631.053-2.428-.022.59,0,1.3-.018.949-.037l-.853.019c-.1-.009.488-.007.1-.018l-.962.039.011,0-1.414.007c.177,0,.188-.012-.056-.013l-.913.02c.12-.009,0-.02-.253-.027a2.453,2.453,0,0,0-.319.008l-.013,0,.038.01.081.019.137.03a1.025,1.025,0,0,1,.324.091l-.1-.029.066.031.04.018a.6.6,0,0,0,.068.027c.129-.043,2.914.934,3.045.89.694.259.043.035-.873-.221l.742.265-.886-.282c.973.351,1.912.609,2.451.761.372.133-.315-.036.76.3,1.517.474-.268-.151.644.133l.644.254c1.17.343,2.027.652,3,.974.222.068.332.1.388.112,1.035.355,2.2.663,2.976.931-.093-.025.016.018.161.072l.179.064.1.034.046.016a.472.472,0,0,1,0,.048c0,.122-.007.222-.009.269l.031,1.489a2.257,2.257,0,0,0-.066-.75c.01.461.015.686.023,1-.01-.193-.02-.388-.032-.142l.047,1.562c0-.1,0-.272.007-.422,0,.391.019,1.235,0,1.794-.011-.05-.021-.241-.032-.289a5.713,5.713,0,0,0-.017-.979,3.469,3.469,0,0,1-.026.787c0,.76.039,1.072.062.872-.009.859-.017,1.132.013,2.008l-.038-.166.013.806-.048-.653c-.025,1.546.066.284.046,2l-.034,0a12.7,12.7,0,0,1,.031,1.4c.022.641.047-1.1.057.41-.018.266-.03.837-.036,1.27.014.422.035-.178.036-.539.013,2.095-.118,1.32-.07,3.306.025-.7.069.581.066-1.066.022.786-.05,1.547-.009,2.367l-.047-.534c0,.295.017.627.022.787l-.036-.067c.063,1.013-.028,1.885.055,2.486-.066-.419,0,.755-.02,1.157-.047-.833,0-2.389-.061-2.5-.018.388.011.735-.006,1.11-.009-.262-.025-.643-.037-.743-.034,1.281.037,2.011.054,2.788l-.016-1.372c.061.111.011.617.059,1-.032.687.016,1.223,0,1.783l-.006-.307c0,1.5-.1,1.912-.1,2.506s.027,1.69.053,1.289c.018.479-.02-1.986.061-1.132-.093.854.038,1.756-.025,3.617-.034-.815-.054.479-.079-.249.008.886.023.92.05,1.314l-.03.267c.069,1.158.06.272.1,2.026-.025-.588-.043.7-.066.255,0,.486.008.96.027,1.316l0-.065c.018,1.776-.038,1.454,0,3.071l.019-.161c.009.532.017,1.095.027,1.677q0,.254,0,.512a.552.552,0,0,1-.01.165l-.162.058-.27.1-.85.3-3.314,1.189.732-.243c-.224.069-1.381.524-2.035.724.129-.048.347-.135.468-.175a3.2,3.2,0,0,0-.785.215l-.18.1-.209.046c-.757.269.239-.033-.519.236-.474.064-3.262,1.146-3.944,1.294-.49.251,1.435-.5.893-.236-.234.072-.342.1-.836.265l.184-.019c-2.3.791-3.184,1.065-5.219,1.8l.079-.038a11.539,11.539,0,0,0-1.431.54c-.158.034.362-.162.073-.079-1.24.564-2.583.826-3.336,1.18.032-.055-.3.017-.6.085l-1.631.577h25.271c.181,0,.359-.006.538-.014-.114,0-.064-.009.285-.028a6.281,6.281,0,0,0,1-.108c.289-.045.5-.08.524-.087l.032,0c.237-.043.469-.117.7-.172.057-.011-.029.013-.168.051a12.057,12.057,0,0,0,1.616-.514l-.112.035c.117-.046.238-.083.353-.135.151-.064.3-.13.449-.2.047-.024.1-.049.154-.076.355-.175.7-.371,1.033-.579l.14-.085q.227-.146.447-.3a.374.374,0,0,0,.045-.036l.5-.373c.2-.156.392-.318.58-.486l.181-.167q.087-.081.172-.163l-.064.056-.384.351a4.68,4.68,0,0,1,.405-.383,5.179,5.179,0,0,0,.469-.481c.161-.179.337-.364.507-.562a13.071,13.071,0,0,0,.915-1.3l.383-.635.282-.583.18-.373c.021-.049.044-.1.064-.146l.093-.246c-.01.034-.024.072-.038.112a12.1,12.1,0,0,0,.653-2.212c0-.008,0-.017,0-.025a3.983,3.983,0,0,1,.072-.443c-.017.094-.029.189-.043.284a12.033,12.033,0,0,0,.155-1.248c0-.024,0-.052,0-.075.005-.21.009-.383.013-.515a.9.9,0,0,0-.005-.184c-.013.3-.033.752-.051,1.147-.058.394-.111.736-.132.826.034-.3.121-.7.131-1.039s.025-.611.022-.638c.047-.619-.052,1.13,0,.318.019-.42.027-.6.028-.8.007.28.011-.379.015-.5,0-1.365.005-2.153.009-3.617,0-.013,0-.03,0-.046v-.915a2.964,2.964,0,0,0-.033-.7c0-.837,0-.881,0-1.6-.016,1.14,0-.224-.016-.346a5.675,5.675,0,0,1,.013-.591c0-.122-.008-.413-.014-.432.012-.393.032.567.047.461V63.439l-.007.008v-.21l.008.047V62.191c-.025,0-.054.164-.067.476-.011-.055.011-.691.012-1.011.018-.927-.016-1.415-.01-2.187l.011.588c0-.127,0-1.263-.01-1.443.007-.029.035.588.043.235,0-1.386-.036-2.7-.057-2.615l.024,2.125c-.017.075-.019-1.508-.04-1.421l0-1.957a5.211,5.211,0,0,0,.016.705c0-.841,0-.436.011-1,.016.509.041,1.266.063,1.955V55.11c-.023-.559-.048-.991-.059-1.176,0-.757.044-.492.051-.312,0-1.487-.057-1.469-.052-2.969l-.009.563c0-.354,0-1.64,0-1.5.011-.3.037-.57.044-.238l-.041-1.328c0,.195.038.067.045.151,0-.533-.04-.909-.045-.571.024-1.042.011-.783.04-1.628,0-.307-.038.029-.041.254-.01-.7-.006-1.105,0-1.435.011.8.045.64.075.541Zm1.256,35.362a.466.466,0,0,1-.012.106C-134.547,80.262-134.543,80.264-134.539,80.058Zm-31.935,6.375h-.039a.187.187,0,0,0-.039.006Zm31.91-46.183c0,.233,0,.364-.006.457C-134.566,40.72-134.564,40.612-134.564,40.25Zm-8.875-14.818h.582l-.826,0Zm8.84.013c0,.237,0,.264-.007.409l.013.027Zm.014,2.8c0-.091-.007-.993-.01-.165C-134.591,28.171-134.583,29.387-134.585,28.247Zm.032,24.661c.009.644,0,.982.027.686.007-1.067-.021-.253-.012-1.217C-134.547,52.126-134.546,53.164-134.553,52.907Zm0,0c0-.1,0-.211-.005-.328C-134.555,52.764-134.554,52.852-134.553,52.907Zm-9.232,33.535.052-.008c-.106-.009-.267-.009-.588-.011Zm-9.3-.013h.16l-.3-.034Zm-7.806.057,1.013-.007A5.351,5.351,0,0,0-160.892,86.487Zm-3.484-28.545.007.106C-164.372,58-164.374,57.968-164.376,57.942Zm0-.768-.011-.019C-164.383,57.192-164.378,57.206-164.378,57.175Zm-3.227-3.481-.2-.05Zm3.275,8.44.029.124C-164.3,62.064-164.316,62.149-164.331,62.134Zm-1.238,14.59-.034.006C-165.6,76.736-165.59,76.732-165.569,76.724Zm-5.516-13.941v-.008C-171.087,62.8-171.087,62.8-171.085,62.782Zm6.672,6.408,0,.021C-164.4,69.312-164.4,69.268-164.413,69.19Zm-6.746-14v0Zm-.014-.357a1.806,1.806,0,0,1,.015.354l.047-.118Zm6.8,3.973c.08.035.012.974.095,1.01-.032.236-.02.017-.06-.286l-.023.251c0-.1,0-.188-.006-.3a3.525,3.525,0,0,0,.034.817c-.011.126-.063-.1-.048.26.018.506.061-.1.072.208l-.043.22a8.5,8.5,0,0,1,0,1.005.725.725,0,0,0,.014.129c-.018.348.048.73.034.993-.01-.062-.028.15-.04.181l.031.474c-.014-.21-.04-.2-.066-.239,0,.148.018.218.022.319-.01-.062-.02-.124-.032-.045l.047.5c0-.029.006-.087.007-.134a4.849,4.849,0,0,1,0,.571c-.011-.016-.021-.077-.032-.093a.589.589,0,0,0-.017-.312c.006.343-.007.086-.025.251,0,.242.038.341.061.278a3.525,3.525,0,0,0,.013.64l-.038-.053.013.256-.047-.208c-.025.492.066.09.046.637l-.034,0c.014.21.072.283.032.445.022.2.047-.349.056.131a3.545,3.545,0,0,0-.036.4c.017.153.041-.117.036-.215.02.724-.118.449-.07,1.1.025-.221.07.185.066-.339.022.251-.05.493-.01.754l-.046-.17a2.1,2.1,0,0,0,.022.251l-.035-.021c.063.322-.028.6.055.791-.066-.133,0,.24-.02.368a6.692,6.692,0,0,0-.061-.8c-.018.124.012.234-.006.353a1.733,1.733,0,0,0-.037-.237,4.332,4.332,0,0,0,.054.888l-.015-.437c.061.036.011.2.059.319-.032.219.016.389,0,.568l-.005-.1a4.984,4.984,0,0,1-.1.8c-.008.186.027.538.053.411.018.152-.02-.633.061-.36a11.332,11.332,0,0,0-.025,1.152c-.035-.26-.054.152-.08-.079a1.468,1.468,0,0,0,.05.419l-.03.085a2.347,2.347,0,0,1,.1.645c-.025-.188-.044.224-.066.081a2.5,2.5,0,0,0,.027.419l0-.02c.018.565-.038.463,0,.978l.019-.051c.026.337.032.719.035,1.1v.373c.06.194-.154.186-.28.241l-.547.186.239-.06c-.074.013-.438.174-.655.211.041-.015.11-.046.149-.057-.013-.019-.1-.025-.264.021l-.051.052-.072,0c-.244.078.086.024-.157.1-.172-.048-1.052.324-1.289.307-.144.122.464-.138.3-.017a1.7,1.7,0,0,0-.275.056l.068.024c-.744.213-1.037.267-1.69.486l.023-.018a1.186,1.186,0,0,0-.454.177c-.055,0,.11-.069.013-.057-.376.242-.848.181-1.074.339,0-.045-.111-.052-.218-.059l-.525.167v0h0v-.177l-.052.018.052-.049V70.305c0-.018,0-.023,0-.033v-.723c0-.055,0-.1-.005-.1,0-.067,0,.007.005.014v-.023l0-.232c0-.007,0-.006,0,0v-.447h0V67.415c0-.026,0-.122-.007-.188.007-.46,0-1.254.007-1.568V64.265c-.007-.071-.013-.113-.02-.112.006.191.017.574,0,.633-.005-.191-.009-.521-.018-.538.016-.2.005.361.018.1,0-.134-.006-.192-.009-.254.007.09.011-.12.015-.16,0-.431.005-.689.009-1.152l0-.014v-.292c-.011-.156-.025-.28-.033-.224,0-.267.007-.281,0-.509-.016.363,0-.071-.016-.11,0-.233.009-.081.013-.188a1.02,1.02,0,0,0-.014-.138c.012-.125.032.182.047.146V61.1l-.007,0v-.067l.007.015v-.342c-.025,0-.054.046-.067.146-.011-.018.011-.22.012-.322.018-.3-.016-.45-.009-.7l.011.187c0-.041,0-.4-.01-.46.007-.009.035.188.043.075a3.387,3.387,0,0,0-.057-.832l.024.676c-.017.024-.019-.48-.04-.453l0-.623c0,.079.007.319.017.224a2.549,2.549,0,0,1,.01-.317c.014.177.039.436.063.664v-.531c-.023-.178-.048-.315-.059-.374,0-.241.044-.156.052-.1,0-.474-.057-.468-.053-.945l-.008.179c0-.113,0-.522,0-.478.011-.095.037-.181.044-.076l-.041-.423c0,.062.038.022.045.048,0-.17-.041-.289-.046-.182.024-.331.011-.249.04-.518,0-.1-.037.009-.041.081-.01-.221-.006-.352,0-.457.012.254.046.2.075.172v-.242l-.076-.549a.232.232,0,0,0,.046.084,14.2,14.2,0,0,1-.036-1.427v.084c.006.045.011-.02.014-.166,0-.034,0-.07,0-.106a.5.5,0,0,1,.105.014c.07.013.149.026.18.029a.829.829,0,0,1-.155-.024,1.643,1.643,0,0,0,.213.044c.054.007.1.009.151.012a1.316,1.316,0,0,1,.34.054c-.267-.054-.323-.05-.312-.033.222.029.728.139.629.077.139.035.267.054.251.073l.544.076c-.041,0-.078,0,.079.036-.3-.062-.6-.078-.755-.136-.013.025.1.06-.051.054.585.1.914.114,1.288.151l.51.116.024-.009.084.049a.747.747,0,0,1,.12.011c.011,0-.006.006-.032.006.054.009.1.015.13.017.017.021-.077.023-.178.022l-.138-.045c-.063,0-.109,0-.11.008l.189.036h.059l.043.014-.053-.005.088.017-.035-.011c.25.026.536.053.32-.011l.3.076c.357.034.3.029.728.084.021.016-.095,0-.02.028.319.02.753.188.827.167.253.039.111-.01.273.01-.008,0-.025.007.022.017l.195.01c.075.024-.179-.015.034.036l.471.066.255.045.084.017c.029.005.063.006.052.045,0,.058,0,.119,0,.183.009.479.052-.18.049.2a.748.748,0,0,0-.05.338,1.991,1.991,0,0,1,.043.317l-.034-.013c0,.194.009.35-.017.351a2.143,2.143,0,0,1,.008.352c.02.295.07-.217.082-.286a5.343,5.343,0,0,1-.049.656l-.011-.257c-.041.548.052.52-.022.773,0-.188-.017-.413-.036-.3l.019.271c-.009.032-.007-.155-.018-.031.008.077.027.236.039.306l0,0,.008.49c0-.093-.012-.116-.014-.022l.02.322c-.01-.1-.02,0-.026.146-.01.415.085.332.048.653,0-.045,0-.056,0-.1Zm-.012-2.5a1.2,1.2,0,0,0-.008-.271A.609.609,0,0,0-164.386,56.3Zm-3.847-2.695a1.245,1.245,0,0,0-.227-.047C-168.376,53.582-168.3,53.6-168.233,53.608Zm.414.043a.057.057,0,0,1,.028.018C-167.762,53.67-167.761,53.665-167.819,53.65Zm3.483,8.461v.011a.024.024,0,0,0,.005.011Zm-6.8-.8s-.006.028-.007.133C-171.135,61.382-171.133,61.343-171.131,61.307Zm.046,7.048v-.17l0,.242Zm-.01-2.7-.012-.008,0,.124C-171.1,65.7-171.1,65.692-171.095,65.652Zm-.021-.7c0,.027.007.291.009.049C-171.11,64.974-171.118,64.618-171.116,64.952Zm-.032-7.213c-.009-.188,0-.287-.027-.2-.007.312.021.074.012.356C-171.154,57.967-171.155,57.664-171.147,57.739Zm0,0c0,.029,0,.06.005.1Zm6.822-2.264-.009-.015a.828.828,0,0,0-.01.172Zm-.013,2.72v-.047l-.034.088Zm.057,2.283c0-.093,0-.2-.007-.3C-164.28,60.385-164.326,60.5-164.281,60.478Zm8.246-2.087-.011-.016C-156.041,58.4-156.036,58.417-156.035,58.391ZM-158.59,55.4c-.037-.011-.09-.024-.165-.041Zm2.6,7.117.029.1C-155.961,62.456-155.974,62.527-155.988,62.514Zm-5.828.122v-.007C-161.818,62.654-161.818,62.65-161.816,62.636Zm5.745,5.745,0,.018C-156.06,68.482-156.063,68.445-156.071,68.381Zm-5.819-12.057v0Zm-.014-.3a1.257,1.257,0,0,1,.015.294l.047-.1Zm5.582-.28.14.02a.784.784,0,0,1,.133.027l0,.139c0,.045,0,.089,0,.136,0,.03,0,.061,0,.094.008.369.052-.158.048.154a.53.53,0,0,0-.05.281,1.413,1.413,0,0,1,.044.264l-.034-.011c0,.162.009.291-.017.292a1.521,1.521,0,0,1,.008.292c.019.245.069-.181.082-.237a3.71,3.71,0,0,1-.049.545l-.011-.214c-.041.455.052.432-.022.643,0-.156-.018-.343-.037-.251l.019.226c-.009.027-.007-.129-.018-.025.008.065.027.2.039.255l0,0,.008.408c0-.078-.012-.1-.014-.019l.02.268c-.01-.082-.02,0-.026.122-.01.344.085.276.048.543,0-.038,0-.047,0-.085l-.016.138c.081.029.012.81.095.839-.032.2-.02.014-.06-.238l-.023.208c0-.084,0-.156-.006-.246a2.442,2.442,0,0,0,.034.679c-.011.1-.063-.082-.048.216.018.421.061-.08.072.173l-.043.183a5.882,5.882,0,0,1,0,.836.5.5,0,0,0,.014.107c-.018.29.048.607.034.826-.01-.051-.028.124-.039.151l.031.394c-.013-.174-.04-.167-.066-.2,0,.123.018.181.022.265-.01-.051-.02-.1-.032-.038l.047.414a.982.982,0,0,0,.007-.112,3.355,3.355,0,0,1,0,.475c-.011-.013-.021-.064-.032-.077a.418.418,0,0,0-.017-.259c.006.285-.007.071-.026.208,0,.2.038.284.061.231a2.466,2.466,0,0,0,.013.532l-.038-.044.013.213-.047-.173c-.025.409.066.075.046.529h-.034c.014.175.072.235.032.371.022.17.047-.29.056.108a2.45,2.45,0,0,0-.037.336c.014.106.033-.033.036-.129.01.532-.117.342-.07.862.025-.184.07.154.066-.282.022.208-.05.41-.009.627l-.047-.141A1.517,1.517,0,0,0-156,67.8l-.035-.018c.063.268-.028.5.055.658-.066-.111,0,.2-.02.307-.047-.221,0-.633-.061-.662-.018.1.012.194-.005.294a1.21,1.21,0,0,0-.037-.2,3.008,3.008,0,0,0,.054.738l-.015-.363c.06.029.01.163.058.265-.032.182.016.324,0,.472,0-.039-.006-.042-.006-.081a3.5,3.5,0,0,1-.1.664c-.008.154.027.447.053.341.018.127-.02-.526.061-.3-.093.226.037.465-.025.957-.035-.215-.054.127-.079-.066a1,1,0,0,0,.05.348l-.03.071a1.643,1.643,0,0,1,.1.536c-.025-.156-.043.186-.066.068a1.735,1.735,0,0,0,.027.348l0-.017c.018.47-.038.385,0,.813l.019-.043c.027.287.032.582.035.933,0,.124,0,.253-.006.37l-.357.092c-.173.045-.305.081-.45.124l.2-.035a5.119,5.119,0,0,1-.554.141c.035-.011.093-.035.127-.041-.011-.02-.087-.035-.223-.006l-.044.046-.061-.012c-.206.051.072.032-.134.084-.144-.065-.891.212-1.089.171-.123.106.393-.088.255.014a1.187,1.187,0,0,0-.232.027l.056.031c-.63.133-.877.156-1.43.305l.02-.015a.835.835,0,0,0-.386.128c-.046-.01.094-.056.012-.055-.32.2-.716.092-.909.224,0-.043-.093-.062-.183-.08l-.444.111v0h0v-.175l-.042.012.042-.039V68.891c0-.015,0-.018,0-.027v-.6a.779.779,0,0,0-.005-.087c0-.056,0,.006.005.012v-.019l0-.193c0-.006,0,0,0,0V67.6h0V66.488c0-.022,0-.1-.007-.156.007-.382,0-1.043.007-1.3V63.869c-.007-.059-.013-.094-.02-.093a4.773,4.773,0,0,1,0,.526c-.005-.159-.009-.433-.018-.447.016-.164.005.3.018.084,0-.111-.006-.159-.009-.211.007.074.011-.1.015-.133,0-.357,0-.574.009-.958l0-.011v-.244c-.011-.13-.025-.234-.033-.187,0-.222.007-.234,0-.423-.016.3,0-.059-.016-.092,0-.193.009-.068.013-.156a.652.652,0,0,0-.014-.114c.012-.1.032.151.047.121v-.3l-.007,0v-.056l.007.012V60.91c-.025,0-.054.038-.067.122a2.535,2.535,0,0,1,.012-.267c.018-.246-.016-.375-.009-.579l.011.156c0-.034,0-.334-.01-.382.007-.008.035.156.043.062a2.359,2.359,0,0,0-.057-.692l.024.563c-.017.02-.019-.4-.04-.376l0-.518c0,.066.007.265.017.187a1.755,1.755,0,0,1,.01-.264c.014.147.039.363.063.553v-.439c-.023-.149-.048-.265-.059-.314,0-.2.044-.13.052-.083,0-.394-.057-.389-.053-.786l-.009.149c0-.094,0-.434,0-.4.011-.079.037-.151.044-.063l-.041-.352c0,.052.038.018.045.04,0-.141-.041-.241-.046-.151.024-.276.011-.208.04-.432,0-.081-.037.008-.041.067a3.624,3.624,0,0,1,0-.38c.012.211.046.169.075.143v-.2l-.076-.457a.19.19,0,0,0,.046.07,2.665,2.665,0,0,1-.032-.469c0-.129,0-.267,0-.4,0-.044,0-.087,0-.129,0-.017-.007-.051.009-.053l.059.01.207.036-.069-.011c-.054,0,.047.019.12.034a2.6,2.6,0,0,0,.259.04.439.439,0,0,1-.106-.013c.237.068.323,0,.564.073-.223-.041-.269-.034-.26-.018.185.018.607.1.525.047.116.029.223.041.209.061l.454.05c-.034,0-.065.007.066.032a6.2,6.2,0,0,1-.63-.1c-.011.025.081.055-.043.057a10.58,10.58,0,0,0,1.075.091l.425.092.02-.009.069.045a.561.561,0,0,1,.1.006c.009,0,0,.007-.027.008.045.006.087.01.109.011.014.02-.065.027-.149.03l-.115-.038c-.052,0-.091,0-.092.013l.157.027.05,0,.036.012-.044,0,.073.012-.029-.009c.209.014.448.028.268-.025l.246.061c.3.017.247.015.608.05.018.015-.079.009-.016.028.267.005.627.152.689.128.212.027.093-.015.228,0-.007,0-.021.009.018.016l.163,0c.063.02-.149-.007.028.034l.211.022Zm-2.793-.406a.83.83,0,0,0-.189-.037A1.636,1.636,0,0,0-159.114,55.34Zm3.071,2.325a.833.833,0,0,0-.008-.225A.423.423,0,0,0-156.044,57.665Zm-2.725-2.3a.041.041,0,0,1,.023.016C-158.721,55.38-158.72,55.376-158.769,55.364Zm2.775,7.131V62.5a.019.019,0,0,0,.006.01Zm-5.869-1.085s-.006.023-.006.111C-161.867,61.463-161.865,61.432-161.862,61.41Zm.047,5.86v-.141l0,.2Zm-.01-2.248-.012-.007,0,.1A.942.942,0,0,1-161.826,65.022Zm-.021-.582c0,.022.007.241.009.04C-161.841,64.459-161.849,64.163-161.847,64.44Zm-.032-6c-.009-.157,0-.239-.027-.167-.007.259.021.061.012.3C-161.885,58.633-161.886,58.381-161.879,58.443Zm0,0c0,.023,0,.049.005.08C-161.876,58.482-161.878,58.46-161.879,58.443Zm5.895-1.466-.009-.013a.574.574,0,0,0-.01.143ZM-156,59.239V59.2l-.033.073Zm.057,1.9c0-.077,0-.169-.007-.246C-155.938,61.06-155.984,61.158-155.939,61.137Zm-2.393-13.991-.044-.062C-158.351,47.192-158.348,47.141-158.332,47.146Zm-10.006.58h0C-168.35,47.722-168.347,47.723-168.338,47.726Zm8.653-4.346,0-.012C-159.731,43.328-159.716,43.348-159.685,43.38Zm-4.371,5.184h-.007l.008,0Zm.2.029a.6.6,0,0,1-.2-.028l.056.059Zm2.827.614c.011.006.013.011.015.016C-160.993,49.223-160.992,49.219-161.025,49.208Zm2.7-2.05v-.007a.013.013,0,0,0-.007,0Zm-9.175.7s-.014-.009-.074-.023A.564.564,0,0,1-167.5,47.859Zm-2.275-.562.011-.07a.435.435,0,0,1-.023.063Zm.224.14c-.016,0-.165-.028-.029,0C-169.565,47.439-169.363,47.475-169.551,47.436Zm4.06.834c.107.014.162.03.118,0-.174-.044-.046.012-.2-.031C-165.618,48.236-165.447,48.272-165.491,48.27Zm7.014,1.37-.01.007a.268.268,0,0,0,.095.031Zm.594-.317-.029.027,0,.027Zm-.3-1.246c.012.051.027.113.038.164C-158.173,48.13-158.14,48.055-158.182,48.077Zm-8.543-8.241-.007.016C-166.711,39.834-166.7,39.825-166.725,39.836Zm-2.838,3.245c-.02.027-.046.067-.081.124Zm6.378-3.934.1-.014C-163.231,39.111-163.171,39.136-163.184,39.147Zm-4.091,10.014h-.006C-167.261,49.166-167.265,49.165-167.276,49.161Zm8.3-7.22.007.014C-158.914,42.006-158.935,41.981-158.975,41.94Zm-12.014,4.931v.008l0-.01Zm.051-.254a1.089,1.089,0,0,1-.049.252l.065-.072Zm-.333,1.745c.023-.171.072-.42.061-.4.022-.066.058-.123.053-.047l.012-.309c0,.045.035.023.037.043.025-.12,0-.213-.02-.138.072-.23.048-.175.117-.359.014-.069-.038,0-.052.048a2.342,2.342,0,0,1,.073-.322c-.032.18.009.154.043.139.014-.059.029-.121.045-.186l.023-.386a.173.173,0,0,0,.029.071,5.074,5.074,0,0,1,.257-.986l-.015.045c-.009.065.086-.193.109-.3a.322.322,0,0,1-.024.09c.09-.194.042-.278.145-.473-.071.184-.07.225-.054.22.043-.156.185-.5.119-.444.045-.094.077-.181.094-.165l.127-.377c-.007.029,0,.058.042-.048a4.721,4.721,0,0,1-.206.516c.023.015.068-.057.047.05.153-.4.2-.636.287-.894l.179-.334,0-.02.06-.043a.407.407,0,0,1,.032-.082c.007-.006,0,.007,0,.025a.878.878,0,0,0,.038-.087c.022,0,.008.063-.009.134l-.065.083c-.01.043-.015.077-.008.082l.064-.127.01-.038.02-.026-.009.024.018-.035-.009.011c.067-.168.141-.364.045-.232l.121-.185a3.61,3.61,0,0,1,.227-.482c.02-.008-.016.069.021.025.082-.222.344-.445.348-.5.1-.156.021-.081.082-.183,0,.007,0,.02.02-.007l.062-.13c.041-.041-.062.116.04-.006a3.8,3.8,0,0,1,.409-.518c.207-.251-.129.07.053-.135a.442.442,0,0,0,.215-.137,1.094,1.094,0,0,1,.139-.192l.016.032c.1-.1.18-.184.2-.165a1.1,1.1,0,0,1,.2-.163c.161-.147-.17.042-.22.064a2.915,2.915,0,0,1,.418-.255l-.145.123c.344-.21.275-.278.474-.314-.12.069-.241.185-.165.153.047-.047.1-.084.155-.126.025,0-.092.067-.01.027l.172-.151v0c.09-.054.182-.107.276-.156-.02.014-.013.018.031,0,.068-.041.134-.084.205-.12-.063.038.01.018.11-.019.286-.1.2-.173.436-.212l-.071.026.122-.021c0-.1.7-.188.714-.26.181.01.013.011-.2.1.063,0,.124-.012.187-.011a1.905,1.905,0,0,0-.215.045,3.242,3.242,0,0,0,.6-.119c.094.005-.068.066.2.035.373-.031-.074-.059.151-.077.055.011.11.027.164.042a2.612,2.612,0,0,1,.742.05.522.522,0,0,0,.1,0,7.073,7.073,0,0,1,.727.12c-.046,0,.1.058.12.075a3.009,3.009,0,0,1,.346.077c-.15-.046-.154-.01-.189,0,.107.025.157.038.229.059-.046-.008-.092-.015-.042.017l.36.091a.76.76,0,0,0-.09-.043,1.5,1.5,0,0,1,.384.181c-.016,0-.061-.007-.075,0a.307.307,0,0,0-.213-.086c.23.1.054.033.155.1.158.079.242.079.21.037a4.216,4.216,0,0,0,.416.227l-.054.012.168.09-.156-.042c.289.216.1-.029.412.228l-.02.028c.13.083.213.066.279.176.127.083-.164-.208.108.021a1.968,1.968,0,0,0,.2.226c.1.063-.037-.088-.1-.132.414.346.157.314.524.618-.092-.137.148.051-.124-.226.149.115.209.3.363.422l-.116-.066a1.138,1.138,0,0,0,.136.127l-.037.01c.205.14.242.366.4.428-.11-.042.109.139.136.235-.138-.14-.328-.451-.388-.438.039.084.111.131.149.211a.924.924,0,0,0-.132-.117,3.425,3.425,0,0,0,.413.5l-.187-.258c.064-.013.087.113.176.162.06.152.173.228.219.353-.017-.03-.023-.029-.041-.059a2.206,2.206,0,0,1,.2.553c.055.123.2.334.184.24.067.09-.23-.4-.067-.262.009.219.226.344.348.765-.111-.157,0,.122-.1-.02a.928.928,0,0,0,.168.258l0,.068c.164.221.084.033.267.4-.071-.119.017.168-.041.079a1.361,1.361,0,0,0,.133.276l-.009-.013c.149.383.077.329.224.674l.007-.041a12.068,12.068,0,0,1,.47,1.548l-.025-.178a3.516,3.516,0,0,1,.113.487c-.008-.03-.028-.082-.033-.111-.02.009-.039.076-.02.2l.043.039-.016.054c.038.181.036-.063.075.119-.071.124.137.788.073.96.093.113-.048-.348.04-.222a.957.957,0,0,0,0,.2l.036-.048c.063.559.053.776.118,1.271l-.012-.019a.66.66,0,0,0,.065.349c-.018.039-.041-.088-.052-.017.146.3-.04.632.049.815-.042-.009-.08.069-.116.142l.017.4-.176-.038c0,.016,0,.034,0,.045l-.038-.052-5.339-1.139-.045-.009-.022-.005-.23-.049-.009,0-.019,0-.25-.053a.513.513,0,0,0-.077-.011c-.046-.011,0,0,.01,0l-.019,0-.16-.031s0,0,0,0l-.315-.068h0l-.943-.2c-.019,0-.087-.014-.133-.021-.323-.076-.885-.191-1.1-.243l-.973-.208c-.052,0-.09-.006-.091,0a3.632,3.632,0,0,1,.447.091c-.136-.023-.369-.069-.383-.063-.136-.045.255.049.075,0-.095-.02-.136-.023-.181-.029.064.007-.083-.029-.11-.039l-.809-.181-.009,0-.206-.044c-.113-.014-.2-.018-.165,0-.189-.039-.2-.05-.359-.078.253.07-.049-.013-.081,0-.165-.032-.055-.021-.13-.041a.542.542,0,0,0-.1-.008c-.086-.031.135,0,.113-.024l-.25-.053v.007l-.047-.01.012,0-.241-.052c0,.025.021.06.089.088a1.867,1.867,0,0,1-.224-.061c-.2-.061-.321-.052-.493-.095l.134.017a3.2,3.2,0,0,0-.326-.06c0-.008.139-.006.062-.031a1.772,1.772,0,0,0-.6-.069l.482.078c.013.02-.343-.054-.328-.029l-.438-.1c.056.011.226.041.161.018a1.335,1.335,0,0,1-.221-.058c.127.013.316.027.481.039l-.372-.079c-.131,0-.235,0-.278,0-.169-.04-.1-.067-.059-.065A1.733,1.733,0,0,0-171,48.4a1.284,1.284,0,0,1-.163-.016l-.061-.01-.033-.007a.163.163,0,0,1,0-.033c.007-.048.015-.1.025-.157Zm13.247,1.436a.4.4,0,0,0-.154-.025C-158.11,49.8-158.077,49.818-158.024,49.8Zm-9.382-9.469c.078-.049.123-.065.154-.127A.639.639,0,0,0-167.406,40.329Zm-2.416,3.322a1.279,1.279,0,0,0,.075-.149A.626.626,0,0,0-169.821,43.651Zm0,3.759.648.138c.042,0,.072,0,.074,0a2.287,2.287,0,0,1-.356-.072c.108.017.295.053.306.046.108.039-.2-.038-.061.006a1.354,1.354,0,0,0,.145.022c-.052,0,.066.025.087.034l.645.147.007,0,.161.034c.091.009.167.01.137,0,.15.031.156.041.285.063-.2-.059.04.011.065,0,.131.025.044.018.1.035a.359.359,0,0,0,.08,0c.068.027-.108.009-.093.028l.2.043v-.007l.038.008-.01.005.192.041c0-.025-.014-.059-.068-.083a1.29,1.29,0,0,1,.178.051c.162.053.257.038.393.074l-.108-.011a1.987,1.987,0,0,0,.26.045c0,.008-.113.012-.051.033a1.146,1.146,0,0,0,.48.044l-.385-.058c-.01-.019.274.039.262.016l.349.078c-.044-.008-.181-.031-.129-.011a.822.822,0,0,1,.176.048c-.1-.008-.252-.014-.385-.018l.3.063c.105,0,.189-.009.225-.012.135.033.079.062.045.062.266.059.275,0,.542.062l-.1-.03c.064.009.293.066.27.053.051.022.095.058.034.052l.246.011c-.036,0-.02.035-.036.038.095.022.171,0,.111-.023a3.006,3.006,0,0,1,.283.1c.056.009,0-.038-.037-.05a1.682,1.682,0,0,1,.257.052c-.145-.019-.124.02-.112.052l.136.029.324-.008a.142.142,0,0,0-.057.035,4.673,4.673,0,0,1,.8.134l-.037-.007c-.053,0,.159.055.249.061a.206.206,0,0,1-.074-.01c.16.061.227-.007.389.059-.153-.035-.186-.027-.181-.012.128.014.416.088.364.034.079.025.152.035.141.055l.314.038c-.024,0-.046.009.043.03a2.982,2.982,0,0,1-.433-.084c-.01.025.052.053-.035.057a5.009,5.009,0,0,0,.746.064l.29.081.015-.01.044.043a.24.24,0,0,1,.07,0c.006,0,0,.007-.02.008a.575.575,0,0,0,.075.008c.008.019-.048.028-.107.034l-.077-.035c-.037,0-.064.007-.066.015l.108.023.035,0,.024.011-.031,0,.051.011-.02-.009c.145.009.312.017.19-.032l.167.055c.208.009.172.009.422.035.011.014-.057.011-.014.029.187,0,.426.136.472.11.146.022.066-.017.16-.008,0,0-.016.009.011.015l.114,0c.042.018-.1,0,.017.033a2.989,2.989,0,0,1,.513.085c.251.045-.1-.073.114-.025.027.027.048.059.18.089a.7.7,0,0,1,.188,0l-.015.032c.11.021.2.033.194.058a.706.706,0,0,1,.2.034c.17.016-.108-.094-.143-.115a1.79,1.79,0,0,1,.358.127l-.146-.02a1.107,1.107,0,0,0,.176.048.071.071,0,0,0,.045,0c.018,0,.011-.011.073.04-.042-.011-.1-.007-.07.021a.64.64,0,0,0,.077,0c.019.014-.044,0,0,.019a.082.082,0,0,0,.032-.012.6.6,0,0,0-.029-.063l0,0-.025-.159c0,.053.02.065.015.011l-.043-.18c.018.054.02,0,.015-.086-.023-.236-.11-.176-.1-.363.005.025.007.033.012.057l0-.1c-.082-.007-.1-.547-.186-.553.007-.137.02-.013.086.151v-.145c.013.057.015.106.033.166a1.062,1.062,0,0,0-.116-.453c0-.072.072.044.018-.154-.072-.28-.049.066-.093-.1l.018-.132a2.753,2.753,0,0,1-.129-.558.235.235,0,0,0-.03-.068c-.027-.2-.152-.39-.176-.538.018.031.005-.09.011-.111-.033-.084-.065-.168-.1-.251.048.11.072.1.1.111-.026-.08-.054-.113-.075-.167.02.03.04.061.038.016l-.129-.257a.435.435,0,0,0,.016.075,1.545,1.545,0,0,1-.095-.31c.013.005.033.035.046.04a.2.2,0,0,0,.069.164c-.064-.185-.008-.049-.018-.145-.043-.131-.1-.174-.106-.131a1.05,1.05,0,0,0-.136-.337l.047.015-.063-.132.086.095c-.074-.272-.079-.025-.169-.324l.031-.013c-.052-.108-.127-.122-.125-.223-.066-.1.036.2-.081-.045a1.185,1.185,0,0,0-.059-.224c-.05-.072-.011.077.016.126-.188-.363.016-.288-.2-.592.036.122-.11-.061.029.2-.083-.116-.084-.268-.188-.381l.086.063a.692.692,0,0,0-.086-.115l.037-.006c-.142-.13-.13-.318-.264-.364.1.029-.077-.112-.094-.185.123.1.23.362.285.354-.017-.071-.07-.113-.094-.178a1.2,1.2,0,0,0,.1.1,1.274,1.274,0,0,0-.313-.4l.146.2c-.062.015-.069-.088-.147-.121-.04-.121-.131-.176-.169-.272.014.023.02.021.034.043a2.757,2.757,0,0,1-.19-.421c-.06-.088-.211-.224-.186-.149-.067-.057.237.268.078.2-.029-.173-.207-.237-.4-.5.129.079-.023-.1.089-.023a.49.49,0,0,0-.2-.132l-.013-.056a1.251,1.251,0,0,1-.332-.17c.1.044-.072-.109.005-.078a.812.812,0,0,0-.2-.12l.012,0c-.264-.171-.178-.2-.453-.3l.016.029c-.181-.059-.362-.169-.559-.243s-.4-.131-.59-.177l.124.056c-.035-.027-.252-.047-.366-.094a.553.553,0,0,1,.088.01c0-.022-.038-.066-.129-.088l-.041.028-.033-.032c-.14-.023.033.055-.106.032-.069-.117-.6-.071-.724-.146-.1.072.269.01.163.076a.446.446,0,0,0-.154-.03l.032.043a2.731,2.731,0,0,0-.96.08l.012-.013a.347.347,0,0,0-.247.108c-.034-.011.055-.054,0-.054-.183.185-.477.106-.575.249-.011-.041-.08-.047-.148-.053-.092.052-.184.1-.275.165a8.044,8.044,0,0,0-2.65,3.591l-.015.035c-.006.014-.009.019-.011.025-.024.056-.044.112-.067.168v0l-.006.015c-.026.063-.052.127-.076.19a.346.346,0,0,0-.018.059c-.015.034,0,0,0-.009l0,.006-.045.132s0,0,0,0c-.068.183-.13.361-.188.533l.025-.074.015-.038-.042.119c-.05.149-.1.295-.138.434,0,.015-.016.068-.025.1-.079.239-.182.649-.233.838C-169.8,47.306-169.815,47.362-169.826,47.41Zm.186-4.191a.035.035,0,0,1,.021-.014C-169.612,43.185-169.616,43.182-169.64,43.219Zm6.438-4.069.009,0a.015.015,0,0,0,.009,0Zm-5.123,9.834s.018.01.093.027A.851.851,0,0,1-168.325,48.984Zm4.856.988.169.039-.05-.013Zm-1.787-.37-.008.011.088.014A.744.744,0,0,1-165.256,49.6Zm-.461-.086c-.019,0-.271-.046-.036,0C-165.734,49.518-165.547,49.554-165.717,49.515Zm-5.272-1.055c.218.054.057-.01.253.041.054,0-.161-.042-.106-.037C-170.977,48.444-171.046,48.425-170.989,48.46Zm.216.013-.069-.009Zm3.008-7.935,0,.014a.437.437,0,0,0,.1-.08Zm1.7-1.071-.032.014.072.006Zm1.649-.429-.221.026C-164.484,39.043-164.392,39.081-164.414,39.039Zm11.144,19.2.029.019C-153.242,58.228-153.256,58.241-153.27,58.238Zm-.083,1.093,0,0C-153.342,59.35-153.344,59.343-153.353,59.331Zm-1.353-1.423v0Zm-.014-.055a.051.051,0,0,1,.015.055l.047-.018Zm.667,3.287h0Zm.009,0h0Zm-.68-2.638,0-.1c0,.012.007.049.016.035,0-.042,0-.022.01-.049.014.028.039.066.063.1v-.079a.517.517,0,0,0-.059-.06c0-.038.044-.025.052-.016,0-.073-.057-.072-.053-.146l-.008.027c0-.017,0-.081,0-.074.011-.014.037-.028.044-.011l-.041-.066c0,.01.038,0,.045.007,0-.026-.041-.045-.046-.028a.3.3,0,0,1,.04-.08c0-.015-.038,0-.041.013a.128.128,0,0,1,0-.071c.011.039.045.032.075.027V57.9l-.076-.085a.19.19,0,0,0,.046.013c-.031-.008-.045-.15-.025-.23v.011c.008.016.029-.044.025-.072.006.006,0,.011,0,.023.036-.039-.032-.08.017-.118-.023.043-.01.057,0,.059,0-.041.053-.113.007-.118.02-.018.028-.04.045-.026a.71.71,0,0,1,.038-.093c0,.009,0,.021.025,0-.042.037-.036.1-.074.111.022.014.043.007.05.038.038-.084.041-.154.07-.224a.657.657,0,0,1,.087-.039l0-.013.03.02c.005-.012.009-.022.012-.02s0,.007,0,.014a.06.06,0,0,0,.016-.018c.011.014.005.038,0,.062l-.029,0a.037.037,0,0,0,0,.032l.023-.012,0-.016.009,0-.007.012.018-.009-.011,0c.024-.036.059-.082.015-.086a.508.508,0,0,1,.056,0,.275.275,0,0,1,.112-.083c.006.011-.013.025,0,.031.054-.05.136.036.147,0,.045-.007.021-.029.052-.036,0,0-.006.011,0,.013l.04-.02c.012.011-.036.013,0,.03a.219.219,0,0,1,.164.032c.079.03-.01-.063.054-.027a.072.072,0,0,0,.03.076c.028,0,.035-.016.075,0l-.023.025c.031.02.056.037.039.055a.068.068,0,0,1,.05.041c.053.03.025-.077.021-.1.025.059.063.081.048.132l-.038-.033c.029.105.1.055.063.133-.016-.032-.054-.056-.059-.029l.041.032c0,.009-.02-.02-.018,0a.625.625,0,0,0,.06.032h0a.742.742,0,0,1,.04.083c0-.017-.019-.017-.014,0l.035.054c-.014-.016-.018,0-.02.032,0,.075.093.054.06.119,0-.009,0-.01,0-.02a.275.275,0,0,1-.015.031c.08.005.012.151.094.156-.032.036-.02,0-.06-.044l-.023.038c0-.016,0-.029-.006-.046-.033.051.011.1.034.127-.011.02-.063-.015-.048.04.018.079.061-.015.072.032l-.043.034c.035.06.007.105,0,.156a.033.033,0,0,0,.014.02c-.018.054.048.113.035.154-.01-.009-.029.023-.04.028l.031.074c-.014-.033-.04-.031-.067-.037,0,.023.018.034.023.05-.01-.01-.02-.019-.032-.007l.047.077a.036.036,0,0,0,.007-.021c0,.02.019.061,0,.088-.011,0-.021-.012-.032-.014.03-.023,0-.036-.017-.048.006.053-.007.013-.026.039a.047.047,0,0,0,.062.043c-.009.042-.017.056.013.1l-.038-.008.013.04-.048-.032c-.025.076.066.014.046.1h-.034c.014.032.072.044.031.069.022.032.047-.054.056.02a.13.13,0,0,0-.036.063c.011.016.026,0,.033-.015,0,.083-.111.059-.067.151.025-.034.07.029.066-.052.023.039-.05.076-.009.117l-.046-.026c0,.014.016.031.022.038l-.036,0c.064.05-.028.093.055.123-.066-.021,0,.037-.02.057-.047-.041,0-.118-.061-.123-.018.019.012.036-.006.055a.117.117,0,0,0-.037-.037c-.034.063.037.1.054.137l-.015-.067c.06.005.011.03.059.049-.032.034.016.06,0,.088,0-.007-.006-.007-.006-.015,0,.074-.1.095-.1.124s.027.084.053.064c.018.023-.02-.1.061-.056-.093.042.037.087-.026.179-.034-.04-.054.023-.079-.012.008.043.023.045.05.065l-.03.013c.069.057.06.014.1.1-.025-.029-.043.035-.066.013a.081.081,0,0,0,.027.065l0,0c.018.087-.038.071,0,.151l.019-.008c.053.1.023.236.05.344l.015-.038c-.01.012.034.068,0,.121,0-.009-.01-.025-.007-.034a.068.068,0,0,0-.063.049l.033.016-.028.011c-.007.05.051-.009.043.044-.093.01-.073.216-.178.21.048.067.051-.077.093-.015a.123.123,0,0,0-.052.036l.043.011a1.646,1.646,0,0,1-.27.228v-.011c-.049.012-.064.031-.066.076-.019-.014.007-.039-.019-.047-.029.149-.178-.018-.2.069a.429.429,0,0,0-.053-.117.64.64,0,0,1-.085.008h0a.589.589,0,0,1-.587-.589v-.3s0,0,0,0v-.054h0s0-.009,0-.013v-.043c0-.009,0-.019-.005-.02s0,0,.005,0v0l0-.035,0,0V59.8a.165.165,0,0,1-.007-.025c.007-.069,0-.181.007-.233V59.32c-.007-.011-.013-.024-.02-.024.006.029.017.089,0,.1-.006-.029-.01-.081-.019-.084.016-.031.005.056.018.016a.106.106,0,0,0-.009-.039c.007.014.011-.019.015-.025,0-.068.007-.106.009-.178l0,0v-.045c-.011-.025-.025-.045-.032-.036a.52.52,0,0,0,0-.079c-.016.056,0-.011-.016-.017,0-.036.009-.013.013-.029s-.009-.02-.014-.021c.012-.019.032.025.047.019v-.052h-.007v-.011l.007,0v-.051a.087.087,0,0,0-.067.02c-.011,0,.011-.034.012-.05.018-.045-.016-.07-.009-.108l.011.029a.148.148,0,0,0-.01-.071c.007,0,.036.029.043.011,0-.068-.036-.133-.057-.129l.024.1C-154.7,58.576-154.7,58.5-154.723,58.5Zm1.214-1.251c.009.023,0,.041.038.034C-153.465,57.268-153.5,57.257-153.509,57.251Zm.234.984v0l.006,0Zm-1.358,1.722,0-.011V59.92Zm-.016-.411a.042.042,0,0,1,.008-.018l-.013,0Zm-.014-.126s.007.045.01.007C-154.657,59.423-154.664,59.367-154.663,59.419Zm-.032-1.116c-.009-.029,0-.045-.027-.031-.007.048.021.011.012.055C-154.7,58.338-154.7,58.291-154.694,58.3Zm1.156-1.176-.008,0c0,.011.005.018.018.031Zm.251.467-.031.022.032-.013Zm.067.388c0-.014-.008-.031-.007-.045C-153.22,57.968-153.265,57.986-153.221,57.982ZM-172.76,30.661h0Zm-.258-.041-.025-.008.013.005Zm1.2-1.551.032,0C-171.8,29.046-171.806,29.063-171.818,29.069Zm.106.779,0,0C-171.7,29.862-171.705,29.857-171.712,29.848Zm-1.739-.89v0h0Zm.02-.036c0,.027-.007.031-.018.036l.041.026Zm-.241.554a.114.114,0,0,0-.07,0c-.01,0,.017-.02.02-.03.025-.025,0-.05.013-.072l0,.022a.073.073,0,0,0,.008-.049c.006,0,.026.031.037.023.017-.041,0-.095-.018-.1a.661.661,0,0,0-.007.075c-.018,0,0-.054-.018-.06l.032-.059c0,.008-.009.034,0,.029.011-.027.009-.012.024-.025a.527.527,0,0,0,.027.089c.007-.014.016-.027.022-.041-.013-.029-.028-.056-.034-.068.017-.02.046.009.05.017.026-.038-.025-.072.009-.11l-.018.01c0-.012.035-.043.027-.043.014,0,.04.008.039.021,0-.02,0-.04,0-.06,0,.008.028.027.031.033.012-.011-.01-.049-.022-.044.041-.009.026-.013.065-.013.005-.009-.027-.026-.035-.023a.054.054,0,0,1,.033-.035c-.012.027.016.047.039.066a.226.226,0,0,1,.018-.016c0-.031-.007-.062-.009-.1a.27.27,0,0,0,.023.041c-.016-.028.055-.095.1-.113l-.006,0c0,.015.037,0,.045-.017,0,.007,0,.007-.009.011.038.007.009-.067.052-.054-.027.01-.026.025-.018.037.015-.022.069-.034.042-.068.017,0,.028-.009.035.011l.045-.046c0,.006,0,.02.015.016-.033.007-.047.056-.074.036.01.025.026.033.021.059.05-.032.065-.09.1-.131l.059,0v-.014l.016.029c.005-.009.008-.016.01-.014s0,.007,0,.013a.031.031,0,0,0,.012-.01.1.1,0,0,1-.007.056l-.018-.014a.05.05,0,0,0,0,.032l.016-.005,0-.012.006.005,0,.005h.009l0,0c.02-.025.046-.056.019-.074l.034.014a.187.187,0,0,1,.073-.061c0,.012-.009.023,0,.031.034-.043.083.041.09.007.028-.008.013-.03.031-.04,0,0,0,.011,0,.012l.023-.025c.008.009-.021.017,0,.029.042-.018.069-.026.1-.01.051,0-.012-.054.03-.044,0,.022,0,.048.027.057.017-.012.019-.029.046-.034l-.011.033c.022,0,.041,0,.034.026a.03.03,0,0,1,.039.006c.038-.007,0-.074-.005-.09.025.035.053.028.056.073h-.031c.042.059.076-.028.072.053-.018-.011-.048,0-.045.02l.034-.005c0,.01-.018,0-.01.015a.323.323,0,0,0,.047-.021v0l.053.018c-.009-.006-.017,0-.009.011h.041c-.014,0-.01.018,0,.031.033.032.079-.052.088,0,0,0-.007,0-.011,0l.006.024c.052-.063.1.058.152,0,0,.043-.012.015-.065.022l.007.036c-.011-.005-.014-.016-.029-.018.006.05.061.04.093.038,0,.018-.052.036-.014.055s.036-.05.069-.031l-.014.047c.058.009.054.058.074.09a.028.028,0,0,0,.02,0c.007.043.086.048.092.082-.012,0-.017.029-.025.038l.052.037c-.023-.017-.046,0-.072,0,.01.014.027.015.036.023-.012,0-.024,0-.031.009a.62.62,0,0,1,.066.034.029.029,0,0,0,0-.018c.006.013.034.037.021.064-.011,0-.023,0-.034,0,.022-.026-.006-.027-.028-.027.018.034,0,.012-.015.036.011.024.05.023.069.009,0,.033,0,.044.033.068l-.039,0,.02.025-.052-.011c-.011.058.068-.006.061.059l-.034.007c.017.02.076.02.038.045.025.021.041-.047.058.008a.123.123,0,0,0-.031.051c.017.017.041-.017.034-.029.025.086-.114.059-.063.131.025-.026.071.023.065-.04.025.03-.049.058-.011.09l-.045-.022c0,.01.015.023.021.029l-.036,0c.063.042-.032.064.046.1-.063-.025,0,.029-.027.039-.042-.038.012-.087-.048-.1-.018.011.008.027-.011.038a.1.1,0,0,0-.033-.029c-.039.038.027.072.038.1l-.007-.05c.059.013.007.023.052.045-.034.018.005.047-.018.063,0,0,0-.007,0-.012-.011.054-.11.04-.119.057s.006.062.035.059c.011.022,0-.072.072-.017-.1,0,.016.076-.074.113-.019-.041-.055-.008-.068-.042-.006.03.007.038.025.063l-.03-.006c.041.068.049.036.048.111-.009-.031-.05,0-.061-.027a.058.058,0,0,0,0,.054l0,0c-.025.062-.06.019-.069.086l.018.008c-.011.094-.1.146-.156.214l.033-.006c-.013,0-.026.061-.065.053,0,0,.005-.018.011-.019-.014-.018-.04-.038-.059-.032l.012.033-.021-.018c-.025.016.034.036.008.053-.063-.073-.119.056-.179-.014.011.075.053-.015.061.054-.013-.006-.022-.016-.042-.013l.024.036c-.095.016-.137-.008-.21.021v-.01c-.031-.01-.043,0-.048.043-.01-.02.008-.034-.006-.05-.031.122-.106-.067-.125.014a.535.535,0,0,0-.028-.123c-.018,0-.036.005-.054.005a.945.945,0,0,1-.69-.3h0l-.007-.007c0-.007,0-.007,0,0s-.012-.016-.019-.024,0,0,0,0c-.011-.019-.028-.037-.034-.035s.006,0,.006,0l-.018-.018s.006,0,.009,0c-.011-.014-.023-.027-.032-.041h0l0,0c-.016-.025-.028-.052-.042-.077h0c-.006-.012-.013-.023-.019-.034,0,0-.009-.005-.016-.012a.722.722,0,0,1-.045-.156,1.047,1.047,0,0,1-.022-.12c-.009-.009-.018-.016-.026-.016.009.018.026.054.014.062-.009-.018-.018-.05-.027-.051.013-.022.011.036.02.008a.062.062,0,0,0-.013-.024c.008.008.01-.013.014-.018a.641.641,0,0,1,.006-.114l0,0c0-.007,0-.013,0-.02s-.024-.04-.034-.034c0-.027.011-.027.008-.051-.021.034,0-.007-.014-.014,0-.025.01-.007.015-.017s-.006-.015-.011-.016c.015-.01.03.024.046.021s0-.022,0-.032h-.007l0-.007.007,0C-173.68,29.5-173.675,29.487-173.673,29.477Zm1.272-.777c.011.013.012.028.031,0C-172.37,28.686-172.391,28.7-172.4,28.7Zm.576.37h0l.006,0Zm-1.751,1.118.01.021,0-.007Zm-.111-.214a.022.022,0,0,1,0-.014l-.013,0Zm-.033-.077s.012.027.01,0C-173.713,29.9-173.726,29.863-173.719,29.9Zm.094-.756c-.023.025.014.018-.009.039,0,.011.019-.017.021-.007C-173.611,29.151-173.6,29.144-173.625,29.14Zm1.184-.524,0,.008c0,.009.007.011.016.015Zm.281.138-.009.034.014-.03Zm.253.13c-.007-.009-.023-.012-.031-.02C-171.913,28.875-171.937,28.918-171.907,28.884Zm2.842,1.776h0Zm-.27-.043.012,0-.025-.008Zm1.211-1.548.033,0C-168.105,29.046-168.111,29.063-168.124,29.069Zm.106.779,0,0C-168.008,29.862-168.01,29.857-168.017,29.848Zm-1.739-.89v0h0Zm.02-.036c0,.027-.007.031-.018.036l.041.026Zm-.241.554a.114.114,0,0,0-.07,0c-.011,0,.017-.02.02-.03.024-.025,0-.05.013-.072l0,.022a.072.072,0,0,0,.007-.049c.007,0,.027.031.038.023.016-.041,0-.095-.019-.1a.661.661,0,0,0-.007.075c-.018,0,0-.054-.018-.06l.032-.059c0,.008-.009.034,0,.029.011-.026.009-.012.024-.025a.526.526,0,0,0,.027.089c.007-.014.015-.027.023-.041-.013-.029-.028-.056-.034-.068.016-.02.046.009.05.017.027-.038-.025-.072.009-.11l-.018.011c0-.012.035-.043.027-.044.014,0,.04.008.039.021a.585.585,0,0,1,0-.06c0,.008.027.027.03.033.012-.011-.01-.049-.022-.044.041-.009.025-.013.065-.013.005-.009-.027-.026-.035-.023a.053.053,0,0,1,.034-.035c-.012.027.016.047.038.066l.019-.016c0-.031-.007-.062-.009-.1a.239.239,0,0,0,.023.041c-.016-.028.054-.095.1-.113l-.006,0c0,.015.036,0,.044-.017,0,.007,0,.007-.009.011.038.007.01-.067.053-.054-.027.01-.026.025-.018.037.015-.022.069-.034.042-.068.017,0,.028-.009.035.011l.045-.046c0,.006,0,.02.015.016-.033.007-.047.056-.073.036.01.025.025.033.021.06.05-.032.065-.09.1-.132l.059,0v-.014l.016.029c.005-.009.008-.016.01-.014s0,.007,0,.013a.03.03,0,0,0,.012-.01.1.1,0,0,1-.007.056l-.018-.014a.048.048,0,0,0,0,.032l.016-.005,0-.012.006.005,0,.005h.009l0,0c.02-.025.046-.056.019-.074l.034.014a.187.187,0,0,1,.073-.061c0,.012-.009.023,0,.031.033-.043.083.041.09.007.027-.008.012-.03.031-.04,0,0,0,.011,0,.012l.023-.025c.008.009-.021.017,0,.029.042-.018.069-.026.1-.01.051,0-.012-.054.029-.044,0,.022,0,.048.027.057.017-.012.019-.029.045-.034l-.01.033c.022,0,.041,0,.033.026.021-.009.032,0,.039.006.038-.007,0-.074,0-.09.025.035.052.028.056.073h-.031c.043.059.076-.028.072.053-.018-.011-.048,0-.045.019l.034,0c0,.01-.018,0-.01.015a.322.322,0,0,0,.047-.021v0l.053.018c-.009-.006-.017,0-.009.011h.041c-.015,0-.01.018,0,.031.033.032.079-.052.088,0,0,0-.007,0-.011,0l.006.024c.052-.063.1.058.152,0,0,.043-.012.015-.065.022l.007.036c-.011-.005-.014-.016-.029-.018.006.05.061.04.093.038,0,.018-.052.036-.014.055s.037-.05.069-.031l-.014.047c.058.009.054.058.074.09a.028.028,0,0,0,.02,0c.007.043.086.048.091.082-.012,0-.016.029-.025.038l.052.037c-.023-.017-.046,0-.072,0,.01.014.027.014.036.023-.012,0-.024,0-.031.009a.62.62,0,0,1,.066.034.026.026,0,0,0,0-.018c.006.013.034.037.021.064-.011,0-.023,0-.034,0,.022-.026-.006-.027-.028-.027.019.034,0,.012-.014.036.01.024.05.023.069.009,0,.033,0,.044.033.068l-.039,0,.02.025-.052-.011c-.011.058.069-.006.061.059l-.034.007c.017.02.076.02.038.045.025.021.041-.047.059.008a.12.12,0,0,0-.032.051c.018.017.041-.017.034-.029.025.086-.114.059-.063.131.025-.026.071.023.065-.04.025.03-.05.058-.011.09l-.045-.022c0,.01.015.023.021.029l-.036,0c.063.042-.032.064.046.1-.063-.025,0,.029-.027.039-.042-.038.012-.087-.048-.1-.018.011.008.027-.011.038a.1.1,0,0,0-.033-.029c-.039.038.027.072.039.1l-.008-.05c.059.013.007.023.052.045-.034.018.005.047-.018.063,0,0,0-.007,0-.012-.011.054-.11.04-.119.057s.006.062.035.059c.011.022,0-.072.072-.018-.1,0,.016.076-.073.113-.019-.041-.056-.008-.068-.042-.006.03.007.038.025.063l-.031-.006c.041.068.049.036.048.111-.01-.031-.05,0-.06-.027a.056.056,0,0,0,0,.054l0,0c-.025.062-.06.019-.069.086l.018.008c-.011.094-.1.146-.156.214l.033-.006c-.013,0-.026.061-.065.053,0,0,.005-.018.011-.019-.013-.018-.039-.038-.059-.032l.012.033-.021-.018c-.025.016.034.036.008.053-.063-.073-.119.056-.18-.014.012.075.053-.015.062.054-.013-.006-.022-.016-.042-.013l.024.036c-.095.016-.137-.008-.21.021v-.01c-.031-.01-.043,0-.048.043-.009-.02.008-.034-.006-.05-.031.122-.106-.067-.124.014a.559.559,0,0,0-.029-.123c-.018,0-.035.005-.054.005a.947.947,0,0,1-.691-.3h0l-.007-.007c0-.007,0-.007,0,0s-.013-.016-.02-.024,0,0,0,0c-.011-.019-.028-.037-.034-.035s.006,0,.006,0l-.018-.018s.006,0,.009,0c-.01-.014-.022-.027-.032-.041h0l0,0a.833.833,0,0,1-.042-.077h0c-.006-.012-.013-.023-.019-.035,0,0-.01-.005-.016-.012a.7.7,0,0,1-.045-.156.909.909,0,0,1-.023-.12c-.009-.009-.018-.016-.026-.016.009.018.025.054.013.062-.009-.018-.018-.05-.027-.051.013-.022.011.036.02.008a.057.057,0,0,0-.013-.024c.008.008.01-.013.014-.018a.641.641,0,0,1,.006-.114l0,0c0-.007,0-.013,0-.02s-.025-.04-.034-.034c0-.027.011-.027.009-.051-.022.034,0-.007-.014-.014,0-.025.01-.007.015-.017s-.006-.015-.011-.016c.014-.01.029.024.046.021,0-.011,0-.022,0-.032H-170V29.5l.007,0C-169.985,29.5-169.98,29.487-169.977,29.477Zm1.272-.777c.01.013.011.028.031,0C-168.674,28.686-168.7,28.7-168.7,28.7Zm.576.37h0l.005,0Zm-1.751,1.118.01.021,0-.007Zm-.119-.225.008.011a.022.022,0,0,1,0-.014Zm-.014-.063s-.018-.037-.011,0C-170.02,29.9-170.011,29.924-170.013,29.9Zm.083-.759c-.023.025.014.018-.01.039,0,.011.019-.017.021-.006C-169.916,29.151-169.906,29.144-169.93,29.14Zm1.184-.524,0,.008c0,.009.006.011.017.015Zm.286.141,0,0-.009.034Zm.248.127c-.007-.009-.023-.012-.031-.02C-168.218,28.875-168.242,28.918-168.212,28.884Zm2.842,1.776h0Zm-.27-.043.012,0-.025-.008Zm1.212-1.548.032,0C-164.41,29.046-164.415,29.063-164.428,29.069Zm.106.779,0,0C-164.313,29.862-164.314,29.857-164.322,29.848Zm-1.739-.89v0h0Zm.02-.036c0,.027-.007.031-.018.036l.041.026Zm-.241.554a.114.114,0,0,0-.07,0c-.01,0,.017-.02.02-.03.024-.025,0-.05.013-.072l0,.022a.073.073,0,0,0,.008-.049c.007,0,.026.031.037.023.017-.041,0-.095-.018-.1a.658.658,0,0,0-.007.075c-.018,0,0-.054-.018-.06l.032-.059c0,.008-.009.034,0,.029.011-.026.009-.012.024-.025a.5.5,0,0,0,.028.089c.007-.014.015-.027.022-.041-.013-.029-.028-.056-.034-.068.017-.02.046.009.05.017.026-.038-.025-.072.009-.11l-.018.011c0-.012.035-.043.027-.044.014,0,.04.008.039.021,0-.02,0-.04,0-.06,0,.008.028.027.031.033.012-.011-.01-.049-.022-.044.041-.009.026-.013.066-.013,0-.009-.027-.026-.035-.023a.053.053,0,0,1,.033-.035c-.012.027.016.047.039.066l.018-.016c0-.031-.007-.062-.009-.1a.238.238,0,0,0,.023.041c-.016-.028.054-.095.1-.113l-.006,0c0,.015.037,0,.044-.017,0,.007,0,.007-.009.011.038.007.009-.067.052-.054-.027.01-.026.025-.018.037.015-.022.069-.034.042-.068.017,0,.028-.009.035.011l.045-.046c0,.006,0,.02.015.016-.033.007-.047.056-.073.036.01.025.026.033.021.06.05-.032.065-.09.1-.132l.059,0v-.014l.016.029c.005-.009.008-.016.01-.014s0,.007,0,.013a.032.032,0,0,0,.012-.01.1.1,0,0,1-.007.056l-.018-.014a.05.05,0,0,0,0,.032l.016-.005,0-.012.006.005,0,.005h.009l0,0c.02-.025.046-.056.019-.074l.034.014a.19.19,0,0,1,.073-.061c0,.012-.009.023,0,.031.034-.043.083.041.09.007.028-.008.013-.03.031-.04,0,0,0,.011,0,.012l.023-.025c.008.009-.021.017,0,.029.042-.018.069-.026.1-.01.051,0-.012-.054.03-.044,0,.022,0,.048.027.057.017-.012.02-.029.046-.034l-.011.033c.022,0,.041,0,.034.026.021-.009.032,0,.039.006.038-.007,0-.074,0-.09.025.035.053.028.056.073h-.031c.042.059.076-.028.072.053-.018-.011-.048,0-.045.019l.034,0c0,.01-.018,0-.01.015a.323.323,0,0,0,.047-.021v0l.053.018c-.009-.006-.017,0-.009.011h.041c-.014,0-.01.018,0,.031.033.032.079-.052.088,0,0,0-.007,0-.011,0l.006.024c.052-.063.1.058.152,0,0,.043-.012.015-.065.022l.007.036c-.011-.005-.014-.016-.029-.018.006.05.061.04.093.038,0,.018-.052.036-.014.055s.036-.05.069-.031l-.014.047c.058.009.054.058.074.09a.028.028,0,0,0,.02,0c.007.043.086.048.092.082-.012,0-.017.029-.025.038l.052.037c-.023-.017-.047,0-.072,0,.01.014.027.014.036.023-.012,0-.024,0-.031.009a.62.62,0,0,1,.066.034.029.029,0,0,0,0-.018c.006.013.034.037.021.064-.011,0-.023,0-.034,0,.022-.026-.006-.027-.028-.027.018.034,0,.012-.015.036.011.024.05.023.069.009,0,.033,0,.044.033.068l-.038,0,.02.025-.052-.011c-.011.058.068-.006.061.059l-.033.007c.017.02.076.02.038.045.025.021.041-.047.058.008a.124.124,0,0,0-.031.051c.018.017.041-.017.034-.029.025.086-.114.059-.063.131.025-.026.071.022.065-.04.025.03-.049.058-.011.09l-.045-.022c0,.01.015.023.021.029l-.036,0c.063.042-.032.064.046.1-.063-.025,0,.029-.027.039-.042-.038.012-.087-.048-.1-.018.011.008.027-.011.038a.1.1,0,0,0-.033-.029c-.039.038.027.072.038.1l-.007-.05c.059.013.007.023.052.045-.034.018.006.047-.018.063,0,0,0-.007,0-.012-.011.054-.11.04-.119.057s.006.062.035.059c.011.022,0-.072.072-.018-.1,0,.016.076-.073.113-.019-.041-.056-.008-.068-.042-.005.03.007.038.025.063l-.031-.006c.041.068.049.036.048.111-.009-.031-.05,0-.06-.027a.056.056,0,0,0,0,.054l0,0c-.025.062-.06.019-.069.086l.018.008c-.011.094-.1.146-.156.214l.033-.006c-.012,0-.026.061-.065.053,0,0,0-.018.01-.019-.013-.018-.039-.038-.059-.032l.012.033-.021-.018c-.025.016.034.036.008.053-.063-.073-.119.056-.179-.014.011.075.053-.015.061.054-.013-.006-.022-.016-.042-.013l.024.036c-.095.016-.137-.008-.21.021v-.01c-.031-.01-.043,0-.048.043-.009-.02.008-.034-.006-.05-.031.122-.106-.067-.124.014a.559.559,0,0,0-.029-.123c-.018,0-.035.005-.054.005a.946.946,0,0,1-.69-.3h0l-.007-.007c0-.007,0-.007,0,0l-.02-.024s0,0,0,0c-.011-.019-.028-.037-.034-.035s.005,0,.005,0l-.018-.018s.006,0,.009,0c-.011-.014-.023-.027-.032-.041h0l0-.005c-.016-.024-.028-.051-.041-.077h0c-.006-.011-.013-.022-.019-.034,0,0-.009-.005-.016-.012a.693.693,0,0,1-.045-.156.966.966,0,0,1-.023-.12c-.009-.009-.018-.016-.026-.016.009.018.026.054.014.062-.009-.018-.018-.05-.027-.051.013-.022.011.036.02.008a.057.057,0,0,0-.013-.024c.008.008.01-.013.014-.018a.641.641,0,0,1,.006-.114l0,0c0-.007,0-.013,0-.02s-.025-.04-.034-.034c0-.027.011-.027.008-.051-.021.034,0-.007-.014-.014,0-.024.01-.007.016-.017s-.007-.015-.011-.016c.015-.01.029.025.046.021s0-.022,0-.032h-.007l0-.007.007,0C-166.289,29.5-166.284,29.487-166.282,29.477Zm1.272-.777c.011.013.012.028.031,0C-164.979,28.686-165,28.7-165.01,28.7Zm.576.37h0l.006,0Zm-1.751,1.118.011.021,0-.007Zm-.111-.214a.022.022,0,0,1,0-.014l-.013,0Zm-.033-.077s.012.027.01,0C-166.322,29.9-166.335,29.863-166.328,29.9Zm.094-.756c-.023.025.014.018-.009.039,0,.011.019-.017.021-.006C-166.221,29.151-166.211,29.144-166.234,29.14Zm1.184-.524,0,.008c0,.009.007.011.017.015Zm.281.138-.009.034.014-.03Zm.253.13c-.007-.009-.023-.012-.031-.02C-164.522,28.875-164.546,28.918-164.516,28.884Z" transform="translate(177.476 -25.425)" fill="#111"/>
    </g>
  </g>
</svg>
