<svg
              xmlns="http://www.w3.org/2000/svg"
              width="73"
              height="73"
              viewBox="0 0 73 73"
            >
              <g
                id="Group_1299"
                data-name="Group 1299"
                transform="translate(-60 480.006)"
              >
                <g id="Background" transform="translate(60 -480.436)">
                  <circle
                    id="Ellipse_10"
                    data-name="Ellipse 10"
                    cx="36.5"
                    cy="36.5"
                    r="36.5"
                    transform="translate(0 0.43)"
                    fill="#fadcd9"
                  />
                </g>
                <g id="Illustration" transform="translate(75.993 -470.366)">
                  <path
                    id="Path_659"
                    data-name="Path 659"
                    d="M112.567-434.046c-.207-.023-.412-.056-.618-.09.033.007.1.017.206.033Zm18.356,13.861c-.047-.014-.1-.028-.146-.039C130.828-420.214,130.873-420.2,130.923-420.186Zm-21.637-14.661c.163.059.324.11.486.163l-.018,0Zm30.808,20.681-.021.051,0,.007C140.1-414.168,140.12-414.222,140.094-414.166Zm6.862-20.79c0,.018,0,.036,0,.055s0,.036-.008.054-.009.036-.015.054-.012.035-.019.052l0,.007c-.007.014-.013.028-.021.041l0,.005-.02.033-.008.014c0,.007-.008.015-.013.021l-.042.055c-.024.033-.055.074-.094.124l-.06.079c-.039.055-.035.048-.019.025l-7.735,10.182a.568.568,0,0,1-.191.251l-1.492,1.965a.033.033,0,0,0,.015.022c3.685,1.734,6.456,3.406,6.7,3.552l.432.263-.207.462a4.443,4.443,0,0,1-3.74,2.4,4.229,4.229,0,0,1-.144.608.39.39,0,0,1-.015.053l0-.018c0,.012-.007.025-.011.037l.006-.019h0c0,.007-.007.02-.009.028-.023.072-.047.142-.074.214s-.059.151-.089.221l0,.007h0l-.008.021c0,.009-.007.018-.011.027l.008-.018-.009.019-.038.08c-.065.14-.05.1,0,0-.022.047-.047.089-.07.134-.012.023-.024.046-.036.07-.024.043-.044.091-.069.132a2.689,2.689,0,0,1-1.543,1.269A4.5,4.5,0,0,1,134.52-409a3.87,3.87,0,0,1-3.5,2.538l-.029,0-.014,0a3.723,3.723,0,0,1-1.444,1.3l0,0,.046-.019c-.019.01-.042.018-.063.028-.043.02-.085.039-.129.057s-.07.028-.106.041c.018-.006.038-.016.056-.024-.043.016-.086.032-.13.046l.059-.018-.081.026c-.037.011-.073.025-.11.035l-.021.007c-.132.03-.225.047-.288.057l-.04.006c-.056.008-.069.006-.045,0a2.776,2.776,0,0,1-.313.021l-.1,0a3.253,3.253,0,0,1-.824-.142c-.054-.016-.131-.042-.223-.076-.057-.021-.114-.042-.171-.066l-.071-.028c-.028-.012-.055-.028-.082-.041-.1-.045-.194-.092-.29-.144l-.107-.058q-.17-.1-.337-.206l-.032-.021q-.184-.121-.364-.256h0q-.156-.118-.308-.243l-.025-.02-.042-.035-.071-.058a.037.037,0,0,0-.009.008l-.164.216-.142.189-.181.244c-.233.305.03-.045.051-.075l-.075.1-.814,1.077c-.026.032-.024.028-.007,0l-3.566,4.695-.913-.694,1.94-2.553c.087-.119.43-.574.658-.877l1.585-2.081.438-.576.111-.146.055-.073.026-.035c.009-.011-.017-.019-.024-.029-.045-.034-.09-.069-.135-.1-.064-.05-.128-.1-.193-.146s-.158-.112-.239-.164c-.064-.042-.128-.079-.192-.117q-.166-.1-.338-.186c-.071-.036-.142-.07-.214-.1s-.151-.067-.228-.1c-.121-.046-.241-.088-.363-.123-.056-.016-.112-.028-.168-.041q-.132-.032-.265-.055c-.068-.012-.137-.024-.2-.032-.116-.014-.232-.023-.349-.027-.074,0-.147,0-.22,0-.1,0-.205.006-.308.016-.055,0-.109.011-.163.018q-.191.025-.384.067l-.083.018-.056.015c-.106.027-.213.059-.32.094a2.147,2.147,0,0,0-.221.078c-.1.036-.192.074-.288.117s-.184.086-.262.126a9.968,9.968,0,0,0-3.182,2.739v0q-.223.277-.44.576l-.017.023a20.1,20.1,0,0,0-1.449,2.336c-.05.1-.094.188-.133.26a3.014,3.014,0,0,0-.142.3c.025-.052.058-.114.087-.171-.09.178-.159.324-.229.473a8.958,8.958,0,0,0-.4.831c-.129.285-.244.555-.356.819l-.023.054c-.006.023-.032-.007-.048-.008l-.1-.043-.19-.081-.37-.158-.366-.156.152-.358c.1-.234.2-.461.306-.691q.086-.189.175-.38h0c.13-.278.267-.56.415-.85l.006-.012q.189-.369.408-.762l.047-.083q.166-.293.354-.6c.047-.078.094-.155.142-.232l.033-.054.05-.074q.476-.753.982-1.411c.121-.162.239-.316.345-.45.364-.437.587-.7.421-.521a14.085,14.085,0,0,1,1.1-1.087l.454-.369c.17-.134.377-.275.645-.463-.432.3-.625.431-.666.469a2.032,2.032,0,0,1,.21-.158c.311-.24.9-.588.993-.648a4.634,4.634,0,0,1,.739-.343c.026-.007-.032.019.255-.092.207-.082.723-.229.758-.237.408-.071.01-.008-.35.119a1.845,1.845,0,0,0-.45.166A6.212,6.212,0,0,1,120-409.1a5.431,5.431,0,0,1,1.279-.146l-.02-.009c.128,0,.257,0,.385.014l-.079,0a5.347,5.347,0,0,1,1.4.273c-.116-.163-.22-.315-.316-.459,0,0,0,.008,0,.026a2.2,2.2,0,0,0,.13.239l.058.1a.666.666,0,0,1-.069-.024l-.034-.013-.057-.018a.871.871,0,0,1,.111.031c.042.021,0-.019-.008-.04l-.109-.163c-.21-.314-.441-.686-.591-.939a3.86,3.86,0,0,1-.655-1.862,1.16,1.16,0,0,1,.311-.8,1.04,1.04,0,0,1,.368-.258,1.281,1.281,0,0,1,.365-.093l-.109-.177.115.18a.893.893,0,0,0-.112.017,1.34,1.34,0,0,0-.193.055,1.086,1.086,0,0,0-.1.048,1.25,1.25,0,0,1,.217-.078c.039-.01.095-.021.125-.026s.051-.007.078-.009l-.1-.167c-.049-.08-.1-.163-.143-.248a2.193,2.193,0,0,1-.212-.527,1.5,1.5,0,0,1-.009-.752,1.514,1.514,0,0,0-.027.433.924.924,0,0,0,.033.191c.007.013-.006-.036-.015-.2a1.27,1.27,0,0,1,.229-.807,1.476,1.476,0,0,1,.644-.493,2.546,2.546,0,0,1,.743-.172,4.057,4.057,0,0,1,.623,0l-.08-.115c-.031-.049-.067-.108-.1-.161a1.118,1.118,0,0,1-.12-.334.986.986,0,0,1,.067-.562,1.756,1.756,0,0,1,.232-.356,1.05,1.05,0,0,0-.334.8,1.059,1.059,0,0,0,.115.428c.032.065.069.127.107.188l.054.079-.159-.007c-.093,0-.186,0-.279,0a3.037,3.037,0,0,0-.554.076,1.679,1.679,0,0,0-.956.567,1.383,1.383,0,0,1,.642-.476,2.569,2.569,0,0,1,.742-.167,3.627,3.627,0,0,1,.367-.013l.175.005-.036-.05-.064-.1c-.038-.063-.053-.092-.046-.072a1.035,1.035,0,0,1-.055-.87,1.25,1.25,0,0,1,.6-.633,2.457,2.457,0,0,1,.817-.254c.042-.006.084-.006.126-.011-.072.008-.139.018-.2.028-.249.049-.364.089-.134.035a3.5,3.5,0,0,1,.722-.075l.225,0a.7.7,0,0,1-.03-.088,1.162,1.162,0,0,1-.028-.117l-.012-.081a.177.177,0,0,1,0-.052.356.356,0,0,0-.079-.009l-.175-.016.135.01.077,0a.2.2,0,0,1,.048.005.973.973,0,0,0,.09.361.335.335,0,0,1-.058,0h-.085c-.075,0-.151,0-.228,0a3.673,3.673,0,0,0-.471.055,2.127,2.127,0,0,0-.909.374,1.055,1.055,0,0,0-.408.693,1.016,1.016,0,0,1,.344-.619,2.574,2.574,0,0,1,1.8-.46h.082v0a.986.986,0,0,1-.116-.442,9.269,9.269,0,0,1-1.671-.227,6.289,6.289,0,0,1-.688-.222.849.849,0,0,1-.191-.087,3.1,3.1,0,0,1,.344.1,8.417,8.417,0,0,1-1.466-.664,10.561,10.561,0,0,1-.921-.6l-.22-.154-.07-.049c0-.021.029-.046.043-.069l.086-.122.337-.476.217-.3c.021-.059.058-.016.094.009l.1.069.158.114c.214.161.465.317.75.5-.185-.122-.367-.245-.549-.372a8.605,8.605,0,0,0,1.15.68,6.738,6.738,0,0,0,.96.363c.319.094.626.173.674.191a7.7,7.7,0,0,0,2.138.076c-.353.033-.12.046-.271.059.867-.053,1.483-.222,1.18-.178a13.619,13.619,0,0,0,1.427-.321l.492-.123a1.407,1.407,0,0,1,.85.077c.268.092.257.085.133.028a2.367,2.367,0,0,0-.268-.1,4.13,4.13,0,0,1,.525.173c.241.1.451.2.64.294.379.187.678.345.945.486-1.3-.651-1.063-.5-.913-.394.328.162.7.358,1.148.59l.117.062c.933.461,1.866.924,2.824,1.325-.142-.057-.479-.179-.457-.165a28,28,0,0,0,3.017,1.155,4.191,4.191,0,0,0,2.5.043,3.083,3.083,0,0,0,1.036-.588,3.409,3.409,0,0,0,.379-.384l.049-.061c.007-.008,0-.015-.008-.02.012.006.023.012.007.024-.022.03-.03.041-.024.036l.019-.021c0-.009.044-.03.011-.039l-.56-.325c-.514-.294-1.189-.661-1.584-.868.136.065.315.166.651.348-1.479-.825-1.957-1-3.492-1.785,1.4.689,1.673.836,1.611.784-.571-.29-1.522-.765-2.268-1.117s-1.282-.591-1.008-.442c-.747-.344-1.426-.638-1.353-.627l-1.457-.6-1.394-.526c.1.037.164.051.038,0,1.446.535,2.778,1.07,3.518,1.434.051,0-.55-.283.231.043a43.938,43.938,0,0,0-6.972-2.516c-.483-.123-.964-.259-1.45-.372-.49-.092-.976-.209-1.469-.282l-.127,0-.512-.092c-.372-.04-.609-.064-.687-.062s.026-.008.174,0c-.314-.014-.6-.017-.749-.02-.058-.009.045-.014.233-.016a5.721,5.721,0,0,1,.745.023l.818.116c.294.021.542.072.619.079.035.005.032,0-.017-.012q-.374-.066-.741-.117l-.083-.009.058.005a15,15,0,0,0-1.733-.142l.821.043-1.067-.021c-.335-.014-.634.03-.848.037-.428.03-.517.045.124.025l-.872.031c-.29.012-.579.048-.869.071l-.662.075-.495.083-.747.127c-.237.032-.481.1-.822.177l-.59.135c-.227.052-.48.139-.778.225-.134.028.5-.164.069-.048l-.682.205-.707.257c-.482.157-.945.371-1.373.554s-.793.393-1.089.538l-.37.2c-.1.061-.165.108-.2.138a8.886,8.886,0,0,0-1.26.888c.034-.029.1-.086-.118.074l-.437.339-.41.37c-.344.287.759-.678-.19.131a17.045,17.045,0,0,0-1.872,1.96,19.953,19.953,0,0,0-1.431,1.986c-1.284,2.185.565-.925-.5.929-.085.133-.165.257-.306.495-.072.117-.153.268-.256.463l-.116.222-.035.066c-.017.007-.044-.019-.066-.026l-.142-.074-.422-.219-.4-.194-.119-.058c-.029-.022-.107-.028-.063-.074l.113-.231c.09-.2.214-.445.508-.977l-.011.081.381-.691.345-.542a4.6,4.6,0,0,1,.336-.492c.244-.389.49-.69.683-.961.1-.133.189-.258.277-.368l.256-.294c.548-.652.333-.425-.054,0a8.729,8.729,0,0,0-.6.733l-.409.527.7-.931c.229-.278.452-.525.653-.76l.3-.337.3-.294.549-.526-.519.53a7.169,7.169,0,0,0-.5.544c.252-.306.517-.528.724-.747s.387-.405.564-.548l.782-.692a12.422,12.422,0,0,1,1.295-.935c-.448.3-.916.675-1.218.906-.284.255-.4.369-.156.166.391-.346.824-.641,1.235-.965.152-.1-.715.54-.133.118.171-.145.466-.317.742-.507s.551-.374.732-.466l-.018.012a19.947,19.947,0,0,1,2.282-1.1c.043-.016.1-.036.158-.057.58-.216,1.155-.449,1.753-.611-.543.169.017.008.82-.209.584-.127.991-.221,1.3-.3l.735-.141a10.6,10.6,0,0,1,1.668-.225l-.584.062.951-.081a1.885,1.885,0,0,1,.3-.05l.665-.042.911-.047c.333.006.688-.008,1.041.022,1.415.068,2.8.374,2.9.353.662.161.684.171.326.1s-1.1-.219-1.968-.324c.478.076.954.156,1.426.259-.577-.109-1.063-.2-1.69-.263a33.8,33.8,0,0,1,4.609.978,8.591,8.591,0,0,0,1.41.5c2.747.972-.5-.245,1.149.346.393.158.782.323,1.17.49.521.2,1.006.4,1.466.593l.674.292.268.119c.007,0,.015.009.021.008l.015-.019.074-.1.836-1.091.417-.544.062-.081c.021-.015-.011-.031-.016-.051l-.172-.28-.3-.362-.177-.159a4.773,4.773,0,0,0-2.665-1.132,19.849,19.849,0,0,0-2.633-.16c.352-.008-.858-.027-1.041-.03l-2.207.046a5.529,5.529,0,0,0,.856-.06c-.852.009-1.25.039-1.836.02.357,0,.717,0,.263-.021a12.957,12.957,0,0,1-2.86-.337c.165.043.488.122.762.171a12.51,12.51,0,0,1-1.5-.366,11.317,11.317,0,0,1-1.651-.653c.085.035.415.166.5.194a7.971,7.971,0,0,0,1.714.568c-.481-.125-.745-.219-.891-.269s-.17-.065-.17-.065.132.041-.311-.137c-.652-.255-1.1-.473-1.342-.592s-.3-.137-.14-.036c-.348-.192-.626-.37-.872-.536a1.769,1.769,0,0,1-.6-.628,1.711,1.711,0,0,1-.216-.855c.01-.3.025-.633.051-1.037l.01.307q.047-.738.131-1.474c-.036.4-.062.8-.08,1.2.136-1.411.17-1.538.171-1.709a11.644,11.644,0,0,1,.328-1.927l.031,0,.144-.667c.005-.047.033-.114.015-.125l-.14.071-.062.031c-.024.012-.027.015-.08.038l-.257.11c-.175.076-.367.144-.59.222-1.1.431,1.908-.671-.695.3a20.5,20.5,0,0,1-2.272.57c-.656.133.057.023.682-.114a13.592,13.592,0,0,1-1.658.293,10.718,10.718,0,0,1-1.108.066c-.3,0-.581.007-1.024-.024l-.8-.039c-.32-.044-.7-.078-1.167-.151.633.111.367.079.316.088-.013,0-.011,0,.023.012a14.257,14.257,0,0,1-2.177-.547l.46.12c-.262-.076-.54-.157-.78-.254s-.459-.163-.595-.221a1.085,1.085,0,0,0,.126.02,11.594,11.594,0,0,1-2.268-1.22c-.637-.443-1.153-.887-1.583-1.243.3.246.041.012-.341-.37a6.5,6.5,0,0,1-.588-.669l-.316-.428-.043-.06c0-.018.032-.03.046-.045l.111-.083.181-.134-.166.131-.092.072-.046.036-.023.018.018.024.271.361a6,6,0,0,0,.455.552,12.4,12.4,0,0,0,1.059,1.017,8.251,8.251,0,0,0,1.473,1.042,12.068,12.068,0,0,1-1.63-1.228,10.308,10.308,0,0,0,1.09.823,13,13,0,0,1-2.156-1.942c-.067-.076-.13-.158-.187-.234l-.193-.254-.111-.146c.04-.038.092-.073.137-.111l.243-.191.839-.659-1,.769-.17.13-.043.033c-.009.011-.042.02-.02.036l.064.086.222.3a5.333,5.333,0,0,0,.4.49,2.7,2.7,0,0,1-.486-.556l-.219-.3a.386.386,0,0,1-.028-.041l.04-.031.081-.062.164-.126c.153-.12.3-.236.433-.351,1.017-.736,1.774-1.362,2.6-1.967l-.445.343c1.089-.827,1.8-1.338,2.343-1.724l.722-.51c.212-.15.44-.316.605-.44.017-.017.058-.034.057-.052l-.07-.055-.149-.118-.383-.3c-.254-.21-.492-.441-.7-.622-.386-.392-.613-.625-.372-.345a8,8,0,0,0,.928.914c.158.134.319.256.453.366l.126.1c.024.027.074.049.059.066-.05.034-.074.046-.07.035a.163.163,0,0,1,.027-.033c.018-.008-.007-.018-.023-.029l-.055-.035-.047-.046-.113-.1-.231-.194c-.161-.125-.3-.28-.462-.423a6.63,6.63,0,0,1-.482-.472c-.157-.175-.34-.342-.5-.548a10.276,10.276,0,0,1-1.029-1.436,9.842,9.842,0,0,1-.937-2.069c.548,1.4-.264-.841.223.407a11.187,11.187,0,0,1-.468-1.474,8.468,8.468,0,0,1-.177-.856c-.011-.169-.007-.329-.011-.493l-.069-.772c0-.029-.005-.056-.007-.082a.084.084,0,0,1,0-.019l.016.008.031.016.117.06.2.1.441.221c.117.058.261.141.56.269.15.065.332.156.575.254.251.077.552.187.932.292-.257-.063-.305-.087-.254-.061a2.129,2.129,0,0,0,.379.12c.338.088.709.183.311.1a12.737,12.737,0,0,0,2.366.3l-.117-.006c.4.041.747.026,1.045.04s.552.01.775,0c.446-.009.768,0,1.08-.024.625-.029,1.217-.05,2.681-.232l-.293.018c1.917-.234,4.076-.594,6.244-1s4.349-.857,6.33-1.2l-1.4.231c.422-.071,2.66-.512,3.92-.592l-.914.112c.039.02.524-.035,1.492-.1l.372-.052.394.01c.743,0,.636.005.526-.017s-.216-.04.527.01a14.148,14.148,0,0,1,3.577.843,6.376,6.376,0,0,1,1.091.591,4.719,4.719,0,0,1,.868.775,3.263,3.263,0,0,1,.724,1.47c.115.51.062-.234-.3-.858s-.89-1.079-.462-.7a3.579,3.579,0,0,1,.371.517,2.675,2.675,0,0,1,.2.369,2.909,2.909,0,0,1,.209.579,3.058,3.058,0,0,0-.069-.341,3.5,3.5,0,0,1-.275,2.914l-.732,2.206-1.511,4.623.041-.154-.3.894-.2.631c-.114.185.121.1.205.116l.488-.014c.294.022-.725.016-.176.04a16.535,16.535,0,0,1,3.6.3,12.231,12.231,0,0,1,2.749.906c-.053-.007.084.093.3.236a3.358,3.358,0,0,1,.35.261c.069.059.142.114.213.171a5.317,5.317,0,0,1,1.666,2.1c0,.008,0,.016.008.023s.014.038.019.058.009.035.012.052a.549.549,0,0,1,.007.055C146.955-434.993,146.956-434.974,146.956-434.955Zm-38.522,14.65c-.111.106-.318.3-.519.526l-.529.631.574-.654C108.127-419.976,108.276-420.126,108.434-420.306Zm19.277-3.855c-.474-.138-.916-.2-1.3-.278C126.94-424.326,127.412-424.242,127.711-424.161Zm-3.722,7.384c0,.016-.005.032,0,.047s0,.018,0,.028C123.988-416.727,123.988-416.752,123.989-416.777Zm-4.163,8.921c-.018.006-.035.009-.053.015h0l-.053.021Zm.466-.134-.028.005-.019.005ZM137-416.008l0,0,.065.024Zm-6.923-2.887a.28.28,0,0,0,.1-.024A.568.568,0,0,0,130.074-418.895Zm-2.468.563c.02.011.019,0,.068-.013a.329.329,0,0,1-.051,0A.015.015,0,0,0,127.606-418.331Zm-1.29,1.656a.318.318,0,0,0,.122.009C126.383-416.681,126.356-416.7,126.316-416.676Zm-1.912,2.015c.019.017.081.009.111.011C124.466-414.668,124.441-414.682,124.4-414.661Zm-1.646,2.78c.014,0,0-.024-.011-.039C122.739-411.911,122.727-411.9,122.758-411.881Zm6.282,6.9q-.112.028-.226.047C128.874-404.947,128.948-404.96,129.04-404.983Zm.645-1.688a4.968,4.968,0,0,1-.842-.414l-.018-.01-.01-.007-.088-.051h0l0,0c-.032-.02-.065-.043-.1-.063a.131.131,0,0,0-.031-.014c-.017-.012,0,0,.005,0l-.006,0-.063-.038s0,0,.007,0c-.154-.1-.311-.208-.472-.324-.008,0-.034-.019-.053-.03-.108-.086-.29-.221-.374-.289-.119-.093-.24-.189-.361-.288-.021-.01-.038-.016-.042-.011a.812.812,0,0,1,.159.123,1.181,1.181,0,0,0-.143-.094c-.04-.05.092.068.035.008a.509.509,0,0,0-.068-.044c.026.013-.024-.031-.031-.042l-.274-.241,0,0-.069-.058c-.044-.026-.084-.043-.074-.026-.064-.055-.063-.064-.12-.108.077.087-.015-.017-.035-.013-.057-.047-.015-.023-.038-.048-.01-.007-.036-.022-.04-.02-.023-.034.058.014.057,0l-.08-.07,0,.005-.016-.014.008,0-.081-.072a.063.063,0,0,0,0,.074c-.011,0-.046-.054-.069-.076-.059-.075-.115-.086-.169-.143l.051.033a.711.711,0,0,0-.113-.092c0-.007.065.017.043-.012-.1-.1-.222-.162-.228-.143l.172.131c0,.016-.124-.091-.13-.071l-.142-.139c.019.017.078.065.062.039-.063-.057-.031-.032-.067-.076.049.03.122.07.189.1l-.12-.114a1.064,1.064,0,0,0-.122-.045c-.053-.055-.009-.062.008-.054-.107-.105-.143-.066-.248-.175l.035.045c-.028-.022-.116-.118-.111-.1-.015-.028-.018-.064.01-.045l-.121-.069c.017.011.029-.019.038-.017-.038-.039-.09-.04-.069-.012a1.066,1.066,0,0,1-.093-.14c-.024-.02-.021.025-.007.043a.544.544,0,0,1-.1-.1c.064.051.073.018.084-.007l-.053-.055-.169-.078a.119.119,0,0,0,.047-.009,1.515,1.515,0,0,1-.333-.3l.015.015c.027.013-.05-.08-.092-.108.01,0,.017.011.032.026-.048-.083-.118-.056-.165-.143.058.064.079.068.085.057-.058-.043-.162-.171-.165-.121-.025-.039-.057-.066-.04-.076l-.135-.112c.012.007.028.008-.005-.032.063.075.153.121.17.175.019-.014,0-.049.049-.028a1.856,1.856,0,0,0-.336-.248l-.1-.135-.013,0,0-.041c-.019-.011-.032-.017-.033-.022s.006,0,.015,0a.194.194,0,0,0-.033-.027c.007-.015.04,0,.072.009l.019.044c.02.01.032.011.038.005l-.037-.042-.019-.008-.005-.014.014.01-.019-.022,0,.011c-.066-.047-.144-.1-.112-.034l-.051-.083-.086-.059-.1-.04c0-.013.035,0,.018-.021-.1-.021-.192-.152-.225-.135-.075-.028-.042.009-.091,0,0,0,.011-.006,0-.013l-.064,0c-.019-.017.057.008,0-.028a1.607,1.607,0,0,1-.264-.083c-.129-.033.04.059-.065.024-.01-.023-.018-.049-.085-.068-.038.005-.024.023-.042.029l-.005-.031c-.023,0-.035,0-.054-.022a.037.037,0,0,1-.018.011s0,.012-.006.015c.016.037.043.023.067.044a.122.122,0,0,1,.02.017l-.011-.009c-.015-.005-.008,0-.041,0l-.012-.028c-.031.055.051.037.009.128-.017-.064-.04-.1-.053-.073l.035.068c-.005.012-.019-.043-.017,0a.584.584,0,0,0,.06.078h0c.019.046.038.092.059.137-.009-.027-.023-.029-.013,0l.055.084c-.019-.024-.016.008,0,.05.046.12.111.06.126.163-.007-.013-.011-.013-.018-.026l.011.052c.064-.022.154.259.224.233.013.077-.012.013-.091-.051l.023.078a.689.689,0,0,0-.051-.078.412.412,0,0,0,.155.206c.011.039-.063,0,.005.092.094.129.03-.053.087.024l0,.078a.971.971,0,0,1,.17.266.1.1,0,0,0,.032.028c.046.1.162.167.2.242-.018-.011.005.053,0,.067l.105.108c-.046-.048-.064-.032-.09-.03a.773.773,0,0,0,.073.072c-.018-.011-.036-.022-.031,0l.124.1a.159.159,0,0,0-.02-.038.542.542,0,0,1,.1.147c-.01,0-.029-.009-.039-.007-.006-.053-.04-.062-.069-.071.067.085.011.025.028.077.045.061.09.068.094.04a.382.382,0,0,0,.127.156l-.037.007.058.058-.073-.028c.076.137.063-.012.153.136l-.023.019c.049.046.1.032.107.1.054.039-.034-.112.063,0a.381.381,0,0,0,.053.12c.042.028,0-.05-.018-.072.155.166.007.174.168.306-.027-.068.084.007-.022-.12.064.049.063.148.142.19l-.065-.016a.251.251,0,0,0,.065.049l-.028.015c.106.043.1.159.2.158-.071.005.053.054.062.1-.085-.036-.157-.18-.2-.155.013.039.056.049.069.088a.241.241,0,0,0-.073-.036c.062.117.157.132.218.182l-.1-.1c.047-.026.047.04.1.042.024.07.09.084.114.137-.01-.011-.014-.009-.024-.02.1.109.066.2.106.243s.132.109.122.063c.044.024-.148-.134-.038-.12,0,.117.14.109.232.278-.08-.036,0,.066-.067.031a.2.2,0,0,0,.124.062v.037c.124.039.056-.018.2.082-.057-.026.023.077-.021.059a.262.262,0,0,0,.111.073l-.007,0c.142.107.085.122.226.207v-.023c.186.107.378.29.564.4l-.054-.054c.014.02.135.059.175.118a.2.2,0,0,1-.044-.022c-.009.017,0,.055.036.089l.033-.013,0,.031c.065.045,0-.049.07,0-.013.105.282.183.3.283.077-.029-.125-.082-.046-.1a.214.214,0,0,0,.061.065l0-.042a1.932,1.932,0,0,0,.463.268l-.011.005c.066.035.108.04.149.016.009.022-.044.016-.022.04.151-.06.234.148.33.081-.012.035.016.074.044.112.058.008.116.02.173.022A1.755,1.755,0,0,0,129.685-406.671Zm3.59-2.439c0-.019-.036-.017-.032-.019-.022-.009,0,0,.007,0l-.009,0-.092-.031s0,0,0,0c-.058-.021-.117-.042-.178-.066h0c-.166-.066-.339-.142-.52-.228-.011,0-.048-.019-.074-.03-.179-.092-.489-.253-.594-.318q-.245-.136-.5-.288c-.029-.011-.051-.017-.054-.012a1.455,1.455,0,0,1,.232.134,2.041,2.041,0,0,0-.2-.1c-.065-.054.134.074.045.008a.858.858,0,0,0-.1-.048c.036.014-.039-.034-.052-.046-.157-.1-.243-.159-.409-.265l0,0-.1-.065c-.061-.029-.113-.048-.1-.03-.1-.062-.1-.072-.179-.121.121.1-.024-.019-.046-.014-.084-.052-.024-.026-.061-.053a.215.215,0,0,0-.055-.023c-.038-.038.08.02.075,0l-.125-.083,0,.006-.024-.016.009,0-.119-.082a.071.071,0,0,0,.018.084c-.012,0-.072-.061-.106-.086a2.8,2.8,0,0,0-.248-.162l.071.037a1.316,1.316,0,0,0-.165-.1c0-.007.083.02.048-.012-.15-.111-.314-.188-.316-.166l.245.151c0,.018-.175-.106-.176-.084l-.213-.157c.028.019.114.074.086.044a.547.547,0,0,1-.1-.086c.068.034.17.08.26.12l-.181-.13c-.074-.028-.135-.045-.16-.053-.08-.064-.031-.071-.007-.061-.159-.122-.188-.079-.348-.2l.057.051c-.04-.026-.176-.135-.165-.119-.026-.031-.042-.072,0-.05l-.163-.081c.023.013.028-.021.04-.019-.056-.045-.118-.047-.085-.016a1.86,1.86,0,0,1-.152-.162c-.034-.023-.017.028.005.049a1.076,1.076,0,0,1-.155-.117c.092.058.093.022.1-.007l-.084-.065-.219-.092a.113.113,0,0,0,.053-.009,2.687,2.687,0,0,1-.484-.352l.022.018c.036.016-.083-.093-.141-.127.012,0,.023.013.045.031-.081-.1-.155-.067-.236-.169.088.076.113.08.116.067-.081-.051-.241-.2-.229-.144-.042-.045-.086-.077-.07-.088l-.192-.134c.016.008.034.01-.016-.037.1.088.215.144.252.207.017-.015-.012-.057.048-.031a3.414,3.414,0,0,0-.468-.3l-.155-.16-.015,0-.01-.047a.169.169,0,0,1-.045-.027c0-.005.006,0,.017,0a.343.343,0,0,0-.046-.031c0-.017.044,0,.086.012l.035.052c.025.011.045.017.05.011l-.061-.054-.024-.009-.011-.017.019.012-.028-.025.009.013c-.092-.057-.2-.12-.14-.043l-.085-.1a2.886,2.886,0,0,1-.26-.176c0-.015.042.012.023-.016a.641.641,0,0,1-.151-.138c-.053-.042-.1-.079-.115-.073-.1-.046-.051,0-.115-.02,0,0,.013-.005,0-.014l-.081-.015c-.026-.021.073.018,0-.03a3.444,3.444,0,0,1-.353-.121c-.174-.055.059.069-.085.015-.016-.024-.028-.051-.12-.081a.586.586,0,0,1-.136,0l.013-.027c-.078-.017-.142-.027-.137-.049a.419.419,0,0,1-.144-.021c-.121-.006.077.077.1.093a1.537,1.537,0,0,1-.256-.088l.105.006c-.218-.07-.215.018-.313-.058.076.009.171,0,.127-.02l-.113.006c-.013-.009.064,0,.014-.014a.724.724,0,0,0-.128.025l0,0c-.067,0-.134,0-.2,0,.038,0,.047-.011.009-.012a1.156,1.156,0,0,0-.129.024c.039-.012,0-.018-.061-.018-.167.013-.117.09-.239.088.017,0,.019-.008.036-.012a.335.335,0,0,0-.062,0c-.062.089-.105.067-.013.143,0,.042,0,.046-.016.026s-.036-.078-.05-.078-.01.026-.006.06c-.015-.041-.012-.054-.019-.068-.018.014,0,.086.032.131a.677.677,0,0,0,.084.111c.014.049-.068-.011.011.112.115.171.027-.06.1.042l.014.1a2.278,2.278,0,0,1,.231.346.143.143,0,0,0,.041.036c.072.128.214.22.272.314-.023-.015.019.065.02.081l.144.139c-.064-.061-.08-.044-.108-.042.041.047.07.062.1.092-.023-.015-.046-.03-.033,0l.164.136a.273.273,0,0,0-.031-.047,1.036,1.036,0,0,1,.151.186c-.011,0-.035-.013-.046-.012a.133.133,0,0,0-.1-.092c.1.108.018.032.05.1.067.078.118.089.116.055l.071.094c.018.022.054.06.063.06a.078.078,0,0,1,.034.014.125.125,0,0,0-.04.012.651.651,0,0,1,.105.078.612.612,0,0,0-.106-.041c.085.084.1.09.119.091s.059.02.1.107l0,0-.024.018c.057.046.124.044.14.116.071.051-.067-.137.073.008a.733.733,0,0,0,.09.148c.054.038-.007-.061-.038-.088.216.215.051.209.267.381-.048-.083.1.016-.055-.144.086.064.11.181.21.238l-.078-.025a.443.443,0,0,0,.086.064l-.028.015c.134.06.158.2.266.208-.08,0,.073.07.094.124-.107-.052-.223-.231-.271-.205.025.048.076.064.1.111a.387.387,0,0,0-.093-.05.889.889,0,0,0,.294.237l-.138-.123c.048-.026.064.054.13.062.045.085.125.107.166.172-.014-.014-.019-.011-.032-.026.143.141.12.243.176.3s.179.142.157.088c.057.034-.2-.174-.072-.144.025.138.191.142.332.356-.1-.055.014.078-.072.026a.316.316,0,0,0,.158.09l.008.044c.154.064.062-.012.256.125-.072-.039.043.093-.014.065a.5.5,0,0,0,.146.1l-.009,0c.186.15.121.157.3.279l-.005-.027c.243.154.5.409.738.578l-.071-.077c.019.027.169.1.225.181a.42.42,0,0,1-.057-.036c-.01.016,0,.061.052.108l.04-.006.008.035c.084.067,0-.053.086.014-.006.109.36.287.389.4.1-.007-.158-.128-.059-.127a.367.367,0,0,0,.078.091l0-.045a3.808,3.808,0,0,0,.582.445h-.014c.078.069.13.089.187.079.009.026-.059,0-.033.032.2,0,.283.232.413.208-.023.034.008.084.036.13a1.647,1.647,0,0,0,.221.067,2.416,2.416,0,0,0,2.882-1.11l.015-.023.008-.011c.025-.039.05-.078.074-.119v0l.015-.025C133.231-409.036,133.253-409.072,133.275-409.11Zm-6.782-4.52a.252.252,0,0,0,.071.068A.552.552,0,0,0,126.493-413.63Zm10.574,1.311a.048.048,0,0,0-.032-.032l-.051-.011h-.026c-.03-.008,0,0,.007,0l-.009,0-.107-.02s0,0,0,0c-.067-.015-.131-.026-.2-.043h0c-.057-.013-.117-.03-.175-.045l.027.009-.054-.016c-.129-.034-.26-.071-.4-.111-.012,0-.055-.012-.085-.019-.206-.066-.563-.182-.694-.232q-.292-.1-.6-.214c-.033-.007-.058-.01-.06,0a1.736,1.736,0,0,1,.277.1,2.4,2.4,0,0,0-.24-.071c-.081-.045.159.053.05,0a1.138,1.138,0,0,0-.113-.034c.041.009-.049-.028-.065-.038l-.494-.2-.005,0-.124-.049c-.071-.019-.131-.03-.109-.014-.115-.046-.118-.056-.217-.092.15.078-.03-.015-.053-.007-.1-.039-.032-.022-.076-.043a.271.271,0,0,0-.063-.014c-.049-.032.088.007.078-.012l-.152-.063v.006l-.029-.012.009,0-.146-.063c-.008.02,0,.052.039.081-.012.006-.09-.049-.133-.069-.12-.069-.2-.07-.3-.12l.084.025a1.516,1.516,0,0,0-.2-.077c0-.007.092.006.047-.021a.869.869,0,0,0-.373-.112l.295.11c0,.018-.21-.077-.205-.055l-.262-.121c.034.014.137.055.1.03a.637.637,0,0,1-.131-.069c.08.023.2.052.3.077l-.222-.1c-.084-.015-.152-.022-.181-.025-.1-.051-.05-.065-.023-.06-.2-.094-.217-.047-.416-.144l.072.042c-.049-.019-.218-.105-.2-.091-.036-.027-.062-.066-.015-.05l-.192-.054c.027.009.023-.026.037-.025-.07-.035-.136-.027-.093,0a2.259,2.259,0,0,1-.2-.136c-.042-.018-.011.031.018.048a1.133,1.133,0,0,1-.191-.091c.11.043.1.006.1-.023l-.1-.05-.255-.055a.116.116,0,0,0,.053-.018,3.1,3.1,0,0,1-.6-.271l.027.014c.042.01-.111-.079-.179-.1a.161.161,0,0,1,.055.023c-.11-.083-.179-.04-.289-.131.11.062.138.064.138.05-.1-.039-.3-.165-.275-.108-.055-.038-.11-.063-.1-.077l-.234-.1c.018.006.038,0-.026-.035a2.8,2.8,0,0,1,.315.168c.014-.018-.027-.055.043-.039a4.666,4.666,0,0,0-.562-.225c-.068-.045-.135-.09-.2-.138l-.015,0-.022-.046a.188.188,0,0,1-.053-.02c0-.005.005,0,.018,0a.387.387,0,0,0-.056-.026c0-.018.045-.011.092,0l.049.049c.029.007.051.011.055,0l-.076-.046-.028-.006-.015-.015.023.009-.035-.021.012.012c-.109-.045-.234-.093-.155-.023-.038-.028-.074-.06-.112-.086-.159-.051-.13-.045-.317-.116-.005-.014.047,0,.018-.021-.146-.032-.3-.188-.348-.17-.112-.038-.055.006-.128-.015,0,0,.014-.005-.006-.015s-.06-.01-.09-.012c-.031-.019.082.013-.008-.03a3.549,3.549,0,0,1-.4-.113c-.194-.052.069.069-.092.016-.019-.025-.034-.051-.137-.079a.616.616,0,0,1-.148,0l.012-.028c-.086-.015-.157-.023-.153-.045a.6.6,0,0,1-.158-.019c-.134,0,.088.074.115.09a1.721,1.721,0,0,1-.284-.082c.038,0,.077,0,.115,0-.241-.064-.235.021-.344-.049.084,0,.187,0,.138-.024-.041,0-.082.006-.124.009-.014-.009.071,0,.015-.015a1.031,1.031,0,0,0-.139.03l0,0c-.073,0-.147,0-.218.014.042,0,.051-.015.009-.012s-.094.018-.14.031c.042-.014,0-.017-.068-.013-.139.018-.027.078-.1.067.007,0,0-.005.009-.007h-.045l.006,0a.18.18,0,0,1,.081.057l.032.039c.016.019.032.036.047.05s.055.044.071.036c.046.1-.01.018-.12-.068l.055.1c-.031-.034-.051-.068-.087-.1a.745.745,0,0,0,.258.267c.03.049-.072,0,.047.116.167.161.01-.068.11.028l.041.1a2.392,2.392,0,0,1,.32.331.176.176,0,0,0,.05.034.979.979,0,0,0,.182.161l.092.069.049.042c-.035-.014.061.071.066.093a.994.994,0,0,1,.127.114.256.256,0,0,1,.044.03c-.032-.023-.046-.03-.05-.024a.257.257,0,0,1-.051,0,.146.146,0,0,0,.022.025.9.9,0,0,1,.08.053c-.027-.013-.053-.026-.034.006l.2.126a.355.355,0,0,0-.041-.046,1.225,1.225,0,0,1,.193.179c-.011,0-.038-.011-.05-.008a.154.154,0,0,0-.116-.086c.12.1.025.031.07.095.084.074.14.08.131.046a.837.837,0,0,0,.228.188l-.04.009.1.07-.1-.032c.156.166.069-.016.248.163l-.019.023c.081.054.14.038.174.113.084.047-.1-.136.078,0a.835.835,0,0,0,.121.145c.063.034-.018-.062-.055-.088.266.2.092.212.349.371-.065-.082.1.008-.084-.144.1.059.148.178.263.227l-.086-.019a.5.5,0,0,0,.1.058l-.027.018c.151.051.2.193.315.192-.084.006.089.066.123.119-.122-.043-.275-.218-.321-.188.035.048.091.06.124.106a.471.471,0,0,0-.105-.043,1.054,1.054,0,0,0,.351.218l-.167-.115c.045-.031.077.049.147.051.062.085.15.1.2.164-.017-.013-.021-.01-.039-.024.175.132.171.239.24.293s.213.131.179.077c.066.03-.244-.162-.1-.143.051.14.226.129.411.337-.114-.048.028.08-.07.034a.379.379,0,0,0,.182.08l.016.044c.173.052.063-.019.291.106-.082-.034.062.092,0,.069a.607.607,0,0,0,.171.093l-.01,0c.222.137.155.151.369.26l-.011-.027c.283.137.594.377.879.528l-.089-.071a1.8,1.8,0,0,1,.269.165.486.486,0,0,1-.066-.032c-.008.018.01.063.073.108l.041-.01.015.036c.1.06-.008-.054.093.006.014.111.43.263.482.378.1-.016-.189-.116-.085-.124a.435.435,0,0,0,.1.085l0-.046a4.393,4.393,0,0,0,.695.4l-.015,0a.284.284,0,0,0,.213.065c.015.025-.063,0-.03.035.217-.022.34.212.476.17-.02.036.022.082.061.126a.9.9,0,0,0,.251.024h0a3.242,3.242,0,0,0,2.857-1.951l.013-.03.007-.013c.021-.047.041-.094.06-.14v-.006C137.047-412.27,137.058-412.295,137.067-412.319Zm-8.3-3.491a.264.264,0,0,0,.09.058A.865.865,0,0,0,128.768-415.809Zm10.49.494a6.9,6.9,0,0,1-.925-.22l-.013,0-.024-.007-.026-.01-.109-.036-.023-.005a1.294,1.294,0,0,0-.21-.064c-.03-.012.01,0,.009,0l-.111-.035c-.007,0,.005,0,.024,0-.071-.024-.143-.047-.215-.072l0,0-.027-.01c-.182-.065-.361-.134-.541-.2.03.015-.038-.008-.078-.021-.215-.089-.608-.245-.687-.288-.176-.074-.349-.149-.521-.226-.038-.01-.065-.015-.068-.009a1.63,1.63,0,0,1,.261.112,2.263,2.263,0,0,0-.228-.083c-.076-.048.15.061.048,0a.978.978,0,0,0-.107-.039c.039.011-.046-.031-.061-.041l-.466-.224-.007-.006-.1-.049c-.072-.024-.137-.039-.116-.022-.109-.051-.111-.061-.205-.1.141.084-.027-.016-.05-.009-.095-.043-.03-.023-.071-.047a.24.24,0,0,0-.061-.016c-.046-.035.087.011.076-.009l-.142-.07,0,.007-.027-.013.009,0-.138-.069c-.01.02,0,.052.032.082-.011.005-.084-.052-.125-.074-.112-.073-.187-.078-.283-.133l.08.029a1.423,1.423,0,0,0-.188-.086c0-.007.089.011.047-.018a.822.822,0,0,0-.355-.126l.28.12c0,.018-.2-.084-.2-.062l-.247-.131c.032.015.13.06.1.034a.57.57,0,0,1-.122-.074c.077.026.191.06.293.089l-.212-.109c-.081-.019-.147-.029-.175-.033-.094-.053-.045-.066-.019-.061-.187-.1-.209-.053-.4-.155l.068.044c-.047-.02-.206-.111-.192-.1-.033-.028-.057-.066-.012-.05l-.185-.057c.027.01.024-.025.037-.024-.067-.036-.131-.029-.091,0a2.08,2.08,0,0,1-.19-.138c-.04-.018-.011.031.016.049a1.187,1.187,0,0,1-.183-.092c.105.043.1.007.1-.022l-.1-.05-.249-.054a.111.111,0,0,0,.052-.019,3.688,3.688,0,0,1-.579-.252l.027.012c.04.008-.109-.072-.177-.091a.142.142,0,0,1,.054.02c-.111-.076-.175-.028-.287-.105.11.05.137.048.136.035-.1-.031-.3-.128-.273-.075-.056-.028-.111-.043-.1-.059a.689.689,0,0,0-.208-.026s.009-.009,0-.012a.461.461,0,0,1,.261.057c.012-.02-.033-.05.036-.045a.637.637,0,0,0-.308-.046l-.229.112-.229.047-.007.014-.047-.016a.168.168,0,0,1-.05.024c-.006,0,0-.007.01-.014a.353.353,0,0,0-.055.023c-.013-.012.023-.04.061-.067l.066,0c.025-.016.042-.03.039-.037l-.082.023-.023.016h-.021l.022-.011-.039.011h.017c-.1.048-.221.1-.119.1l-.136.019a2.705,2.705,0,0,1-.308.126c-.013-.007.036-.029,0-.027-.131.068-.349.041-.372.077-.111.032-.042.036-.112.06,0,0,.008-.012-.013-.008l-.081.04c-.036,0,.076-.031-.023-.021a1.83,1.83,0,0,1-.4.092c-.2.038.092.031-.076.055a.211.211,0,0,0-.158-.021.5.5,0,0,1-.137.057l0-.03c-.088.012-.156.027-.16,0a.472.472,0,0,1-.158.024c-.128.03.1.051.137.058-.066,0-.125,0-.17,0l-.038-.025.031-.011c-.048-.014-.073,0-.073.005s0,0-.078,0c.026-.027.063-.026.014-.045-.018.008-.034.008-.038.031-.022,0,.02-.029-.023-.016a.1.1,0,0,0,0,.016l.027.021a.342.342,0,0,0,.053.033h0a.734.734,0,0,0,.072.066c-.011-.012-.026-.01-.012,0s.067.046.1.067c-.038-.022-.012.015.034.059.136.123.159.034.252.146l-.038-.025.05.055c.052-.045.355.246.41.2.07.082,0,.019-.134-.03l.08.08c-.039-.023-.067-.05-.111-.072a.773.773,0,0,0,.315.183c.041.039-.067.021.073.1.2.112-.006-.068.112,0l.062.085a2.158,2.158,0,0,1,.378.242.162.162,0,0,0,.055.02c.124.094.3.133.392.2-.028-.006.045.055.053.07l.2.081c-.087-.036-.1-.013-.121,0,.059.03.092.034.133.053-.028-.006-.057-.012-.031.014l.213.074a.3.3,0,0,0-.049-.035,1.329,1.329,0,0,1,.222.125c-.011.005-.039,0-.05,0a.15.15,0,0,0-.129-.054c.136.071.031.024.087.074.1.05.151.042.135.011a.817.817,0,0,0,.257.125l-.036.018.106.044-.1-.007c.184.122.062-.03.271.1l-.013.027c.089.032.141,0,.19.066.09.024-.12-.107.074-.017a.83.83,0,0,0,.146.11c.067.018-.03-.055-.071-.071.3.131.132.184.411.273-.08-.063.1-.018-.111-.118.109.031.179.135.3.155l-.086,0a.491.491,0,0,0,.109.032l-.022.024c.154.013.23.14.339.11-.078.027.1.042.142.086-.125-.013-.309-.143-.345-.1.043.038.1.037.14.073a.47.47,0,0,0-.11-.016,1,1,0,0,0,.38.127l-.183-.071c.036-.04.084.029.151.014.077.067.164.061.229.111-.019-.009-.023-.005-.042-.014.194.088.212.191.289.228s.23.077.187.033c.069.013-.266-.1-.125-.115.078.124.242.073.461.231-.118-.02.043.071-.06.049a.348.348,0,0,0,.189.035l.024.039c.175.011.057-.032.3.035-.085-.013.077.074.011.067a.587.587,0,0,0,.181.053h-.01a3.615,3.615,0,0,0,.4.168l-.015-.024c.3.074.642.233.94.324l-.1-.052a2.076,2.076,0,0,1,.288.1.446.446,0,0,1-.069-.017c0,.019.022.059.09.088l.037-.018.021.032c.107.038-.017-.051.09-.013.033.106.46.171.529.272.093-.036-.2-.076-.1-.1a.408.408,0,0,0,.11.063l-.012-.044a5.005,5.005,0,0,0,.734.267l-.014.005a.279.279,0,0,0,.215.023c.018.023-.06.015-.023.04.206-.05.357.148.484.1-.014.04.032.08.076.117a1.271,1.271,0,0,0,.243,0h0C138.728-413.533,139.148-414.729,139.258-415.315Zm-2.057-6.612h0ZM130.441-452a3.13,3.13,0,0,0,.4-.065A1.543,1.543,0,0,0,130.441-452Zm-9.3,14.273c.106-.112.212-.234.316-.362.041-.051.082-.1.122-.153.06-.078.117-.158.171-.237.07-.1.14-.206.205-.312.028-.046.054-.09.079-.133.088-.152.173-.307.248-.467.16-.337.325-.654.493-.962l.02-.039c.029-.054.054-.1.074-.134q.17-.3.344-.591a.954.954,0,0,0,.1-.2c-.151.247-.43.752-.481.825.133-.256.387-.685.4-.71.166-.249-.278.469-.066.139l.2-.33c-.067.117.106-.148.142-.2a16.516,16.516,0,0,1,1.024-1.4l.028-.031c.092-.113.183-.226.274-.332.143-.181.254-.324.194-.266a.954.954,0,0,1,.306-.276c.06-.054.131-.132.247-.255-.388.394.066-.087.117-.12a1.313,1.313,0,0,1,.229-.172c.048-.034.162-.116.168-.125.165-.1-.217.177-.159.155a4.337,4.337,0,0,1,.451-.284l-.006,0,.089-.048-.016.016c.15-.081.307-.156.472-.227-.011-.019-.091-.012-.235.039a4.513,4.513,0,0,1,.455-.181c.425-.141.643-.234,1.005-.321-.09.027-.183.049-.272.082l.673-.176c.014,0-.27.091-.1.06.65-.146,1.272-.264,1.229-.278-.336.058-.672.121-1,.2-.039-.013.711-.154.667-.162.246-.04.493-.074.74-.106-.123.019-.232.038-.142.031.4-.055.208-.025.476-.053-.256.04-.624.115-.953.189.249-.04.5-.076.759-.109.264-.055.468-.1.556-.119.362-.037.239.011.154.028.711-.073.7-.122,1.415-.184l-.27.017c.169-.019.785-.068.718-.068.143,0,.275.008.117.028l.632-.093c-.093.013-.029.036-.069.046.255-.022.431-.077.269-.065.5-.027.375-.027.781-.045.147-.018-.017-.031-.125-.023.331-.044.525-.066.683-.082-.379.056-.3.076-.249.1l.349-.043c.275-.058.549-.12.82-.191a.474.474,0,0,0-.119.062c.046-.024.4-.089.827-.192a5.884,5.884,0,0,0,1.192-.408l-.089.042a1.759,1.759,0,0,0,.515-.291,3,3,0,0,0,.547-.692c-.221.339-.275.4-.249.393a4.536,4.536,0,0,0,.355-.548l0,.007.069-.137,0,.006c.056-.124.078-.2.041-.146.093-.19.139-.374.151-.351a2.1,2.1,0,0,0,.056-.794c0,.059.031.108,0-.124a1.985,1.985,0,0,1-.118,1.106c.017.02.09-.139.031.076a2.081,2.081,0,0,0,.132-1.071,1.87,1.87,0,0,0-.31-.759,2.744,2.744,0,0,0-.479-.594l-.031-.014-.087-.106c-.08-.055-.131-.09-.146-.1s.01,0,.042.019a1.687,1.687,0,0,0-.164-.105c-.019-.027.112.026.235.11l.158.147a.639.639,0,0,0,.138.1c-.069-.068-.143-.134-.221-.2l-.075-.048-.05-.047.065.046c-.039-.03-.077-.061-.118-.09l.054.044c-.316-.21-.709-.38-.425-.2a4.087,4.087,0,0,0-.4-.225,7.588,7.588,0,0,0-1.039-.333c-.031-.02.138.02.028-.02a11.985,11.985,0,0,0-1.232-.281,2.594,2.594,0,0,0-.406-.023c.012,0,.036-.006-.035-.015l-.29-.011c-.116-.021.267.015-.057-.032-.561-.034-.884-.036-1.35-.035-.663.032.285.035-.275.053a1.673,1.673,0,0,0-.507-.011c-.183.031-.158.043-.47.081l.017-.032a2.462,2.462,0,0,1-.526.045c-.236.044-.4.063-.523.076-.437.079.332.014.435.015-.434.034-.73.093-.981.094l.38-.065c-.82.085-.765.163-1.152.16.279-.046.611-.114.444-.105l-.4.082c-.049,0,.23-.044.043-.023-.114.026-.347.081-.449.11l.005,0-.727.136c.138-.024.17-.042.031-.018l-.474.1c.144-.035-.007-.017-.221.018-.616.106-.477.166-.96.224l.15-.032-.248.033c-.038.078-1.44.289-1.479.37-.354.04-.028-.012.414-.134l-.375.053c.15-.032.278-.051.438-.09a9.237,9.237,0,0,0-1.2.263c-.188.026.136-.081-.393.033-.747.158.152.025-.3.12l-.333.026c-.57.139-1.006.191-1.493.276a1.861,1.861,0,0,0-.189.045c-.521.074-1.079.231-1.474.28.09-.023-.228.011-.276.009l-.6.115a.457.457,0,0,0,.24-.089l-.473.089c.091-.022.182-.044.064-.037l-.738.148c.044,0,.13-.013.2-.023-.185.03-.587.1-.856.112.023-.012.113-.032.135-.044a1.429,1.429,0,0,0,.465-.075c-.513.073-.129.011-.379.027-.363.047-.508.1-.41.105-.411.043-.542.055-.96.121l.076-.041-.385.05.309-.073c-.742.051-.129.076-.955.132l0-.029a3.39,3.39,0,0,1-.671.076c-.307.042.53,0-.194.063-.129,0-.405-.006-.614,0-.2.02.076.027.252.021-1,.047-.632-.064-1.587-.022.336.021-.281.061.515.057-.38.018-.747-.036-1.144-.012q.13-.013.259-.035l-.38.009.033-.029c-.491.032-.907-.055-1.2-.021.207-.037-.364-.031-.556-.072.2,0,.49.027.735.049a1.445,1.445,0,0,0,.473,0c-.186-.024-.355,0-.534-.038a2.182,2.182,0,0,0,.359-.007c-.612-.074-.967-.049-1.342-.081.218.031.44.038.66.058-.059.047-.3-.02-.488,0-.325-.072-.588-.078-.853-.136l.148.019a3.12,3.12,0,0,1-.747-.19,3.664,3.664,0,0,0-.419-.145c-.138-.03-.332-.092-.472-.128s-.191-.039-.135-.008c-.031-.006-.031-.005.04.018l.281.094c.206.071.4.112.185.1-.1-.039-.193-.086-.3-.122l-.169-.054-.12-.032-.1-.026-.053-.013c-.014-.008-.009,0-.005.015l.009.031.1.366c-.15-.358.026.232-.1-.091a2.521,2.521,0,0,0,.253.575l.022.128c.279.48.085.107.486.834-.151-.235.125.312.007.134a3.977,3.977,0,0,0,.334.528l-.019-.024.421.629a3.9,3.9,0,0,0,.439.546l-.036-.069a11.034,11.034,0,0,0,2.533,2.105c-.085-.056-.166-.115-.247-.173.069.045.183.115.315.191l.363.224.208.135.092.062.042.029c.006,0,.016.009.018.014l-.022.016c.043-.018-.015-.033-.038-.051l-.093-.056-.163-.1c0,.009.028.043.1.1.034.028.076.06.128.1l-.2.145-.08.1-.143.08-.108.084a.194.194,0,0,0-.032.031c-.008.011.006.007.02,0s.058-.017-.1.1c-.231.068-1.328,1-1.639,1.137-.17.209.587-.434.392-.215-.1.063-.148.086-.351.234l.092-.022c-.941.69-1.316.933-2.138,1.568l.028-.032a3.053,3.053,0,0,0-.569.465c-.072.032.134-.137.01-.063-.457.475-1.082.728-1.355,1.025,0-.043-.152.025-.293.089l-.662.5h0l.072.077-.072-.076a10.608,10.608,0,0,0,1.912,1.63l.01.007q.252.169.533.334l.056.033.019.011q.195.113.4.222l.018.01.019.009.147.074.088.044c.119.058.24.115.365.171l.094.039-.044-.017a10.992,10.992,0,0,0,1.925.643h0a11.339,11.339,0,0,0,1.531.246h.019l.1.007.124.006.294.023a13.444,13.444,0,0,0,3.755-.379c-.024,0,.01-.011.148-.043.053-.008.107-.02.16-.032l.094-.023.1-.028.011,0c.185-.055.329-.111.344-.115.1-.031-.031.013-.023.012l.37-.12a3.774,3.774,0,0,1-.36.126c.313-.093.631-.193.956-.31a5.685,5.685,0,0,0,.551-.235l.106-.053a5.928,5.928,0,0,0,1.261-.863l.077-.072c.057-.05.119-.111.181-.172C121.06-437.634,121.1-437.678,121.143-437.722Zm17.537-13.035c.1.1.166.205.226.26A1.985,1.985,0,0,0,138.68-450.757Zm-1.868,12.878a1.528,1.528,0,0,0,.244,0C136.965-437.881,136.884-437.881,136.812-437.879Zm-9.712-2.615h0l0,0,0,0,0,0h0Zm0-.007,0,0,0,0Zm-.006,0h0l0,0h0Zm0-.008h0v0Zm-.008,0h0l0,0,0,0Zm0,0h0Zm0,0h0Zm0,0h0Zm8.1,12.959-.027-.008-.031-.007-.058-.014Zm10.508-7.487-.041-.062-.092-.136-.164-.232c-.092-.135-.187-.189-.179-.177a1.514,1.514,0,0,1,.216.275l.2.29c0,.028-.283-.411-.282-.376-.121-.177-.276-.326-.413-.492.054.06.223.243.164.165-.186-.205-.089-.113-.215-.249.121.1.278.267.435.414.028.031.054.062.081.093a4.216,4.216,0,0,0-.379-.444l-.03-.028a2.76,2.76,0,0,0-.3-.2c-.188-.164-.1-.135-.05-.1a1.584,1.584,0,0,0-.411-.272c-.113-.05-.211-.126-.434-.235a1.417,1.417,0,0,1,.161.094c-.1-.058-.485-.245-.445-.221-.084-.052-.157-.113-.055-.07a3.764,3.764,0,0,0-.423-.133c.062.019.033-.023.061-.019-.167-.064-.3-.073-.192-.03-.316-.144-.244-.089-.506-.2-.1-.026,0,.034.071.057-.225-.053-.353-.1-.46-.125.26.059.216.016.19-.017-.072-.019-.143-.038-.216-.055-.2-.023-.406-.039-.607-.06a.26.26,0,0,0,.094-.021c-.068,0-.917-.116-1.4-.161a1.377,1.377,0,0,0-.339-.041c-.3-.04-.4.019-.71-.023.285.016.341.011.328,0-.234-.009-.777-.032-.664.007-.15-.012-.285-.012-.272-.031-.192,0-.384.01-.576.015.043,0,.08-.014-.088-.019a7.863,7.863,0,0,1,.805.008c.009-.023-.112-.039.043-.054a12.177,12.177,0,0,0-1.358.064l-.549-.013-.023.012-.1-.027a.964.964,0,0,1-.127.012c-.013,0,0-.007.032-.011-.058,0-.11.006-.138.01-.022-.015.075-.034.178-.051l.151.013a.336.336,0,0,0,.118-.026l-.208,0-.061.01-.047,0,.056-.005-.094,0,.038,0c-.263.023-.563.052-.328.067l-.32-.011c-.375.038-.31.031-.767.065-.026-.01.1-.022.014-.027-.333.042-.815-.021-.887.01-.269.013-.112.029-.283.042.008,0,.024-.01-.026-.01l-.2.026c-.083-.008.188-.015-.043-.026a6.912,6.912,0,0,1-.955,0c-.469-.013.2.054-.2.034a1.121,1.121,0,0,0-.355-.064,2.553,2.553,0,0,1-.338.01l.017-.028a.989.989,0,0,1-.368-.05,2.751,2.751,0,0,1-.37-.039c-.312-.022.22.089.292.109a4.5,4.5,0,0,1-.683-.137c.09.011.179.026.27.032l-.114-.023c.069.012.17.014.228.018a.914.914,0,0,0-.285-.032.234.234,0,0,0,.055.015c-.445-.089-.456-.027-.689-.13.195.04.433.059.321.024l-.286-.032c-.032-.013.162.023.034-.008l-.323-.034h0c-.149-.031-.3-.059-.447-.1.038.007.034,0-.035-.02l-.334-.069c.1.018,0-.018-.144-.062-.415-.142-.359-.031-.673-.173l.1.034-.16-.074a1.539,1.539,0,0,1-.516-.156,2.053,2.053,0,0,0-.511-.185c-.211-.146-.012-.011.3.081-.079-.043-.159-.082-.236-.128.1.045.181.083.29.125-.312-.16-.615-.291-.795-.363-.11-.079.118.008-.216-.181-.468-.274.057.1-.224-.066l-.171-.17a3.388,3.388,0,0,1-.808-.726c-.059-.055-.082-.088-.1-.1-.107-.159-.242-.308-.34-.474l-.066-.111c-.01-.015-.012-.014-.017-.021a.066.066,0,0,1-.015-.035s0-.009,0-.021c0-.03-.019-.008-.025-.015l-.035.073c-.039.064-.085.139-.123.21.107-.189.089-.2.087-.236-.082.123-.111.2-.164.286.027-.059.055-.119,0-.055-.08.154-.165.305-.24.461.019-.024.049-.076.077-.116-.068.11-.194.361-.3.511,0-.019.025-.078.025-.1a.739.739,0,0,0,.152-.288c-.177.311-.05.074-.152.214-.129.218-.146.327-.1.278a3.65,3.65,0,0,0-.3.594l-.005-.065-.109.245.06-.213c-.246.452.005.108-.255.616l-.028-.011a1.633,1.633,0,0,1-.167.436c-.069.2.185-.316-.008.145a4.189,4.189,0,0,0-.189.378c-.041.133.049-.041.1-.151a8.344,8.344,0,0,0-.448,1c.1-.21-.009.2.177-.313a6.7,6.7,0,0,0-.264.74l.017-.181a2.531,2.531,0,0,0-.063.255l-.023-.03a5.983,5.983,0,0,0-.19.806c-.016-.149-.068.241-.117.367.024-.281.214-.765.171-.816-.051.12-.058.238-.107.354a2.082,2.082,0,0,0,.037-.247,4.008,4.008,0,0,0-.2.91l.1-.446c.039.049-.042.2-.032.336-.081.215-.086.4-.143.576.011-.048.005-.053.018-.1a6.59,6.59,0,0,1-.257.8c-.043.19-.073.56-.029.432-.013.159.1-.656.116-.362a9.651,9.651,0,0,0-.214,1.185c.007-.274-.067.152-.057-.092a1.83,1.83,0,0,0-.016.44l-.038.085a3.441,3.441,0,0,1,.014.681c0-.2-.061.229-.065.079a2.376,2.376,0,0,0-.016.439l0-.022a5.31,5.31,0,0,1-.041.53c-.007.057-.013.112-.018.187,0,.037,0,.08-.006.13a.293.293,0,0,0,.024.13.288.288,0,0,1,.006-.041.3.3,0,0,0,.1.148l.225.143c.164.1.334.2.508.3a8.56,8.56,0,0,0,1.045.5l-.227-.114c.067.04.456.17.657.272-.043-.015-.118-.036-.156-.054,0,.02.07.08.231.147l.074-.005.058.045c.25.089-.059-.066.191.022a9.529,9.529,0,0,0,1.3.447c.19-.024-.49-.116-.283-.13a2.15,2.15,0,0,0,.277.088l-.05-.05a8.79,8.79,0,0,0,1.8.291l-.029.006a1.3,1.3,0,0,0,.506-.009c.053.02-.131.025-.032.043.45-.091.906.068,1.181,0-.016.036.1.071.2.1.192,0,.389,0,.579-.006a23.562,23.562,0,0,1,5.472.317c-.031-.008.066.013.113.023,0,0-.087-.019,0,0l.154.04c.053.014.108.024.159.039a5.459,5.459,0,0,0,2.314.15l.069-.011.043-.006c.108-.018.216-.04.323-.065l.016,0,.013,0c.131-.03.261-.066.39-.105l.092-.034c.067-.019-.006.005-.012.009h0a2.3,2.3,0,0,0,.248-.091s0,0,0,0a5.921,5.921,0,0,0,.837-.4l-.031.018-.066.036.142-.08a5.66,5.66,0,0,0,.487-.313h0c.085-.062.166-.128.248-.194.017-.015.1-.082.15-.134a5.473,5.473,0,0,0,.7-.722c.176-.211.319-.406.4-.516l.876-1.153c.04-.063.062-.1.058-.1-.117.163-.353.49-.4.531.118-.163.325-.441.329-.46.137-.158-.225.3-.051.094.085-.113.118-.164.155-.218-.052.078.084-.095.113-.126l.738-.96.011-.011.185-.244c.092-.136.161-.248.12-.2.169-.225.184-.232.325-.425-.242.3.047-.058.059-.1.146-.2.058-.063.128-.151a1.2,1.2,0,0,0,.078-.123c.088-.1-.093.169-.06.147l.225-.3h-.007l.043-.056,0,.016.217-.286c-.018-.013-.067.01-.139.087,0-.021.148-.178.213-.263.2-.238.275-.386.436-.588l-.111.163c.015-.016.078-.1.142-.187l.09-.124a.29.29,0,0,0,.033-.05s0,.014-.013.047-.022.056.016.011A.687.687,0,0,0,145.692-435.033Zm-31.8,33.421-.068.134Zm.3-.549c-.222.418-.464.876-.191.378.017-.046.247-.487.564-1.023a18.831,18.831,0,0,1,1.063-1.6c-.054.065-.178.223-.33.447s-.348.5-.539.813-.382.648-.568.963c-.105.2-.205.391-.3.568.094-.182.21-.4.37-.689C114.641-402.943,114.425-402.572,114.19-402.162Zm20.946-25.4.014,0C135.178-427.552,135.189-427.549,135.136-427.563Zm-6.062-10.728-.111-.023Zm.791.191.022-.005C129.849-438.108,129.833-438.108,129.865-438.1Zm6.282.261.214.007Zm-10.943-2.6-.1-.094C125.232-440.365,125.185-440.448,125.2-440.442Zm-1.485,11.607.031.017S123.742-428.827,123.72-428.835Zm19.941-3.5.005-.007C143.646-432.315,143.649-432.319,143.661-432.332Zm-21.432-3.383-.009.021C122.2-435.59,122.213-435.635,122.229-435.715ZM142-437.445l.012,0-.015,0Zm-.368-.065a2.215,2.215,0,0,1,.364.063l-.112-.065Zm-2.024-.291c.029,0,.066,0,.1,0A.551.551,0,0,0,139.608-437.8Zm.135,0h-.03Zm.33.041h0l-.071-.006Zm-3.7-.085a.065.065,0,0,1-.033-.01C136.314-437.848,136.314-437.844,136.377-437.841Zm-11.153-2.583-.007-.01a.034.034,0,0,0-.012-.007Zm19.254,6.943.089-.109A.627.627,0,0,0,144.477-433.482Zm-2.727,3.64c.047-.058.051-.061.079-.093l0-.013Zm.509-.69c-.015.024-.179.247-.024.046C142.25-430.51,142.471-430.812,142.26-430.532Zm2.158-5.884c-.162-.1-.242-.151-.179-.088.263.186.086.013.3.206C144.6-436.261,144.425-436.4,144.418-436.415Zm.009.006a.738.738,0,0,1,.081.058A.494.494,0,0,0,144.427-436.409Zm-12.772-1.376a1.464,1.464,0,0,0-.181-.027c.054.013.109.023.164.033Zm-2.8-.534-.081-.056.033.04Zm-2.308-.934c.087.051.189.113.279.157C126.63-439.194,126.545-439.3,126.547-439.253Zm1.461-12.32-.156.035Zm1.138-.205.026-.014C129.121-451.778,129.1-451.77,129.146-451.778Zm9.018.649a2.757,2.757,0,0,0-.25-.17C137.973-451.264,138.053-451.21,138.164-451.129Zm-16.362.769-.18.057C121.91-450.355,121.781-450.344,121.8-450.36Zm-8.935,6.367-.074.051C112.793-443.937,112.823-443.959,112.866-443.993Zm11.655,1.01.008-.01C124.5-442.96,124.505-442.965,124.521-442.983Zm-13.334-6.567-.032-.006C111-449.559,111.07-449.555,111.187-449.551Zm23.9,3.253-.017,0,.022,0Zm.53-.086a3.73,3.73,0,0,1-.525.087l.182.017C135.393-446.313,135.507-446.347,135.622-446.384Zm2.6-.764c.037-.026.069-.05.1-.073a.628.628,0,0,0,.049-.044A1.634,1.634,0,0,1,138.221-447.148Zm-8.15,1.354c.065-.008.128-.02.193-.028Zm8.116-5.331a.109.109,0,0,1-.032-.034C138.117-451.179,138.115-451.177,138.187-451.124Zm-16.352.754-.017,0-.016.008Zm4.25,5.811a1.2,1.2,0,0,0-.173.107Zm-9.587,9.012h.014c.2-.044.335-.077.131-.032Zm5.736-3.784-.08.169.085-.153Zm.438-.867c.015-.037.265-.513.027-.069C122.682-440.231,122.5-439.878,122.672-440.2Zm8.6-5.714c.282-.036.431-.047.3-.054-.469.041-.109.029-.534.065C130.923-445.884,131.38-445.931,131.267-445.913Zm-.144.019.144-.019Zm.579-6.222a2.018,2.018,0,0,0-.258.02l.236-.01Zm-3.993.633-.135,0,.065.017Zm-3,.62c-.3.065-.483.059-.438.09Zm4.514,33.756.06.007C129.207-417.143,129.233-417.113,129.22-417.107Zm2.744,1.546.008.006C132.018-415.546,132-415.553,131.964-415.561Zm.132-2.718.005,0-.006,0Zm-.147-.063a.409.409,0,0,1,.147.061l-.028-.06Zm-1.483-.631a.289.289,0,0,1,.036,0S130.49-418.978,130.467-418.973Zm-.564.158a.024.024,0,0,1-.016-.006C129.876-418.814,129.876-418.81,129.9-418.814Zm-.694,1.706,0,0h0Zm5.341.062s.009.01.051.031A.414.414,0,0,1,134.55-417.046Zm2.847,1.192.1.039-.03-.013Zm-1.068-.4.053.018a.3.3,0,0,1-.046-.027Zm-.289-.115c.012,0,.122.045.023,0C136.051-416.37,135.9-416.428,136.04-416.369Zm-2.925-1.39c-.078-.032-.116-.056-.09-.021.121.07.038,0,.147.065C133.2-417.707,133.082-417.769,133.115-417.759Zm-5.256-.562.073.008.006-.008A.2.2,0,0,0,127.859-418.321Zm-.083.26,0-.034-.015-.013Zm.849.518-.112-.069C128.591-417.567,128.613-417.5,128.625-417.543Zm-2.7.851.008-.01C125.917-416.7,125.911-416.692,125.925-416.692Zm.37,1.06.058.022C126.29-415.672,126.309-415.635,126.3-415.632Zm7.73,2.321h0C134.033-413.306,134.031-413.307,134.025-413.311Zm-5.341-.116.006.008C128.734-413.4,128.717-413.411,128.684-413.427Zm2.1-1.263.005,0-.006,0Zm-.153-.064a.438.438,0,0,1,.152.062l-.031-.061Zm-2.046-1.129a.025.025,0,0,1-.007-.016C128.568-415.9,128.566-415.9,128.588-415.883Zm-2.3.247,0,0h.007Zm7.093,2.1s.01.01.055.029A.5.5,0,0,1,133.377-413.533Zm1.883.7.056.015a.336.336,0,0,1-.049-.024Zm-.305-.1c.013,0,.128.04.024,0C134.967-412.93,134.809-412.981,134.955-412.929Zm-3.1-1.259c-.082-.03-.122-.053-.094-.018.128.067.039,0,.154.06C131.952-414.138,131.824-414.2,131.858-414.188Zm-5.184-2.377.008-.006a.183.183,0,0,0-.074-.024Zm-1.173-.061h.007a.146.146,0,0,0-.025-.025A.275.275,0,0,1,125.5-416.626Zm.306.415c-.027-.032-.066-.064-.093-.1C125.78-416.243,125.786-416.176,125.807-416.211Zm-1.76,1.521.008-.009C124.04-414.694,124.034-414.69,124.047-414.69Zm-.225,1.026.05.027C123.825-413.7,123.835-413.665,123.822-413.663Zm1.876,2.3,0,.008C125.74-411.337,125.726-411.349,125.7-411.368Zm2.4-.886,0,0,0,0Zm-.125-.085a.384.384,0,0,1,.125.084l-.014-.063Zm-1.627-1.385a.021.021,0,0,1,0-.016C126.327-413.746,126.324-413.743,126.341-413.724Zm-2.529.055,0,0h.007Zm6.434,2.963a.433.433,0,0,1-.044-.036S130.209-410.73,130.247-410.705Zm2.5,1.376.093.043-.027-.014Zm-.972-.464.048.021a.281.281,0,0,1-.04-.03Zm-.26-.137c.012,0,.109.058.022,0C131.529-409.929,131.4-410,131.518-409.93Zm-2.559-1.675c-.069-.042-.1-.07-.082-.032.1.084.036,0,.127.082C129.033-411.542,128.93-411.619,128.959-411.6Zm-4.233-2.941.008-.006a.161.161,0,0,0-.066-.026Zm-1.086-.1.018,0-.037-.024Zm-.146.388c-.016-.033-.043-.068-.055-.1C123.476-414.289,123.465-414.228,123.494-414.255Zm.093,3.891.042.019C123.6-410.4,123.6-410.366,123.587-410.364Zm1.267,1.822,0,.007C124.887-408.52,124.876-408.529,124.855-408.542Zm.252-1.562,0,0,0,0Zm-.088-.073a.211.211,0,0,1,.088.071l0-.055Zm-1.084-1.175a.02.02,0,0,1,0-.015C123.928-411.372,123.925-411.369,123.935-411.353Zm-.355.985,0,0h.006Zm2.981,1.612a.207.207,0,0,1-.028-.032S126.536-408.778,126.561-408.755Zm1.7,1.295.061.046-.017-.014Zm-.652-.468-.009.007.034.02A.164.164,0,0,1,127.61-407.929Zm-.185-.124c.009,0,.076.053.018,0C127.434-408.052,127.341-408.117,127.425-408.053Zm-1.734-1.492c-.049-.035-.069-.06-.062-.027.067.073.03,0,.089.07C125.739-409.49,125.668-409.556,125.69-409.544Zm-2.876-2.347a.106.106,0,0,1,.018.019l0-.008A.019.019,0,0,0,122.814-411.891Zm.131.494.021-.024-.005-.013Zm.4.571c-.014-.026-.038-.051-.052-.077C123.336-410.852,123.32-410.8,123.35-410.827Zm-6.837-14.225.587-.176Zm-4.085,1.7-.091.059C112.515-423.4,112.587-423.439,112.428-423.354Zm12.171-1.373.257.036.6.057Zm-1.208.027h-.045l.626.024Zm-.583.015c.115,0,.23-.008.345-.012Zm.483-.016-.138,0c.064,0,.128,0,.192,0Zm12.926-1.015c.225.139.355.248.443.308s.111.1.122.108-.043-.055-.008-.031a1.682,1.682,0,0,0-.27-.2A2.416,2.416,0,0,0,136.217-425.718Zm-4.329-27.918.2-.014A1.094,1.094,0,0,0,131.887-453.636Zm-18.106,49.861.027-.042C113.715-403.675,113.731-403.7,113.781-403.775ZM105.5-437.247l-.091-.084C104.981-437.72,105.16-437.538,105.5-437.247ZM133.091-419.2l-.058-.03.075.04Zm1.827.928c-.788-.374-1.226-.61-1.811-.918l.583.35C134.1-418.65,134.507-418.459,134.919-418.275Zm-20.477-6.047c-.02.015.026-.011.16-.062.092-.037.183-.077.276-.112A3.031,3.031,0,0,0,114.442-424.322Zm13.836-2.247-.517.011Zm3.644,3.744c-.086-.034-.258-.1-.566-.208Zm-14.551-11.556c.206-.045.4-.093.537-.137C117.717-434.466,117.54-434.421,117.371-434.381Zm-4.378.374c-.143-.01-.285-.023-.426-.039l.09.012C112.755-434.021,112.868-434.013,112.993-434.008Zm29.724,16.333-.007,0-.049-.028-.165-.095.194.112A.1.1,0,0,0,142.717-417.675Zm-14.429-2.075c-.037.005-.085.013-.151.026Zm-2.476,1.715c-.044,0-.088.008-.132.011l.083-.007c.081,0,.164-.005.244,0h.1l-.015-.037c0-.006-.008-.024-.014-.043.008.026.015.047.015.047l.013.032-.084,0C125.953-418.038,125.882-418.038,125.811-418.036Zm-3.649-3.116c.1.074.195.142.293.21C122.337-421.023,122.235-421.1,122.163-421.151Zm-9.17-12.856q.283.02.57.024C113.346-434,113.158-434,112.993-434.008Zm11.062,9.326a1.516,1.516,0,0,1-.177-.016C123.715-424.7,123.712-424.7,124.055-424.682Zm12.813-.568-.045-.043-.049-.039ZM119.6-409.034c.217-.066.363-.1.468-.125A3.321,3.321,0,0,0,119.6-409.034Zm.849,9.151.841-1.1-.249.325Zm-1.13-7.766-.038.027c.156-.059.308-.132.464-.191C119.544-407.742,119.494-407.708,119.323-407.648Zm.624-.227a1.768,1.768,0,0,0-.2.063C119.8-407.83,119.866-407.85,119.947-407.875Zm-3.714,2.737c.05-.081.464-.525.554-.621l-.381.4C116.3-405.249,115.035-403.648,116.234-405.138Zm5.419-14.814c-.175-.125-.192-.132,0,.022a5.942,5.942,0,0,0,.926.585c.081.028.124.087.873.411.2.074-.113-.044-.413-.188s-.585-.31-.394-.207A8.867,8.867,0,0,1,121.653-419.952Zm1.205.73c-.1-.048-.163-.083-.209-.107C122.716-419.292,122.786-419.257,122.858-419.221Zm.29.137c-.087-.039-.156-.072-.217-.1C123-419.153,123.073-419.119,123.148-419.085Zm-17.68,2.521c-.014.026-.028.052-.04.079l.544-.834Zm12.186-8.825.5-.081-.236.023Zm13.26.7c-.509-.172-1.116-.352-1.637-.5C130.409-424.875,131.04-424.607,130.914-424.692Zm-2.078-9.569,0,.039C128.865-434.262,128.844-434.251,128.836-434.261Zm-.472,1.689v.006C128.378-432.542,128.374-432.553,128.364-432.572Zm4.163-2.16h0l0,0Zm-.077-.054a.141.141,0,0,1,.077.053l0-.051Zm-1.157-.57a.017.017,0,0,1-.006-.011C131.279-435.366,131.278-435.362,131.293-435.356Zm-2.458,1.088,0,0a.02.02,0,0,0,0,.005Zm4.474.934a.154.154,0,0,1,0-.035S133.306-433.361,133.31-433.334Zm-.027,1.131a.1.1,0,0,1,.014-.028l-.01,0Zm.039-.213c0,.008-.007.077.007.015C133.326-432.409,133.333-432.5,133.321-432.416Zm-.365-1.812c-.032-.038-.042-.062-.046-.032.037.072.026.006.057.073C132.982-434.174,132.941-434.242,132.956-434.228Zm-2.793-.984,0-.008c-.009-.005-.021,0-.044,0Zm-.624.268.01-.006-.034-.013Zm-.41.394a.493.493,0,0,1,.048-.055C129.145-434.569,129.1-434.573,129.13-434.551Zm.011,5.1.011-.005C129.137-429.462,129.13-429.461,129.141-429.456Zm-1.512-1.251c-.017-.009-.034-.017-.05-.027C127.624-430.669,127.616-430.706,127.629-430.707Zm-.573-2.69,0-.008C127.054-433.446,127.053-433.428,127.056-433.4Zm6.339,3.269,0,0,0,0Zm-.1.1a.316.316,0,0,1,.094-.1h-.062Zm1.256-2.538c0,.1-.02.108-.027.2.035-.138-.007.027.007.044-.011.09-.012.03-.022.071a.184.184,0,0,0,0,.055c-.018.046-.016-.075-.032-.063-.008.045-.014.091-.023.135h.006l-.006.025-.005-.007c-.009.043-.022.085-.033.128a.067.067,0,0,0,.071-.041c.008.009-.031.081-.042.119-.041.108-.035.173-.074.262l.016-.072a1.05,1.05,0,0,0-.054.171c-.007,0,0-.079-.025-.04-.055.162-.107.317-.082.318a2.15,2.15,0,0,0,.088-.25c.021,0-.055.181-.038.177l-.109.22c.013-.028.049-.116.026-.086a.405.405,0,0,1-.062.108c.019-.069.045-.169.064-.257-.029.063-.058.125-.09.186-.013.07-.02.127-.027.15-.052.079-.064.033-.059.01-.1.154-.047.185-.164.332l.048-.052c-.023.038-.124.162-.109.153-.03.024-.068.036-.048,0a1.234,1.234,0,0,1-.079.149c.014-.02-.02-.028-.017-.039-.045.048-.05.107-.018.079a1.477,1.477,0,0,1-.162.126c-.024.029.026.021.047,0a.626.626,0,0,1-.128.125c.067-.074.032-.082,0-.092-.023.022-.047.043-.071.065l-.114.19a.1.1,0,0,0,0-.052,1.574,1.574,0,0,1-.43.343l.022-.014c.024-.027-.106.043-.153.085.006-.011.019-.017.04-.031-.108.042-.109.113-.227.143.1-.044.11-.065.1-.073-.073.048-.26.126-.207.141-.053.02-.1.042-.1.022l-.194.1c.014-.009.023-.025-.037-.005a1.914,1.914,0,0,1,.279-.112c-.007-.023-.051-.015-.008-.057-.209.091-.312.182-.449.243l-.2.036-.006.013-.041-.019a.1.1,0,0,1-.044.019c-.005,0,0-.007.009-.012a.264.264,0,0,0-.049.015c-.011-.013.022-.036.057-.057h.057c.022-.015.036-.027.034-.035-.024.005-.047.014-.072.019l-.02.015-.019,0,.014-.006-.028,0,.014,0c-.092.033-.2.073-.109.079l-.12,0a1.008,1.008,0,0,1-.282.073c-.01-.01.035-.021,0-.027-.124.044-.3-.026-.331,0-.1,0-.043.024-.108.03,0,0,.009-.01-.009-.011l-.078.019c-.03-.009.071-.012-.014-.026a1.134,1.134,0,0,1-.357-.026c-.176-.02.067.056-.081.03a.191.191,0,0,0-.122-.073.4.4,0,0,1-.132.005l.013-.027c-.076-.018-.137-.027-.131-.049a.372.372,0,0,1-.133-.041c-.116-.024.061.087.085.107-.1-.06-.184-.075-.233-.131l.1.027c-.191-.107-.213-.03-.277-.133.066.036.155.053.121.021-.035-.008-.069-.02-.1-.03-.008-.013.058.021.017-.008a1.209,1.209,0,0,0-.123-.022h0c-.059-.027-.12-.05-.178-.081.031.02.045.014.013-.006l-.118-.051c.038.013.008-.016-.038-.05-.134-.093-.156,0-.24-.108.015.012.019.01.034.021l-.045-.051c-.055.051-.316-.228-.367-.191-.053-.085.007-.016.12.039l-.061-.082a1.124,1.124,0,0,0,.091.076.671.671,0,0,0-.262-.2c-.028-.042.064-.009-.042-.1-.147-.139-.012.065-.1-.019l-.032-.09a1.056,1.056,0,0,1-.251-.314.152.152,0,0,0-.041-.034c-.065-.124-.19-.228-.236-.325.019.018-.006-.065,0-.082l-.108-.16c.047.071.067.058.094.061-.028-.052-.052-.072-.073-.107.018.019.037.037.033.005a1.362,1.362,0,0,1-.116-.167.245.245,0,0,0,.013.053.9.9,0,0,1-.077-.216c.011,0,.028.023.039.026a.117.117,0,0,0,.057.111c-.052-.127-.006-.034-.013-.1-.034-.089-.078-.116-.089-.086a.9.9,0,0,0-.081-.244l.038.012-.036-.1.061.07c-.024-.194-.072-.02-.1-.238l.029-.006c-.024-.08-.079-.1-.054-.171-.031-.078-.019.145-.057-.045a1.587,1.587,0,0,0,.014-.165c-.017-.06-.034.05-.025.089-.034-.292.089-.186.04-.442-.023.088-.066-.075-.054.136-.028-.1.043-.2.013-.3l.037.07a.405.405,0,0,0-.014-.1l.031.01c-.053-.133.04-.235-.018-.32.049.061.011-.1.04-.144.026.112-.047.3.008.321.018-.047,0-.093.023-.138a.33.33,0,0,0,.018.1.811.811,0,0,0,.007-.353l-.014.173c-.05-.022,0-.078-.031-.134.038-.082.022-.155.054-.221-.005.018,0,.021-.005.039.046-.185.138-.212.168-.279s.051-.206.012-.167c.006-.062-.07.241-.1.117.119-.072.035-.228.195-.417-.018.105.068-.034.049.058a.294.294,0,0,0,.032-.167l.038-.018c.018-.156-.03-.054.056-.263-.021.075.079-.056.065,0a.7.7,0,0,0,.071-.152l0,.009c.125-.188.132-.131.239-.307l-.026,0a2.913,2.913,0,0,1,.622-.641l-.088.049c.029-.011.136-.138.221-.169a.381.381,0,0,1-.047.045c.014.016.054.015.115-.016l.006-.038.036.005c.088-.054-.049-.02.039-.074.049.022.141-.038.243-.089s.209-.1.264-.084c.036-.088-.177.076-.133-.009a.345.345,0,0,0,.112-.026l-.036-.024c.3-.1.417-.114.681-.188l-.009.011a.269.269,0,0,0,.184-.07c.023.015-.045.035,0,.045.155-.124.348.012.443-.057,0,.036.041.07.081.1.071,0,.141-.011.213-.011a3.705,3.705,0,0,1,2.708,1.179l.018.018.008.01c.028.031.058.062.085.094l0,0,.005.007c.03.035.059.072.088.108a.133.133,0,0,0,.028.03c.014.021,0,0-.006,0l.005.008.055.069s0,0-.007,0c.036.048.073.1.106.146h0a3.741,3.741,0,0,1,.252.449c.006.008.024.041.037.063a4.244,4.244,0,0,1,.153.406l.02.063c.014.048.024.088.03.115a3.677,3.677,0,0,1,.1.51c.009.027.019.046.024.045a1.215,1.215,0,0,1-.04-.242,1.643,1.643,0,0,0,.048.2c0,.077-.026-.138-.022-.037a.944.944,0,0,0,.022.1c-.009-.034-.007.048-.009.063a3.221,3.221,0,0,1,0,.445l0,.005c0,.037,0,.073-.005.11C134.537-432.593,134.547-432.542,134.555-432.563Zm-4.606-2.631c.018.008.047-.019.062-.031C129.98-435.221,129.96-435.227,129.949-435.195Zm-.384,5.9c-.044-.024-.063-.044-.1-.03C129.477-429.3,129.536-429.3,129.565-429.293Zm3.826-3.693v0c0-.026,0-.051,0-.076-.011-.042-.026-.075-.031-.059a.706.706,0,0,0-.015-.134c0,.1,0-.019-.018-.027-.012-.06,0-.022,0-.051,0-.01-.012-.033-.017-.034.005-.035.034.038.046.025-.005-.029-.009-.059-.015-.088l-.006,0,0-.017.007,0c-.006-.029-.015-.057-.022-.085a.058.058,0,0,0-.048.048c-.011,0-.005-.058-.011-.084,0-.08-.046-.109-.063-.171l.026.043a.5.5,0,0,0-.05-.11s.046.035.042.005c-.033-.113-.121-.195-.132-.181a1.327,1.327,0,0,1,.091.153c-.009.01-.062-.11-.078-.094l-.067-.147c.009.018.042.072.038.046-.032-.062-.013-.034-.028-.078l.124.131c-.019-.042-.038-.083-.059-.123a.447.447,0,0,0-.095-.063c-.03-.055.011-.055.025-.045-.065-.108-.1-.081-.176-.182l.022.042c-.021-.021-.08-.111-.078-.1-.007-.026,0-.058.018-.04a.736.736,0,0,0-.1-.062c.014.01.029-.018.038-.016-.03-.034-.077-.033-.062-.01a.845.845,0,0,1-.066-.124c-.019-.017-.021.024-.011.041a.558.558,0,0,1-.088-.08c.056.038.067.007.078-.017l-.046-.042c-.051-.017-.1-.035-.152-.048a.131.131,0,0,0,.043-.017c-.033.012-.219-.132-.32-.188l.015.009c.026,0-.055-.055-.1-.067.009,0,.016,0,.031.013-.055-.062-.11-.006-.168-.065.063.033.081.028.084.015-.058-.015-.175-.084-.165-.038-.03-.024-.063-.031-.053-.047l-.142-.026c.011,0,.024-.008-.015-.024.073.032.16.024.19.063.011-.02-.012-.045.031-.046a.853.853,0,0,0-.347-.036l-.127-.049-.008.01-.017-.034c-.018,0-.03.007-.033,0s0-.006.01-.009a.119.119,0,0,0-.035,0c0-.016.025-.03.054-.041l.034.025c.018,0,.031-.01.033-.018l-.05-.012-.017.005-.011-.007h.018l-.026,0,.009.006c-.07.008-.147.02-.092.048l-.076-.028-.193.029c-.005-.011.025-.018.005-.026-.083.028-.2-.047-.219-.012-.066.011-.027.028-.068.039,0,0,.005-.011-.007-.011l-.048.026c-.021-.007.044-.018-.012-.024a.948.948,0,0,1-.228.05c-.111.024.056.038-.039.049-.017-.017-.034-.035-.092-.022-.027.021-.02.035-.069.057l0-.03c-.047.014-.084.03-.091.008a.172.172,0,0,1-.082.037c-.065.042.072.038.09.043-.074.005-.116.035-.169.016l.058-.031c-.145.013-.106.087-.19.056.043-.021.09-.058.058-.062l-.057.045c-.011,0,.034-.023,0-.017a.554.554,0,0,0-.057.065v0c-.036.021-.074.039-.109.062.021-.011.02-.024,0-.014l-.061.058c.017-.02-.01-.015-.044,0-.1.049-.033.1-.116.127.01-.007.009-.011.019-.018l-.042.014c.033.059-.19.158-.145.222-.061.019-.015-.009.019-.087l-.059.028a.488.488,0,0,0,.052-.054.275.275,0,0,0-.133.161c-.03.015-.023-.058-.075.018-.075.106.055.019.011.082L129-434.5a.87.87,0,0,1-.156.2.067.067,0,0,0-.009.032c-.063.065-.06.178-.1.226,0-.018-.039.021-.051.024l-.027.119c.012-.052-.01-.061-.026-.079a.6.6,0,0,0-.018.081c0-.018,0-.035-.02-.022a.788.788,0,0,0-.012.132.1.1,0,0,0,.017-.029.347.347,0,0,1-.051.134c-.007-.007-.011-.024-.018-.031.037-.027.023-.054.013-.08-.026.084-.013.018-.043.053-.02.059,0,.093.026.084a.223.223,0,0,0-.033.158l-.029-.021-.005.066-.027-.061c-.051.118.046.035,0,.167l-.029-.005c0,.056.051.081.01.117.011.053.054-.081.044.039a.2.2,0,0,0-.042.1c.013.04.036-.026.034-.05.008.18-.111.107-.074.273.021-.056.057.046.06-.085.013.062-.043.123-.005.188l-.042-.041a.174.174,0,0,0,.022.062l-.031,0c.057.077-.014.155.067.194-.062-.025.014.059,0,.094-.05-.06-.032-.189-.082-.193-.014.034.018.059.007.091a.2.2,0,0,0-.041-.057c-.013.109.057.161.081.22l-.03-.109c.053,0,.017.049.063.072-.021.061.036.093.029.14,0-.011-.008-.011-.011-.023.034.115-.046.174-.028.221s.07.124.081.085c.028.031-.073-.147.019-.1-.049.091.07.124.089.278-.056-.047-.025.055-.072.011a.145.145,0,0,0,.086.078l-.013.032c.1.054.057,0,.158.1-.042-.03,0,.069-.038.048a.17.17,0,0,0,.078.077l-.006,0c.1.1.042.117.151.2l0-.02a5.508,5.508,0,0,0,.436.349l-.041-.047c.01.018.11.046.138.1-.01,0-.029-.009-.036-.018a.065.065,0,0,0,.023.08l.031-.016,0,.028c.055.033.007-.046.061-.013-.015.1.235.14.255.231.066-.039-.108-.061-.039-.092a.149.149,0,0,0,.053.054l0-.04a1.185,1.185,0,0,0,.4.181l-.009.007c.057.029.092.032.125,0,.009.02-.037.023-.016.042.124-.087.208.111.285.039a.155.155,0,0,0,.043.108c.049,0,.1.007.147.007a2.563,2.563,0,0,0,1.873-.815l.011-.013,0,0c.021-.023.043-.046.063-.069v0l0,0c.021-.024.041-.049.061-.074a.125.125,0,0,0,.013-.025c.012-.013,0,0,0,.005l0,0,.035-.051s0,0,0,.006c.025-.034.05-.066.073-.1h0a2.556,2.556,0,0,0,.175-.311.455.455,0,0,1,.016-.048,2.369,2.369,0,0,0,.142-.372,2.516,2.516,0,0,0,.076-.38c0-.02-.006-.034-.012-.035a.57.57,0,0,1-.022.166.762.762,0,0,0,.005-.143c.022-.05-.01.095.012.029a.307.307,0,0,0,0-.068c0,.024.012-.031.015-.042A2.594,2.594,0,0,0,133.391-432.986Zm-1.858,3.806a.021.021,0,0,1-.014-.008C131.508-429.183,131.509-429.18,131.533-429.18Zm-3.895-1.522,0,0h-.007Zm6.878-1.5s.007-.01.014-.051A.282.282,0,0,1,134.517-432.2Zm-.48-2.567-.047-.081.013.024Zm.4.9-.016-.045a.284.284,0,0,1,.005.045Zm.07.259c0-.01-.026-.109-.011-.017C134.5-433.616,134.524-433.48,134.5-433.608Zm-.48,2.707c-.032.067-.055.1-.021.08.069-.1,0-.035.064-.125C134.074-430.975,134.013-430.873,134.022-430.9Zm-4.263,1.733.008-.005c-.01-.011-.028-.015-.065-.026Zm-.99-.456.016.01-.015-.043Zm-.747-.539a.882.882,0,0,0,.09.08C128.043-430.132,128.043-430.2,128.021-430.163Zm-12.213-14.389-.005-.014C115.8-444.544,115.8-444.534,115.808-444.553Zm2.374-2.537c0-.031-.006-.075-.014-.136Zm-1.389,5.291.079.021C116.77-441.843,116.808-441.8,116.793-441.8Zm-1.493.4,0,0C115.307-441.388,115.3-441.39,115.3-441.4Zm5.2-1.59L120.5-443C120.51-443.068,120.5-443.039,120.495-442.99Zm-5.33-3.141,0,.007.007-.008Zm.147-.194a1.367,1.367,0,0,1-.144.193l.081-.037C115.267-446.222,115.289-446.272,115.312-446.325Zm-.955,2.314c0-.038,0-.077,0-.115C114.358-444.1,114.356-444.049,114.357-444.011Zm6.809,2.376h0l.006-.007c-.02.028-.016.022-.007.008-.014.02-.03.039-.044.059l-.02.029-.011.013a3.688,3.688,0,0,1-1.167,1h0l-.057.032-.007,0-.017.008-.013.006c-.042.021-.085.039-.127.058a.438.438,0,0,1-.059.031l-.068.027-.1.041c-.071.028-.127.05-.132.054-.046.013.013-.008.009-.008l-.163.055c-.005,0-.005,0,0,0-.1.028-.2.05-.3.071h.008l-.038.007-.034.008a3.8,3.8,0,0,1-.556.058h-.008c-.041,0-.082.005-.123.005s-.092,0-.138-.005c.046.005-.058,0-.12,0a3.962,3.962,0,0,1-.634-.1,3.016,3.016,0,0,1-.414-.133,3.73,3.73,0,0,1-.792-.413l-.005,0c-.039-.021-.069-.035-.071-.03.105.074.329.2.359.226-.116-.057-.3-.177-.316-.178-.1-.086.2.132.066.025l-.144-.092c.053.03-.061-.054-.078-.075a3.556,3.556,0,0,1-.55-.538l-.011-.018c-.033-.039-.065-.08-.1-.121-.078-.088-.148-.165-.13-.127-.1-.148-.1-.162-.18-.291.11.219-.023-.042-.048-.058-.076-.138-.019-.052-.048-.118a.54.54,0,0,0-.051-.078c-.028-.084.087.112.078.062-.034-.069-.066-.138-.1-.209l-.007,0-.018-.041.011.008c-.029-.071-.053-.144-.077-.216-.023,0-.04.041-.026.113a1.216,1.216,0,0,1-.059-.21c-.041-.2-.092-.291-.116-.457.009.042.022.082.034.123-.011-.055-.045-.228-.059-.305,0-.007.047.121.043.045a3.147,3.147,0,0,0-.085-.559,4.06,4.06,0,0,0,.044.457c-.016.018-.043-.323-.056-.3,0-.1,0-.207.011-.31,0,.043,0,.073.009.039a.98.98,0,0,1,.024-.214,2.849,2.849,0,0,0,.04.468c0-.119,0-.238.008-.356-.012-.128-.022-.23-.025-.274.028-.161.055-.1.054-.059a3.312,3.312,0,0,1,.113-.627l-.046.113c.017-.075.122-.333.107-.307.032-.057.078-.1.055-.033.029-.091.055-.183.091-.273-.016.039.023.028.02.047.052-.1.062-.189.021-.128a2.07,2.07,0,0,1,.213-.28c.034-.057-.03-.014-.06.026a1.525,1.525,0,0,1,.178-.254c-.1.149-.047.133-.014.132.04-.056.081-.111.124-.163.053-.1.1-.194.166-.286a.151.151,0,0,0-.011.068,2.57,2.57,0,0,1,.715-.627l-.038.024c-.046.041.175-.09.264-.146a.337.337,0,0,1-.074.046c.184-.076.209-.164.408-.221-.172.069-.2.1-.184.107.13-.081.464-.189.383-.2.1-.023.178-.054.175-.034q.176-.062.357-.111c-.027.01-.047.025.059.007-.206.035-.393.12-.5.133,0,.023.08.012-.009.06.375-.131.59-.192.828-.27l.231-.034c.016,0,.053-.021.051.007l.011.065.019.127c0,.005.011.014.015.017l-.016.065a.436.436,0,0,1,.024.078c0,.008-.007,0-.015-.018a.83.83,0,0,0,.023.085c-.012.016-.041-.041-.068-.1l0-.1c-.017-.047-.031-.07-.038-.066l.024.127.016.036v.031l-.01-.034.011.058v-.024c.049.161.107.345.1.194l.021.2.066.216.029.111.025.108c0,.035.051.112-.029.108-.032,0,.07-.034-.012-.025a1.715,1.715,0,0,1-.223.051c-.058.009-.118.016-.172.02a.618.618,0,0,0-.217.035c-.162.043-.063.039-.162.074,0,0,.012-.014-.018-.007s-.076.038-.113.058.1-.05-.032-.016a5.767,5.767,0,0,0-.516.267c-.232.163.123-.031-.075.1-.039,0-.079,0-.2.1a1.723,1.723,0,0,1-.124.164l-.015-.027c-.087.089-.145.17-.164.155a1.661,1.661,0,0,1-.132.184c-.092.164.127-.081.166-.1-.13.129-.186.243-.268.316.024-.049.049-.1.077-.144-.216.28-.12.307-.246.428.045-.111.1-.247.05-.191-.02.055-.041.111-.057.167-.016.016.033-.1-.007-.024a1.346,1.346,0,0,0-.038.2v0a2.314,2.314,0,0,0-.072.305c.012-.058,0-.075-.009-.016s-.012.138-.015.206c0-.063-.019,0-.031.092-.022.267.067.212.047.416,0-.03-.007-.034-.008-.064,0,.035,0,.071,0,.106.035.007.056.159.1.307s.1.29.134.286c.031.144-.018.02-.107-.151.009.052.02.1.032.156-.026-.059-.038-.113-.065-.177a.99.99,0,0,0,.224.465c.031.073-.082-.027.047.162.193.258.009-.078.125.074l.054.132c.179.168.3.308.461.434a.29.29,0,0,0,.073.038,2.18,2.18,0,0,0,.565.253c-.039-.005.08.055.1.068a2.31,2.31,0,0,0,.295.042c-.131-.012-.13.009-.159.027a1.4,1.4,0,0,0,.2.019c-.04,0-.08,0-.033.024a2.411,2.411,0,0,0,.318-.012.766.766,0,0,0-.084-.009c.078,0,.246-.01.358,0-.009.01-.047.021-.056.031a.322.322,0,0,0-.2.02c.22-.006.055.007.161.02.156-.009.214-.055.172-.069a.982.982,0,0,0,.393-.089l-.023.04c.052-.016.1-.039.153-.058l-.115.08c.307-.081.041-.063.366-.182l.013.026c.117-.07.13-.137.236-.161.1-.084-.206.081.042-.086a.919.919,0,0,0,.221-.128c.063-.073-.077.022-.124.06a1.278,1.278,0,0,1,.3-.209c.06-.031.121-.06.23-.237-.1.1.027-.124-.18.13.088-.128.229-.214.285-.375l-.023.112a.66.66,0,0,0,.066-.146l.02.027c.053-.2.19-.336.159-.476.03.1.043-.145.078-.219.01.177-.144.458-.109.5.046-.067.05-.142.089-.21a1.215,1.215,0,0,0-.024.155,1.049,1.049,0,0,0,.109-.543c0,.023-.008.069-.016.117s-.017.092-.028.138c-.045-.036.025-.125,0-.21.046-.089.005-.119.027-.186,0,.015,0,.01,0,.027.018-.057-.031-.032-.05-.04a.511.511,0,0,1-.07-.017.364.364,0,0,0-.171-.015c-.123.016-.349.089-.261.1-.1.034.412-.094.247.009-.194-.047-.361.1-.761.119.165-.061-.109-.027.039-.078a.763.763,0,0,0-.267.094l-.061-.016a1.23,1.23,0,0,1-.409.163c.119-.044-.154-.01-.064-.046a1.318,1.318,0,0,0-.271.074l.013-.006a2.177,2.177,0,0,1-.335.055,2.161,2.161,0,0,0-.371.074l.043.009a.878.878,0,0,1-.249.043l-.059-.266-.086-.421-.084-.437-.053-.286a2.693,2.693,0,0,1,.264-.064l-.27.038c.072-.006.537-.131.626-.121a.908.908,0,0,1-.1.027c.008.018.069.036.179.02l.037-.037.048.014c.168-.031-.057-.032.111-.064.113.066.725-.127.884-.079.1-.083-.32.051-.205-.029a.89.89,0,0,0,.188-.009l-.044-.03c.512-.076.712-.08,1.163-.174l-.017.012a.62.62,0,0,0,.315-.086c.037.012-.077.043-.012.047.265-.153.581-.034.74-.136,0,.038.073.06.144.081l.362-.067v.009l.026.139.077.416a3.793,3.793,0,0,1,.056.537c0,.016,0,.031,0,.047,0-.012,0-.023,0-.034a3.67,3.67,0,0,1-.053.775l.006-.031-.005.031,0,.024a3.7,3.7,0,0,1-.591,1.435C121.2-441.673,121.179-441.654,121.165-441.635Zm-3.215-5.951.1-.013c.02.011.015.055.024.078,0-.022,0-.042-.007-.06a.1.1,0,0,0-.005-.027l-.025,0A.573.573,0,0,0,117.95-447.585Zm-1.918,2.524a.717.717,0,0,0,.089-.15C116.071-445.149,116.036-445.121,116.032-445.061Zm2.126-2.173a.035.035,0,0,1-.007.022C118.158-447.193,118.162-447.194,118.158-447.234Zm-1.38,5.431.006,0h.009Zm-2.045-.409s0,.019.034.083C114.749-442.171,114.739-442.2,114.734-442.211Zm3.785,2.114.16-.018-.047.005Zm-1.678-.195.08.024a.538.538,0,0,1-.071-.033Zm-.4-.175c-.018,0-.231-.114-.033-.007C116.43-440.469,116.589-440.392,116.446-440.467Zm-2-4.1c.021-.126.041-.191.008-.138-.054.206,0,.052-.04.239C114.413-444.419,114.451-444.622,114.447-444.57Zm0,0-.007.065Zm1.941-.878v-.012c-.02.008-.039.031-.079.074Zm-.662,1.535v-.029l-.031.054Zm.392,1.346c-.03-.048-.068-.1-.094-.156C116.087-442.615,116.093-442.533,116.118-442.567Z"
                    transform="translate(-103.845 453.701)"
                    fill="#111"
                  />
                </g>
              </g>
            </svg>