<svg xmlns="http://www.w3.org/2000/svg" width="91.283" height="98.756" viewBox="0 0 91.283 98.756">
  <g id="Group_2455" data-name="Group 2455" transform="translate(937.636 2745.469) rotate(-19)">
    <g id="Background" transform="translate(0 -2880)">
      <g id="Group_200" data-name="Group 200">
        <rect id="Rectangle_48" data-name="Rectangle 48" width="68.728" height="80.782" rx="10" fill="#fadcd9"/>
      </g>
    </g>
    <g id="Illustration" transform="translate(8.064 -2870.224)">
      <path id="Path_114" data-name="Path 114" d="M52.066-2809.7c-.054.073-.12.135-.179.2a3.83,3.83,0,0,0,.464-.749A4.9,4.9,0,0,1,52.066-2809.7Zm-9.228-26.613c.06.085.178.239.394.508C43.1-2835.974,42.967-2836.143,42.838-2836.314Zm9.049,26.817-.019.022s0,.007,0,.006Zm21.952-17.31c0,6.188-8.473,13.718-8.834,14.035l-.062.055-.045.041-.1.083-.164.144-.274.227-.137.707-.01.053c0,.019-.008.038-.011.057l-.293,1.5c-.037.2-.061.331-.064.354-.051.256,0-.027.007-.062l-.02.1-.171.9c-.006.028-.007.025,0,0l-1.354,6.962c-.015.091-.092.489-.137.752-.186,1.028-.45,2.476-.683,3.762,0,.009,0,.023-.008.029h-.911l-.821,0h-.4l-5.754.018-.259.006a1.493,1.493,0,0,0-.233.014c.761-.008,2.283-.024,2.516-.012-.76.008-2.072.016-2.139.025-.787-.013,1.435-.01.4-.019l-1.011.011a6.163,6.163,0,0,0-.638-.012l-4.58.006H47.6l-1.163,0a4.814,4.814,0,0,0-.889.034l-2.024,0c1.444.011-.283,0-.437.017-.925.006-.323-.007-.749-.01-.154,0-.522.01-.547.015-.5-.01.723-.032.582-.047l-1.413,0,.01.007H40.7l.058-.007-1.382,0a1.8,1.8,0,0,0,.6.062c-.07.011-.875-.008-1.281-.007-1.175-.014-1.792.021-2.769.018l.745-.013c-.161,0-1.6.008-1.828.015-.036-.007.744-.036.3-.042-1.755,0-3.42.045-3.311.065l2.691-.031c.095.016-1.91.024-1.8.044l-2.478,0a8.848,8.848,0,0,0,.894-.019c-1.064.005-.552,0-1.262-.006l2.477-.068L30.4-2797c-.706.024-1.248.05-1.483.061-.958,0-.623-.04-.395-.048-1.884,0-1.86.061-3.76.063l.713.006c-.448.006-2.077,0-1.9.01-.376-.009-.722-.032-.3-.041l-1.682.044c.247-.005.085-.037.191-.043-.676,0-1.151.042-.723.046l-.728-.01-.266,0c-.01,0-.024,0-.031,0v-.094c0-.037,0-.073,0-.108,0-.213.008-.4.021-.937,0-.39-.036.036-.039.321-.01-.882-.006-1.4,0-1.817.011,1.01.044.81.071.685v-.979l-.019-.6-.026-.783,0-.131c0-.02-.006-.05,0-.063H20.1l.228-.007.392-.013a2.609,2.609,0,0,0-.336.044c.262-.031,3.852-.038,5.608-.034h-.264c-.355.011,1.156.02,1.773.008-.1.007-.247,0-.512.005,1.173.025,1.523-.052,2.718-.023a7.106,7.106,0,0,0-1.241.024l1.752-.01.39,0h.05c.018,0,.031,0,.029-.02l.014-.087c.023-.145.026-.193,0-.089.118-.558.211-1.062.222-1.01l.394-2.146c-.027.16-.042.3.083-.326-.24,1.2-.429,2.37-.579,3,.019.037.121-.412.029.167.443-2.319.648-3.6.9-5.064l.417-2.037,0-.089.1-.348c.043-.257.069-.42.082-.473s0,.019-.012.12l.093-.513a3.124,3.124,0,0,1-.079.675l-.127.559a3.975,3.975,0,0,0-.059.442l.152-.772c.011-.073.023-.149.034-.229l.04-.175-.037.209.069-.351c-.011.047-.021.093-.032.142.171-.981.365-2.1.173-1.232l.251-1.185.508-2.862c.029-.091-.05.363.018.06.206-1.246.634-3.014.654-3.291.187-1,.053-.422.168-1.06,0,.031-.006.092.03-.093l.123-.76c.069-.3-.119.7.058-.152.267-1.46.421-2.317.67-3.532.332-1.734-.194.732.1-.731a11.661,11.661,0,0,0,.305-1.31c.081-.489.05-.416.2-1.254a.284.284,0,0,0,.021.066c.013-.068.026-.135.04-.2.012-.031,0-.087.033-.1h.869a2.063,2.063,0,0,1,.411.018c.633-.014,1.068-.013,1.4-.007,1.173-.019-.863-.067-1.137-.079,1.154.023,1.95.008,2.608.047l-1.021.01c2.178.04,2.066-.05,3.075.021-.746,0-1.642.017-1.2.035l1.081-.018c.127.009-.618.007-.122.017l1.217-.037-.015,0,1.791-.007c-.224,0-.237.011.072.013l1.279-.02c-.392.009.01.02.584.025,1.648.01,1.318-.081,2.6-.046l-.4,0,.658.015c.139-.076,3.875-.012,4.016-.09.937.03.065.019-1.139.057l1,.021-1.178.006c.654.016,1.29.013,1.85,0l.777-.017c.226-.007.5-.013.475-.019.015-.051.025-.03.038-.028.015.036.012-.129.118-.836.427-2-.158.364.112-.837.093-.283.2-.563.312-.837a8.826,8.826,0,0,1,2.194-3.385c.25-.249.225-.213.226-.241l-.074-.091-.171-.2-.347-.4-.694-.785c-.454-.511-.881-.99-1.216-1.39.167.18-.368-.471-.442-.573l-.093-.1c-.016-.01-.033-.055-.046-.017l-.039.059-.135.192c-.1.14-.2.276-.3.413a2.084,2.084,0,0,0,.268-.448c-.347.479-.511.7-.754,1.025.146-.2.287-.4.089-.161-.4.528-.806,1.05-1.23,1.559.08-.085.231-.257.354-.4-.317.382-1.012,1.2-1.516,1.7.035-.053.194-.238.228-.29a7.783,7.783,0,0,0,.817-.937,5.182,5.182,0,0,1-.682.73c-.65.713-.905,1.017-.712.851-.764.779-1.013,1.02-1.8,1.808l.129-.172c-.245.238-.492.473-.746.7.2-.2.392-.394.583-.595l-.679.619-.127.124-.1.1-.117.119c-.014.024-.028,0-.044-.01l-.054-.042-.141-.115c-.172-.141-.392-.322-.8-.7l.018-.028a14.024,14.024,0,0,1-1.306-1.207c-.592-.561.955,1.017-.405-.332l-1.085-1.2c-.334-.348.033.082.339.417a15.8,15.8,0,0,1-1.289-1.507c-.246-.329-.476-.619-1.282-1.627.258.359.133.223.1.2-.012-.009-.009.007.051.091-.39-.519-.761-1.056-1.166-1.607l.424.533c-.214-.308-.471-.644-.584-.814l.075.053a27.381,27.381,0,0,1-1.622-2.721c.144.228.038.011-.127-.323a10.091,10.091,0,0,1-.432-1.048c.194.5.513,1.191.8,1.769a7.494,7.494,0,0,0,.629,1.077c-.234-.435-.468-.81-.668-1.243.159.293.4.715.473.818a23.121,23.121,0,0,1-1.334-2.878,13.669,13.669,0,0,0,.5,1.284,2.048,2.048,0,0,1-.229-.455c-.083-.226-.189-.49-.288-.717a13.225,13.225,0,0,1-.46-1.885,6.923,6.923,0,0,1-.028-1.988c.012-.115.023-.223.034-.324s.04-.195.057-.286c.037-.183.07-.354.1-.542a6.2,6.2,0,0,1,.142-.625c.06-.22.1-.45.163-.628.121-.362.185-.579.085-.343.049-.145.02-.068-.047.113l-.122.334-.109.413c-.165.552-.233,1.066-.187.516.09-.261.168-.528.244-.818s.2-.586.319-.931a8.649,8.649,0,0,1,1.421-2.409c-.6.855.406-.458-.131.3a9.268,9.268,0,0,1,.672-.835,5.09,5.09,0,0,1,.4-.454l.272-.208a5.609,5.609,0,0,1,.525-.485l.225-.194a6.478,6.478,0,0,1,1.16-.761c.012.013.908-.4.5-.185a7.343,7.343,0,0,1,.834-.349l.385-.149.353-.1-.079.025c.275-.072.509-.137.715-.185l.541-.082.411-.059.345-.013.722-.027c.287.023.652.011,1.167.066-.067-.015-.134-.035-.2-.047a9.6,9.6,0,0,1,4.2,1.386,10.078,10.078,0,0,1,3.235,3.13c-.161-.292-.38-.544-.569-.819l.264.352.209.273.209.335a8.615,8.615,0,0,1,.739,1.433c-.067-.164-.215-.431-.283-.582a1.126,1.126,0,0,0,.09.266l.125.3.146.421.121.235c.022.089.049.176.068.265.258,1-.031-.308.228.7a15.4,15.4,0,0,1,.2,2.552,8.335,8.335,0,0,1-.568,2.7c-.082.341.09-.114.217-.576s.218-.925.171-.541c-.085.3-.119.441-.328,1.077l.11-.207a16.481,16.481,0,0,1-1.52,3.323c-.131.221-.26.44-.4.658l-.209.33-.083.127c-.01.032-.071.067-.024.1l1.127,1.314-.079-.078a19.286,19.286,0,0,0,1.283,1.451c.117.167-.349-.359-.115-.06.3.308.587.628.859.947l.192.228c.039.038.071.112.117.121l.161-.1.255-.147a16.108,16.108,0,0,1,1.834-.825c-.047.056.375-.043.771-.1a9.181,9.181,0,0,1,2.163-.259A9.215,9.215,0,0,1,73.839-2826.807Zm-25.453-21.94a.378.378,0,0,0,.127-.015A.838.838,0,0,0,48.386-2848.747Zm-2.322,1.883a.6.6,0,0,0,.052-.136C46.078-2846.944,46.051-2846.918,46.064-2846.864Zm4.2,3.7-.014-.011-.117.062c0-.031.015-.04.055-.06l.037-.02-.011-.009a.023.023,0,0,1,0-.006c-.011.008-.021.015-.033.022l-.061.035c-.04.021-.083.039-.124.055-.08.033-.147.057-.148.088.07,0,.117-.051.183-.059a.689.689,0,0,0-.109.077.633.633,0,0,0,.254-.108Zm.327-1.548c.028.031.023.038.05.061-.025-.053.005.01.023,0,.025.026,0,.015.01.03s.019.01.024.008c0,.023-.04,0-.047.015l.034.04,0,0,.007.008-.007,0,.033.039a.08.08,0,0,0,.035-.057c.01-.005.014.033.024.046.017.046.057.044.077.077l-.027-.015a.158.158,0,0,0,.054.048c0,.005-.045,0-.039.018.042.054.113.08.126.063l-.086-.065c.01-.013.063.045.075.029l.061.076c-.009-.009-.038-.033-.035-.016.029.03.012.018.025.044-.028-.012-.073-.027-.112-.04l.053.063a.6.6,0,0,0,.081.008c.022.031-.016.046-.027.044.047.057.089.02.135.079l-.012-.027c.015.011.051.063.052.053,0,.018-.008.045-.024.037l.072.024c-.009,0-.029.021-.037.022.016.021.058.009.051-.007.025.063.029.049.035.1.015.014.04-.009.031-.024a.21.21,0,0,1,.029.031.561.561,0,0,0,.044-.05,2.67,2.67,0,0,0,.194-.265h0c.032-.052.063-.1.092-.157.03-.075.048-.137.028-.114a2.073,2.073,0,0,0,.117-.256c-.092.18.019-.035.007-.062.041-.121.023-.039.046-.094a.331.331,0,0,0,.01-.076c.031-.06,0,.085.017.089.02-.062.039-.126.055-.19h-.005l.01-.036,0,.006c.015-.061.029-.122.04-.184-.023,0-.054.018-.077.068a1.674,1.674,0,0,1,.042-.172,1.776,1.776,0,0,0,.018-.381l.008.1a1.04,1.04,0,0,0-.014-.252c.006-.006.039.1.043.04a.812.812,0,0,0-.1-.449,2.533,2.533,0,0,1,.068.365c-.008.007-.016-.058-.024-.123s-.031-.127-.04-.118a1.96,1.96,0,0,0-.067-.331c.012.041.052.166.047.114a.792.792,0,0,1-.035-.17c.042.087.1.222.138.345a2.862,2.862,0,0,0-.063-.295,1.3,1.3,0,0,0-.111-.177c-.044-.125.008-.1.027-.068-.09-.249-.149-.218-.266-.452a.721.721,0,0,1,.041.09,1.91,1.91,0,0,0-.139-.221c-.019-.049-.024-.1.013-.059-.052-.059-.115-.109-.171-.163.024.024.036-.014.05-.006-.057-.075-.128-.1-.1-.052-.1-.151-.085-.106-.167-.235-.039-.038-.021.029,0,.06-.087-.083-.146-.125-.185-.168.112.084.113.041.119.009l-.083-.073a2.552,2.552,0,0,0-.3-.142.135.135,0,0,0,.063-.009c-.04-.01-.471-.253-.7-.336l.035.011c.051.006-.144-.072-.228-.089a.2.2,0,0,1,.068.019c-.146-.082-.217-.006-.367-.078.144.039.176.032.172.018-.121-.026-.4-.082-.347-.03-.076-.02-.146-.024-.138-.044-.1,0-.2.006-.3.009.022,0,.042-.015-.046-.021a1.59,1.59,0,0,1,.42.022c.008-.024-.054-.047.029-.057a1.93,1.93,0,0,0-.713.068c-.1,0-.189.013-.285.019l-.01.014-.055-.023a.309.309,0,0,1-.062.025c-.007,0,0-.008.014-.016a.44.44,0,0,0-.068.025c-.015-.013.03-.044.08-.074.026,0,.054,0,.082,0,.032-.014.056-.028.054-.036-.034.006-.069.009-.1.015a.251.251,0,0,0-.032.017H48.2c.014-.006.027-.01.04-.015-.021,0-.04.011-.061.015H48.2c-.132.054-.277.116-.152.107a1.132,1.132,0,0,0-.165.03c-.173.1-.148.071-.351.2-.017,0,.037-.041-.006-.029-.141.1-.392.168-.406.217-.109.089-.031.059-.1.118,0-.006,0-.017-.018,0s-.048.053-.069.082c-.038.02.064-.075-.033-.007-.144.146-.217.237-.337.354-.15.185.1-.047-.029.1-.034.01-.069.015-.148.113a1.467,1.467,0,0,1-.06.164l-.024-.023c-.054.09-.094.162-.114.152a.635.635,0,0,1-.078.172c-.054.148.112-.075.138-.1-.09.125-.123.225-.187.294.014-.043.024-.089.042-.131-.144.259-.057.272-.159.382.023-.1.054-.217.015-.167a.937.937,0,0,0-.026.146c-.013.014.015-.083-.012-.021,0,.043-.008.13-.006.169l0,0c-.022.085-.025.174-.04.26.009-.049,0-.063-.011-.014a1,1,0,0,0,0,.173c-.007-.053-.02,0-.029.077-.024.224.08.177.05.348l-.006-.053-.01.089c.063.012.094.509.185.5,0,.126-.015.015-.094-.13l.014.134c-.017-.052-.023-.1-.046-.151a.768.768,0,0,0,.159.4c.015.066-.077-.026.009.146.137.234.03-.07.112.069l.016.123c.131.161.194.3.3.439a.19.19,0,0,0,.052.045,1.269,1.269,0,0,0,.2.192,1.116,1.116,0,0,1,.2.146c-.031-.013.044.072.053.088.075.04.145.084.221.119-.1-.048-.108-.028-.14-.018a.73.73,0,0,0,.154.076c-.033-.009-.067-.017-.037.013.085.031.167.067.253.093l-.06-.039a1.994,1.994,0,0,1,.271.133c-.012.006-.045,0-.056.007a.188.188,0,0,0-.158-.055c.17.073.039.025.112.079.119.057.184.035.16,0a.774.774,0,0,0,.326.093l-.037.029.137.021-.12.017c.254.082.06-.037.344.027l0,.032c.115,0,.157-.041.241,0,.11-.016-.181-.054.073-.05a.843.843,0,0,0,.213.043c.081-.017-.062-.037-.113-.037.378-.021.245.115.585.028-.121-.006.086-.077-.187-.038.127-.035.266.011.393-.059l-.079.063a.549.549,0,0,0,.126-.05l0,.035c.15-.1.318-.068.385-.181-.021.042.008.029.052,0l.07-.041.046-.023a.118.118,0,0,1-.03-.035c-.051-.048-.019.055-.054.008.01-.02.024-.042,0-.071-.024-.005-.035.007-.064-.011l.026-.02c-.021-.022-.042-.036-.023-.052a.061.061,0,0,1-.042-.037c-.044-.023-.028.069-.031.085-.012-.05-.044-.063-.031-.109l.033.024c-.025-.091-.09-.029-.062-.106.018.024.054.039.057.013l-.042-.021c0-.009.021.014.016-.007a.306.306,0,0,0-.059-.012h0l-.055-.053c.008.012.021.006.012-.006l-.048-.025c.017.006.015-.013,0-.033-.035-.055-.1.013-.1-.047,0,.006.008,0,.013.01l-.005-.029c-.062.046-.108-.108-.171-.062,0-.047.013-.014.073,0l-.009-.044c.013.01.017.024.035.031-.009-.06-.073-.069-.108-.076,0-.022.056-.028.008-.06-.065-.049-.034.049-.073.02l.008-.052c-.065-.024-.073-.076-.1-.118a.036.036,0,0,0-.023-.007c-.022-.052-.109-.057-.126-.1.013,0,.005-.035.01-.046l-.071-.037c.031.016.05,0,.073-.013-.017-.016-.035-.014-.048-.024.013,0,.027,0,.027-.015l-.084-.029a.042.042,0,0,0,.008.02c-.013-.014-.054-.035-.056-.069.01,0,.023,0,.033-.009-.006.036.021.03.044.026-.039-.037,0-.015-.007-.046a.045.045,0,0,0-.073.006c-.021-.039-.025-.053-.074-.068l.033-.018-.035-.022.055,0c-.032-.074-.057.03-.1-.047l.025-.021c-.031-.017-.081.011-.068-.033-.036-.011,0,.07-.054.02a.134.134,0,0,0-.015-.071c-.028-.008-.018.039,0,.047-.088-.073.04-.126-.06-.173,0,.042-.069.022-.014.082-.042-.016-.014-.089-.07-.1l.051-.008c-.009-.012-.032-.014-.041-.016l.028-.019c-.079,0-.041-.089-.121-.06.061-.025-.027-.025-.023-.056.061,0,.078.089.125.056,0-.025-.033-.02-.032-.045a.11.11,0,0,0,.051,0c-.017-.069-.092-.053-.129-.072l.055.042c-.047.033-.028-.017-.075,0,0-.046-.051-.036-.055-.069,0,.006.009,0,.014.008-.05-.054.009-.133-.009-.156s-.074-.047-.08-.016c-.028-.007.079.063-.008.081.04-.09-.084-.043-.1-.152.051.009.023-.052.066-.04-.034-.028-.046-.021-.079-.019l.013-.029c-.087,0-.052.027-.136-.015.037.007.008-.053.039-.05a.1.1,0,0,0-.064-.035H48.2c-.1-.089-.031-.093-.139-.166l-.012.014a.9.9,0,0,1-.187-.194c.024-.065.12-.122.162-.185l-.06.034c.02-.007.061-.1.129-.116-.007.008-.014.026-.023.031a.1.1,0,0,0,.094-.005l-.014-.031.031.007c.045-.039-.048-.021,0-.062.086.049.139-.107.221-.067-.025-.071-.063.042-.081-.025a.076.076,0,0,0,.051-.007l-.033-.025c.105-.063.163-.066.238-.144l0,.01c.04-.013.05-.032.039-.072.019.01,0,.036.028.039-.022-.129.154-.027.134-.113a.271.271,0,0,0,.1.069l.065-.056.8.934.006.007h0l.036.042h0l.006.008.03.035c.007.007.015.013.017.013s0,0,0,0l0,0,.026.026s0,0,0,0l.047.055h0l.139.162a.139.139,0,0,1,.021.015c.04.057.117.141.148.183l.143.167c.012,0,.026.011.031.006-.024-.019-.071-.057-.067-.073.023.02.06.056.068.052.009.033-.04-.04-.023,0a.114.114,0,0,0,.032.024c-.014-.006,0,.021.005.029.044.051.065.085.11.142h0l.026.031C50.565-2844.71,50.591-2844.7,50.59-2844.713Zm-.609,1.249c-.006.016.022.022.033.027C50.008-2843.458,50.012-2843.474,49.981-2843.465Zm1.285-.415.026.03.007,0a.169.169,0,0,1,.024-.038A.119.119,0,0,0,51.266-2843.88Zm4.514,5.481,0,0-.057-.068-.028-.033c-.008-.011.011-.024.016-.037l.063-.1-.036-.046-.251-.292-.383-.445-1.342-1.562-.024-.026-.012-.014-.121-.14,0,0-.008-.01-.131-.153a.332.332,0,0,0-.042-.042c-.023-.029,0,0,.008,0l-.011-.013-.084-.093s0,0,0,0l-.163-.19-.489-.569c-.011-.009-.048-.049-.074-.075-.162-.2-.456-.534-.567-.67l-.007-.008-.125-.146-.242-.281-.127-.147,0,0c-.031-.027-.055-.045-.06-.041a2.31,2.31,0,0,1,.233.266c-.074-.077-.2-.215-.21-.217-.061-.093.135.15.05.031a1.292,1.292,0,0,0-.1-.1c.038.033-.035-.058-.048-.077l-.094-.111a.177.177,0,0,1,0,.055.085.085,0,0,0-.03-.032c.014.009-.022.049-.062.087a.871.871,0,0,1-.1.086l.008-.007c0-.017-.048.012-.06.037,0-.008,0-.01.012-.017-.051.009-.015.078-.069.084.035-.024.033-.04.023-.049-.019.031-.09.072-.052.093-.022.008-.035.024-.046.007l-.05.074c0-.007,0-.021-.023-.007.041-.026.053-.086.089-.081-.015-.021-.037-.02-.033-.051a.508.508,0,0,0-.1.195l-.075.037,0,.012-.03-.015c0,.012,0,.021-.008.02s0-.006,0-.012a.059.059,0,0,0-.011.019c-.012-.011-.013-.034-.012-.057h.029a.04.04,0,0,0-.006-.031l-.021.017v.014h-.009l0-.009-.011.009h.007c-.018.04-.037.088,0,.083l-.048.016a.238.238,0,0,1-.035.067.782.782,0,0,1,.086.1c-.021-.024-.031-.027-.055-.056a1.12,1.12,0,0,1,.073.089c.016.023.03.044.042.064a.721.721,0,0,1,.051.109.521.521,0,0,0,.069.156c.062.084.215.212.188.141.068.054-.245-.256-.087-.191.032.174.231.214.4.5-.119-.088.017.1-.086.016a.5.5,0,0,0,.189.146l.009.055c.184.114.075,0,.306.213-.086-.064.05.122-.018.075a.831.831,0,0,0,.172.161l-.011-.006c.219.229.141.22.355.416l-.005-.033c.285.252.573.633.847.912l-.079-.114a2.439,2.439,0,0,1,.253.29.622.622,0,0,1-.065-.062c-.014.017-.006.073.051.147l.048.006.006.045c.094.109.008-.062.1.046-.017.124.395.473.412.621.116.028-.17-.211-.052-.171a.581.581,0,0,0,.081.137l.01-.051c.266.342.347.49.606.775l-.017-.005c.077.114.131.165.2.187,0,.035-.069-.033-.048.019.242.11.256.418.408.481-.036.019-.028.09-.021.157l.116.138.006-.008.053-.073.013-.018s.01.01.015.014l.029.033.038.044Zm9.538,3.586c.091.01.171.021.223.024A.976.976,0,0,0,65.319-2834.813Zm-4.949,1.361c0-.011-.01-.023-.027-.038s.022-.031.027-.043C60.275-2833.5,60.322-2833.469,60.369-2833.451Zm-3.708,5.969c-.012.014-.04.051-.045.032a.1.1,0,0,0,.016.028.156.156,0,0,0,.048-.016c-.012,0-.029.038-.04.043.045,0,.073-.038.058-.044a.129.129,0,0,0,.056.019.423.423,0,0,1,.067.021c.028,0,0-.036-.023-.04a.429.429,0,0,1,.131,0c-.073.011-.058.043-.049.071h.069l.156-.073a.118.118,0,0,0-.024.044,1.219,1.219,0,0,1,.4-.034h-.019c-.025.011.083.021.127.008-.008.007-.018,0-.037.005.084.025.109-.052.2-.023-.078,0-.093.011-.089.025.064-.013.211,0,.181-.041.041.008.078,0,.074.023l.157-.026c-.012,0-.022.017.024.02-.088,0-.173.035-.219.008,0,.025.031.039-.011.06a1.432,1.432,0,0,0,.369-.088l.149.018.006-.013.026.031c.019-.007.031-.014.034-.011s0,.007-.008.012a.127.127,0,0,0,.037-.008c.006.016-.02.036-.048.053l-.041-.017c-.018.009-.031.019-.03.027h.054l.017-.01.013.006-.015,0h.025l-.01,0c.071-.021.153-.047.089-.067l.087.018a1.206,1.206,0,0,1,.209-.052c.006.011-.026.021,0,.029.091-.038.221.042.241.009.073-.009.03-.029.077-.039,0,0-.007.011.007.012l.055-.025c.022.008-.051.017.011.028a.788.788,0,0,1,.258-.023c.127-.007-.054-.05.053-.046a.1.1,0,0,0,.1.047c.035-.015.031-.031.091-.042l0,.032c.056,0,.1-.009.1.016a.181.181,0,0,1,.1-.007c.084-.019-.062-.067-.081-.079.083.023.14.008.187.047l-.073.01c.156.04.148-.05.221.021-.053,0-.118.017-.086.035l.078-.018c.009.009-.044.007-.009.017a.767.767,0,0,0,.087-.037v0l.14-.007c-.027,0-.033.012-.006.013l.092-.02c-.028.009,0,.02.042.025.11.01.12-.082.143-.045,0,0,0,0-.008,0a.163.163,0,0,0,.021.016c-.013-.039.006-.034.006-.05s0-.024-.037-.041c.046-.07.014.025.05.036.008,0,.017-.009.025-.01s-.006.015,0,.029c.032,0,.019-.138.007-.186.019-.034.051.042.063-.064.021-.149-.063.013-.051-.077l.057-.052a.669.669,0,0,1,.092-.284.094.094,0,0,0,0-.041c.053-.09.041-.219.087-.286,0,.021.043-.03.058-.033l.038-.14a.076.076,0,0,0,.024.093c.017-.04.013-.066.025-.094,0,.021,0,.041.02.026l.033-.15a.121.121,0,0,0-.025.031.405.405,0,0,1,.09-.145c.006.01,0,.03.011.04-.048.022-.04.057-.034.087.048-.089.019-.018.06-.05.036-.061.021-.105-.007-.1a.349.349,0,0,0,.1-.164l.021.034.035-.069v.076c.1-.1-.037-.059.077-.177l.026.02c.028-.055,0-.108.059-.121.023-.06-.1.051-.016-.064a.375.375,0,0,0,.106-.068c.019-.045-.052,0-.067.026.06-.084.119-.1.139-.087a.056.056,0,0,0,.074-.041c-.047.013-.064-.027-.095.005,0-.012.015-.012.036-.019s.049-.018.008-.026a.3.3,0,0,1,.065.014c.005-.01-.035-.02-.042-.023l.043,0c-.1-.021-.021-.071-.128-.072.072-.012-.048-.05-.054-.093a.3.3,0,0,1,.109.089.053.053,0,0,0,.062.022c0-.028-.033-.023-.04-.057a.156.156,0,0,0,.063.02c-.035-.092-.141-.111-.2-.15l.092.085c-.05.03-.044-.036-.1-.033-.017-.067-.084-.074-.1-.125.009.011.014.007.022.018-.091-.1-.042-.192-.076-.234s-.119-.1-.115-.056c-.041-.022.132.124.023.116.017-.117-.131-.1-.2-.265.073.034.01-.066.072-.032a.161.161,0,0,0-.114-.06l.006-.037c-.119-.037-.06.018-.192-.079.053.025-.01-.075.033-.059a.237.237,0,0,0-.1-.074l.007,0c-.118-.112-.058-.124-.18-.213l0,.022a5.1,5.1,0,0,1-.45-.451l.035.063c-.007-.023-.112-.082-.13-.147.01.008.03.019.036.029a.076.076,0,0,0,0-.093l-.037.007.006-.031c-.048-.055-.021.047-.069-.009.043-.093-.2-.244-.176-.347-.085.008.083.111,0,.11a.178.178,0,0,0-.031-.079l-.021.039a2.9,2.9,0,0,0-.292-.411h.013c-.033-.064-.064-.087-.113-.086.006-.024.046.007.042-.025-.165-.021-.1-.239-.208-.245a.184.184,0,0,0,.052-.117l-.1-.119h0a8.105,8.105,0,0,0-1.865,2.448c0,.01-.01.032-.016.049s-.027.053-.042.083c-.05.1-.089.214-.134.321a.088.088,0,0,0,.013-.02l-.009.034-.008-.005c-.035.083-.071.164-.1.248a.054.054,0,0,1,.012-.019.783.783,0,0,0-.035.15c-.033.048.029-.1-.006-.033a.355.355,0,0,0-.017.071c0-.026-.022.029-.029.038-.012.034-.023.063-.034.092-.035.1-.071.206-.1.313,0,.04,0,.071.012.059a.879.879,0,0,0-.04.139c.04-.1-.008.019.007.034-.013.065-.014.02-.025.049a.1.1,0,0,0,0,.041c-.018.029-.018-.04-.03-.048-.008.031-.014.063-.021.1h0l0,.019c-.007.03-.013.061-.02.092a.075.075,0,0,0,.063-.029c.01.007-.027.058-.032.086-.033.079-.009.129-.029.2v-.054a.509.509,0,0,0-.016.13c-.007,0-.023-.058-.036-.028-.03.122-.006.247.015.242,0-.064,0-.129.008-.193.016,0-.006.137.016.133l-.028.174c0-.022.006-.09-.006-.065a.22.22,0,0,1-.023.087c-.005-.049-.018-.123-.031-.189-.008.052-.012.105-.019.158a.921.921,0,0,0,.036.1c-.013.063-.044.041-.051.024l0,.018c-.008.111.04.127.023.252l.012-.05a.772.772,0,0,1-.006.081C56.659-2827.491,56.658-2827.478,56.662-2827.482Zm.392-2.036a1.371,1.371,0,0,1,.037-.132c-.014.036-.031.07-.044.106C57.047-2829.53,57.049-2829.519,57.054-2829.518Zm2.864,2.034c.035.008.054.022.077-.008C59.979-2827.506,59.938-2827.49,59.917-2827.484Zm-21.46,0a9.961,9.961,0,0,0,1.076-.008C39.322-2827.506,38.746-2827.49,38.457-2827.484Zm-6.519,19.772c.067-.337.128-.637.181-.9C32.039-2808.249,31.972-2807.923,31.938-2807.711Zm1.741,6.011a1.334,1.334,0,0,1-.306.189A.811.811,0,0,0,33.678-2801.7Zm1.366-6.218c.138-.712-.111.295.015-.305a2.013,2.013,0,0,0,.158-.531c.026-.2,0-.177.064-.516l.027.028a2.553,2.553,0,0,1,.131-.559c.038-.258.076-.433.108-.564.079-.476-.137.333-.171.441.119-.459.169-.783.262-1.04l-.075.412a12.517,12.517,0,0,1,.275-1.233c-.064.3-.12.664-.065.491l.072-.438c.019-.049-.044.25.006.052.016-.121.048-.374.064-.5v.006l.154-.787c-.032.149-.027.188,0,.039l.087-.519c-.023.16.02,0,.073-.23.146-.661.03-.547.17-1.055-.014.074-.016.088-.03.164l.069-.262c-.064-.071.309-1.562.244-1.635.107-.371.024-.023-.038.47l.1-.4c-.03.164-.064.3-.092.475a9.89,9.89,0,0,0,.237-1.315c.052-.2.026.171.13-.406.15-.814-.088.142,0-.347l.113-.344c.095-.628.217-1.087.329-1.61a2,2,0,0,0,.029-.208c.132-.554.2-1.178.295-1.6-.011.1.076-.234.1-.283l.127-.765c-.056.338-.029.329-.017.4.046-.238.055-.352.084-.514-.011.1-.023.2.015.079l.12-.8c-.014.046-.034.137-.051.213.019-.1.049-.258.081-.426l.052-.254.04-.182c.016-.063.031-.124.046-.184,0,.053-.026.217-.023.258l-.051.187c-.011.048-.019.091-.025.131-.011.081-.014.148-.017.212.108-.55.035-.135.107-.4.024-.129.044-.238.062-.332l.224-.018c.06-.005.086-.012.09-.019s0-.012-.032-.018a10.026,10.026,0,0,0,1.048-.012l-.086.036.419-.012-.34.045c.8.024.148-.063,1.041-.044l0,.032a3.634,3.634,0,0,1,.729-.03c.334-.021-.571-.045.213-.054.138.017.436.029.661.035.251-.016-.19-.039-.351-.034,1.183-.019.734.113,1.791.067-.362-.024.3-.067-.554-.063.409-.021.8.047,1.231.009l-.278.044c.153,0,.326-.015.41-.021l-.035.034c.527-.061.981.027,1.293-.052-.218.063.393,0,.6.019-.434.045-1.243,0-1.3.058.2.017.383-.011.577.006-.136.009-.335.024-.387.035a12.04,12.04,0,0,0,1.451-.051l-.714.014c.058-.057.321-.01.522-.055.357.03.636-.015.927,0l-.16.006c.778,0,.995.093,1.3.094s.88-.025.671-.051c.249-.017-1.033.02-.589-.058.444.089.914-.035,1.882.024-.424.033.249.051-.13.076a4.014,4.014,0,0,0,.684-.048l.139.029a6.336,6.336,0,0,1,1.054-.093c-.306.023.367.041.133.063.253,0,.5-.008.685-.026l-.033,0c.924-.017.756.037,1.6,0l-.083-.018c1.1-.051,2.495-.022,3.635-.048l-.4-.015c.122.01.769-.032,1.124,0-.071,0-.194.01-.26.008a.936.936,0,0,0,.423.057l.106-.033.111.025c.418,0-.123-.046.3-.047a4.24,4.24,0,0,0,.864.05l.516,0c.051-.008.118.025.151-.023l.06-.045c0-.016-.018-.033-.025-.049a.338.338,0,0,1-.038-.1c-.078-.063-.035.016.018.09.074.051-.028.092-.049.115-.041,0-.056-.006-.037-.028l.063-.033c.007-.006.031-.012.028-.022l-.022-.036-.045-.071a.093.093,0,0,1-.025.035c-.023-.035-.043-.069-.064-.106-.046-.078-.09-.161-.129-.238a3.81,3.81,0,0,1-.188-.445,3.476,3.476,0,0,1-.172-.7,1.105,1.105,0,0,0-.13-.007l-.227,0h-.568l.045-.01a3.287,3.287,0,0,0-.8.03c-.084-.02.205-.031.049-.048-.706.112-1.41-.08-1.841,0,.025-.04-.148-.079-.31-.116H41.788c-.085,0-.144,0-.154,0-.106,0,.009,0,.025,0h-.05l-.369,0c-.012,0-.011,0,0,0H38.32c-.043,0-.2,0-.31.007l-.744,0h-.414c-.03.007-.08-.015-.088.016l-.02.1-.039.2c-.041.2-.079.394-.113.562l-.519,2.647a.725.725,0,0,0-.017.184c.054-.308.165-.924.2-1.015-.054.307-.154.838-.152.866-.077.314.108-.58.015-.166l-.072.409c.022-.144-.048.191-.065.255-.14.695-.221,1.1-.37,1.845l-.006.023-.092.467c-.04.253-.065.454-.04.365l-.162.816c.129-.579-.025.114-.02.179a1.66,1.66,0,0,1-.071.3c-.01.062-.033.212-.031.223-.051.2.027-.3,0-.243l-.112.569.007,0-.021.107,0-.026-.108.549c.024,0,.065-.064.109-.222.005.03-.08.351-.112.514-.11.47-.127.726-.21,1.119l.048-.3c-.017.064-.124.646-.136.739-.009.013.026-.306-.017-.128a9.3,9.3,0,0,0-.208,1.346l.19-1.089c.023-.035-.133.774-.105.733l-.2,1c.024-.126.094-.513.055-.363-.082.429-.046.222-.109.507.042-.286.1-.708.15-1.078l-.167.852c-.034.29-.054.515-.062.611-.079.386-.09.243-.079.15-.151.759-.094.761-.248,1.526l.065-.286c-.032.181-.167.837-.146.768-.04.149-.092.284-.065.114l-.095.686c.015-.1-.029-.042-.027-.085-.055.272-.054.471-.015.3-.127.527-.088.4-.2.824-.028.157.038-.008.064-.122-.06.358-.1.565-.141.733.069-.41.021-.335-.016-.29l-.076.388-.1.894a.509.509,0,0,0-.017-.144c.01.112-.268,1.561-.41,2.268l.02-.106a5.331,5.331,0,0,0-.148.713,1.741,1.741,0,0,1,.035-.207c-.117.469-.069.624-.192,1.1.088-.436.091-.524.074-.505a6.12,6.12,0,0,0-.159,1.022,1.83,1.83,0,0,1-.1.412.9.9,0,0,0,.166.784c-.036-.048-.09-.077.068.108a.949.949,0,0,1-.274-.592,1.8,1.8,0,0,1,.081-.516c-.022-.018-.072.165-.047-.075a2.291,2.291,0,0,0-.072.643.881.881,0,0,0,.209.47.876.876,0,0,0,.769.3.865.865,0,0,0,.666-.353l.008-.034a.783.783,0,0,0,.092-.106,1.792,1.792,0,0,0,.048-.178c.007-.018.005.008,0,.047.02-.081.031-.167.037-.208s.019.125-.012.281a.914.914,0,0,1-.117.2c-.042.074-.084.136-.09.153a.928.928,0,0,0,.174-.251.809.809,0,0,0,.033-.1.565.565,0,0,0,.027-.068.874.874,0,0,1-.056.162.913.913,0,0,0,.072-.208l0-.022c-.007.023-.012.043-.02.068.066-.4.132-.868.039-.513l.118-.484c.085-.579.072-.478.19-1.18.019-.036-.009.152.024.028.067-.516.3-1.231.286-1.349a4.158,4.158,0,0,0,.05-.44c0,.013,0,.039.019-.036l.039-.315c.034-.124-.041.289.04-.059C34.872-2807.067,34.93-2807.421,35.044-2807.918Zm.545,3.7a3.085,3.085,0,0,0,.076-.35C35.633-2804.435,35.608-2804.318,35.589-2804.214Zm.044-6.6a3.32,3.32,0,0,0-.081.435A1.682,1.682,0,0,0,35.632-2810.812Zm5.323,9.286a3.021,3.021,0,0,0-.418.008A1.481,1.481,0,0,0,40.955-2801.527Zm3.885-.4.15.168.075.082.032.031a2.448,2.448,0,0,0-.189-.229c-.079-.091-.158-.177-.233-.257l-.382-.392c-.116-.157.144.079-.223-.338-.506-.6.047.154-.256-.208l-.181-.293a12.193,12.193,0,0,1-.933-1.251,1.72,1.72,0,0,0-.126-.155c-.145-.229-.31-.46-.469-.676s-.293-.429-.395-.606c.056.078-.1-.214-.109-.264-.1-.174-.215-.346-.318-.522.1.165.126.152.167.187-.118-.2-.178-.289-.252-.427.052.081.1.163.059.049-.126-.225-.267-.443-.382-.676.015.043.048.127.081.194a8.769,8.769,0,0,1-.358-.817c.017.02.062.1.083.122a1.507,1.507,0,0,0,.212.438c-.222-.487-.048-.125-.135-.367-.152-.344-.227-.481-.217-.379l-.336-.943.06.069c-.042-.127-.09-.252-.126-.381.039.1.091.2.135.3-.186-.744-.1-.118-.284-.956l.032-.009a3.175,3.175,0,0,1-.13-.687c-.057-.318.017.552-.069-.2.013-.135,0-.424.01-.64-.006-.191-.033.035-.032.215a2.994,2.994,0,0,1,.02-.485,3,3,0,0,1,.05-.3c.017-.08.03-.156.045-.274s.048-.279.075-.531c-.076.341-.022-.3-.143.519a5.61,5.61,0,0,1,.1-.58q.028-.147.056-.291c.026-.1.048-.2.065-.3l-.023.268c.037-.142.062-.307.077-.385l.025.041c.05-.514.31-.885.334-1.2-.006.111.021.02.073-.116a3.681,3.681,0,0,1,.188-.4,6.3,6.3,0,0,0-.419,1.175c.083-.176.115-.347.2-.516-.037.125-.087.308-.094.358.231-.59.353-.929.5-1.289l-.284.621c-.028-.074.124-.281.167-.474.165-.3.294-.537.446-.771l-.075.134a2.806,2.806,0,0,1,.485-.628c.129-.13.218-.219.314-.33.2-.208.544-.636.393-.507.148-.187-.65.744-.423.379a2.94,2.94,0,0,0,.5-.514,5.224,5.224,0,0,1,.822-.717c-.3.269.222-.1-.052.134a3.669,3.669,0,0,0,.494-.429.952.952,0,0,1,.125-.052,4.017,4.017,0,0,1,.825-.589c-.254.149.336-.115.143,0,.221-.1.423-.226.585-.3l-.029.015c.413-.159.586-.217.75-.264s.325-.072.712-.189l-.082,0a8.659,8.659,0,0,1,3.476-.146c-.126-.029-.254-.051-.382-.071a6.4,6.4,0,0,1,1.069.2c-.068-.014-.185-.031-.248-.048,0,.026.13.075.381.154l.107,0,.1.053c.383.121-.1-.083.285.042.1.08.505.223.909.415a3.95,3.95,0,0,1,.926.551c.133.044-.024-.062-.184-.158s-.321-.184-.175-.138c.1.072.147.1.364.246l-.055-.083a8.046,8.046,0,0,1,1.141.867c.077.068.156.137.192.176a1.077,1.077,0,0,0,.149.135l.423-.39-.025.036a2.949,2.949,0,0,0,.532-.532c.071-.039-.122.155,0,.068.414-.536,1.033-.847,1.279-1.18.009.045.156-.037.294-.114l.2-.185.425-.393.421-.389,1.9-1.755H49.952c-.081,0-.136,0-.145,0-.1,0,.009,0,.024,0h-.047l-.348,0c-.011,0-.01,0,0,0H46.674c-.04,0-.191,0-.293.007l-1.856-.007H41.807a.66.66,0,0,0-.175.019c.3-.006.886-.016.977,0-.3.006-.8.01-.831.018-.306-.015.557-.005.156-.017l-.393.008c.138-.006-.186-.01-.248-.014l-1.779-.009h-.069l-.081.4c-.039.24-.064.427-.039.345-.083.4-.088.421-.16.77.128-.547-.025.106-.02.169a1.506,1.506,0,0,1-.07.282c-.01.059-.033.2-.03.211-.05.187.026-.279,0-.231l-.111.538.007,0-.021.1,0-.023-.106.518c.024,0,.065-.06.108-.209.005.029-.079.331-.112.485-.108.443-.125.685-.208,1.055l.048-.285c-.017.06-.123.609-.134.7-.009.012.025-.29-.017-.121a8.392,8.392,0,0,0-.206,1.271l.188-1.029c.023-.033-.132.73-.1.692l-.2.943c.023-.119.092-.484.054-.344-.081.405-.045.209-.108.478.042-.27.1-.668.148-1.018l-.165.8c-.033.273-.053.485-.061.577-.079.364-.09.229-.079.14-.149.717-.092.719-.245,1.44l.063-.27c-.031.171-.165.79-.144.724-.04.141-.092.268-.065.107l-.094.647c.015-.095-.029-.04-.027-.081-.054.256-.052.446-.014.284-.126.5-.087.375-.2.777-.028.149.038-.007.063-.114-.059.337-.1.533-.14.692.068-.386.021-.317-.016-.275l-.075.367-.1.844a.448.448,0,0,0-.017-.137c.01.106-.265,1.473-.405,2.141l.02-.1a4.765,4.765,0,0,0-.146.673,1.457,1.457,0,0,1,.035-.2c-.117.441-.069.589-.191,1.038.087-.411.091-.5.073-.477a5.5,5.5,0,0,0-.156.965,1.611,1.611,0,0,1-.1.388l-.145.835c.008-.063.007-.118-.045.124.1-.465.154-.923.231-1.163-.022-.017-.071.155-.046-.072-.173.9-.231,1.4-.315,1.974l-.18.788.005.036-.059.131a1.7,1.7,0,0,1-.027.184c-.006.018-.006-.008,0-.048l-.033.2c-.023.028-.013-.116,0-.269l.062-.214a.642.642,0,0,0,.008-.175l-.062.3-.008.09-.02.067.012-.082-.028.135.016-.053c-.058.383-.121.821-.031.486l-.112.457c-.079.547-.067.452-.177,1.116-.019.034.008-.144-.024-.027-.008.052-.015.1-.021.148,0,.032-.027.079.026.066l.331.013a3.08,3.08,0,0,0,.508.006,3.621,3.621,0,0,0,.417-.04c-.012,0-.035.012.037.012l.3-.025c.121.009-.275.018.062.027.577-.02.915-.033,1.4-.022.685-.008-.294-.05.285-.046a1.822,1.822,0,0,0,.522.047,4.879,4.879,0,0,1,.49-.042l-.02.032a2.281,2.281,0,0,1,.542.016,5.29,5.29,0,0,1,.544-.008c.455-.018-.335-.066-.442-.079.448.023.757.008,1.012.047l-.4.01a11.051,11.051,0,0,1,1.194.021c-.29,0-.638.016-.467.035l.42-.018c.049.009-.24.007-.047.017l.473-.037-.006,0,.758-.008c-.144,0-.179.012-.035.013l.5-.019c-.152.009,0,.02.227.025.64.01.512-.081,1.009-.046l-.157,0,.255.016c.007-.01.035-.017.08-.023s.125-.01.121-.012l.048,0c.015,0,.044,0,.017-.018l-.144-.148c-.1-.1-.175-.175-.2-.172-.109-.148-.109-.156-.041-.086l.15.156.106.106a.94.94,0,0,0,.1.088l-.006-.011-.028-.035-.061-.076Zm5.484.521c1.975-2.07,4.828-5.481,5.707-8.664.006-.023.012-.046.019-.072l.014-.051c.035-.136.071-.272.1-.406l0-.023.006-.036c.033-.165.063-.33.084-.493a.405.405,0,0,0,.008-.115c.006-.087,0,.008,0,.019,0-.011,0-.023,0-.034l.015-.3c0-.009,0-.005,0,0,.006-.1.019-.2.019-.3,0-.249-.016-.493-.04-.736l0-.026a7.494,7.494,0,0,0-.306-1.484l-.016-.044c-.045-.149-.108-.325-.181-.507-.012-.029-.023-.059-.035-.088-.055-.135-.117-.27-.181-.4-.033-.067-.065-.134-.1-.2-.046-.088-.092-.172-.137-.251-.067-.117-.135-.233-.208-.346-.016-.026-.035-.057-.05-.079-.108-.164-.221-.323-.341-.478l-.939.868c-.065.069-.1.112-.1.116.183-.178.551-.531.617-.575-.183.177-.5.478-.514.5-.2.168.35-.33.087-.1-.131.122-.184.177-.243.236.083-.085-.125.1-.167.135l-1.133,1.036-.015.011-.277.256a.131.131,0,0,0-.026.034l.066.084c.08.105.13.17.1.118a3.972,3.972,0,0,1,.3.612c-.176-.456.04.086.065.134.1.3.026.106.061.246.017.05.049.17.056.177.029.172-.095-.259-.087-.165a3.623,3.623,0,0,1,.088.451l.008-.005.01.088-.012-.024a3.569,3.569,0,0,1,.027.412c0,.016,0,.032,0,.049.025,0,.055-.06.063-.2a2.7,2.7,0,0,1-.023.435,4.07,4.07,0,0,1-.183.922,1.357,1.357,0,0,0,.05-.2c-.039.134-.158.477-.19.536-.005.011.069-.244.006-.107a8.616,8.616,0,0,1-.546.973c-.052.059-.1.121-.156.178.018-.021.021-.029-.009,0a2.168,2.168,0,0,1-.321.286,3.6,3.6,0,0,0,.5-.585c.023-.033.044-.066.065-.1a3.788,3.788,0,0,1-.483.528,4.682,4.682,0,0,1-.348.349c-.272.18-.2.077-.137.036-.269.166-.406.242-.544.319a1.529,1.529,0,0,1-.233.111,1.879,1.879,0,0,1-.363.118,2.123,2.123,0,0,0,.236-.057c-.07.032-.245.066-.39.105s-.271.042-.24.043c-.129.009-.247,0-.107-.027a4.226,4.226,0,0,1-.567.067c.084,0,.029-.035.065-.04-.227-.012-.392.019-.246.032a3.287,3.287,0,0,1-.377-.061,1.582,1.582,0,0,1-.306-.084c-.128-.03,0,.038.1.064a2.889,2.889,0,0,1-.594-.176c.329.105.274.052.243.011-.113-.037-.223-.077-.331-.123a4.789,4.789,0,0,1-.657-.271.325.325,0,0,0,.121.023.842.842,0,0,1-.218-.124,3.042,3.042,0,0,1-.4-.314,3.851,3.851,0,0,1-.712-.891l.048.076c.067.1-.185-.346-.261-.543.021.03.029.079.071.158a3.366,3.366,0,0,1-.294-.875c.068.364.118.426.121.406-.128-.282-.16-.986-.186-.836-.009-.2,0-.372.019-.354a3.462,3.462,0,0,1,.073-.72c-.006.042,0,.053.052-.128a3.1,3.1,0,0,0-.1.585c0,.18-.014.335-.025.445.026.01.031-.144.063.052,0-.027,0-.05,0-.076,0-.007,0-.012,0-.019s0-.01,0-.014a4.236,4.236,0,0,1,.07-.863,3.477,3.477,0,0,1,.21-.736,3.538,3.538,0,0,1,.383-.6l.008-.031.1-.079a.617.617,0,0,1,.1-.132c.013-.01,0,.009-.019.038l.115-.135c.032-.008-.043.094-.115.2l-.131.142c-.044.074-.079.135-.069.136.05-.072.1-.141.16-.21l.04-.068a.416.416,0,0,1,.043-.042c-.008.01-.012.019-.02.029.018-.021.037-.04.056-.06l-.036.031c.2-.266.488-.531.244-.348a3.359,3.359,0,0,1,.329-.25,2.658,2.658,0,0,1,.364-.275,3.677,3.677,0,0,1,.471-.263c.033,0-.105.073-.006.035a2.412,2.412,0,0,1,.667-.207,4.152,4.152,0,0,0,.44-.068c.346-.032.142-.038.364-.061-.01,0-.031.013.033.01.088-.01.177-.017.265-.02.106.016-.244,0,.053.031a3.208,3.208,0,0,1,1.206.254c.563.238-.22-.155.252.06a2.33,2.33,0,0,0,.385.266l.157.076a.138.138,0,0,0,.033.011c.009.006.019.007.028-.012a.343.343,0,0,1,.008.037l.2-.186c.063-.057.1-.089.113-.08a3.949,3.949,0,0,1,.339-.324c.276-.281-.257.147-.333.2.3-.245.485-.438.674-.558l-.244.24c.563-.467.474-.507.771-.684-.185.168-.393.386-.272.3l.254-.259c.037-.022-.148.146-.019.04l.274-.3,0,.005.475-.45c-.092.083-.106.114-.013.03l.28-.286c-.04.045.023.014.085-.052a1.55,1.55,0,0,0-.152-.128,1.205,1.205,0,0,0-.146-.092,1.531,1.531,0,0,1-.306-.228l.108.077-.163-.143a3.6,3.6,0,0,1-.571-.332,1.7,1.7,0,0,0-.6-.278c-.261-.16-.008-.036.355.123-.092-.06-.183-.12-.279-.173.122.054.215.117.344.178a3.315,3.315,0,0,0-.975-.433c-.15-.067.144-.014-.3-.161-.634-.191.1.093-.279-.019l-.265-.116c-.5-.093-.867-.174-1.293-.213a1.266,1.266,0,0,0-.168,0,3.2,3.2,0,0,0-.687.018c-.223.03-.432.033-.6.062.078-.021-.2,0-.239,0a4.156,4.156,0,0,0-.6.146c.26-.083.245-.1.289-.133a4.158,4.158,0,0,0-.4.118c.075-.029.152-.058.05-.044a4.986,4.986,0,0,0-.611.224c.037-.009.108-.033.167-.054-.151.059-.475.19-.7.258.013-.021.084-.057.1-.073a1.049,1.049,0,0,0,.377-.156c-.421.16-.107.033-.318.091-.3.111-.392.22-.31.2a2.98,2.98,0,0,0-.731.4l.04-.068-.28.185.209-.18c-.562.322-.08.1-.666.5l-.021-.025c-.217.172-.249.279-.431.395-.183.194.366-.272-.09.154-.046.031-.115.084-.19.144s-.142.14-.205.2c-.107.138.071-.029.173-.139-.571.644-.458.326-.921,1.015.193-.219-.089.23.317-.318-.087.137-.2.255-.3.384a2.859,2.859,0,0,0-.256.425l.077-.212c-.065.1-.123.23-.152.29l-.015-.04c-.083.2-.16.375-.244.529a.954.954,0,0,0-.147.428c0-.186-.1.3-.184.444a6.076,6.076,0,0,1,.2-.6,1.409,1.409,0,0,0,.142-.385,4.064,4.064,0,0,0-.2.421c.024-.109.086-.256.093-.3a2.488,2.488,0,0,0-.24.621,3.734,3.734,0,0,0-.11.495,3.851,3.851,0,0,1,.162-.55c.042.064-.088.244-.083.412a7.1,7.1,0,0,0-.18.719.437.437,0,0,0,.006-.063c-.1.557-.213.72-.219.963-.026.247,0,.711.027.542,0,.2.021-.831.079-.47a4.583,4.583,0,0,0,.054,1.5c-.088-.331-.018.206-.092-.091a1.733,1.733,0,0,0,.146.534v.115a3.056,3.056,0,0,0,.139.306c.026.055.047.143.189.482-.1-.226.057.292-.024.122a2.477,2.477,0,0,0,.219.507l-.015-.023a9.273,9.273,0,0,0,.539,1.172l-.014-.068a25.5,25.5,0,0,0,1.587,2.472l-.178-.272c.051.085.386.488.536.734a1.853,1.853,0,0,1-.132-.164c-.013.02.027.129.16.308l.079.048.034.086c.206.269-.023-.107.183.162.041.219.911,1.139,1.043,1.411.2.13-.41-.495-.2-.343a2.969,2.969,0,0,0,.219.3l-.019-.085.739.875c.106.122.208.242.322.364l.335.355h.091l-.025.01a2.159,2.159,0,0,0,.637-.03c.068.02-.168.031-.041.048.576-.112,1.15.08,1.5,0-.021.04.121.079.253.116H50.3Zm1.554-14.192a1.136,1.136,0,0,0,.259-.25A2.175,2.175,0,0,0,51.877-2815.6Zm-.441,3.975c.041.011.082-.025.121-.059.006-.069.011-.138.011-.208h0a2.5,2.5,0,0,0-.4-1.359l-1.134,1.049-.019.019-.009.007-.092.085,0,0-.008.007-.1.092a.16.16,0,0,0-.026.031c-.019.016,0,0,0-.007l-.005.005-.063.063s0,0,0-.007l-.13.12h0l-.373.344c-.006.009-.031.035-.047.053l-.271.244-.035.032a.043.043,0,0,1-.018.014h0l0-.005s-.006,0-.008-.005l-.054-.059-.024-.027-.373-.4c-.023-.015-.041-.026-.046-.021a1.069,1.069,0,0,1,.166.174,1.534,1.534,0,0,0-.152-.138c-.04-.065.1.1.039.017a.636.636,0,0,0-.072-.065c.028.021-.023-.041-.031-.054l-.143-.159a.837.837,0,0,1-.057-.071l-.005-.006h0l0,0,.092-.082,0,0,.08-.073c.037-.048.064-.092.044-.083.073-.069.083-.067.143-.129-.112.082.022-.016.021-.04.063-.062.028-.015.061-.04a.178.178,0,0,0,.029-.045c.043-.024-.025.064,0,.065l.093-.086-.005,0,.019-.017v.009l.1-.088a.073.073,0,0,0-.084-.01c0-.012.068-.049.1-.074.094-.064.115-.127.187-.186l-.045.056a.929.929,0,0,0,.122-.125c.007,0-.029.073.007.05.125-.111.216-.247.194-.254l-.173.19c-.017-.006.122-.136.1-.144l.176-.158c-.021.021-.084.087-.052.069a.39.39,0,0,1,.1-.074c-.04.056-.1.139-.144.215l.147-.135a1.387,1.387,0,0,0,.067-.139c.069-.059.072-.009.061.011.133-.121.093-.16.229-.28l-.056.04c.029-.032.147-.132.13-.126.033-.017.075-.021.05.011l.091-.137c-.015.019.019.033.016.044.048-.043.054-.1.021-.079a1.455,1.455,0,0,1,.17-.106c.026-.027-.027-.024-.049-.008a.917.917,0,0,1,.072-.075.184.184,0,0,1,.033-.025c-.015.024-.021.056,0,.065a.15.15,0,0,0,.023.011l.067-.062a.231.231,0,0,0,.016-.041c.032-.032-.072-.04-.1-.043l.067-.012a.55.55,0,0,1-.178-.065c-.1-.044-.213-.091-.29-.121l.023.008c.035,0-.095-.057-.154-.061.011,0,.023,0,.047.01-.1-.058-.15.008-.25-.046.1.025.12.019.119,0-.083-.012-.269-.061-.237-.013-.05-.017-.1-.019-.091-.039-.068,0-.136,0-.2,0,.015,0,.029-.015-.03-.021.112.012.228-.013.283.024.007-.024-.033-.045.025-.057h0a1.226,1.226,0,0,0-.486.049l-.193-.008-.007.012-.036-.029c-.024.008-.038.017-.044.015s0-.007.01-.013a.221.221,0,0,0-.047.015c-.009-.015.022-.04.058-.062l.056.014c.022-.01.039-.021.038-.029-.024,0-.048,0-.073,0l-.021.011-.018,0,.023-.007-.037,0,.014,0c-.092.034-.192.075-.107.084h-.115c-.123.06-.1.051-.25.113-.012-.009.027-.029,0-.029-.1.073-.285.051-.3.1-.082.048-.024.043-.074.077,0,0,0-.014-.013-.007l-.053.052c-.03,0,.052-.043-.026-.018a2.184,2.184,0,0,1-.271.188c-.126.1.083,0-.027.077a.138.138,0,0,0-.127.033c-.025.042-.009.05-.059.107l-.018-.028c-.052.048-.089.09-.107.072a.3.3,0,0,1-.083.1c-.059.09.1-.011.126-.019-.086.058-.125.119-.193.138.016-.027.036-.05.054-.074-.163.121-.078.175-.194.2.044-.052.079-.128.04-.108l-.047.089c-.014,0,.03-.049-.006-.019a.436.436,0,0,0-.034.113v0l-.088.154c.019-.028.012-.042-.007-.013s-.024.075-.037.112c.008-.036-.018-.008-.046.036-.078.131.025.141-.05.234.007-.015,0-.019.01-.035l-.035.05c.06.034-.09.336-.01.366-.039.075-.027,0-.033-.11a.66.66,0,0,0-.042.082c0-.037.018-.064.019-.1a.409.409,0,0,0-.022.291c-.015.043-.06-.043-.054.087.008.182.06-.03.065.078l-.045.076a2.091,2.091,0,0,1,.024.356.109.109,0,0,0,.02.043c0,.128.1.241.109.332-.016-.017-.01.059-.015.072l.087.145c-.038-.063-.061-.051-.089-.055a.945.945,0,0,0,.061.1c-.017-.016-.033-.034-.034,0l.119.14a.18.18,0,0,0-.016-.046,1.164,1.164,0,0,1,.1.177c-.012,0-.031-.012-.044-.012a.1.1,0,0,0-.069-.09c.061.108.007.031.022.092.049.074.1.084.1.053a.353.353,0,0,0,.141.178l-.041.008.066.065-.081-.031c.094.155.063-.009.183.146l-.023.023c.063.046.117.027.133.094.069.032-.062-.114.071-.009a.5.5,0,0,0,.085.12c.051.023-.007-.058-.035-.076.206.146.056.191.274.285-.054-.063.088-.018-.066-.12.08.037.123.131.221.147l-.074.008a.308.308,0,0,0,.088.027l-.023.026c.13,0,.185.118.279.073-.068.042.083.024.117.061-.107.016-.253-.1-.288-.054.034.034.082.026.115.059a.3.3,0,0,0-.093,0c.124.1.235.051.322.07l-.155-.039c.032-.05.071.014.127-.014.065.058.138.024.195.059-.016,0-.019,0-.035,0,.165.041.2.138.267.15s.2,0,.156-.03c.057-.007-.231-.013-.123-.075.088.1.2-.012.411.051-.094.037.057.048-.028.077a.24.24,0,0,0,.152-.055l.033.027c.129-.072.028-.058.221-.121-.063.033.087.03.04.058a.28.28,0,0,0,.144-.055l-.006.006c.194-.064.174-.005.339-.1l-.023-.011a3.8,3.8,0,0,0,.667-.421l-.079.039c.029-.006.113-.121.186-.152a.263.263,0,0,1-.037.043c.015.015.058.019.107-.017l0-.039.035,0c.066-.063-.049-.013.013-.078.05.013.123-.054.19-.131s.13-.16.183-.172c-.019-.089-.109.136-.12.043a.208.208,0,0,0,.081-.064l-.045-.006a1.535,1.535,0,0,0,.325-.53l.005.013c.049-.076.052-.126.026-.174.024-.012.018.052.044.024C51.29-2811.4,51.5-2811.513,51.436-2811.622Zm-4.495-1.929c-.037.027-.063.036-.062.076C46.9-2813.479,46.927-2813.528,46.942-2813.551Zm-1.475-.148c.066-.1.122-.184.169-.263A2.232,2.232,0,0,0,45.466-2813.7Zm8.384,10.133a1.022,1.022,0,0,0,.145-.2A.565.565,0,0,0,53.85-2803.566Zm5.74-5.5-.027.042c.075-.619.262-1.383.367-2.019l-.06.219c.023-.065.056-.431.125-.622-.006.04-.011.109-.021.146.022,0,.068-.072.1-.222l-.02-.065.037-.056c.047-.231-.06.058-.012-.173.119-.116.213-.992.336-1.175-.036-.171-.1.435-.125.25a1.5,1.5,0,0,0,.079-.246l-.051.043c.165-.695.254-.954.372-1.578l0,.027a1.061,1.061,0,0,0,.062-.446c.029-.042.007.12.042.037-.029-.413.239-.764.211-1.017.036.022.094-.066.149-.148l.1-.5,0-.012,0,.012,0-.013.14-.679,1.216-5.915H61.9l-.133.123-.008.009-.019.017-.242.224a.908.908,0,0,0-.068.07c-.046.04,0-.007.006-.013l-.017.016-.153.146c-.006,0,0,0,0,0l-1.212,1.12c-.016.018-.079.08-.122.122-.316.283-.85.783-1.066.977l-.327.3-.424.392-.186.172c-.045.049-.075.087-.071.091.126-.124.378-.371.426-.4-.126.124-.347.333-.352.35-.144.113.241-.23.056-.076-.09.084-.126.124-.167.165.056-.061-.089.067-.119.09l-.785.715-.01.007-.2.183c-.1.105-.174.194-.131.164-.18.168-.2.171-.346.317.256-.216-.05.043-.065.08-.156.148-.06.045-.135.109a.985.985,0,0,0-.085.1c-.092.07.1-.135.069-.125l-.241.222.006,0-.045.042.005-.015-.194.18c.011.013.019.028.03.041s.012,0,.015,0a.1.1,0,0,0,.015-.03.258.258,0,0,1,.05-.023c.01.006-.031.012-.017.033a.944.944,0,0,0,.078.12c.15.229.26.329.378.524l-.1-.14c.018.033.2.312.237.354,0,.009-.121-.13-.071-.037a4.342,4.342,0,0,0,.424.647c-.1-.183-.208-.365-.323-.54.006-.029.237.378.239.348.082.151.153.307.225.463-.041-.082-.1-.189-.075-.124a1.408,1.408,0,0,1,.114.272c-.081-.156-.22-.38-.343-.563.084.159.169.319.243.483.085.136.154.241.184.288.078.209.013.151-.012.1a7.58,7.58,0,0,1,.327.813l-.038-.163c.035.1.128.468.122.428.01.088.005.172-.025.079.045.123.083.249.121.375-.015-.056-.04-.012-.051-.035.029.154.089.256.075.157a4.414,4.414,0,0,1,.033.481c.013.09.035-.013.031-.079a3.492,3.492,0,0,1,.046.422c-.034-.241-.062-.181-.088-.15.008.082.014.164.02.247.034.158.071.316.1.477a.212.212,0,0,0-.046-.078,1.959,1.959,0,0,1,.019.523c-.006.134-.008.28-.019.417l-.054.365.008-.061c0-.065-.034.133-.056.292-.072.262-.027.356-.115.622.06-.246.058-.3.042-.288-.029.206-.163.667-.1.58-.048.125-.078.24-.095.224-.046.163-.078.332-.135.492.01-.037.01-.072-.046.067.113-.263.142-.545.217-.678-.022-.014-.067.084-.047-.052l-.313,1.158c-.06.15-.14.292-.209.438l0,.024-.062.063a.629.629,0,0,1-.036.107c-.007.009,0-.007,0-.031-.019.047-.035.091-.042.114-.023.01-.005-.076.017-.166l.07-.114c.015-.056.023-.1.015-.1l-.073.161-.013.054-.023.036.017-.047-.034.075.018-.028c-.072.221-.176.465-.061.291l-.145.243a5.566,5.566,0,0,1-.272.622c-.021.014.023-.084-.02-.025-.11.276-.39.6-.4.671-.117.206-.027.1-.1.233,0-.009,0-.024-.022.013l-.073.166c-.045.057.072-.15-.042.017a6.893,6.893,0,0,1-.443.711c-.229.342.143-.115-.06.167a.684.684,0,0,0-.22.228,1.822,1.822,0,0,1-.137.264l-.019-.029c-.1.148-.187.265-.206.251a1.963,1.963,0,0,1-.19.265c-.15.229.174-.121.222-.165a4.082,4.082,0,0,1-.405.456l.137-.195c-.341.377-.258.409-.458.551.109-.135.224-.31.146-.241l-.142.208c-.025.018.084-.117,0-.033l-.147.245v0l-.284.355c.056-.066.059-.09,0-.025l-.175.242c.052-.076-.016-.01-.108.087-.257.284-.139.286-.36.488.029-.032.03-.041.059-.073l-.112.1c0,.009,0,.027-.015.051s-.048.068-.044.067a.356.356,0,0,1-.035.049c0,.007-.017.018-.01.019a.208.208,0,0,0,.036-.006.087.087,0,0,0,.053-.036c-.021.034.022.017-.111.057a.085.085,0,0,0,.038.022.925.925,0,0,0-.107.006.338.338,0,0,0,.159.005l.294-.036c.116.011-.091.06.24.046.467-.017-.088-.058.192-.069l.2.041a7.587,7.587,0,0,1,.927,0,.62.62,0,0,0,.119-.013c.321.018.673-.045.916-.033-.057.01.139.028.168.038l.437-.03c-.193.013-.185.039-.22.063.137,0,.2-.017.294-.021-.057.01-.114.019-.042.03l.459-.045a1.137,1.137,0,0,0-.124-.006,4.28,4.28,0,0,1,.527,0c-.015.01-.071.02-.085.03a.529.529,0,0,0-.287.016c.317-.006.079.007.231.025.223,0,.315-.037.256-.059a3.119,3.119,0,0,0,.589-.012l-.049.036.237-.012-.192.046c.227.012.248,0,.275-.021a.15.15,0,0,1,.072-.022.84.84,0,0,1,.089,0h.063l.038,0,.012.032a.115.115,0,0,0,.057-.017l-.007-.061c0-.032-.006-.038.031-.124.017-.188-.109.306-.029-.128a3.169,3.169,0,0,0,.109-.359c.011-.124-.043.044-.066.148.111-.6.188-.356.261-.937-.064.2-.031-.18-.125.293.026-.231.138-.435.149-.679l.011.163a1.739,1.739,0,0,0,.026-.231l.029.026c0-.3.138-.537.1-.726.037.133.04-.218.087-.329a6.016,6.016,0,0,0-.091.731c.04-.108.032-.213.071-.318a1.567,1.567,0,0,0-.009.221,3.847,3.847,0,0,0,.115-.812l-.067.4c-.05-.044.027-.18,0-.3.071-.191.058-.355.109-.512-.006.041-.007.049-.013.089a4.4,4.4,0,0,1,.241-.7c.042-.167.075-.491.027-.381.011-.141-.1.576-.125.314.138-.228.069-.512.238-1.036-.016.241.079-.127.06.087a1.274,1.274,0,0,0,.031-.387l.044-.071a2.094,2.094,0,0,1,.028-.6c-.012.174.082-.194.076-.061a2.207,2.207,0,0,0,.053-.384v.02C59.495-2808.7,59.528-2808.593,59.59-2809.065Zm-2.939.754c-.037.07-.067.135-.092.194A1.065,1.065,0,0,0,56.651-2808.311Zm5.257-18.378.017-.021a.05.05,0,0,0-.025-.015c0,.01,0,.021,0,.031l.007.005-.005.007h0v0h0c.022.036.051.075.07.042l-.015.045a.48.48,0,0,1,.061.1c-.011.005-.023-.01-.029,0,.043.04-.026.115.008.12.015.035.032.01.046.031,0,0-.012,0-.011.006l.03.022c-.006.012-.022-.021-.026.01a.219.219,0,0,1,.05.12c.023.058.042-.038.051.014-.018.012-.04.025-.033.057.019.013.034.006.052.031l-.032.007c.01.026.023.044,0,.052a.05.05,0,0,1,.023.045c.031.032.052-.05.062-.063-.01.045.015.065-.015.1l-.021-.03c-.012.086.072.05.018.109-.008-.025-.036-.048-.048-.027l.031.029c-.007.008-.014-.018-.017,0a.246.246,0,0,0,.051.026h0l.034.06c0-.012-.017-.01-.013,0l.036.033c-.015-.009-.018.008-.014.029.016.057.093.006.082.062,0-.006-.007,0-.009-.011l0,.028c.067-.035.081.121.141.069-.03.011,0,.031-.063,0a.154.154,0,0,1,0,.038c-.006-.005-.01-.022-.024-.03,0,.066.035.042.054.033,0,.015-.043.044-.022.052s.029-.061.041-.061a.324.324,0,0,0-.015.053c.015-.014.016-.007.02.011s.006.014.01.014a.079.079,0,0,0,0-.022c.017.008.009-.073.017-.056a.1.1,0,0,0,.026.031.072.072,0,0,1,.013-.049c-.014.031,0,.049.019.069.01-.013.011-.033.018-.046,0,.013,0,.026.016.027l.023-.083a.034.034,0,0,0-.019.009c.013-.013.03-.053.063-.055.005.009.005.022.01.031-.035-.006-.027.021-.023.043.033-.039.014,0,.044-.007a.045.045,0,0,0-.01-.072c.035-.021.05-.024.061-.073l.019.032.019-.034.008.054c.069-.032-.033-.056.039-.1l.022.023c.014-.031-.016-.078.028-.066.008-.036-.068,0-.023-.052a.127.127,0,0,0,.067-.015c.006-.027-.039-.017-.046,0,.065-.087.125.038.164-.061-.04,0-.025-.067-.08-.013.013-.041.085-.014.088-.068l.011.049c.011-.009.011-.031.013-.04l.021.027c-.006-.077.083-.04.05-.117.028.059.023-.028.053-.022,0,.059-.081.077-.046.122.025,0,.018-.032.042-.031a.111.111,0,0,0,0,.05c.066-.018.045-.09.061-.126l-.038.054c-.035-.046.014-.027,0-.073.044,0,.032-.05.063-.054,0,0,0,.009-.006.014.049-.05.129.008.15-.01s.041-.072.01-.078c0-.028-.055.077-.079-.007.09.038.036-.082.141-.1-.006.05.051.022.043.063.025-.034.017-.045.013-.077l.029.012c0-.084-.029-.051.006-.133,0,.036.052.009.051.038a.076.076,0,0,0,.028-.061v.005c.05-.069.075-.02.106-.1l-.017-.008c.037-.1.15-.17.207-.256l-.035.013c.005,0,.019-.022.021-.031s.005-.013.022-.008c0,0,0,.01,0,.01.016.014.046.03.06.022l-.025-.021.026.01c.014-.013-.046-.02-.034-.031.1.031.065-.044.187-.047-.082-.015-.045.029-.113.01a.169.169,0,0,0,.053-.011h-.059c.035-.032.028-.066-.01-.108l.01,0c0-.025-.015-.032-.05-.016.013-.016.031-.01.04-.028-.118.034-.02-.146-.1-.122a.278.278,0,0,0,.07-.1l-.052-.061v0l-.752-.878-.006-.006v0l-.034-.04h0l-.006-.008-.028-.032c-.007-.006-.014-.012-.016-.011s0,0,0,0l0,0-.024-.024s0,0,0,0l-.044-.052h0l-.13-.152a.119.119,0,0,1-.021-.014c-.023-.031-.058-.073-.089-.11-.02-.021-.038-.05-.052-.06h0l-.006-.006,0,0,0,0a.01.01,0,0,0-.01,0c-.048.046-.088.1-.133.148,0,.006,0,.016,0,.019.013-.025.045-.073.06-.071-.015.024-.045.062-.04.07-.031.011.031-.043,0-.023a.1.1,0,0,0-.018.033c0-.014-.02.007-.026.009-.042.048-.069.073-.113.125h0c-.011.014-.019.03-.029.044s0,.038.007.036c-.021.033-.029.029-.044.06.043-.035-.008.007,0,.022-.017.029-.013.005-.025.016s0,.021,0,.024c-.017.008-.013-.025-.021-.038l-.028.042h0l0,.009h0c-.008.013-.018.026-.026.039a.083.083,0,0,0,.061.014c.008.008-.025.021-.033.034-.037.028-.02.063-.042.091l0-.029a.136.136,0,0,0-.023.063c-.006,0-.017-.04-.031-.029-.033.056-.025.127,0,.132l.023-.1c.016,0-.015.07,0,.075l-.04.079c0-.011.013-.044,0-.036-.014.036-.01.017-.027.037,0-.026-.007-.064-.012-.1-.011.022-.022.045-.032.068a.509.509,0,0,0,.027.063c-.017.031-.047,0-.051-.006-.027.064.024.083,0,.146l.016-.021c0,.016-.028.07-.019.066-.014.01-.042.014-.044,0l.019.07c0-.01-.034-.014-.039-.019-.008.023.024.051.034.038-.036.039-.019.031-.057.061,0,.015.035.008.041,0a.116.116,0,0,1-.015.063c0-.035-.03-.038-.056-.04,0,.013-.008.025-.011.038.016.03.031.06.049.089a.174.174,0,0,0-.04-.021c.027.016.009.144,0,.206v-.009c-.01-.014-.026.039-.016.063-.006,0,0-.01,0-.019-.03.04.045.06.013.1.006-.039-.007-.047-.02-.047.008.033-.009.106.033.094-.009.02,0,.038-.026.035l.023.08c0-.006-.017-.011-.019.011.005-.043-.032-.088,0-.11-.025,0-.04.013-.06-.009h0a.39.39,0,0,0,.083.189l-.016.074.012,0-.03.014c.008.009.015.015.012.017s-.007,0-.012,0a.042.042,0,0,0,.009.018C61.946-2826.663,61.927-2826.676,61.908-2826.69Zm2.107-2.625c-.027,0-.073-.04-.1-.014h0c.057.048.09.016.122.037a.123.123,0,0,0-.05.007c.068.028.019.022.106.128a.092.092,0,0,0,.035.021c.056.092.181.14.223.21-.019-.009.01.052.008.066l.117.091a.076.076,0,0,0-.1-.014.947.947,0,0,0,.08.06c-.019-.008-.039-.016-.032.009l.133.086a.131.131,0,0,0-.021-.036.476.476,0,0,1,.112.135c-.011,0-.031-.005-.042,0-.008-.053-.044-.057-.075-.062.073.076.012.024.031.075.05.055.1.055.1.026a.353.353,0,0,0,.137.14l-.038.012.06.052-.076-.019c.08.13.066-.02.16.119l-.025.022c.052.04.108.021.111.084.057.034-.035-.111.067,0a.378.378,0,0,0,.054.116c.042.026.006-.052-.017-.072.159.156,0,.178.168.3-.026-.067.087,0-.019-.12.066.045.062.145.143.181l-.067-.011a.234.234,0,0,0,.066.045l-.03.017c.11.035.1.157.2.15-.074.01.051.053.058.1-.087-.033-.152-.176-.2-.147.012.04.055.047.066.086a.223.223,0,0,0-.074-.032c.057.115.154.126.216.173l-.1-.093c.051-.029.047.039.106.038.021.071.09.081.11.134-.009-.011-.014-.008-.023-.019a.365.365,0,0,1,.077.159c.01.049,0,.08.025.105.031.049.154.147.158.113.06.048-.183-.2-.027-.127-.014.058.04.1.091.16a.711.711,0,0,1-.226.21c.052-.092-.087.011-.041-.065-.071.076-.065.089-.073.133l-.039,0c-.039.125.019.06-.081.2.026-.056-.079.016-.061-.029a.267.267,0,0,0-.077.106l0-.008c-.116.13-.129.07-.221.2l.024,0a6.143,6.143,0,0,1-.468.5l.065-.041c-.023.009-.084.121-.152.145.008-.01.019-.032.03-.039a.081.081,0,0,0-.1.011l.008.038-.032,0c-.058.054.048.019-.009.072-.1-.038-.254.223-.36.207.008.087.115-.094.115-.008a.2.2,0,0,0-.082.038l.041.018a3.329,3.329,0,0,0-.427.332v-.013c-.066.039-.09.073-.09.123-.025,0,.008-.049-.026-.042-.021.172-.248.121-.254.233a.18.18,0,0,0-.122-.045l-.124.114a2.9,2.9,0,0,0,.274.144,3.05,3.05,0,0,0,.425.16,3,3,0,0,0,.827.116,3,3,0,0,0,.776-.1c.1-.026.189-.057.281-.092a.038.038,0,0,0,.011-.008c.015,0,.008,0,0,0l.012,0,.055-.025h0c.076-.031.15-.064.221-.1l.049-.024a2.867,2.867,0,0,0,.252-.157l.009-.008a1.341,1.341,0,0,0,.126-.086,2.974,2.974,0,0,0,.272-.23,2.939,2.939,0,0,0,.266-.3c.005-.016.008-.028,0-.031-.03.05-.1.148-.118.152a.806.806,0,0,0,.09-.138c.049-.038-.065.089-.006.035a.277.277,0,0,0,.04-.066c-.01.026.03-.023.041-.031a2.927,2.927,0,0,0,.194-.294h0c.016-.03.03-.061.045-.091s.012-.077,0-.065a1.006,1.006,0,0,0,.063-.141c-.056.1.01-.019,0-.037.021-.066.016-.02.031-.049,0-.012.006-.04,0-.044.023-.031.013.049.028.052.012-.033.024-.065.035-.1h-.006l.006-.02,0,.006c.01-.033.018-.067.027-.1a.073.073,0,0,0-.071.026c-.008-.008.029-.06.036-.09.039-.083.013-.136.033-.206v.057a.436.436,0,0,0,.012-.138c.007,0,.026.061.038.028.023-.133-.011-.262-.032-.254,0,.067.007.135.006.2-.015.005,0-.145-.025-.138.006-.062.007-.123.009-.184,0,.023,0,.095.015.067a.416.416,0,0,1,.009-.095c.017.05.036.125.054.193,0-.05.008-.1.008-.149a.658.658,0,0,0-.062-.116c0-.073.04-.05.048-.033,0-.145-.061-.137-.081-.279v.054c-.01-.032-.022-.155-.027-.14.006-.03.026-.061.038-.031-.021-.039-.046-.077-.069-.115.009.017.038,0,.045,0-.013-.051-.06-.075-.056-.042-.005-.1-.006-.076-.008-.161-.013-.027-.033.014-.028.035a.477.477,0,0,1-.051-.126c.037.067.062.042.085.023-.008-.023-.017-.047-.027-.07a1.013,1.013,0,0,0-.131-.122.135.135,0,0,0,.051,0,2.4,2.4,0,0,1-.237-.353l.011.016c.022.018-.027-.087-.069-.115.01,0,.016.012.028.028-.035-.086-.112-.06-.144-.148.048.066.069.07.077.058-.049-.047-.14-.173-.15-.12-.023-.036-.054-.061-.036-.072-.044-.033-.086-.068-.132-.1.012,0,.029,0-.006-.031.065.064.151.106.166.158.021-.015.006-.05.053-.031a.956.956,0,0,0-.342-.207,1.039,1.039,0,0,0-.11-.111l-.013.006,0-.041c-.02-.006-.034-.008-.035-.013s0,0,.014,0a.14.14,0,0,0-.037-.017c0-.017.038-.017.073-.013l.025.039c.021,0,.038,0,.043,0l-.048-.034-.021,0-.008-.013.016.006-.022-.015.006.01c-.074-.028-.158-.056-.115,0a.712.712,0,0,0-.067-.064,1.447,1.447,0,0,1-.213-.065c0-.014.034-.006.017-.024-.1-.006-.192-.135-.225-.114-.074-.021-.041.016-.09.008,0,0,.01-.009,0-.013l-.062,0c-.019-.016.056,0,0-.03a1.672,1.672,0,0,1-.262-.055c-.128-.024.042.061-.063.032a.1.1,0,0,0-.086-.069c-.039.009-.037.026-.1.027l.009-.031c-.057-.006-.1-.006-.1-.031a.234.234,0,0,1-.1-.005c-.088.014.058.069.074.088-.079-.039-.139-.017-.185-.062l.075-.006c-.159-.047-.152.042-.226-.032.055,0,.122-.01.09-.03l-.081.014c-.009-.009.046,0,.009-.016a.464.464,0,0,0-.09.037v0l-.144.014c.027,0,.033-.014.006-.013l-.092.028c.027-.012,0-.02-.046-.02-.123.007-.084.093-.182.075.014,0,.015-.006.029-.008l-.05-.006c0,.039-.066.055-.133.075s-.04.016-.017.049c-.027-.025-.026-.012-.023-.051a.145.145,0,0,0-.035-.013c.009-.006.021,0,.029-.013C64.005-2829.378,63.99-2829.328,64.016-2829.314Zm1.037-.153c-.036-.01-.054-.024-.08,0C64.987-2829.448,65.03-2829.463,65.053-2829.467Zm1.128,5.1.011,0,.006,0Zm-4.014-1.583c.011-.012-.011-.025-.02-.033C62.145-2825.96,62.136-2825.947,62.167-2825.946ZM61.7-2812.9a.762.762,0,0,0,.04-.174A1.571,1.571,0,0,0,61.7-2812.9Zm-.811,4.344a.73.73,0,0,0,.035-.206A.382.382,0,0,0,60.887-2808.555Zm3.833-11.227.052-.265a.774.774,0,0,0,.011-.082c.011-.049,0,0,0,.011l0-.021.031-.171c0-.005,0,0,0,0l.265-1.351c0-.02.014-.093.021-.144l.146-.726.067-.334.01-.047v.009l.006-.032h0v.005a.021.021,0,0,0-.017,0,4.163,4.163,0,0,1-.521.037c-.027,0-.053,0-.08-.005h-.05c-.075,0-.131-.008-.11-.01H64.6c-.125-.007-.25-.012-.372-.03-.065,0-.1,0-.1,0,.147.023.442.037.487.049-.148,0-.4-.028-.417-.023-.15-.036.277.033.08-.006l-.2-.022c.069.006-.09-.027-.119-.038l-.214-.051c-.014.066-.028.128-.042.192l-.1.442,0,.01-.046.22c-.015.12-.02.217,0,.176-.04.2-.051.211-.081.384.071-.271-.014.053,0,.086-.033.176-.021.06-.041.14a.6.6,0,0,0-.008.106c-.031.092,0-.142-.021-.12l-.055.268h.007l-.01.05,0-.012-.053.259c.024,0,.058-.025.085-.1a2.17,2.17,0,0,1-.061.24c-.062.219-.055.343-.1.527l.019-.144c-.011.03-.06.3-.062.349-.008.006,0-.148-.029-.065a2.113,2.113,0,0,0-.075.64l.083-.515c.019-.014-.057.366-.033.349l-.1.469c.011-.06.043-.242.019-.172a1.562,1.562,0,0,1-.059.238c.014-.136.031-.337.044-.513l-.082.4c-.006.139,0,.25,0,.3-.041.181-.065.11-.063.065-.075.357-.019.365-.1.724l.036-.134c-.014.086-.083.393-.07.362-.025.069-.063.13-.053.049l-.027.327c.005-.048-.033-.024-.035-.045-.027.128-.007.226.015.146-.074.246-.049.186-.118.384-.013.074.036,0,.051-.053a3.127,3.127,0,0,1-.069.345c.029-.194-.011-.162-.043-.144l-.038.183-.014.428a.169.169,0,0,0-.03-.073,8.632,8.632,0,0,1-.185,1.071l.01-.05a1.174,1.174,0,0,0-.077.334.389.389,0,0,1,.015-.1c-.07.218-.008.3-.084.52.045-.205.04-.248.025-.24-.023.171-.115.559-.058.485-.03.106-.045.2-.063.191l-.059.419c0-.032,0-.061-.032.06a5.513,5.513,0,0,1,.111-.581c-.023-.011-.055.073-.053-.042a9.42,9.42,0,0,0-.114.993l-.1.391.008.019-.044.063a.473.473,0,0,1-.008.093c0,.008-.006-.005-.007-.025a.993.993,0,0,0-.013.1c-.019.012-.024-.062-.025-.139l.04-.105c0-.049,0-.084-.01-.085l-.03.145v.046l-.012.033c0-.014,0-.027,0-.041l-.013.066.01-.026c-.019.193-.038.414.017.249l-.065.226c-.024.276-.021.228-.063.562-.015.016-.006-.074-.027-.017-.012.248-.161.576-.14.635-.031.2.012.086,0,.212,0-.007-.008-.02-.015.016l-.006.151c-.02.057.01-.138-.033.024a5.541,5.541,0,0,1-.118.687c-.061.336.078-.133.017.149a.48.48,0,0,0-.1.245,1.237,1.237,0,0,1-.008.248l-.03-.016c-.028.147-.046.265-.07.261a1.343,1.343,0,0,1-.047.267c-.027.226.1-.151.121-.2a3.344,3.344,0,0,1-.148.485l.03-.2c-.124.4-.032.4-.141.579.031-.141.048-.315.013-.235l-.025.209c-.014.022.018-.118-.012-.027,0,.06-.011.183-.011.238l0,0-.069.372c.015-.07.006-.09-.009-.019l-.031.247c.006-.076-.02,0-.048.106-.073.31.028.267-.056.5.006-.034.007-.043.012-.077l-.04.121c.069.042-.14.738-.069.78-.066.172-.021.009-.012-.227l-.06.185c.012-.078.031-.141.04-.225a2.2,2.2,0,0,0-.1.623c-.03.092-.044-.087-.085.187-.061.385.072-.061.035.17l-.074.158a5.28,5.28,0,0,1-.154.759.442.442,0,0,0-.007.1c-.071.259-.069.56-.122.756,0-.049-.05.107-.065.129l-.044.364c.02-.161-.006-.159-.025-.193-.02.112-.017.167-.029.245,0-.048,0-.1-.023-.04l-.033.384a.766.766,0,0,0,.027-.1c-.007.045-.019.119-.031.2s-.013.132-.017.188c-.01-.009-.025-.047-.034-.057a.42.42,0,0,0,.008-.211c-.033.238-.021.057-.048.17,0,.168.064.222.073.177a.477.477,0,0,0,.194.346h-.05a.759.759,0,0,0,.13.1.659.659,0,0,1-.133-.058c.112.128.146.113.167.113s.048,0,.212.066l-.008.032c.144.019.188-.039.294-.009.122-.037-.216-.016.071-.067a.484.484,0,0,0,.24-.067c.069-.067-.079.011-.132.032.191-.1.242-.15.307-.181s.13-.076.164-.291c-.065.128-.016-.117-.135.177.028-.07.064-.134.089-.208a1.013,1.013,0,0,0,.055-.288l.018.137a1.255,1.255,0,0,0,.016-.193l.03.022c-.012-.255.115-.448.066-.608.042.113.031-.183.074-.275,0,.209-.112.575-.061.613.035-.09.024-.179.058-.266a1.122,1.122,0,0,0,0,.186,2.707,2.707,0,0,0,.081-.681l-.05.333c-.052-.038.019-.151-.008-.252.063-.159.043-.3.088-.428-.007.036,0,.039-.01.075a3.15,3.15,0,0,1,.211-.585c.035-.139.055-.412.011-.32.006-.119-.075.481-.111.261.127-.188.048-.429.195-.866-.006.2.073-.105.063.074a.93.93,0,0,0,.015-.326l.04-.058a1.494,1.494,0,0,1,0-.506c0,.146.074-.161.074-.05a1.574,1.574,0,0,0,.037-.321v.016c.067-.431.1-.343.147-.739l-.025.035c.05-.519.2-1.158.283-1.69l-.05.183a4.528,4.528,0,0,1,.1-.52,1.136,1.136,0,0,1-.015.122c.022,0,.065-.058.095-.184l-.023-.055.035-.046c.037-.193-.057.048-.019-.146.114-.095.172-.831.287-.981-.043-.145-.081.364-.114.208a1.1,1.1,0,0,0,.069-.206l-.049.035c.135-.581.214-.8.306-1.32l0,.023a.744.744,0,0,0,.043-.374c.027-.035.012.1.043.032-.046-.348.206-.637.169-.851.037.019.091-.053.142-.122l.081-.416.129-.657.129-.659.909-4.635.009-.049.005-.024.048-.245,0-.012Zm6.706-2.63-.067.135c.025-.046.051-.092.075-.138C71.444-2822.44,71.446-2822.449,71.425-2822.412Zm.556-1.174c-.049.109-.1.226-.171.393C71.869-2823.324,71.927-2823.455,71.981-2823.586Zm.112-.279c-.044.1-.1.244-.132.32l.033-.074C72.028-2823.7,72.061-2823.783,72.093-2823.865Zm.613-2.73c0-.066.007-.132.008-.2-.008-.171-.042-.32-.043-.259-.015-.259-.006-.274-.023-.495,0,.354,0-.07-.023-.105-.037-.223,0-.079-.015-.182a1,1,0,0,0-.033-.13c-.007-.122.057.17.066.135-.015-.115-.033-.229-.052-.343l-.006,0-.01-.064.009.013c-.02-.109-.038-.219-.062-.327-.023.006-.039.055-.029.152-.01-.016-.042-.209-.064-.305a3.924,3.924,0,0,0-.193-.646l.072.167c-.007-.039-.136-.365-.161-.415,0-.011.094.159.064.054a2.1,2.1,0,0,0-.363-.723,4.32,4.32,0,0,1,.281.592,1.052,1.052,0,0,1-.092-.2.579.579,0,0,0-.108-.19l-.258-.543c.033.068.14.275.108.188-.117-.231-.05-.126-.131-.278.088.121.187.307.295.476l.043.07c-.071-.155-.141-.31-.221-.459l-.02-.032c-.1-.125-.179-.214-.215-.255-.118-.2-.044-.152-.008-.108a6.373,6.373,0,0,0-.563-.727l.1.144a4.573,4.573,0,0,0-.286-.364c-.054-.074-.092-.153-.017-.082l-.3-.277c.044.041.041-.01.062,0-.11-.124-.217-.181-.15-.1-.21-.244-.168-.173-.34-.371-.072-.062-.017.032.031.081-.166-.136-.255-.225-.329-.294.19.156.175.1.171.057-.047-.04-.091-.083-.138-.123-.168-.1-.344-.2-.512-.293a.21.21,0,0,0,.091.013c-.035-.006-.224-.146-.471-.279l-.374-.222c-.126-.068-.25-.122-.345-.171l.058.028a1.908,1.908,0,0,0-.385-.2.619.619,0,0,1,.115.05c-.246-.155-.364-.09-.623-.224.246.093.3.1.293.081-.208-.063-.675-.247-.588-.173-.132-.042-.254-.068-.237-.085l-.52-.106c.038.008.076-.005-.077-.033a6,6,0,0,1,.723.171c.015-.022-.091-.063.054-.048-.282-.067-.5-.109-.7-.142l-.549-.032-.248-.047-.252-.023-.022.011-.086-.036a.666.666,0,0,1-.117,0c-.011,0,0-.006.03-.01-.054,0-.1,0-.127,0-.019-.018.071-.032.168-.045l.139.024c.061-.006.105-.014.106-.022-.062,0-.125-.006-.187-.009l-.057.007-.044-.008h.051l-.085,0,.034.006c-.245.008-.521.021-.3.052-.1-.014-.2-.011-.3-.017-.344.047-.285.034-.7.1-.024-.01.086-.031.01-.031-.3.07-.747.078-.806.127-.24.063-.094.052-.244.1.006-.006.019-.017-.025-.006s-.116.047-.173.073c-.075.013.16-.064-.045-.015-.34.12-.533.2-.814.308-.391.171.187-.025-.146.111a.682.682,0,0,0-.314.094,2.557,2.557,0,0,1-.252.176l0-.035c-.164.09-.288.172-.3.152-.057.042-.127.087-.152.1a.577.577,0,0,1-.068.038c-.055.046,0,.03.048.019a.63.63,0,0,1,.062-.013l.1-.042c-.212.109-.169.057-.167.136a.676.676,0,0,1-.061-.063c0,.038.156.2.207.246a.59.59,0,0,1,.159.219c-.118-.141-.275-.3-.219-.2l.187.189c.013.03-.1-.111-.032-.011.055.052.169.158.223.2h0l.317.358c-.058-.07-.083-.078-.024-.008l.219.226c-.07-.067-.013.015.074.125.256.313.272.193.45.454l-.067-.073.094.132c.08-.024.628.715.71.689.127.195,0,.025-.225-.175l.143.2c-.067-.073-.117-.14-.193-.216a3.529,3.529,0,0,0,.544.584c.036.05.009.042,0,.053s0,.044.058.071c.278-.147-.11-.014.087-.116.074-.017.148-.033.223-.047a2.872,2.872,0,0,1,.986-.246.8.8,0,0,0,.128-.027c.177-.007.361-.028.537-.026a1.873,1.873,0,0,1,.473.023c-.063,0,.148.05.177.064.159.021.317.054.476.085-.21-.043-.208-.013-.252,0,.145.034.219.033.315.067-.062-.011-.123-.024-.052.014a4.314,4.314,0,0,1,.484.14c-.025-.016-.077-.042-.121-.064a2.51,2.51,0,0,1,.517.265c-.019,0-.077-.022-.1-.021a.515.515,0,0,0-.287-.126c.314.143.077.04.215.131.208.121.314.143.271.091l.527.378-.064-.008.2.162-.187-.105c.178.17.2.177.233.188s.071.024.25.234l-.024.022c.135.16.234.181.292.342.128.165-.152-.327.116.084.036.08.118.246.169.377.07.111.011-.049-.04-.156a3.048,3.048,0,0,1,.14.3,1.287,1.287,0,0,1,.037.2,2.631,2.631,0,0,0,.132.508c-.036-.223.116.167-.03-.35a6.91,6.91,0,0,1,.157.754l-.071-.165c.014.094.048.2.059.249l-.036-.018a1.73,1.73,0,0,1,.042.448,1.113,1.113,0,0,0,.014.354c-.05-.142-.016.245-.073.369.019-.27.079-.769.013-.8-.012.124.006.235-.014.354a1.727,1.727,0,0,0-.027-.237c-.04.4-.023.635-.064.883a3.739,3.739,0,0,0,.068-.433c.057.044-.021.2,0,.327-.078.209-.086.386-.166.551l.027-.1a2.167,2.167,0,0,1-.422.682c-.094.157-.281.454-.184.368-.037.067.051-.065.136-.18s.154-.226.116-.088c-.221.178-.277.507-.761.878.169-.2-.146.066.007-.11a2.423,2.423,0,0,0-.286.307c-.027.011-.057.019-.085.028a1.468,1.468,0,0,1-.5.419c.079-.054.01-.029-.027-.023s-.08.019-.049-.009c-.06.011-.037.077-.052.122-.009.069-.015.134-.017.189v-.021c-.09.545-.123.436-.185.936l.027-.045c-.077.656-.265,1.467-.371,2.14l.06-.233c-.023.07-.057.457-.126.66.006-.042.012-.116.021-.154-.022,0-.069.077-.1.237l.02.068-.037.06c-.048.245.06-.063.012.182-.119.125-.215,1.053-.339,1.248.035.18.1-.462.126-.266a1.68,1.68,0,0,0-.08.261l.052-.047c-.166.737-.256,1.013-.375,1.675l0-.028a1.182,1.182,0,0,0-.062.472c-.029.045-.007-.126-.042-.038.029.436-.24.812-.213,1.079-.036-.022-.095.072-.15.16l-.1.528a44.083,44.083,0,0,0,3.54-3.763l.026-.032-.006.008.108-.13h0c.553-.672,1.108-1.393,1.626-2.144l.027-.04c.122-.175.254-.385.259-.4.04-.057-.009.02,0,.017l.135-.212c.015-.016-.008.023-.04.076q.145-.221.283-.445l0,0,.07-.116-.006.012q.315-.514.592-1.037c-.027.045.035-.083.072-.161.252-.426.578-1.244.675-1.45.079-.205.146-.41.211-.615.006-.022.013-.045.019-.066a.678.678,0,0,1,.047-.132c.036-.122.071-.243.1-.365a.4.4,0,0,0,.011-.165,3.4,3.4,0,0,1-.071.349,2.1,2.1,0,0,1-.085.246l.093-.312a1.769,1.769,0,0,0,.031-.2c.054-.185-.067.344,0,.1.026-.128.033-.184.043-.244-.012.086.034-.113.046-.15.038-.208.09-.369.1-.54l.048-.571A.354.354,0,0,1,72.706-2826.6Zm-20.993,17.3c-.015.016-.028.034-.044.05Zm-12.877-35.126c0-.018,0-.032-.007-.049s-.006-.034-.008-.05Zm-2.672,30.984c.007-.04.015-.092.029-.171Zm-.251,1.229,0,.032C35.922-2812.236,35.923-2812.26,35.912-2812.21ZM34-2802.631l-.079.323Zm3.5-17.527.014-.2C37.452-2820.052,37.492-2820.186,37.5-2820.158Zm21.612-4.35.056,0C59.174-2824.51,59.149-2824.51,59.112-2824.509Zm-23.5,4.169,0,.013C35.616-2820.373,35.613-2820.365,35.607-2820.339Zm10.192-4.054.035,0C46-2824.4,45.927-2824.4,45.8-2824.394Zm-12.512,16.245,0-.018,0,.024Zm-.1.575a4.874,4.874,0,0,1,.1-.57l-.081.181Zm.737,5.29a.133.133,0,0,1,.022-.048C33.953-2802.376,33.95-2802.378,33.926-2802.283Zm3.572-17.838,0-.018a.057.057,0,0,0,0-.02Zm-2.312,2.156a1.394,1.394,0,0,0,.048-.213Zm4.668-8.279h-.278l.395,0Zm-3.293,1.12c-.022.094-.027.115-.044.185l.009.015Zm-.237,1.232c0,.042-.109.615-.006.08C36.323-2823.857,36.4-2824.281,36.324-2823.893Zm-2.245,11.654c-.051.3-.086.461-.038.327.1-.5,0-.123.1-.573C34.157-2812.6,34.062-2812.117,34.079-2812.239Zm0,0c.008-.048.016-.1.025-.155Zm1.294,2.493-.069.247,0,.026A2.177,2.177,0,0,0,35.373-2809.746Zm.838-4.105-.016.075.06-.134Zm.7-3.667c-.029.15-.062.325-.091.476C36.878-2817.368,36.96-2817.549,36.909-2817.518Zm9.786,4.3-.005-.012C46.688-2813.216,46.689-2813.209,46.7-2813.219Zm-.332,1.693.034.038C46.386-2811.554,46.378-2811.522,46.364-2811.525Zm1.469,1.935.006.006C47.878-2809.584,47.862-2809.586,47.833-2809.591Zm2.37-4.4h0Zm.023-.041c.024.012,0,.03-.021.041a.3.3,0,0,0,.071-.006A.048.048,0,0,0,50.225-2814.032Zm-1.68-.361a.02.02,0,0,1-.013-.01C48.523-2814.4,48.523-2814.393,48.546-2814.393Zm-2.188,2.86v0a.01.01,0,0,0,.006,0Zm2.183-.885s-.012,0-.042.03A.283.283,0,0,1,48.54-2812.418Zm.879.781.069-.061-.021.017Zm-.715.437.035.031a.215.215,0,0,1-.025-.037Zm-.185-.187c.01,0,.08.076.019.007C48.529-2811.385,48.432-2811.479,48.519-2811.387Zm1-1.961c.047-.055.077-.077.039-.071-.092.076-.007.034-.092.1C49.455-2813.294,49.539-2813.374,49.523-2813.349Zm-2.447-.272.054-.024v-.01C47.114-2813.653,47.1-2813.642,47.075-2813.621Zm-.527.737.008-.015-.043.014Zm-.158.781a.8.8,0,0,1,.006-.1C46.391-2812.136,46.346-2812.1,46.39-2812.1Zm6.595-4.539-.011.024C53-2816.654,53.016-2816.67,52.985-2816.642Zm-6.817,2.014a1.74,1.74,0,0,0-.2.188A2.333,2.333,0,0,1,46.169-2814.628Zm2.93-4.673-.162.023C49.188-2819.272,49.078-2819.287,49.1-2819.3Zm-4.717,14.458.024.039C44.413-2804.8,44.4-2804.82,44.382-2804.843Zm7.939-9.476-.008.008C52.343-2814.336,52.337-2814.332,52.321-2814.318Zm-10.559-.38-.012.025C41.716-2814.545,41.734-2814.6,41.762-2814.7Zm5.637,6.324.015,0-.019-.007Zm-.445-.194c.193.077.3.128.441.191a1.429,1.429,0,0,1-.129-.1C47.164-2808.51,47.056-2808.532,46.954-2808.569Zm4.715-.679c-.058.058-.113.118-.175.17A1.731,1.731,0,0,0,51.669-2809.248Zm-5.71-5.172a.1.1,0,0,1,.037-.023C46.02-2814.473,46.017-2814.477,45.959-2814.419Zm3.17-4.884h-.015a.038.038,0,0,0-.015,0Zm3.494,6.48c.023.091.03.143.036.177A.72.72,0,0,0,52.623-2812.823Zm2.394-3.241c.033.044.062.09.094.136l-.077-.134Zm-.512-.246c-.023.026-.367.354-.041.051C54.488-2816.286,54.743-2816.528,54.505-2816.311Zm-3.764,7.733c-.224.121-.35.171-.234.141a2.714,2.714,0,0,0,.422-.236C51.01-2808.73,50.656-2808.52,50.741-2808.578Zm0,0,.11-.071Zm.537-6.543a1.484,1.484,0,0,0,.175-.148l-.165.128Zm2.427-2.3a.066.066,0,0,1-.015.029l.009.009A.053.053,0,0,0,53.7-2817.417Zm-2.516-1.417c.112.045.248.085.36.134C51.3-2818.791,51.173-2818.884,51.189-2818.833Zm-7.7,17.3.164-.007Zm-1.185,0-.029.01C42.329-2801.529,42.351-2801.534,42.3-2801.534Zm-6.88-1.717.075-.305Zm7.136-1.528-.13-.145C42.6-2804.673,42.535-2804.792,42.559-2804.779Zm8.346-15.768.052.019C50.962-2820.532,50.939-2820.538,50.9-2820.547Zm-11.388-2.625H39.5C39.548-2823.17,39.54-2823.171,39.516-2823.172Zm1,8.053.014-.03C40.573-2815.3,40.551-2815.237,40.517-2815.12Zm-3.348,3.381,0-.017,0,.022Zm-.1.543a4.375,4.375,0,0,1,.1-.538l-.081.169Zm-1.577,7.616a.117.117,0,0,1-.021.044C35.467-2803.492,35.471-2803.49,35.493-2803.58Zm7.09-1.173-.01-.014a.048.048,0,0,0-.015-.011ZM39.046-2821a1.131,1.131,0,0,0,.048-.2Zm9.078-2.172h-.263l.373,0Zm-4.176.01-.012.012.192,0Zm-1.081.021c.042,0,.448-.007.075-.01C42.9-2823.149,42.351-2823.142,42.867-2823.143Zm-4.916,7.544c-.05.287-.085.436-.037.309.1-.47,0-.116.1-.541C38.028-2815.943,37.935-2815.483,37.951-2815.6Zm.025-.146c-.013.08-.02.119-.025.146Zm1.677,14.169a2.072,2.072,0,0,0,.266.01l-.242-.018Zm4.153,0,.135.033-.063-.032Zm.272-1.129.3.35C44.17-2802.589,44.086-2802.759,44.078-2802.7Zm19.09-23.31h0C63.174-2826.031,63.171-2826.025,63.168-2826.011Zm-1.124-1.426v0Zm0,.052a.046.046,0,0,1,0-.052l-.047.006Zm.416,1.916h0v0Zm.534-3-.016-.019.022.028Zm-.258-.28v.018c0-.009.006-.005.009,0S62.741-2828.753,62.737-2828.752Zm-.053.068s-.03.048,0,.011C62.688-2828.679,62.706-2828.7,62.685-2828.684Zm-.516.881c0-.012-.019.028-.021.015,0,.029-.011.04.013.037C62.183-2827.791,62.145-2827.769,62.168-2827.8Zm.008,1.731c-.006.007-.005.013,0,.025l.01-.026Zm.132.346-.023.025.026-.019Zm.148.172s0,0,0,0S62.431-2825.516,62.456-2825.555Zm1.683-3.581.046.011C64.145-2829.169,64.152-2829.141,64.139-2829.136Zm1.347,1.692,0,.007C65.518-2827.422,65.507-2827.431,65.486-2827.444Zm1.956-.311,0,0v0Zm-.05-.094a.171.171,0,0,1,.05.092l.029-.049Zm-3.262-1.289,0,0h.006Zm3.36,3.213a.243.243,0,0,1,.019-.036S67.5-2825.955,67.49-2825.925Zm-.663,1.071-.024.03a.149.149,0,0,1,.031-.019Zm.139-.157c0,.009-.053.071,0,.018C66.966-2825,67.032-2825.088,66.966-2825.012Zm.656-2.007c-.011-.055-.009-.085-.029-.057,0,.093.021.02.017.1C67.62-2826.95,67.614-2827.04,67.622-2827.018Zm-2.411-2.371c-.008-.01-.021-.012-.048-.017l.042.024Zm-.775-.015-.03-.029.016.03Zm-.358.115c.009,0-.065-.017.005,0C64.084-2829.285,64.075-2829.29,64.079-2829.289Zm-10.725,26.361,0-.02C53.341-2802.919,53.335-2802.906,53.354-2802.928Zm2.99-4.644a1.436,1.436,0,0,0,.091-.165C56.407-2807.682,56.378-2807.625,56.344-2807.572Zm-2.014,5.993.114-.028C54.266-2801.605,54.345-2801.592,54.33-2801.579Zm5.664-9.866.01-.03S60-2811.465,59.994-2811.445Zm-3.083-7.119-.006.006C56.928-2818.575,56.924-2818.572,56.912-2818.563Zm1.682,14.5.006-.019C58.606-2804.175,58.6-2804.135,58.594-2804.063Zm-1.12-8.531,0-.01v.01Zm.034.331a1.691,1.691,0,0,1-.035-.327l-.037.113Zm-.157,1.7a1.016,1.016,0,0,0-.013.106C57.34-2810.484,57.345-2810.521,57.351-2810.561Zm0-.012v0l0,.01Zm-.92,2.82a.057.057,0,0,1-.022.021C56.4-2807.707,56.407-2807.7,56.433-2807.754Zm-2.124,6.179h.01a.022.022,0,0,0,.011-.005Zm1.633-16.033s.023-.013.095-.079Zm4.743-4.446-.115.106.165-.149Zm-1.821,1.714.081-.081c-.05.043-.054.044-.084.067Zm-.437.4c-.015.019-.251.247-.026.037C58.417-2819.919,58.593-2820.087,58.427-2819.937Zm-1.469,5.038c.07.161.09.251.086.168-.089-.277-.041-.059-.124-.307C56.888-2815.1,56.99-2814.836,56.958-2814.9Zm0,0-.036-.081Zm-2.6,10.755,0-.016a.7.7,0,0,0-.1.122Zm-1.581,1.965.029-.033-.077.041Zm.026.553-.273.007C52.717-2801.627,52.826-2801.583,52.8-2801.626Zm8.068-26.62-.012-.044C60.838-2828.236,60.86-2828.255,60.871-2828.246Zm.9-1.513,0-.007C61.737-2829.779,61.747-2829.771,61.768-2829.76Zm-4.834,2.318h0Zm.1-.013a.158.158,0,0,1-.1.014l.034.045Zm1.438.011a.016.016,0,0,1,.008.011C58.491-2827.437,58.491-2827.441,58.474-2827.444Zm2.4-.793,0,0,0-.005Zm-4.028-.5s.008-.007.015-.036A.207.207,0,0,1,56.844-2828.736Zm.3-1.008c0,.008-.031.1,0,.016C57.143-2829.735,57.168-2829.806,57.14-2829.743Zm-.442,2.065c.015-.087-.019-.023,0-.1-.006-.022-.015.063-.019.042C56.682-2827.684,56.675-2827.656,56.7-2827.678Zm3.06.13,0,.008c.009.008.022.009.049.01Zm.777.012h-.013l.025.032Zm.141-.25c-.008.026-.008.061-.014.088C60.666-2827.76,60.72-2827.783,60.676-2827.786Zm.083,19.891-.008-.017C60.752-2807.884,60.754-2807.872,60.759-2807.9Zm.871-4.521c.011-.034.025-.082.043-.151Zm-1.6,8.271.008.1C60.071-2804.192,60.044-2804.13,60.034-2804.145Zm3.576-18.247,0,.006C63.615-2822.407,63.614-2822.4,63.61-2822.392Zm-2.276,19.375.006-.016C61.343-2803.111,61.338-2803.077,61.335-2803.017Zm1.166-13.632v-.009l0,.011Zm-.043.272a1.1,1.1,0,0,1,.041-.269l-.062.08Zm2.877-6.552h0c0,.006,0,.013,0,.019Zm-3.669,10.35a.041.041,0,0,1-.016.021C61.65-2812.537,61.654-2812.535,61.666-2812.58Zm-1.634,8.417,0,.009a.02.02,0,0,0,0,.01Zm3.392-17.107s.01-.02.027-.1C63.439-2821.318,63.43-2821.289,63.424-2821.27Zm1.55.191-.038.182.012-.054Zm.338-1.815c0-.01.007-.021,0-.024H65.3l-.027,0-.01.013C65.283-2822.908,65.328-2822.928,65.312-2822.894Zm-.533.019c-.02,0-.3,0-.037.009C64.762-2822.865,64.965-2822.885,64.778-2822.875Zm-1.893,4.3c-.021.144-.04.218-.006.157.055-.234-.008-.06.044-.271C62.927-2818.746,62.881-2818.517,62.886-2818.575Zm0,0c0-.015,0-.035.01-.073Zm-1.856,9.521.042-.115-.006-.013A.514.514,0,0,0,61.029-2809.053Zm-.392,1.935.008-.035-.045.06Zm-.3,1.734.04-.225C60.352-2805.455,60.291-2805.374,60.337-2805.384Zm7.963-12.461.009-.01C68.326-2817.877,68.332-2817.885,68.3-2817.845Zm-7.4-15-.02-.007C60.906-2832.829,60.919-2832.822,60.9-2832.844Zm3.805-1.968.2.022Zm-.293,3.937.124-.036C64.338-2830.9,64.426-2830.89,64.412-2830.875Zm1.612,11.381-.011.032S66.02-2819.473,66.024-2819.495Zm6.669-7.04v-.009C72.689-2826.515,72.689-2826.52,72.692-2826.535Zm-3.789.025-.006.021C68.9-2826.389,68.9-2826.432,68.9-2826.51Zm.806-6.486.009.006-.011-.01Zm-.284-.2a1.742,1.742,0,0,1,.283.194l-.064-.1Zm-4.509-1.606a.061.061,0,0,1-.03-.013C64.858-2834.81,64.857-2834.805,64.915-2834.8Zm-.527,3.931H64.4a.026.026,0,0,0,.011-.007Zm8.2,3.034c-.006-.058-.01-.095-.013-.129A.457.457,0,0,0,72.589-2827.834Zm-1.7,6.372.085-.143-.122.2Zm1.119-2.26c.029-.063.033-.067.051-.1l-.008-.011Zm.254-.753c0,.026-.081.271-.006.048C72.264-2824.451,72.364-2824.783,72.265-2824.474Zm-.911-6.7c-.1-.154-.162-.225-.127-.148.16.255.056.048.193.284C71.464-2830.977,71.31-2831.228,71.354-2831.169Zm0,0,.052.076Zm-10.56-2.54.009-.014a.628.628,0,0,0-.148.073C60.7-2833.671,60.747-2833.691,60.794-2833.709Zm.752,1.561.031.086,0-.051Zm1.425,1.584-.1-.108c.065.071.124.152.1.138,0,.009,0,.011.01-.013C62.983-2830.555,63-2830.531,62.971-2830.565Zm-17.042-15.853-.008-.012C45.922-2846.41,45.924-2846.4,45.929-2846.418Zm.661,2.448.066.029C46.585-2844.014,46.606-2843.973,46.59-2843.97Zm3.436.9h.012C50.083-2843.1,50.062-2843.092,50.026-2843.069Zm.9-4.936.005,0-.006-.006Zm-.159-.112a.4.4,0,0,1,.159.11l-.021-.077A1.077,1.077,0,0,0,50.771-2848.117Zm-2.6-.554a.024.024,0,0,1-.019-.007C48.136-2848.671,48.137-2848.667,48.169-2848.671Zm-1.591,4.7,0,0h.008Zm5.3-1s-.01.013-.028.068A.587.587,0,0,1,51.877-2844.979Zm1.086,3.072.087.1-.025-.031Zm-.944-1.063.049.049a.381.381,0,0,1-.037-.054Zm-.259-.288c.013.009.111.118.025.014C51.772-2843.253,51.637-2843.4,51.76-2843.259Zm.014-3.554c.021.034-.038-.12-.018-.085-.044-.093-.071-.139-.067-.09C51.753-2846.83,51.724-2846.958,51.774-2846.812Zm-5.52-.356.06-.061,0-.011A.24.24,0,0,0,46.254-2847.169Zm-.356,1.292,0-.024-.035.045Zm.272,1.153-.06-.141C46.155-2844.771,46.136-2844.7,46.171-2844.724Zm-.115,17.224.23,0Zm-3.052,0-.075.011C43.07-2827.494,43.128-2827.5,43-2827.5Zm-10.431,16.41-.039.184Zm-.039.184-.129.608Zm25.474-23.076.227.26a.044.044,0,0,0,.02.014c.009,0,.007-.01.019-.005S58.11-2833.876,58.007-2833.981ZM58-2849.645l.044.133C58.052-2849.5,58.031-2849.559,58-2849.645Zm-10.346,52.587h-.034C47.736-2797.056,47.716-2797.056,47.652-2797.058Zm-7.484-43.581-.034-.078C39.949-2841.073,40.027-2840.915,40.168-2840.639ZM20.013-2799.6c0,.018,0,.028,0,.045,0-.019,0-.042,0-.059ZM20-2801.023c.02.6.018.949.014,1.407l.044-.47Zm18.78-43.792c.009.1.026.195.04.292C38.8-2844.624,38.8-2844.667,38.78-2844.815Zm4.7,9.308-.243-.3C43.313-2835.707,43.391-2835.605,43.475-2835.507Zm1.78,2.031c.083.091.161.175.22.234Zm9.475-3.125c-.087.116-.171.235-.257.352C54.585-2836.4,54.666-2836.51,54.73-2836.6Zm-10.708-18.026.174-.1A1.039,1.039,0,0,0,44.022-2854.626ZM32.4-2810.238a.724.724,0,0,1,.035-.119C32.456-2810.469,32.452-2810.472,32.4-2810.238Zm25.886-23.456c.006,0,0-.006,0-.009a.061.061,0,0,0-.015-.009C58.277-2833.708,58.3-2833.7,58.288-2833.695Zm-15.971,36.7-.531,0C41.771-2796.993,41.9-2796.99,42.317-2796.991Zm20.572-7.642.186-.943-.056.278Zm-3.856,7.56.494-.006-.462-.006Zm-2.56.007c-.1,0-1.519.016-.192.01C56.387-2797.059,57.436-2797.066,56.474-2797.065Zm-28.881.131c-.749.011-1.142.008-.8.028,1.241,0,.294-.021,1.416-.016C28.5-2796.932,27.294-2796.927,27.593-2796.935Zm.382-.006-.283.005Zm8.266-30.607-.061.008c.124.008.31.009.685.01Zm10.82.012h-.186l.348.032Zm7.9-.048h.277s.012,0,.012,0c0,.05.02-.16.03-.25.031-.208.046-.3.017-.254-.011.094-.029.192-.036.293s-.019.247-.015.206c0,.006,0,.006-.007.006Zm-5.613-16.536-.033,0C49.336-2844.1,49.338-2844.114,49.35-2844.121Zm-.656-.887v0C48.673-2845.016,48.679-2845.012,48.694-2845.008Zm.662.886v0l-.005,0Zm.593-1.295.017.02-.023-.03Zm.281.314.01-.007-.016-.011A.043.043,0,0,1,50.23-2845.1Zm.075.07c.005,0,.047.038.012,0C50.311-2845.034,50.282-2845.063,50.3-2845.033Zm.806.842c-.027-.041-.023,0-.046-.034-.013,0,.018.031.006.027C51.1-2844.182,51.1-2844.168,51.111-2844.191Zm-1.081.858c0-.009,0-.015-.01-.027l0,.03Zm-.255-.352-.02.025,0,.006Zm-.293-.209c.009.012.026.019.035.031C49.491-2843.883,49.512-2843.925,49.482-2843.894Z" transform="translate(-20 2855.755)" fill="#111"/>
    </g>
  </g>
</svg>
