<svg xmlns="http://www.w3.org/2000/svg" width="140.155" height="21.923" viewBox="0 0 140.155 21.923">
  <g id="Group_1497" data-name="Group 1497" transform="translate(-98 -66.049)">
    <path id="Path_761" data-name="Path 761" d="M452.515,516.861a.286.286,0,0,0-.092-.222.368.368,0,0,0-.248-.081h-.368v.609h.368a.369.369,0,0,0,.246-.086.282.282,0,0,0,.094-.22m-.783,1.531h-.38a.081.081,0,0,1-.053-.023.073.073,0,0,1-.023-.053V516.18a.067.067,0,0,1,.025-.049.071.071,0,0,1,.051-.023h.841a.918.918,0,0,1,.635.213.693.693,0,0,1,.24.545.677.677,0,0,1-.114.38.76.76,0,0,1-.313.272l.484.753a.071.071,0,0,1,.01.079.074.074,0,0,1-.07.035h-.378a.16.16,0,0,1-.081-.019.242.242,0,0,1-.067-.067l-.428-.681h-.3v.7a.072.072,0,0,1-.023.053.074.074,0,0,1-.053.023m.407.435a1.485,1.485,0,0,0,1.107-.456,1.638,1.638,0,0,0,0-2.253,1.482,1.482,0,0,0-1.107-.459,1.5,1.5,0,0,0-1.114.459,1.634,1.634,0,0,0,0,2.253,1.5,1.5,0,0,0,1.114.456m-1.376-.213a1.824,1.824,0,0,1-.421-.621,1.964,1.964,0,0,1,0-1.494,1.906,1.906,0,0,1,1.047-1.031,2,2,0,0,1,.75-.143,1.952,1.952,0,0,1,.748.144,1.892,1.892,0,0,1,1.045,1.033,1.994,1.994,0,0,1,0,1.489,1.869,1.869,0,0,1-.421.623,1.907,1.907,0,0,1-.625.411,2.041,2.041,0,0,1-1.5,0,1.868,1.868,0,0,1-.627-.411" transform="translate(-215.921 -448.127)" fill="#111"/>
    <g id="Group_1496" data-name="Group 1496" transform="translate(98 66.049)">
      <path id="Path_694" data-name="Path 694" d="M204.058,361.88a.822.822,0,0,1-.8.644H199.82a.848.848,0,0,1-.8-.644l-4.268-13.266c-.215-.583.092-.89.583-.89h2.887a.742.742,0,0,1,.767.614l2.61,9.457,2.548-9.457a.755.755,0,0,1,.768-.614h3.192a.788.788,0,0,1,.8.614l2.548,9.457,2.671-9.457a.743.743,0,0,1,.768-.614h2.578c.491,0,.8.306.583.89l-4.267,13.266a.831.831,0,0,1-.83.644h-3.346a.806.806,0,0,1-.829-.644l-2.365-8.875Z" transform="translate(-194.685 -341.032)" fill="#111"/>
      <path id="Path_695" data-name="Path 695" d="M230.179,354.765v.736c0,.368-.122.676-.706.676H218.911a3.8,3.8,0,0,0,3.868,3.469,4.241,4.241,0,0,0,3.47-1.566c.215-.246.46-.4.8-.153l1.934,1.35a.592.592,0,0,1,.123.891,8.105,8.105,0,0,1-14.277-4.912,7.68,7.68,0,0,1,7.8-7.892A7.323,7.323,0,0,1,230.179,354.765Zm-3.9-1.105a3.559,3.559,0,0,0-3.624-3.1,3.707,3.707,0,0,0-3.654,3.1Z" transform="translate(-190.808 -341.103)" fill="#111"/>
      <path id="Path_696" data-name="Path 696" d="M233.31,350.555a5.3,5.3,0,0,1,4.575-2.18,7.845,7.845,0,0,1-.062,15.66,5.253,5.253,0,0,1-4.543-2.242v1.2a.616.616,0,0,1-.614.614H230a.623.623,0,0,1-.645-.614V342.726a.623.623,0,0,1,.645-.614h2.671a.642.642,0,0,1,.644.614Zm3.93,9.826a4.166,4.166,0,1,0-3.96-4.176A4.027,4.027,0,0,0,237.24,360.381Z" transform="translate(-188.013 -342.112)" fill="#111"/>
      <path id="Path_697" data-name="Path 697" d="M255.785,355.868c0-2.334-1.29-3.839-3.593-3.839a3.563,3.563,0,0,0-3.715,3.839v7.154a.618.618,0,0,1-.645.583h-2.7a.616.616,0,0,1-.614-.614V342.726a.616.616,0,0,1,.614-.614h2.7a.618.618,0,0,1,.645.583v7.86a5.888,5.888,0,0,1,4.912-2.18,6.075,6.075,0,0,1,6.356,6.418v8.228a.617.617,0,0,1-.644.583h-2.672a.617.617,0,0,1-.644-.583Z" transform="translate(-185.094 -342.112)" fill="#111"/>
      <path id="Path_698" data-name="Path 698" d="M263.463,355.984c0,2.18,1.074,3.592,3.315,3.592a3.21,3.21,0,0,0,3.408-3.53v-7.738a.59.59,0,0,1,.614-.583h2.7a.63.63,0,0,1,.645.644V361.91a.623.623,0,0,1-.645.614h-2.7a.591.591,0,0,1-.614-.583v-1.166a5.282,5.282,0,0,1-4.605,2.18c-3.807,0-6.079-2.548-6.079-6.3v-8.351a.617.617,0,0,1,.645-.583h2.671a.618.618,0,0,1,.645.583Z" transform="translate(-182.21 -341.032)" fill="#111"/>
      <path id="Path_699" data-name="Path 699" d="M285.909,349.237a.779.779,0,0,1,.031,1.228l-.983,1.166q-.506.6-1.381.092a5.99,5.99,0,0,0-3.5-1.258c-1.35,0-2.21.614-2.21,1.32s.521,1.166,1.872,1.412l2.425.461c2.61.491,4.513,1.749,4.513,4.421,0,2.856-2.671,4.944-6.6,4.944a9.333,9.333,0,0,1-5.649-1.751c-1.136-.86-1.074-1.566-.46-2.057l1.135-.921a.936.936,0,0,1,1.382.092,5.634,5.634,0,0,0,3.777,1.535c1.6,0,2.365-.706,2.365-1.474,0-.86-.8-1.135-2.365-1.473l-2.365-.491c-2.425-.491-3.991-1.965-3.991-4.392,0-2.671,2.456-4.728,6.264-4.728A8.837,8.837,0,0,1,285.909,349.237Z" transform="translate(-179.51 -341.103)" fill="#111"/>
      <path id="Path_700" data-name="Path 700" d="M301.066,354.765v.736c0,.368-.123.676-.706.676H289.8a3.8,3.8,0,0,0,3.868,3.469,4.241,4.241,0,0,0,3.47-1.566c.215-.246.46-.4.8-.153l1.934,1.35a.594.594,0,0,1,.123.891,8.105,8.105,0,0,1-14.277-4.912,7.68,7.68,0,0,1,7.8-7.892A7.323,7.323,0,0,1,301.066,354.765Zm-3.9-1.105a3.558,3.558,0,0,0-3.623-3.1,3.707,3.707,0,0,0-3.654,3.1Z" transform="translate(-177.165 -341.103)" fill="#111"/>
      <path id="Path_701" data-name="Path 701" d="M301.59,351.809h-2.026a.642.642,0,0,1-.614-.644v-2.027a.623.623,0,0,1,.614-.644h2.026v-4.114a.63.63,0,0,1,.645-.645h2.7a.624.624,0,0,1,.614.645v4.114h4.3a.648.648,0,0,1,.645.644v2.027a.669.669,0,0,1-.645.644h-4.3v6.234a1.682,1.682,0,0,0,1.689,1.9,2.692,2.692,0,0,0,1.412-.461c.46-.275.921-.275,1.2.124l.922,1.5a.726.726,0,0,1-.092,1.014A5.863,5.863,0,0,1,306.5,363.6c-2.426,0-4.913-1.351-4.913-4.667Z" transform="translate(-174.617 -341.801)" fill="#111"/>
    </g>
  </g>
</svg>
