<svg xmlns="http://www.w3.org/2000/svg" width="90.418" height="98.479" viewBox="0 0 90.418 98.479">
  <g id="Group_2456" data-name="Group 2456" transform="matrix(0.946, 0.326, -0.326, 0.946, 26.308, 0)">
    <g id="Background" transform="translate(0 0)">
      <g id="Group_57" data-name="Group 57" transform="translate(0 0)">
        <rect id="Rectangle_28" data-name="Rectangle 28" width="67.804" height="80.807" rx="10" fill="#fed317"/>
      </g>
    </g>
    <g id="Illustration" transform="translate(7.783 9.896)">
      <path id="Path_86" data-name="Path 86" d="M-370.333,1470.58l.016.044C-370.329,1470.616-370.35,1470.637-370.333,1470.58Zm.737-1.978,0,0C-369.6,1468.564-369.6,1468.577-369.6,1468.6Zm.087,4.179v0l0,0Zm-.02.107a.177.177,0,0,1,.019-.107l-.055.021Zm-1.537.553-.017-.011.011-.024.018-.04c.009-.023.013-.038.005-.043.022-.1-.019-.041-.007-.115,0,.005.008.013.015-.008a.462.462,0,0,0-.005-.07c.015-.02,0,.057.031,0a.858.858,0,0,1,.06-.269c.033-.131-.066.04-.029-.068.025-.009.054-.016.078-.083,0-.041-.021-.041-.013-.105l.031.014c.016-.057.023-.1.048-.1a.2.2,0,0,1,.025-.1c.009-.091-.085.042-.1.058.049-.077.052-.14.106-.176l-.014.078c.089-.147,0-.166.091-.218-.019.054-.021.125.007.1l.007-.084c.012-.007-.008.047.014.014a.76.76,0,0,0-.009-.1h0l.037-.144c-.009.027,0,.037.011.01l.01-.1c0,.032.019.005.038-.035.047-.117-.05-.121.014-.2,0,.013,0,.017-.006.03l.03-.044c-.072-.034.078-.286,0-.32.051-.059.021,0,.03.1l.044-.066a.585.585,0,0,0-.021.088.354.354,0,0,0,.042-.247c.022-.033.05.048.068-.061.029-.153-.066.01-.049-.082l.06-.051a.805.805,0,0,1,.09-.292.081.081,0,0,0,0-.041c.049-.1.021-.226.058-.3,0,.021.04-.035.054-.041l.014-.147a.077.077,0,0,0,.041.089.792.792,0,0,0,.008-.1c0,.021.007.042.026.023V1470a.147.147,0,0,0-.019.036.466.466,0,0,1,.054-.165c.009.008.013.029.021.037-.042.034-.025.067-.012.1.026-.1.014-.023.047-.065.021-.071-.006-.11-.033-.1a.336.336,0,0,0,.046-.189l.031.027.011-.078.026.074c.069-.135-.054-.046.015-.2l.032.01c.006-.065-.042-.1.011-.138,0-.066-.076.087-.041-.055a.377.377,0,0,0,.071-.106c0-.049-.049.022-.053.052.047-.216.152-.1.165-.3-.044.057-.048-.074-.093.079,0-.079.091-.128.078-.216l.028.063a.214.214,0,0,0,0-.079l.032.017c-.031-.113.081-.166.02-.246.05.058.018-.071.052-.1.02.091-.068.221-.015.249.028-.031.011-.072.038-.1a.227.227,0,0,0,.013.08c.069-.108.023-.2.03-.273l-.025.131c-.054-.028.008-.06-.026-.11.05-.054.021-.118.055-.163,0,.014,0,.016,0,.03.04-.139.147-.148.166-.2s.024-.164-.013-.135c0-.049-.039.189-.091.086.112-.051.016-.173.129-.326.009.085.064-.028.068.046a.177.177,0,0,0-.009-.136l.036-.016c-.031-.127-.049-.043-.034-.216.006.061.061-.052.069,0a.258.258,0,0,0,.013-.13l0,.007c.035-.169.078-.123.091-.283l-.022.009a5.693,5.693,0,0,1,.156-.66l-.037.067c.016-.018.012-.146.06-.2a.183.183,0,0,1-.006.049.079.079,0,0,0,.08-.057l-.026-.029.031-.012c.023-.075-.053.007-.03-.067.088.037.154-.458.244-.444-.023-.148-.072.178-.093.041a.222.222,0,0,0,.061-.086l-.037-.022.025-.055c.008-.017.012-.041.036-.024l.107.042.177.073.162.063a1.391,1.391,0,0,0,.138.043l-.01.007c.066.038.107.042.15.015.008.025-.046.019-.023.045.16-.071.225.158.325.1a.191.191,0,0,0,.019.132l.159.05-.051.163h0l-.666,2.121-.006.019,0,.009-.03.1v0l0,.007-.033.1a.124.124,0,0,0,0,.033c-.007.018,0,0,0-.005l0,.007-.017.067s0,0,0-.006l-.042.135h0l-.122.388a.573.573,0,0,1-.01.057c-.047.127-.109.339-.144.435l-.132.419c0,.023,0,.04.007.042a.666.666,0,0,1,.054-.185.89.89,0,0,0-.031.161c-.033.053.027-.106-.008-.034a.417.417,0,0,0-.015.076c0-.028-.021.031-.028.042l-.113.331,0,0-.026.083c0,.049,0,.091.01.077-.023.078-.033.079-.048.147.049-.1-.009.02,0,.037-.019.068-.015.021-.029.051a.114.114,0,0,0,0,.044c-.023.032-.015-.057-.033-.051l-.03.1h.007l-.006.02-.006-.006-.031.1a.073.073,0,0,0,.076-.023c.009.008-.031.06-.041.09-.044.08-.026.135-.055.205l.006-.058a.578.578,0,0,0-.033.136c-.007,0-.016-.065-.034-.034-.044.127-.045.26-.022.258l.039-.2c.018,0-.026.145,0,.143l-.06.179c.006-.023.023-.095.005-.07-.023.078-.015.04-.039.089,0-.055,0-.138,0-.211l-.048.152a.966.966,0,0,0,.021.127c-.026.069-.056.032-.057.013-.045.137.011.152-.037.29l.024-.05c-.006.034-.05.151-.039.14-.019.024-.051.042-.049.009v.135c0-.02-.034-.018-.038-.027-.017.049.012.1.027.066a.914.914,0,0,1-.085.139c-.006.029.036.009.046-.011a.481.481,0,0,1-.039.134c.013-.077-.024-.072-.055-.072l-.022.07.021.182a.134.134,0,0,0-.036-.038,1.326,1.326,0,0,1-.095.42l.006-.019c0-.029-.046.078-.048.127,0-.01,0-.02.006-.039-.052.08.018.122-.042.211.031-.089.019-.1.006-.1,0,.052-.082.261-.037.254-.017.036-.024.05-.034.071-.023-.009-.037-.017-.039-.03l-.219-.039c.013,0,.027-.01-.019-.027a1.22,1.22,0,0,0,.158.036.573.573,0,0,1,.07.016l.031.012c.007,0,.009-.012.015-.014-.017-.03-.036-.012-.036-.082,0,.01,0,.026-.01.032l-.029-.005-.057-.009a.914.914,0,0,0-.11-.01h-.179l-.146-.065-.01.01-.017-.039c-.021,0-.035,0-.038,0s0-.007.012-.009a.157.157,0,0,0-.04,0c0-.018.032-.029.066-.037l.036.031c.021,0,.037-.009.039-.017l-.055-.018-.02,0-.011-.01h.017l-.025-.008.009.008c-.079,0-.17,0-.112.038l-.082-.046a1.13,1.13,0,0,1-.24-.02c0-.014.049-.008.019-.026A.453.453,0,0,1-371.066,1473.441Zm.253-1.028c.019-.033.038-.048.017-.081C-370.816,1472.343-370.812,1472.39-370.814,1472.413Zm.319,1.213a.021.021,0,0,1-.006-.014C-370.51,1473.613-370.511,1473.617-370.495,1473.626Zm.181-2.994v0l0-.005Zm1.354.329a.175.175,0,0,1-.018.037S-368.97,1470.992-368.96,1470.961Zm.588-2.041-.008.02-.016.049Zm-.227.776a.126.126,0,0,1-.018.031l.011.006Zm-.061.241c0-.009.019-.087,0-.017C-368.664,1469.929-368.688,1470.034-368.66,1469.937Zm-.628,2.1c-.008.057-.021.085.007.066.035-.089-.013-.028.021-.108C-369.261,1471.974-369.288,1472.062-369.288,1472.038Zm-1.641.516.006.007c.011-.006.016-.02.026-.047Zm.26-.785,0,.013.04-.015Zm.154-.68c-.01.027-.011.061-.021.088C-370.524,1471.117-370.47,1471.1-370.514,1471.09Zm7.711,4.2,0,.014C-362.794,1475.29-362.794,1475.281-362.8,1475.294Zm1.331-2.157.01-.068C-361.514,1473.153-361.479,1473.123-361.472,1473.137Zm2.018-2.989.009-.008C-359.43,1470.09-359.44,1470.11-359.454,1470.148Zm-2.046,5.655,0-.005,0,.006Zm-.087.161a.473.473,0,0,1,.085-.16l-.071.026Zm-2.382,1.33c-.01-.009-.021-.017-.028-.025l.026-.034.042-.056c.023-.033.037-.056.035-.069.082-.144.009-.07.049-.153,0,.006,0,.017.017,0l.031-.1c.029-.029-.034.087.035,0a2.4,2.4,0,0,1,.23-.4c.116-.2-.1.054.011-.105.033-.012.068-.019.134-.119a.577.577,0,0,1,.052-.16l.025.024c.052-.084.089-.155.111-.142a.568.568,0,0,1,.091-.156c.065-.137-.118.056-.148.079.1-.112.142-.206.222-.255l-.063.116c.186-.213.1-.251.232-.32-.054.08-.1.187-.053.149l.059-.127c.017-.009-.037.07.006.022.015-.037.043-.116.052-.152v0l.129-.215c-.027.04-.022.056,0,.017l.072-.149c-.019.047.018.01.062-.049.123-.173.021-.188.14-.307l-.025.046.059-.062c-.057-.058.259-.426.2-.485.091-.084.021,0-.03.155l.088-.1c-.025.046-.054.079-.077.131a.95.95,0,0,0,.2-.369c.044-.048.025.076.111-.086.125-.227-.077.009,0-.128l.1-.072a2.265,2.265,0,0,1,.276-.434.216.216,0,0,0,.024-.062c.111-.14.162-.339.245-.445-.009.031.065-.049.083-.057l.105-.221c-.047.1-.022.108-.011.138.038-.065.045-.1.069-.149-.009.032-.018.063.014.036l.1-.239a.371.371,0,0,0-.043.054,1.253,1.253,0,0,1,.16-.244c0,.012,0,.044,0,.056a.168.168,0,0,0-.072.143c.09-.151.029-.033.091-.094.066-.1.062-.167.025-.153a.931.931,0,0,0,.166-.282l.017.043.06-.118-.018.115c.157-.2-.03-.074.137-.3l.029.018c.047-.1.019-.16.1-.209.038-.1-.136.125-.01-.086a.964.964,0,0,0,.141-.154c.029-.075-.066.028-.089.074.184-.322.222-.13.361-.434-.082.082-.007-.117-.149.11.051-.119.177-.185.216-.318l-.008.1a.575.575,0,0,0,.051-.12l.023.028c.036-.172.189-.243.173-.37.018.092.063-.106.119-.147-.035.139-.209.328-.169.375.049-.044.055-.107.1-.149a.488.488,0,0,0-.034.121,1.174,1.174,0,0,0,.2-.41l-.108.2c-.04-.047.045-.09.039-.169.087-.077.095-.176.16-.242-.013.02-.009.025-.022.045.129-.206.249-.21.3-.29s.126-.246.069-.205c.027-.075-.158.283-.15.122.152-.067.124-.26.339-.482-.043.13.086-.037.044.077a.418.418,0,0,0,.074-.207l.049-.02c.045-.2-.026-.069.1-.33-.031.094.1-.073.077,0a.687.687,0,0,0,.093-.194l0,.011c.141-.253.159-.178.272-.419l-.03.012c.142-.319.4-.669.574-.983l-.08.1a1.943,1.943,0,0,1,.187-.3.505.505,0,0,1-.037.073c.02.009.071-.01.121-.079l-.01-.046.04-.015c.071-.11-.061.006.009-.1.122-.012.312-.468.445-.516-.013-.114-.141.2-.143.085a.486.486,0,0,0,.1-.1l-.052,0,.282-.372c.034-.042.09-.123.146-.205l.181-.273-.008.029.018-.022.025.018.046.032a.674.674,0,0,0,.076.046.307.307,0,0,0,.122.035c.025.041-.083-.015-.03.041a.529.529,0,0,1,.2.084.676.676,0,0,1,.118.106c.07.075.128.148.207.15-.029.03-.005.094.016.154l.236.152-2.173,3.381-.019.031-.01.015-.091.141,0,0-.008.011-.1.154a.3.3,0,0,0-.024.048c-.019.027,0,0,0-.009l-.008.012-.059.1s0,0,0,0l-.494.769c-.005.013-.03.055-.046.084-.133.193-.347.536-.438.669l-.383.595c-.015.035-.023.06-.018.064a1.891,1.891,0,0,1,.172-.274,2.527,2.527,0,0,0-.133.241c-.068.077.1-.158.013-.053a1.2,1.2,0,0,0-.063.114c.019-.042-.043.046-.057.061l-.325.49,0,.005-.079.123c-.035.074-.059.137-.037.117-.072.115-.084.117-.142.218.114-.148-.022.029-.017.056-.062.1-.03.03-.063.074a.268.268,0,0,0-.027.066c-.045.047.023-.095,0-.088l-.1.152.007,0-.018.029,0-.01-.094.147c.021.013.058.009.1-.027,0,.014-.07.089-.1.132a3.557,3.557,0,0,0-.184.3l.042-.087a1.592,1.592,0,0,0-.119.2c-.008,0,.022-.1-.015-.055a.921.921,0,0,0-.182.389l.167-.3c.021,0-.117.217-.092.216l-.175.266c.021-.034.082-.141.048-.105a.686.686,0,0,1-.1.131c.037-.084.088-.208.131-.319l-.145.226c-.03.089-.048.163-.056.194-.07.1-.08.044-.07.015-.133.2-.082.232-.217.434l.057-.073c-.027.051-.147.223-.128.208-.035.035-.081.058-.058.009l-.083.2c.014-.029-.026-.03-.024-.044-.048.072-.046.146-.012.1a2.466,2.466,0,0,1-.176.2c-.025.043.034.016.056-.013a1.34,1.34,0,0,1-.124.2c.061-.116.019-.112-.014-.114l-.067.1-.089.277a.13.13,0,0,0-.015-.061,3.732,3.732,0,0,1-.36.626l.018-.029c.015-.045-.1.114-.13.187a.183.183,0,0,1,.031-.058c-.1.113-.061.193-.169.307.078-.116.08-.146.065-.148-.051.1-.2.319-.139.295-.047.057-.077.116-.092.1l-.128.251c.007-.021.006-.043-.04.025a2.4,2.4,0,0,1,.205-.334c-.02-.018-.063.024-.041-.051a4.034,4.034,0,0,0-.28.606l-.114.158-.028.038-.014.019-.021-.014-.082-.058-.016.005-.047-.068c-.044-.02-.061-.023-.066-.03s.006,0,.019,0a.445.445,0,0,0-.061-.03c0-.02.05-.011.1,0l.063.062c.033.01.051.01.05,0l-.084-.054-.029-.006-.017-.018.024.01-.037-.024.013.014c-.119-.052-.256-.108-.172-.028l-.12-.1a3.529,3.529,0,0,1-.342-.157c0-.016.051.007.022-.021a.526.526,0,0,1-.126-.069A1.5,1.5,0,0,1-363.969,1477.294Zm1.058.641c.012,0,.021-.018.03-.03a.326.326,0,0,0,.034-.058l-.045.059Zm-.194-2.141c.041-.049.071-.068.068-.121C-363.065,1475.688-363.09,1475.76-363.105,1475.794Zm-.059,2.022a.026.026,0,0,1-.007-.019C-363.186,1477.793-363.189,1477.8-363.164,1477.816Zm1.69-4.666,0,0a.019.019,0,0,0,0-.008Zm1.683-.046a.607.607,0,0,1-.042.054S-359.821,1473.149-359.791,1473.1Zm1.887-3.03-.021.03-.048.073Zm-.721,1.152a.34.34,0,0,1-.039.045l.008.01Zm-.214.358c0-.013.074-.129,0-.026C-358.837,1471.571-358.929,1471.728-358.838,1471.584Zm-1.966,3.117c-.045.086-.076.126-.033.1.091-.13,0-.043.088-.159C-360.736,1474.606-360.82,1474.737-360.8,1474.7Zm-2.452,1.239-.059.057,0,.011C-363.3,1476-363.284,1475.98-363.257,1475.94Zm.7-1.105-.014.02.052-.02Zm.583-1.012-.076.131C-362,1473.863-361.926,1473.836-361.97,1473.823Zm12.284,4.248-.023.053C-349.647,1478.077-349.683,1478.085-349.686,1478.07Zm-2.347,1.6-.009,0C-352.067,1479.71-352.054,1479.7-352.034,1479.672Zm1.27-2.573,0,0,.005,0Zm.109-.095a.3.3,0,0,1-.107.1l.065.009Zm3.2-.531-.249.161a.352.352,0,0,1-.074.043.2.2,0,0,1-.055.014l.087-.077c-.223.111-.144.169-.274.172.062-.042.125-.111.077-.1l-.078.08c-.016,0,.046-.042,0-.021a1.132,1.132,0,0,0-.077.1v0l-.155.122c.031-.021.031-.037,0-.016l-.093.092c.027-.031-.012-.016-.063.014-.141.09-.059.146-.185.193.015-.011.015-.016.031-.027l-.063.026c.035.072-.31.24-.274.314-.095.03-.017-.012.059-.116l-.095.041a.9.9,0,0,0,.093-.075.6.6,0,0,0-.246.221c-.048.02,0-.073-.112.023-.154.135.066.026-.026.107l-.1.018a1.4,1.4,0,0,1-.327.239.138.138,0,0,0-.034.041c-.124.068-.21.211-.3.262.014-.022-.065.013-.082.011l-.136.137c.061-.06.042-.08.04-.11-.047.038-.061.066-.091.093.015-.023.029-.045,0-.036l-.134.155a.232.232,0,0,0,.048-.026.8.8,0,0,1-.188.133c0-.012.013-.035.012-.047a.109.109,0,0,0,.092-.087c-.109.085-.032.015-.1.038-.078.059-.089.112-.055.115a.582.582,0,0,0-.2.161l-.005-.043-.076.071.04-.087c-.175.1.009.074-.181.187l-.021-.027c-.06.061-.05.125-.127.131-.054.065.141-.045-.01.076a.606.606,0,0,0-.153.066c-.04.05.062.005.091-.022-.224.187-.215.011-.4.2.087-.032-.02.1.149-.027-.069.077-.189.077-.251.17l.028-.078a.362.362,0,0,0-.069.078l-.014-.034c-.068.127-.212.119-.226.231.006-.084-.076.06-.132.071.059-.1.247-.181.224-.237-.051.015-.07.065-.118.079a.345.345,0,0,0,.056-.086c-.152.069-.187.181-.258.253l.134-.115c.023.057-.058.055-.07.122-.09.026-.118.1-.187.131.016-.011.013-.017.029-.028-.153.115-.255.066-.317.109s-.16.148-.1.14c-.04.05.194-.166.153-.036-.143-.01-.16.162-.39.252.065-.089-.081-.007-.02-.083a.274.274,0,0,0-.107.139l-.045,0c-.08.142.007.068-.153.231.046-.064-.1.018-.065-.033a.426.426,0,0,0-.121.12l0-.008c-.174.148-.173.079-.32.229l.027,0c-.189.2-.484.379-.7.565l.089-.046c-.03.01-.134.138-.222.165a.28.28,0,0,1,.047-.045c-.015-.016-.061-.022-.119.013v.043l-.037,0c-.083.06.053.021-.03.082-.105-.043-.364.253-.487.235-.014.1.163-.107.139-.009a.306.306,0,0,0-.108.043l.044.021a5.511,5.511,0,0,0-.6.377l0-.014c-.089.044-.128.082-.141.14-.029-.005.022-.055-.019-.048-.073.2-.33.137-.368.265-.019-.037-.077-.045-.133-.053l-.179.13-.682-.943,1.623-1.177.022-.017.012-.008.107-.078,0,0,.008-.005.118-.086a.169.169,0,0,0,.031-.029c.022-.014,0,0,0,.007l.009-.007.071-.055s0,0,0,.007l.59-.428c.007-.008.037-.032.057-.05.154-.1.411-.3.516-.365l.449-.326c.02-.022.033-.04.029-.045a1.113,1.113,0,0,1-.2.152,1.57,1.57,0,0,0,.164-.141c.074-.035-.114.089-.022.038a.667.667,0,0,0,.078-.067c-.025.027.046-.019.061-.026l.38-.266.005,0,.093-.068c.045-.046.08-.088.056-.081.086-.064.1-.06.167-.119-.127.073.025-.015.027-.038.074-.058.032-.012.069-.035.011-.01.038-.038.037-.043.048-.02-.035.064-.013.067l.109-.079-.005,0,.022-.016v.01l.112-.081a.075.075,0,0,0-.086-.019c0-.013.078-.043.112-.066.106-.056.137-.119.221-.172l-.055.053a1.011,1.011,0,0,0,.144-.117c.007,0-.04.072,0,.052.146-.1.259-.232.238-.243l-.206.179c-.018-.008.145-.129.124-.139l.2-.144c-.025.02-.1.081-.064.066a.424.424,0,0,1,.11-.066c-.05.053-.119.134-.18.207l.172-.124a1.55,1.55,0,0,0,.089-.136c.081-.054.076,0,.062.017.155-.11.119-.156.278-.265l-.063.035c.034-.03.172-.121.153-.117.037-.014.08-.014.05.018l.114-.133c-.017.018.015.036.01.047.056-.039.071-.1.033-.079a1.471,1.471,0,0,1,.192-.091c.03-.025-.025-.028-.05-.014a.838.838,0,0,1,.147-.11c-.076.069-.04.084-.013.1l.079-.057.135-.191a.128.128,0,0,0,0,.057,2.34,2.34,0,0,1,.439-.362l-.021.016c-.022.031.107-.052.15-.1,0,.012-.017.019-.039.035.111-.049.093-.134.209-.181-.09.062-.1.086-.086.095.065-.063.241-.175.181-.184.051-.027.09-.062.1-.042l.163-.152c-.01.014-.015.032.039,0-.1.069-.176.172-.245.188.013.023.059.007.023.06a2.547,2.547,0,0,0,.368-.38l.181-.108v-.016l.048,0c.017-.022.027-.037.033-.038s0,.007,0,.017a.286.286,0,0,0,.038-.037c.017.009,0,.046-.023.084l-.057.02c-.014.023-.023.041-.018.048l.063-.045.013-.022.018-.005-.015.016.029-.021-.014.005c.069-.077.147-.166.061-.13l.11-.057a2.284,2.284,0,0,1,.207-.216c.015,0-.017.04.014.028a.745.745,0,0,1,.224-.156.263.263,0,0,1,.026-.012l.017.03.029.049c.017.027.03.043.041.043.086.1.065.038.113.086,0,0-.015,0,0,.015l.067.048c.011.031-.057-.047-.014.03a1.484,1.484,0,0,1,.232.282c.111.14,0-.092.083.032,0,.03-.013.061.04.139a.34.34,0,0,1,.141.122l-.039,0c.077.1.138.187.105.182a.488.488,0,0,1-.158.134c-.067.061-.032.057.04.024S-347.486,1476.488-347.455,1476.474Zm-1.667-.524a.2.2,0,0,0-.078.051A.4.4,0,0,0-349.122,1475.95Zm1.416.608c-.074.043-.105.049-.111.091.014,0,.027-.011.046-.029Zm-1.3-.734a.019.019,0,0,1,.017,0C-348.983,1475.815-348.986,1475.812-349.008,1475.823Zm-.674,2.238,0,0a.016.016,0,0,0,0,.007Zm-3.059.507s-.013,0-.047.026A.317.317,0,0,1-352.741,1478.568Zm-2.214,1.663-.08.055.024-.015Zm.815-.619-.038.033a.231.231,0,0,1,.042-.021Zm.22-.171c-.006.009-.091.074-.01.019C-353.923,1479.451-353.812,1479.361-353.92,1479.441Zm2.332-1.73c.056-.052.091-.072.05-.069-.105.068-.012.034-.109.094C-351.665,1477.76-351.567,1477.688-351.588,1477.711Zm4.062-1.4-.016-.009a.337.337,0,0,0,.056.1Zm-.914.8.032.016.015-.011Zm-.679.6.093-.076C-349.087,1477.7-349.152,1477.689-349.118,1477.719Zm-35.13,27.22.061.1Zm-.341-.767-.016-.016C-384.588,1504.19-384.579,1504.2-384.589,1504.171Zm2.467-5.455.217-.069Zm1.656,8.38.133-.032C-380.541,1507.072-380.45,1507.08-380.466,1507.1Zm-.8-4.573.026-.029C-381.243,1502.488-381.253,1502.5-381.267,1502.523Zm-2.32,4.983-.008-.005C-383.568,1507.521-383.573,1507.518-383.587,1507.507Zm7.377-5.638,0-.024C-376.249,1501.739-376.237,1501.786-376.21,1501.868Zm-9.177-1.984-.006.011.01-.014Zm.212-.351a2.381,2.381,0,0,1-.208.348l.113-.089Zm3.186,8.72c.28.091-.327-.091-.115-.015.02,0,.383.095.6.125-.055-.017-.378-.082-.6-.142Zm5.751-4.941c-.006.03-.012.07-.02.124C-376.252,1503.4-376.245,1503.354-376.237,1503.313Zm-9.907.223c0,.034.01.068.015.1C-386.134,1503.607-386.139,1503.572-386.144,1503.536Zm9.035-5.253-.063-.049Zm-5.158,9.9c.1.027-.125-.055-.167-.074a5.327,5.327,0,0,1-.967-.481l-.036-.022c-.05-.031-.095-.058-.15-.094a.5.5,0,0,1-.039-.032c-.054-.037-.11-.07-.163-.109-.025-.018-.047-.039-.072-.058-.148-.1-.266-.187-.223-.138a4.349,4.349,0,0,1-.425-.391c.282.3-.055-.059-.1-.077-.184-.19-.056-.074-.134-.167a1.314,1.314,0,0,0-.11-.112c-.081-.117.155.138.141.1-.089-.1-.175-.2-.255-.31l0,.006a.5.5,0,0,1-.046-.06l.014.008c-.077-.1-.146-.212-.215-.32-.02.014-.016.072.038.175a2.943,2.943,0,0,1-.19-.314c-.144-.3-.265-.442-.36-.708l.093.193c-.012-.046-.184-.421-.206-.482,0-.01.109.186.068.066-.167-.471-.291-.932-.3-.9l.092.376.126.366c-.008.031-.182-.519-.181-.487-.034-.163-.064-.327-.087-.491.009.057.016.091.015.04a3.307,3.307,0,0,1-.03-.362,4.7,4.7,0,0,0,.179.738,5.648,5.648,0,0,1-.1-.6c0-.011-.006-.025-.009-.036-.043-.178-.079-.316-.085-.379,0-.276.041-.179.049-.115-.009-.268-.016-.4-.015-.535a2.061,2.061,0,0,1,.038-.539l-.044.2c.019-.128.108-.587.093-.54.038-.1.091-.19.065-.073l.093-.475c-.017.07.029.036.026.067.062-.182.08-.321.029-.21a2.93,2.93,0,0,1,.269-.527c.049-.1-.038-.008-.078.064a4.076,4.076,0,0,1,.241-.464c-.129.26-.072.226-.03.209.044-.081.09-.162.139-.243.025-.051.051-.1.075-.153.066-.134.131-.272.21-.4a.3.3,0,0,0-.022.1,2.654,2.654,0,0,1,.388-.513,5.1,5.1,0,0,1,.713-.65l-.059.047a4.157,4.157,0,0,0,.419-.288.865.865,0,0,1-.119.086,4.892,4.892,0,0,1,.661-.415c-.279.14-.321.189-.3.192.21-.148.757-.371.629-.358.155-.056.292-.111.285-.086l.286-.118.183-.074.112-.043c.031,0,.034.062.052.091-.029-.065-.055-.1.032.147l-.064-.175-.016-.042c-.011,0-.028.008-.042.012l-.084.031-.251.1a2.594,2.594,0,0,1-.351.125c0,.028.128-.006-.019.075l.418-.172.189-.081.1-.043c.031-.006.032.052.05.075l.276.6.1.289.068.2a.7.7,0,0,1-.19.078l-.029.024-.111.007a.992.992,0,0,1-.124.057c-.013,0,0-.009.028-.023-.058.023-.11.045-.136.058-.027-.008.063-.062.162-.118l.16-.039c.074-.037.111-.061.1-.067l-.2.074-.058.032-.05.012.055-.025-.1.035.04-.01c-.262.112-.542.264-.3.188-.107.037-.212.078-.317.121a5.6,5.6,0,0,0-.661.469c-.029.006.069-.078-.006-.034a5.232,5.232,0,0,0-.691.631c-.175.225-.055.109-.157.258,0-.009.006-.027-.026.014-.038.061-.067.128-.1.192-.055.067.092-.175-.048.021a3.657,3.657,0,0,0-.242.465c-.072.137-.12.275-.188.432-.157.46.111-.181-.022.206a.858.858,0,0,0-.146.343,2.314,2.314,0,0,1-.019.35l-.031-.019c-.028.212-.025.383-.054.383,0,.176.012.3,0,.387.025.322.063-.24.079-.311-.029.313,0,.529-.015.712l-.04-.278c.017.6.133.551.111.84-.041-.2-.11-.442-.1-.319l.08.291c0,.037-.042-.167-.024-.029a2.771,2.771,0,0,0,.132.314l0,0a4.561,4.561,0,0,0,.2.5c-.038-.095-.06-.113-.021-.017s.121.2.18.3c-.058-.092-.02.014.057.153.245.388.269.255.464.547l-.073-.083.1.15c.042-.012.226.178.427.349s.42.319.461.293c.2.157,0,.038-.283-.134a2.362,2.362,0,0,0,.207.18c-.1-.058-.167-.119-.262-.189a2.076,2.076,0,0,0,.766.45c.119.067-.128.015.237.161.522.182-.076-.091.236.016.069.041.142.076.213.115a7.369,7.369,0,0,0,1.078.169.886.886,0,0,0,.139-.011,4.1,4.1,0,0,0,1.058-.169c-.062.028.163-.015.2-.015a4.124,4.124,0,0,0,.47-.207c-.2.1-.186.118-.215.159a3,3,0,0,0,.312-.155c-.057.037-.115.074-.032.049a4.283,4.283,0,0,0,.458-.294c-.029.012-.084.042-.129.067.12-.064.351-.24.515-.342-.006.02-.053.069-.061.086a.837.837,0,0,0-.272.207c.312-.211.082-.045.242-.133.215-.16.271-.262.2-.234a2.115,2.115,0,0,0,.486-.5l-.009.069c.057-.075.117-.147.169-.224-.032.071-.072.137-.109.206.187-.2.181-.235.19-.269s.02-.075.189-.321l.03.016c.111-.2.094-.3.208-.443.076-.209-.2.32.008-.152a2.012,2.012,0,0,0,.188-.4c.034-.164-.073.109-.11.207a4.479,4.479,0,0,1,.222-.585,1.176,1.176,0,0,0,.11-.557c-.044.193-.042-.061-.08.138a1.8,1.8,0,0,0,.038-.591c.018.061.03.122.045.185a1.47,1.47,0,0,0-.025-.273l.036.022a2.932,2.932,0,0,0-.167-.848c.1.126-.065-.253-.09-.39.146.259.2.805.251.837,0-.139-.048-.254-.06-.386.03.088.066.218.084.251a2.417,2.417,0,0,0-.308-.933,4.031,4.031,0,0,1,.166.452c-.066-.021-.069-.206-.161-.316a3.089,3.089,0,0,0-.248-.567c.025.045.03.046.053.093-.244-.456-.266-.623-.391-.794a1.5,1.5,0,0,0-.232-.25c-.064-.054-.1-.061-.065-.013-.036-.023.029.032.12.142s.177.24.055.148a.756.756,0,0,0-.117-.189.642.642,0,0,0-.11-.1c-.009,0-.02-.021-.029-.016l-.024.042c-.016.027-.032.054-.051.08l-.1.131q-.068.087-.151.182c.144-.257-.144.108-.011-.119a1.86,1.86,0,0,0-.238.412l-.08.06a3,3,0,0,1-.349.647c.1-.185-.183.18-.106.036a3.319,3.319,0,0,0-.257.4l.01-.021c-.36.527-.337.4-.65.894l.049-.036c-.1.162-.214.331-.333.5l-.4.559-.149.205-.075.1c-.01.03-.029,0-.046-.006l-.051-.037-.38-.273-.594-.418.278.219-.089-.062-.281-.2-.079-.057-.04-.029c-.014-.01-.033-.018-.014-.033l.114-.16c.075-.1.156-.21.215-.279-.04.059-.116.18-.161.237a.365.365,0,0,0,.109-.089c.027-.027.058-.061.092-.1s.052-.059.081-.1l.016-.079.066-.047c.169-.234-.089.04.08-.194.177-.079.737-1,.953-1.152.057-.2-.328.437-.255.224a2.152,2.152,0,0,0,.208-.238l-.072.027c.53-.695.756-.943,1.2-1.58l-.01.031a1.538,1.538,0,0,0,.3-.463c.051-.034-.057.134.02.057a2.05,2.05,0,0,1,.406-.58c.074-.082.147-.158.207-.232a1.237,1.237,0,0,0,.08-.109,1.105,1.105,0,0,0,.078-.139c.015.05.124-.031.2-.071l.025-.034.471.342h0a5.645,5.645,0,0,1,1.278,1.295l.078.11-.071-.1c.107.15.2.3.3.465l.012.021.022.04c.021.037.042.078.064.12a5.522,5.522,0,0,1,.242.528l-.019-.048.029.073a5.677,5.677,0,0,1,.323,1.177,5.674,5.674,0,0,1,.036,1.469c0-.007,0,.037-.007.081,0,.013,0,.027,0,.04l0-.008,0,.024a5.613,5.613,0,0,1-1.028,2.593l-.006.008-.061.081c-.072.094-.054.067,0,0q-.1.135-.211.263l-.05.065-.011.011c-.015.018-.031.033-.046.05-.153.164-.315.325-.324.34-.059.056.015-.02.01-.017l-.013.012-.053.049-.149.137c-.018.013.01-.015.052-.056a5.541,5.541,0,0,1-.5.385l.041-.023c-.042.031-.086.06-.13.088l.053-.04a5.562,5.562,0,0,1-.852.478l0,0-.025.01c-.124.055-.248.109-.375.155.005,0-.125.049-.206.079a3.78,3.78,0,0,1-.695.16c-.042.008-.082.019-.124.026a5.756,5.756,0,0,1-.9.071,5.59,5.59,0,0,1-.982-.09c-.053-.01-.093-.017-.109-.022q-.226-.045-.448-.109a.529.529,0,0,0-.171-.027l.082.024Zm3.5-.006.135-.047c-.052.018-.105.033-.158.049C-378.808,1508.182-378.807,1508.184-378.767,1508.172Zm-2.742-10.026c.015.079.09.216.078.279.026,0,.012-.02.009-.034l-.013-.044-.027-.085A.964.964,0,0,0-381.509,1498.146Zm-3.287,5.092c.007-.059-.027-.216-.028-.3A.556.556,0,0,0-384.8,1503.238Zm-1.363.185c0,.038.01.075.015.113C-386.15,1503.492-386.155,1503.449-386.159,1503.423Zm4.266-4.79a.066.066,0,0,1-.037,0C-381.959,1498.648-381.958,1498.652-381.893,1498.633Zm1.4,8.468h.012a.025.025,0,0,0,.013-.006Zm-4.361-.68c-.005,0,.015.028.092.121Zm7.066,1.335.238-.135-.07.039Zm-2.746.7-.009.013a1.073,1.073,0,0,0,.14-.011A.564.564,0,0,1-380.532,1508.451Zm-.792-.04c.031,0,.327.038.056,0C-381.3,1508.412-381.7,1508.35-381.324,1508.411Zm-4.86-5.982c-.034.357.013.086,0,.408.009.083,0-.264.012-.178C-386.173,1502.445-386.152,1502.332-386.184,1502.429Zm.02.34c0-.059-.006-.088-.007-.109C-386.168,1502.693-386.166,1502.729-386.164,1502.77Zm1.4-.264.032-.168-.007-.017A.921.921,0,0,0-384.768,1502.505Zm.693,2.7,0-.054-.028-.042Zm1.886,1.479c-.091-.04-.2-.085-.289-.133C-382.282,1506.649-382.182,1506.739-382.189,1506.688Zm5.085-15.194-.009-.01C-377.109,1491.5-377.106,1491.507-377.1,1491.494Zm.232,2.189.045.042C-376.855,1493.644-376.856,1493.684-376.872,1493.682Zm1.962,2.408.007.007C-374.857,1496.107-374.875,1496.1-374.91,1496.09Zm1.227-8.167,0,0h0Zm-.156.048a.335.335,0,0,1,.154-.049l-.063-.035Zm-.663.187h0l-.028.012Zm-1.339.878a.024.024,0,0,1-.018,0C-375.866,1489.049-375.863,1489.052-375.841,1489.036Zm-1.039,4.639v.005l.007,0Zm5.987-5.41a.375.375,0,0,1-.052-.032S-370.937,1488.243-370.893,1488.265Zm1.532,1.169-.012,0,.04.042A.338.338,0,0,1-369.361,1489.434Zm-.205-.221c-.011-.006-.131-.118-.023-.009C-369.577,1489.209-369.494,1489.3-369.567,1489.213Zm-2.887-1.356c.034-.006-.1-.015-.07-.019-.086,0-.131,0-.093.021C-372.475,1487.874-372.581,1487.838-372.454,1487.857Zm-4.409,2.907c-.013.01-.021.029-.037.068l.042-.059Zm-.254,1.169-.036.037.034-.016Zm.108,1.028c-.007-.041-.022-.087-.026-.128C-377.018,1492.92-377.05,1492.978-377.009,1492.96Zm9.745-1.587,0,.025v0Zm0,.025Zm-.37,3.013,0,.007C-367.642,1494.433-367.644,1494.439-367.631,1494.411Zm-10.714-3.862.007.014C-378.337,1490.541-378.339,1490.531-378.345,1490.549Zm1.516-2.533.034-.073C-376.879,1488.026-376.832,1488-376.829,1488.016Zm3.85-1.512.013,0C-372.907,1486.49-372.934,1486.493-372.979,1486.5Zm-3.372,10.233.006,0-.006-.006Zm-.173-.124a.789.789,0,0,1,.172.122l-.027-.079Zm-2.1-4.594a.314.314,0,0,0,.061-.2.589.589,0,0,1-.026-.193l.032.012c.011-.116.014-.21.041-.207a.749.749,0,0,1,.026-.208c.01-.178-.089.116-.108.157a1.424,1.424,0,0,1,.12-.381l-.022.153c.107-.312.018-.317.127-.446-.031.108-.047.242-.011.183l.023-.161c.014-.016-.017.092.012.022l.013-.186v0c.025-.082.047-.165.075-.247,0,.02,0,.02.018-.017l.049-.187c-.011.059.017.005.057-.072.106-.222,0-.217.119-.375l-.024.057.058-.082c-.07-.061.274-.518.222-.576.1-.1.02,0-.041.179l.1-.117c-.029.054-.061.094-.088.154a1.628,1.628,0,0,0,.241-.429c.053-.055.013.083.131-.1.17-.252-.083.009.02-.143.037-.027.078-.052.117-.076a1.975,1.975,0,0,1,.408-.447.28.28,0,0,0,.046-.064c.162-.133.3-.33.432-.418-.023.03.089-.034.111-.035.072-.063.142-.131.217-.191-.1.081-.077.1-.081.136.07-.055.1-.089.146-.125-.026.028-.052.056-.006.04.075-.066.149-.135.228-.2a.517.517,0,0,0-.074.035,1.426,1.426,0,0,1,.3-.168c0,.014-.031.04-.035.053a.22.22,0,0,0-.154.108c.175-.108.048-.02.142-.053.127-.068.163-.128.119-.131a1.676,1.676,0,0,0,.343-.177l-.014.048c.044-.026.091-.049.137-.071l-.1.09c.282-.087.024-.084.338-.182l.012.032c.114-.052.137-.125.244-.113.112-.055-.216.014.06-.075a2.059,2.059,0,0,0,.245-.028c.065-.027-.012-.028-.078-.017.347-.089.251.055.6-.053-.135,0,.1-.089-.212-.03.145-.052.3,0,.452-.059l-.1.059a1.2,1.2,0,0,0,.147-.039l-.009.036c.187-.082.359,0,.471-.083-.079.065.145-.008.222.02-.159.039-.457.01-.475.071.074.012.139-.017.211,0a.621.621,0,0,0-.139.041,2.075,2.075,0,0,0,.527-.057l-.261.011c.021-.059.117-.009.192-.055.13.034.235,0,.341.022-.028,0-.031,0-.059,0,.286.022.351.134.46.154s.317.034.249-.008c.093,0-.374-.049-.2-.1.143.116.34.023.668.178-.158-.009.073.075-.067.063a.584.584,0,0,0,.252.027l.039.043c.228.014.069-.043.394.048-.113-.022.107.093.019.079a1.289,1.289,0,0,0,.239.08l-.013,0c.312.135.23.158.512.282l-.016-.032a4.786,4.786,0,0,1,1.09.779l-.1-.112a1.844,1.844,0,0,1,.3.291.66.66,0,0,1-.074-.064c-.013.019,0,.077.065.154l.051.007.008.048c.1.116.006-.066.109.05-.01.125.409.527.4.694.118.048-.151-.248-.034-.188a.734.734,0,0,0,.068.157l.017-.052a10.224,10.224,0,0,1,.454.958l-.015-.012a.476.476,0,0,0,.135.262c-.01.036-.054-.061-.053,0,.2.209.081.515.19.646-.042,0-.069.078-.1.145.022.1.048.2.064.308a5.678,5.678,0,0,1,.065.958v.007c0,.12-.008.24-.017.359,0,.041-.006.083-.011.128a5.567,5.567,0,0,1-.392,1.569c.021-.043,0,.014-.014.042,0,0,.013-.034,0-.006a5.678,5.678,0,0,1-.635,1.141c-.075.1-.156.2-.237.3a.28.28,0,0,1-.032.046l-.047.053-.076.086a.562.562,0,0,0-.064.079c-.03.03.006-.012,0-.011l-.1.112c-.012.008.008-.017.035-.049-.075.077-.148.157-.226.23h0l-.062.053,0,0a5.525,5.525,0,0,1-.656.5l.016-.007c.027-.018.055-.035.08-.054s-.036.035-.081.066a5.593,5.593,0,0,1-.862.458c.033-.013.079-.034.123-.056q-.248.115-.508.206a.5.5,0,0,1-.07.022q-.112.038-.225.071c-.055.023-.091.041-.089.049.107-.034.318-.111.354-.112-.1.044-.289.1-.3.112-.116.017.2-.064.052-.034-.075.022-.106.037-.141.05.049-.02-.071.007-.095.008a3.8,3.8,0,0,1-.526.093q-.213.032-.426.049c-.027.008-.038.015-.021.017-.157.014-.166.005-.3.021.213,0-.042,0-.064.021-.137.007-.048-.007-.111-.011a.364.364,0,0,0-.081.011c-.076-.014.118-.03.081-.046-.068,0-.135,0-.2-.008l0,.01-.039,0,.013-.01c-.068,0-.135-.007-.2-.013,0,.025.021.057.08.075a1.21,1.21,0,0,1-.188-.03c-.171-.038-.266-.018-.409-.051l.111.008c-.023-.009-.234-.038-.269-.042,0-.007.115-.01.052-.032a1.585,1.585,0,0,0-.49-.066q.2.047.393.078c.01.023-.28-.049-.27-.026-.118-.035-.237-.07-.353-.113.044.016.182.053.132.027a.8.8,0,0,1-.175-.07,3.184,3.184,0,0,0,.405.06c-.1-.028-.2-.057-.3-.091-.11-.012-.2-.017-.234-.022-.131-.055-.07-.074-.036-.069a4.807,4.807,0,0,1-.528-.182l.091.055c-.063-.022-.272-.147-.253-.127-.044-.036-.075-.085-.018-.06-.078-.031-.158-.059-.235-.094.033.016.031-.026.047-.022-.083-.055-.165-.059-.114-.02a2.048,2.048,0,0,1-.231-.2c-.049-.031-.018.033.015.06a1.449,1.449,0,0,1-.218-.16c.131.085.123.035.126,0-.036-.027-.069-.056-.1-.084-.1-.049-.2-.1-.3-.149a.136.136,0,0,0,.068,0,2.691,2.691,0,0,1-.61-.566l.026.029c.042.033-.1-.142-.161-.209.015.008.027.026.052.056-.089-.15-.182-.146-.262-.309.092.133.122.15.129.135-.091-.1-.25-.36-.248-.284-.04-.076-.086-.138-.063-.143-.061-.09-.127-.177-.184-.27.015.02.036.032-.006-.054.079.165.205.3.233.391.025-.01,0-.075.065-.014-.194-.288-.322-.438-.445-.627q-.059-.145-.1-.294l-.017-.007.01-.062c-.021-.034-.037-.054-.036-.063s.007,0,.017.013a.545.545,0,0,0-.033-.071c.013-.018.047.028.085.076l.014.085c.026.035.049.06.053.045-.013-.033-.029-.064-.041-.1l-.026-.033,0-.027.019.033c-.007-.019-.015-.038-.022-.057l0,.024c-.067-.131-.148-.283-.125-.151-.014-.059-.027-.118-.036-.178a2.471,2.471,0,0,1-.16-.407c.008-.016.034.049.031,0-.08-.177-.04-.459-.076-.495-.028-.15-.04-.059-.06-.155,0,0,.013.013.01-.016l-.036-.113c.005-.047.027.1.026-.026a2.007,2.007,0,0,1-.039-.538C-378.585,1491.865-378.633,1492.244-378.627,1492.019Zm8.47,5.184h0l-.069.038Zm-5.567-8.32a.314.314,0,0,0,.084-.066A.427.427,0,0,0-375.723,1488.882Zm-1.3,2.225c.021-.019.019-.087.025-.12C-377.026,1491.039-377.045,1491.064-377.026,1491.108Zm-.153.793c-.022.188.073.154.036.3,0-.02,0-.024,0-.045l-.017.074c.071.016.029.437.115.445-.021.107-.02.011-.07-.121l-.012.114c-.008-.045,0-.084-.017-.132a.649.649,0,0,0,.074.361c0,.057-.07-.035-.027.122.059.221.051-.053.087.078l-.02.105a3.121,3.121,0,0,1,.124.433.155.155,0,0,0,.031.05,2.9,2.9,0,0,0,.2.395c-.02-.021,0,.073,0,.09.042.058.081.117.126.172-.058-.074-.077-.059-.108-.062a.924.924,0,0,0,.088.115c-.022-.019-.045-.039-.037,0,.051.057.1.115.155.168a.293.293,0,0,0-.027-.054,1.2,1.2,0,0,1,.139.213c-.012,0-.037-.016-.05-.016a.135.135,0,0,0-.091-.108c.089.127.015.036.04.109.065.089.121.1.122.067a.623.623,0,0,0,.184.219l-.044.006c.027.028.056.054.084.08l-.1-.041c.128.184.074-.01.225.184l-.024.024c.077.058.137.043.163.12.081.047-.082-.139.081,0a.575.575,0,0,0,.11.147c.063.031-.014-.063-.049-.089.256.193.077.223.339.36-.066-.078.105-.005-.083-.144.1.052.149.169.267.2l-.088,0a.34.34,0,0,0,.106.044l-.027.024c.155.025.218.164.333.133-.083.029.1.047.137.092-.129-.008-.3-.159-.344-.116.039.044.1.042.137.083a.434.434,0,0,0-.112-.02.8.8,0,0,0,.383.139l-.184-.074c.041-.046.084.03.154.011.075.072.166.056.231.106-.019-.009-.023,0-.042-.012.2.076.224.188.306.216s.244.044.194,0c.07,0-.28-.062-.139-.1.091.126.249.037.494.151-.121.01.058.066-.05.07a.33.33,0,0,0,.2-.016l.034.035c.175-.049.047-.05.3-.067-.086.019.1.049.032.067a.44.44,0,0,0,.19-.019l-.009,0c.253-.015.21.038.44-.012l-.025-.016a7.152,7.152,0,0,0,.964-.232l-.109.016a2.233,2.233,0,0,1,.289-.1.384.384,0,0,1-.064.031c.009.02.056.039.128.018l.015-.042.038.013c.106-.042-.049-.033.057-.075.1.068.449-.194.571-.177.032-.1-.193.1-.15,0a.355.355,0,0,0,.122-.037l-.043-.024a2.593,2.593,0,0,0,.667-.412l0,.015c.093-.061.134-.105.142-.168.03,0-.019.063.024.046.058-.216.335-.219.351-.368.026.033.085.022.142.011.055-.067.112-.133.163-.2h0a4.451,4.451,0,0,0,.8-3.331,4.505,4.505,0,0,0-.125-.544l-.006-.014c0-.011,0-.012,0-.01a4.419,4.419,0,0,0-.38-.906l-.019-.028a2.475,2.475,0,0,0-.153-.257c-.025-.038-.051-.076-.078-.113-.044-.063-.087-.121-.122-.169a4.506,4.506,0,0,0-.5-.541c-.024-.014-.042-.022-.046-.018a1.126,1.126,0,0,1,.213.2,1.337,1.337,0,0,0-.191-.16c-.057-.074.125.11.046.019a.942.942,0,0,0-.091-.074c.035.022-.034-.045-.047-.059-.112-.1-.192-.161-.293-.242h0l-.089-.064c-.051-.036-.1-.071-.156-.1s-.12-.046-.1-.026a1.9,1.9,0,0,0-.2-.117c.14.093-.028-.018-.052-.01-.1-.046-.029-.025-.072-.05a.239.239,0,0,0-.063-.016c-.046-.035.081.006.08-.011-.049-.024-.1-.047-.149-.069v0l-.029-.012.007,0c-.048-.021-.1-.042-.145-.061a.079.079,0,0,0,.038.085c-.012.007-.09-.047-.133-.065a1.721,1.721,0,0,0-.305-.093l.085.014a1.031,1.031,0,0,0-.2-.049c0-.008.093-.012.044-.033a.639.639,0,0,0-.385-.029c.1.009.205.024.307.043.007.017-.219-.032-.21-.008-.093-.019-.185-.038-.279-.051.036,0,.145.015.1,0a.562.562,0,0,1-.142-.031c.079-.006.2-.008.3-.01-.078-.015-.157-.03-.236-.042a1.111,1.111,0,0,0-.174.036c-.109-.015-.068-.05-.04-.055a4.225,4.225,0,0,0-.437.035.658.658,0,0,1,.082.007,1.365,1.365,0,0,0-.218.017c-.043-.007-.084-.03-.036-.041l-.191.055c.028-.006.006-.038.018-.046-.079,0-.129.05-.079.052a2.169,2.169,0,0,1-.242-.02c-.044.007.01.036.043.037-.1.018-.157.032-.206.036.11-.032.085-.06.066-.085-.038.007-.076.016-.114.024-.077.041-.154.081-.228.125a.131.131,0,0,0,.027-.053c-.022.034-.382.144-.575.226.032-.027-.132.031-.19.074.008-.011.023-.017.051-.03-.135.032-.135.122-.27.159.111-.055.126-.079.115-.088-.087.056-.3.161-.234.175-.061.026-.108.06-.115.039-.065.054-.132.1-.193.161.012-.015.018-.035-.043.006.116-.078.21-.185.289-.2-.01-.025-.064-.009-.016-.063a1.848,1.848,0,0,0-.436.412q-.1.066-.194.139v.016l-.053,0c-.017.026-.027.043-.034.045s0-.007,0-.018a.3.3,0,0,0-.037.048c-.018-.006,0-.051.019-.094l.062-.031a.128.128,0,0,0,.021-.052c-.023.021-.048.039-.071.06l-.012.023-.019.009.013-.017-.027.025.014-.007c-.069.1-.143.207-.055.151-.038.027-.075.056-.111.086l-.181.285c-.016,0,.01-.046-.019-.024-.061.135-.249.256-.238.3-.059.1,0,.056-.035.125,0-.005,0-.016-.016,0l-.024.088c-.026.026.027-.078-.034,0a3.589,3.589,0,0,1-.176.371c-.081.183.084-.054.006.1-.029.013-.061.023-.105.119a.618.618,0,0,1-.013.149l-.029-.017c-.029.083-.047.15-.071.143a.436.436,0,0,1-.041.154c-.021.132.1-.073.116-.1a1.669,1.669,0,0,1-.129.267l.019-.115c-.1.229-.007.238-.1.334.02-.083.022-.187-.007-.142l-.007.125c-.012.012.008-.07-.014-.017a.88.88,0,0,0,.011.143l0,0c-.009.073-.021.146-.025.22.006-.042-.006-.054-.012-.012l0,.146C-377.152,1491.792-377.17,1491.836-377.179,1491.9Zm-.9,2.495a.356.356,0,0,0,.049.128C-378.05,1494.475-378.064,1494.432-378.082,1494.4Zm-.409-3.178c.019-.071.044-.105.024-.16A.378.378,0,0,0-378.491,1491.217Zm.289,2.963a.03.03,0,0,1,.005-.022C-378.206,1494.143-378.21,1494.144-378.2,1494.179Zm1.367-6.15.005,0a.029.029,0,0,0,0-.009Zm3.836,9.9s.016.007.078.008A.605.605,0,0,1-373,1497.926Zm4.6-2.2.034-.046-.005,0C-368.422,1495.746-368.453,1495.791-368.4,1495.727Zm-.866.885c.038-.028.074-.058.11-.089l-.032.027Zm-1.252.8.064-.035a.469.469,0,0,1-.065.021Zm-.35.142c-.013.008-.209.083-.024.018C-370.88,1497.566-370.738,1497.505-370.871,1497.555Zm-4.3-.084c.167.08.048,0,.2.072.043.01-.123-.059-.079-.048C-375.156,1497.458-375.209,1497.43-375.171,1497.471Zm-3.435-5.932.007.01a.308.308,0,0,0,.021-.1Zm.436-1.579-.012.026.051-.035Zm.64-1.224c-.036.044-.067.1-.1.15C-377.567,1488.777-377.484,1488.75-377.53,1488.735Zm29.57,5.057c0,.007,0,.015,0,.022s0,.018,0,.027a.591.591,0,0,1-.011.07l0,.005c0,.009,0,.013-.005.019s0,.018-.008.027a.243.243,0,0,1-.008.029c0,.007-.009.013-.012.021a.636.636,0,0,1-.067.116c-.006.007-.01.016-.016.023a.553.553,0,0,1-.1.094l-11.126,8.422.864,1.856a4.955,4.955,0,0,1-.366,5.143l-.059.086-.069.09-.009.012-.024.028a4.939,4.939,0,0,1-.691.711l-.006.006-.019.015a4.971,4.971,0,0,1-.62.446l-.186.111c-.173.106-.3.178-.314.194-.159.094.016-.014.035-.027l-.059.036-.556.336c-.018.01-.017.007,0,0l-1.074.643h0l-.013.007-3.209,1.921c-.06.039-.3.182-.453.279l-2.865,1.706-3.2,1.916a4.844,4.844,0,0,1-1.075.475c-.078.026-.145.047-.2.063a.994.994,0,0,0-.157.052c.064-.014.135-.033.211-.054-.127.036-.224.06-.314.079.031-.01-.407.063-.5.06a4.711,4.711,0,0,1-1.571-.121,5,5,0,0,1-.86-.3l-.085-.04c-.1-.051-.211-.108-.319-.17-.053-.031-.106-.061-.158-.093-.027-.017-.052-.03-.08-.047a1.435,1.435,0,0,1-.122-.092,4.636,4.636,0,0,1-.369-.287c-.068-.056-.133-.112-.2-.168l-.021-.019c-.067-.061-.129-.12-.183-.175-.1-.093-.171-.206-.2-.184s-.04.04-.008.019l-1.124.848c.821-.6-.16.118-.236.2a4.516,4.516,0,0,1-.428.308c-.085.067-.289.229-.3.244-.287.2.388-.333.3-.285l-.794.6.01,0-.15.114.029-.031-.777.588c.019.017.149-.045.379-.2-.032.039-.5.363-.727.535-.335.243-.585.436-.82.621-.126.076-.05.071.075.209a3.506,3.506,0,0,1,.319.366c-.052-.066-.112-.124-.168-.185.07.079.148.171.223.273a4.066,4.066,0,0,1,.356.569c.014.02-.287-.448-.136-.168a2.956,2.956,0,0,1,.4,1.6,4.961,4.961,0,0,1-.11.681,2.625,2.625,0,0,0-.074-1.9,2.17,2.17,0,0,1,.192.623,4.611,4.611,0,0,1,.041.648,2.47,2.47,0,0,1-.373,1.072c.029-.051.033-.065-.013.006a2.09,2.09,0,0,1-.348.431,3.178,3.178,0,0,1-.281.227,2.382,2.382,0,0,0,.863-1.352,2.218,2.218,0,0,0,.044-.283,2.351,2.351,0,0,1-.7,1.377c-.011.011-.021.027-.033.038a2.66,2.66,0,0,1-.784.546,1.979,1.979,0,0,1-.344.1c-.071.012-.1.012-.1.007s.089-.041.165-.066a3.239,3.239,0,0,1-1.316.063,3.22,3.22,0,0,1-.993-.32c.063.032.123.069.186.1a4.422,4.422,0,0,1-.738-.413c-.261-.179-.455-.347-.411-.3-.2-.169-.382-.338-.142-.164l-.967-.688c.141.1.071.006.135.047-.378-.29-.669-.461-.433-.274-.724-.583-.549-.432-1.13-.913-.22-.165,0,.044.155.169-.5-.369-.787-.594-1.019-.775.572.423.481.311.429.235l-.539-.413-1.268-.875a1.284,1.284,0,0,0,.216.108c-.167-.087-2.181-1.618-3.162-2.372l.148.113c.206.143-.634-.511-.988-.765.063.039.141.1.29.215-.641-.523-.885-.609-1.536-1.145.6.466.733.546.71.511a17.414,17.414,0,0,0-1.434-1.043,5.2,5.2,0,0,1-.564-.461,4.618,4.618,0,0,1-1.138-1.062c.079.088.131.174-.115-.214a3.547,3.547,0,0,0,.824.934c.3.234.557.419.729.57.034-.007-.215-.215.126.018a4.074,4.074,0,0,1-2.148-2.829,2.875,2.875,0,0,1,.244-1.474l.014-.063a2.532,2.532,0,0,1,.152-.216,1.72,1.72,0,0,1,.188-.292c.025-.025,0,.014-.044.076a3.578,3.578,0,0,1,.239-.29c.054-.03-.125.168-.265.409a2.615,2.615,0,0,0-.215.345c-.072.2-.116.349-.081.288a2.666,2.666,0,0,1,.236-.513c.021-.04.037-.078.061-.12l.078-.1q-.068.1-.125.2a2.513,2.513,0,0,1,.184-.263c-.02.022-.039.039-.059.063.4-.6,1.193-.934.6-.654a2.342,2.342,0,0,1,.816-.309,2.509,2.509,0,0,1,.961-.039,2.754,2.754,0,0,1,.414.091c.084.025.179.056.288.1l.156.064c.023,0,.06.04.072.019s.011.042-.014.024-.034-.006.026.028l.162-.591.211-.7c.135-.436.248-.787.258-.885.187-.694.052-.3.167-.739,0,.022-.006.066.03-.062l.123-.53c.069-.209-.119.486.058-.1.266-1.012.42-1.607.67-2.446.332-1.2-.195.5.1-.512a5.7,5.7,0,0,0,.306-.9c.08-.338.051-.3.2-.868l.023.045a7.338,7.338,0,0,1,.284-.943c.108-.433.193-.728.262-.951.207-.8-.232.567-.3.749.245-.776.383-1.321.549-1.756l-.187.7c.459-1.466.348-1.415.613-2.08-.146.506-.3,1.119-.2.825l.19-.738c.034-.084-.112.421-.007.087l.2-.837v.01l.339-1.22c-.042.156-.036.169.025-.042l.227-.874c-.066.269.021,0,.137-.389.327-1.115.173-.918.454-1.776l-.075.276.142-.442c-.05-.116.734-2.633.684-2.75.21-.627.031-.039-.162.789l.213-.671c-.076.276-.139.5-.221.8.283-.879.478-1.727.593-2.214.107-.336-.016.283.244-.687.37-1.371-.131.242.091-.581l.209-.583c.264-1.057.513-1.832.768-2.714.053-.2.076-.3.085-.35.284-.935.514-1.983.728-2.689-.038.168.142-.4.177-.48l.333-1.287a1.837,1.837,0,0,0-.12.663l.223-.865c-.038.168-.076.339,0,.13l.336-1.355-.109.361c.095-.336.283-1.067.44-1.541,0,.045-.039.213-.04.257a4.615,4.615,0,0,0-.223.846,2.822,2.822,0,0,1,.217-.67c.184-.653.225-.932.154-.766.219-.736.292-.968.478-1.729l0,.153.184-.7-.114.574c.4-1.322.006-.262.444-1.732l.034.005a10.251,10.251,0,0,1,.312-1.212c.135-.557-.312.929.046-.368.081-.223.232-.711.344-1.081.089-.365-.075.139-.165.45.116-.419.2-.709.271-.919a.822.822,0,0,1,.183-.333.913.913,0,0,1,.24-.171.881.881,0,0,1,.6,0c.2.08.474.187.9.344-.572-.252.514.123-.869-.409.674.229,1.274.554,1.965.8l-.458-.143.656.256-.069.008c.858.3,1.528.709,2.05.861-.368-.1.618.273.927.46-.688-.287-1.938-.9-2.051-.888.308.16.6.264.9.419-.216-.09-.532-.218-.618-.244,1.027.5,1.645.719,2.274,1.014l-1.11-.52a7.476,7.476,0,0,1,.832.336c.537.3.992.46,1.429.705l-.247-.12c1.191.607,1.475.868,1.946,1.111s1.338.7,1.038.5c.386.185-1.57-.825-.86-.536.626.447,1.4.709,2.82,1.578-.647-.335.344.26-.231-.043a11.272,11.272,0,0,0,1.041.545l.192.145a14.111,14.111,0,0,1,1.609.833c-.46-.255.514.366.161.175.369.228.735.442,1.015.593l-.052-.026c1.362.814,1.09.707,2.317,1.469l-.11-.094c.8.5,1.719,1.058,2.6,1.683l2.588,1.79c-.18-.144-.37-.273-.554-.411.173.119,1.09.746,1.561,1.136-.1-.071-.274-.19-.364-.259a2.607,2.607,0,0,0,.548.48l.166.081.137.135c.576.427-.141-.164.436.263.136.168.765.616,1.39,1.112s1.268,1.007,1.484,1.234c.427.247-1.058-.851-.6-.57.165.144.234.216.6.509l-.1-.133c1.7,1.354,2.291,1.937,3.772,3.178l-.065-.043a9.315,9.315,0,0,0,1.061.862c.1.108-.29-.2-.1-.018.985.716,1.737,1.691,2.339,2.126-.052,0,.084.172.238.359q.456.424.913.856l0,0a.575.575,0,0,1,.078.092c.006.009.01.018.015.027a.579.579,0,0,1,.041.078c.006.014.009.028.014.042a.573.573,0,0,1,.02.072c0,.015,0,.031.006.046v.013s0,.011,0,.039C-347.961,1493.778-347.96,1493.785-347.96,1493.792Zm-51.814,18.629a2.305,2.305,0,0,0-.126.646A3.291,3.291,0,0,1-399.774,1512.422Zm39.746-23.344c.169.1.321.185.423.231C-359.76,1489.219-359.9,1489.143-360.028,1489.077Zm-10.169-6.262a5.079,5.079,0,0,0,.468.314A2.661,2.661,0,0,0-370.2,1482.815Zm-22.959,17.947a4.813,4.813,0,0,0,.2-.732C-393.012,1500.169-393.106,1500.565-393.156,1500.762Zm-1.219,9.138a2.492,2.492,0,0,0,.094-.315C-394.32,1509.7-394.35,1509.806-394.375,1509.9Zm1.709-.967a1.865,1.865,0,0,1,.153-.474,4.369,4.369,0,0,1,.129-.482c.1-.408-.15.277-.189.368.136-.389.2-.667.3-.881l-.09.352a9.3,9.3,0,0,1,.322-1.049c-.075.256-.144.568-.083.423l.088-.376c.021-.041-.054.214,0,.047l.082-.428v.006l.183-.672c-.037.127-.034.162,0,.034l.106-.444c-.029.137.02,0,.082-.193.171-.562.048-.475.208-.9-.017.064-.019.076-.036.14l.08-.221c-.063-.069.368-1.332.3-1.4.122-.312.025-.017-.055.407l.119-.336c-.036.14-.075.255-.11.406a7.117,7.117,0,0,0,.286-1.123c.06-.168.021.152.147-.341.18-.7-.1.114.012-.3l.126-.289c.118-.538.258-.927.39-1.372a1.385,1.385,0,0,0,.037-.179c.153-.47.239-1.009.354-1.364-.015.086.085-.2.108-.237l.155-.655c-.069.29-.04.285-.03.344.055-.2.068-.3.1-.441-.015.087-.03.174.012.071l.15-.691c-.016.039-.04.116-.059.181.048-.17.135-.541.225-.778,0,.025-.01.111-.006.134a1.183,1.183,0,0,0-.105.43c.128-.47.04-.115.122-.335.093-.331.1-.476.05-.4a7.148,7.148,0,0,0,.237-.876l.016.083.088-.353-.036.3c.215-.664-.027-.141.2-.881l.033.007a2.632,2.632,0,0,1,.144-.616c.059-.285-.181.463,0-.193.05-.111.133-.356.192-.542.038-.186-.055.066-.1.223.247-.911.275-.54.476-1.415-.109.3.006-.271-.195.445.076-.348.239-.659.3-1.026l-.022.245c.037-.128.062-.277.076-.348l.026.039c.065-.458.261-.811.256-1.095.011.2.089-.329.163-.5-.059.375-.295,1.039-.252,1.1.065-.164.08-.322.143-.48-.024.116-.056.286-.057.333a8.851,8.851,0,0,0,.295-1.226l-.156.6c-.043-.065.067-.271.069-.451.116-.289.137-.536.225-.773-.016.064-.017.071-.033.135a9.923,9.923,0,0,1,.4-1.061c.08-.251.184-.741.11-.574.042-.213-.228.868-.2.475.194-.345.182-.773.473-1.564-.068.363.11-.193.044.13a2.918,2.918,0,0,0,.116-.584l.061-.108a4.657,4.657,0,0,1,.158-.907c-.049.262.129-.294.094-.093a5.168,5.168,0,0,0,.138-.579l0,.03c.2-.776.217-.621.383-1.333l-.038.065c.212-.934.573-2.089.82-3.048l-.11.331c.038-.1.152-.651.265-.939-.015.06-.036.165-.054.219.023,0,.087-.109.158-.336l-.007-.1.051-.085c.1-.349-.076.089.024-.26.151-.177.438-1.5.607-1.776,0-.257-.2.658-.186.379a3.534,3.534,0,0,0,.137-.373l-.063.066c.322-1.049.473-1.442.73-2.384l0,.04a2.4,2.4,0,0,0,.16-.673c.04-.064-.019.18.036.055a2.374,2.374,0,0,1,.089-.449,1.827,1.827,0,0,1,.06-.178c.011-.039.055-.089.01-.116a2.936,2.936,0,0,0-.217-.254,1.248,1.248,0,0,0-.244-.21c.042-.014-.029-.136-.1-.256-.218-.211-.41-.4-.573-.56v0l-3.051,10.749c-.008.027-.015.053-.023.082l-.018.062-.12.425-.005.02-.009.03-.145.513c-.018.069-.03.118-.031.126-.027.091,0-.01,0-.021l-.009.032-.086.316c0,.01,0,.007,0,0l-.692,2.439c-.008.036-.044.17-.067.26l-.467,1.62-.687,2.419a.558.558,0,0,0-.025.161c.068-.263.206-.788.242-.865-.069.262-.193.714-.191.74-.091.266.135-.494.022-.143-.051.183-.068.263-.09.349.028-.124-.057.161-.076.215l-.454,1.569-.007.019-.112.4c-.051.217-.085.391-.056.316-.1.365-.116.382-.2.694.156-.491-.03.1-.028.154a1.142,1.142,0,0,1-.085.254c-.013.053-.042.181-.04.191-.06.168.04-.257.012-.212l-.137.484h.007l-.025.091v-.023l-.133.468c.024.005.069-.049.12-.182,0,.027-.1.3-.136.436-.131.4-.159.619-.26.953l.061-.259c-.02.054-.153.55-.169.63-.01.01.039-.265-.012-.114a6.808,6.808,0,0,0-.268,1.152l.239-.93c.025-.028-.168.661-.137.628l-.244.849c.029-.108.117-.437.072-.311-.1.366-.057.189-.133.431.055-.245.132-.607.2-.924l-.206.725c-.047.249-.076.443-.089.526-.1.328-.1.2-.087.122-.185.646-.127.654-.316,1.3l.078-.242c-.04.155-.205.712-.181.654-.047.126-.105.238-.072.092l-.125.588c.02-.086-.028-.04-.024-.078-.067.232-.074.406-.027.261-.152.446-.107.337-.239.7-.035.135.039,0,.07-.1-.076.305-.13.482-.174.625.088-.351.036-.291,0-.255l-.093.33-.141.769a.4.4,0,0,0-.011-.128c.005.1-.337,1.333-.512,1.934l.026-.091a3.825,3.825,0,0,0-.181.606,1.275,1.275,0,0,1,.044-.177c-.139.4-.1.537-.242.939.108-.371.115-.448.1-.433-.074.308-.287,1.01-.2.874-.063.193-.107.371-.124.348l-.186.756c.011-.057.013-.109-.052.11.124-.419.2-.836.289-1.049-.022-.018-.08.135-.044-.071-.218.813-.3,1.27-.413,1.789l-.22.709,0,.034-.066.115a1.435,1.435,0,0,1-.036.167c-.007.016,0-.008,0-.045l-.043.182c-.024.023-.008-.108.013-.248l.073-.192a.508.508,0,0,0,.016-.161l-.077.27c0,.027-.008.053-.013.082l-.023.06c.006-.026.01-.049.016-.074l-.035.122.019-.048c-.077.347-.161.745-.054.445l-.136.41a.837.837,0,0,0-.023.439.658.658,0,0,0,.265.4c.015.028-.1-.059-.033.012a.807.807,0,0,0,.615.149.522.522,0,0,0,.358-.21c.1-.131.093-.174.1-.192s-.006-.021.021-.13c0,.012,0,.035.021-.03l.051-.271c.039-.1-.052.248.043-.047.126-.515.2-.817.33-1.24.165-.608-.123.245.026-.265a1.479,1.479,0,0,0,.179-.448,3.988,3.988,0,0,1,.082-.444Zm.285-.966a1.234,1.234,0,0,0,.1-.371A2.4,2.4,0,0,0-392.38,1507.967Zm12.666,5.456.1-.079.071-.054.519-.4.02-.016.031-.024.623-.483c.083-.066.14-.113.149-.122.107-.082-.006.009-.022.023l.053-.041.366-.289c.013-.008.012-.006,0,0l.734-.569h0l2.2-1.708c.041-.034.2-.162.308-.248l1.979-1.527,2.9-2.247a1.1,1.1,0,0,0,.173-.159c-.311.249-.933.746-1.038.81.311-.248.851-.672.873-.7.335-.24-.59.465-.155.144l.413-.331c-.143.12.2-.145.273-.193l1.9-1.462.025-.017.48-.372c.251-.208.447-.377.349-.311l.838-.648c-.607.451.119-.089.171-.152a2.565,2.565,0,0,1,.317-.23c.063-.051.211-.174.218-.186.213-.15-.28.257-.212.224l.584-.453-.008,0,.11-.086-.02.025.572-.444c-.018-.017-.119.024-.29.141.022-.031.369-.272.537-.4.5-.363.732-.587,1.14-.9l-.3.248c.069-.048.66-.515.75-.594.019-.006-.287.266-.1.129a14.624,14.624,0,0,0,1.335-1.107l-1.1.882c-.049.017.779-.627.72-.609l1.027-.792c-.129.1-.52.413-.359.3.439-.343.229-.175.528-.4l-.987.844.8-.624c.279-.245.489-.44.58-.524.4-.3.284-.165.194-.087.78-.6.735-.641,1.523-1.247l-.3.222c.183-.147.861-.664.784-.614.162-.112.321-.2.152-.062l.671-.571c-.1.083-.012.057-.052.1.28-.216.451-.4.272-.267.56-.4.416-.31.877-.63.16-.127-.038-.018-.158.071.358-.291.575-.454.75-.585-.411.333-.308.3-.238.278l.4-.309.856-.759a.729.729,0,0,0-.111.144,3.8,3.8,0,0,1,.294-.253l.574-.46.052-.041a.412.412,0,0,0-.059-.029l-.162-.074-.426-.2-.75-.35.126.058a8.167,8.167,0,0,0-.838-.4,2.675,2.675,0,0,1,.245.108c-.548-.279-.743-.294-1.29-.6.506.256.612.293.592.268a9.559,9.559,0,0,0-1.2-.551,2.809,2.809,0,0,1-.473-.264c-.346-.16-.69-.325-1.029-.5.077.036.148.059-.146-.1.56.312,1.136.549,1.425.724.025-.015-.158-.122.069-.031l-.091-.046-2.306-1.1c-.316-.178-.637-.349-.949-.533l-.046-.011-.149-.121c-.122-.061-.2-.1-.224-.115s.012,0,.061.021l-.241-.127c-.029-.036.148.041.335.127l.252.164a1.043,1.043,0,0,0,.217.09l-.386-.216-.082-.038-.079-.051.02.01-.031-.017.01.006c-.463-.239-.995-.509-.6-.26l-.542-.329c-.665-.337-.549-.278-1.34-.723-.037-.036.176.08.04-.011-.587-.307-1.362-.865-1.5-.913-.457-.277-.2-.093-.5-.265.015.005.046.016-.036-.037l-.355-.193c-.133-.095.323.182-.056-.069-.668-.4-1.065-.624-1.6-1-.776-.5.3.261-.348-.173a3.179,3.179,0,0,0-.56-.429c-.224-.129-.2-.1-.576-.329l.042-.012a4.053,4.053,0,0,1-.592-.429c-.281-.176-.468-.308-.607-.411-.517-.333.333.314.444.406-.484-.363-.837-.587-1.1-.817l.446.3a14.845,14.845,0,0,1-1.3-.95c.316.23.708.489.532.338l-.47-.315c-.049-.047.266.183.061.023l-.54-.341.007,0c-.243-.173-.486-.345-.726-.522.056.037.05.024-.058-.057l-.549-.385c.17.115.008-.019-.229-.2-.686-.525-.6-.346-1.113-.786l.17.128-.263-.224c-.109.023-1.609-1.238-1.712-1.228-.364-.332-.015-.037.5.327l-.394-.344c.168.13.3.246.485.382a15.927,15.927,0,0,0-1.349-1.04c-.194-.176.2.084-.386-.381-.824-.659.116.174-.379-.221l-.327-.325c-.641-.494-1.084-.908-1.6-1.359-.118-.1-.179-.145-.21-.166-.266-.247-.562-.487-.836-.718-.254-.212-.613-.518-.555-.476.007,0,0-.017-.025-.048-.011.009-.027.039-.035.045l-.216.866c.107-.423.076-.412.073-.5-.082.3-.107.441-.161.644.026-.126.052-.253,0-.1l-.24,1.009c.021-.057.055-.171.083-.267-.07.249-.206.793-.329,1.144,0-.035.024-.16.023-.193a2.524,2.524,0,0,0,.162-.629c-.191.689-.055.169-.168.5-.137.485-.158.694-.1.573-.166.545-.222.717-.354,1.284l-.006-.116-.134.517.074-.429c-.305.979.011.2-.32,1.288l-.034-.006a5.621,5.621,0,0,1-.226.9c-.1.415.245-.686-.021.277-.065.165-.181.526-.266.8-.072.312.105-.222.157-.42-.4,1.455-.369.867-.693,2.176.15-.437-.04.389.257-.662-.122.508-.329.973-.44,1.507l.053-.353c-.055.188-.1.4-.122.508l-.021-.052c-.124.663-.37,1.194-.4,1.6.014-.285-.133.483-.23.733.107-.544.434-1.524.4-1.612-.088.243-.123.472-.208.706.039-.169.093-.417.1-.484-.266.808-.331,1.292-.457,1.792l.236-.879c.037.087-.1.4-.127.655-.155.429-.208.784-.328,1.136.024-.094.027-.1.05-.2-.269.955-.44,1.193-.55,1.571s-.283,1.085-.185.837c-.07.31.343-1.272.264-.705-.244.519-.284,1.13-.683,2.3.116-.529-.138.291-.03-.18a6.276,6.276,0,0,0-.192.852l-.077.162a9.874,9.874,0,0,1-.276,1.318c.084-.382-.169.437-.109.145-.09.31-.167.615-.214.847l.007-.043c-.306,1.137-.3.917-.561,1.958l.047-.1c-.335,1.365-.851,3.064-1.225,4.469l.155-.488c-.052.147-.238.951-.39,1.379.023-.088.057-.241.082-.321a1.476,1.476,0,0,0-.2.5l0,.139-.064.129c-.146.512.089-.137-.057.375-.178.272-.639,2.2-.848,2.62-.03.368.286-.967.239-.567-.054.153-.087.219-.187.551l.074-.1c-.464,1.544-.668,2.125-1.051,3.507l.007-.058a5.106,5.106,0,0,0-.249.984c-.049.1.041-.261-.031-.075-.136.9-.573,1.706-.646,2.256-.031-.042-.13.158-.224.347l-.315,1.1c2.206,1.745,4.616,3.629,6.342,4.939Zm25.155-17.88a2.586,2.586,0,0,0,.309-.249A1.327,1.327,0,0,0-354.558,1495.543Zm-19.842,22.018a.7.7,0,0,0-.207.018A.371.371,0,0,0-374.4,1517.561Zm15.022-11.939c.047,0,.055-.095.064-.184a3.939,3.939,0,0,0-.177-.4l-.771-1.653-3.542,2.682-.041.032-.022.016-.208.157-.006,0-.019.014-.224.17a.6.6,0,0,0-.065.055c-.043.031,0-.006.006-.011l-.014.011-.146.115c-.005,0,0,0,0,0l-.284.215h0l-.849.644c-.015.014-.074.062-.115.1-.3.215-.8.6-1,.748l-.877.664c-.042.039-.071.07-.066.074a4.419,4.419,0,0,1,.4-.307c-.118.1-.325.258-.33.273-.135.083.225-.178.053-.063-.085.065-.118.1-.156.129.053-.049-.083.049-.111.065l-.736.546-.009,0-.185.141c-.093.083-.164.155-.123.134-.169.129-.183.129-.324.243.24-.161-.047.032-.061.065-.146.114-.057.032-.127.081a.627.627,0,0,0-.079.077c-.087.051.1-.112.065-.108l-.226.17.006,0-.042.032.005-.013-.217.165c.015.02.061.021.133-.017a2.393,2.393,0,0,1-.212.145c-.2.128-.276.229-.436.342l.112-.1c-.029.016-.254.2-.286.229-.01,0,.1-.118.021-.07a2.184,2.184,0,0,0-.494.445l.415-.344c.025,0-.293.245-.263.249l-.4.3c.05-.039.2-.159.133-.121a1.586,1.586,0,0,1-.208.144c.1-.1.253-.24.384-.368l-.334.252c-.1.1-.173.191-.2.228-.155.112-.125.041-.093.007-.3.226-.263.27-.568.5l.118-.08c-.069.058-.333.249-.3.234-.066.037-.137.058-.074,0l-.244.235c.036-.033-.009-.041,0-.058-.108.08-.159.171-.088.123-.225.14-.164.111-.353.217-.061.049.028.026.076-.006a3.318,3.318,0,0,1-.289.222c.155-.131.1-.134.065-.141l-.154.116-.3.323a.173.173,0,0,0,.026-.077,8.868,8.868,0,0,1-.873.706l.042-.032c.05-.052-.2.123-.288.208a.386.386,0,0,1,.078-.066c-.2.121-.21.227-.419.347.174-.129.2-.166.183-.17-.134.118-.47.356-.376.337-.1.062-.174.129-.179.106l-.332.285c.023-.023.038-.05-.065.025a5.762,5.762,0,0,1,.482-.375c-.011-.025-.093.02-.013-.069a9.686,9.686,0,0,0-.765.694l-.343.236-.006.021-.077.018a.493.493,0,0,1-.07.067c-.01,0,0-.008.012-.024a.959.959,0,0,0-.078.07c-.023,0,.023-.064.075-.126l.1-.055c.034-.038.056-.067.05-.074l-.122.092-.031.036-.032.017.031-.029-.056.042.026-.013c-.146.137-.311.3-.156.206l-.2.131-.115.11-.038.042c0,.013-.042.022-.015.04l.083.068c0,.019-.059-.031-.029.013.191.155.422.435.49.437.166.11.085.022.2.083-.007,0-.022,0,.009.02l.14.056c.047.039-.127-.056.013.04.266.116.425.169.65.254.328.091-.124-.091.149,0,.034.034.063.068.24.107.1,0,.086-.01.247,0l-.015.032c.148.02.268.019.267.042a2.216,2.216,0,0,1,.271,0c.225-.027-.167-.062-.216-.085.218.039.368,0,.5.036-.064.011-.13.014-.195.022a.994.994,0,0,0,.377-.038.48.48,0,0,1,.213-.016c-.139.036-.312.067-.224.077a1.466,1.466,0,0,0,.2-.055c.026,0-.116.034-.02.022.057-.021.173-.067.222-.09l0,0c.118-.042.239-.078.355-.128-.066.027-.078.046-.011.02l.219-.116c-.067.036.013.024.112-.027.287-.142.182-.195.42-.294l-.068.045.121-.054c-.017-.083.659-.409.641-.493.177-.069.021.01-.165.168l.182-.083c-.067.044-.129.075-.2.126a2.277,2.277,0,0,0,.541-.363c.092-.042-.036.093.2-.066.336-.222-.1-.012.106-.146l.172-.054a5.472,5.472,0,0,1,.685-.413.461.461,0,0,0,.081-.064c.247-.127.474-.339.66-.435-.037.033.117-.037.144-.041l.308-.22c-.136.1-.116.116-.129.154.1-.063.139-.1.206-.149-.037.033-.074.067-.015.046l.316-.243a.832.832,0,0,0-.095.049,3.119,3.119,0,0,1,.391-.232c-.005.015-.042.049-.047.065a.387.387,0,0,0-.2.142c.232-.145.062-.029.184-.08.165-.1.213-.172.158-.166a2.226,2.226,0,0,0,.43-.272l-.017.054.169-.115-.118.125c.349-.18.028-.093.411-.3l.019.028c.137-.1.156-.176.288-.209.128-.1-.262.1.061-.1a2.282,2.282,0,0,0,.295-.135c.081-.064-.044-.011-.125.034.433-.27.34-.069.744-.364-.164.069.091-.135-.265.082.16-.121.362-.159.52-.3l-.093.109a1.329,1.329,0,0,0,.16-.121l0,.039c.188-.185.424-.221.513-.37-.058.11.162-.1.262-.133-.157.148-.519.312-.513.377.094-.035.154-.105.245-.139a1.12,1.12,0,0,0-.143.128,2.794,2.794,0,0,0,.579-.408l-.291.191c-.006-.065.128-.089.188-.18.166-.062.258-.172.39-.229-.032.019-.032.025-.064.045a3.215,3.215,0,0,1,.595-.242c.131-.069.354-.242.253-.213.1-.077-.422.275-.277.095.233-.032.363-.26.8-.449-.16.135.131-.016-.014.1a.949.949,0,0,0,.26-.213l.074-.01a1.526,1.526,0,0,1,.391-.347c-.116.1.175-.055.089.023a1.619,1.619,0,0,0,.272-.194l-.012.012c.377-.246.335-.157.669-.4l-.045.005c.217-.161.474-.321.736-.481a3.244,3.244,0,0,0,.667-.523,1.14,1.14,0,0,1-.147.113c.055-.024.236-.262.363-.365a.523.523,0,0,1-.072.1c.021.013.086-.013.172-.109l.005-.059.053-.024c.122-.151-.07.018.044-.138a.888.888,0,0,0,.3-.379,3.277,3.277,0,0,1,.259-.462c-.015-.147-.15.34-.155.179a.754.754,0,0,0,.109-.185l-.054.026a3.051,3.051,0,0,0,.29-1.3l.009.021a.667.667,0,0,0-.045-.37c.019-.041.036.094.051.019C-359.35,1506.16-359.226,1505.795-359.379,1505.622Zm-17.043,10.053a1.553,1.553,0,0,0-.149.108A.773.773,0,0,0-376.422,1515.675Zm24.664-20.238a2.592,2.592,0,0,0-.274.2C-351.928,1495.567-351.837,1495.5-351.758,1495.437Zm1.838-1.489c-.034-.012-.063-.024-.093-.038l-.321-.148a2.739,2.739,0,0,0-.443-.192,3.268,3.268,0,0,0-.381-.114c.012,0,.036,0-.029-.025l-.272-.085c-.1-.052.249.084-.043-.049l-.089-.033-.042-.014a.99.99,0,0,0-.087.071l-.249.206c-.16.129-.313.249-.5.385-.51.405.252-.13-.185.2a1.588,1.588,0,0,0-.422.265,4.312,4.312,0,0,1-.341.319l-.005-.039a2.013,2.013,0,0,1-.418.3,4.663,4.663,0,0,1-.4.322c-.33.28.293-.141.381-.193-.351.242-.573.435-.79.551l.291-.239c-.66.46-.57.508-.909.678.219-.167.468-.385.329-.3l-.3.26c-.043.021.175-.145.025-.042l-.331.306,0-.005-.564.448c.109-.083.127-.114.018-.031l-.361.305c.108-.1-.015-.014-.186.111-.486.364-.333.364-.727.625l.116-.094-.2.136c.008.094-1.122.885-1.113.982-.292.187-.031,0,.3-.3l-.3.208c.116-.095.218-.167.339-.271a7.715,7.715,0,0,0-.927.761c-.152.1.077-.138-.329.2-.576.469.148-.039-.2.243l-.281.165c-.428.376-.782.615-1.164.906a1.564,1.564,0,0,0-.141.126c-.415.3-.817.694-1.13.92.065-.063-.191.112-.235.132l-.53.451c.235-.2.208-.212.236-.267-.17.135-.241.21-.356.3.065-.063.131-.127.034-.066l-.549.484c.037-.023.1-.073.16-.115-.143.113-.444.369-.664.512.012-.023.077-.086.088-.108a1.279,1.279,0,0,0,.351-.293c-.394.312-.1.072-.306.2-.28.219-.372.338-.284.3a7.568,7.568,0,0,0-.733.585l.038-.078-.289.241.213-.224c-.586.423-.065.133-.71.609l-.022-.026a2.827,2.827,0,0,1-.5.425c-.223.2.433-.277-.117.161-.109.062-.327.216-.491.335-.147.132.086-.023.22-.126-.764.609-.557.285-1.262.891.272-.18-.172.221.433-.253-.277.243-.6.4-.879.67l.169-.189c-.109.084-.221.192-.277.243l0-.047c-.335.339-.712.518-.884.755.115-.171-.276.22-.439.316.279-.275.881-.685.885-.764-.154.1-.264.22-.413.313.091-.082.222-.2.252-.242a9.312,9.312,0,0,0-1,.84l.5-.4c0,.079-.221.186-.334.333-.273.171-.442.363-.66.508l.11-.093a10.578,10.578,0,0,1-.985.64c-.22.161-.607.5-.444.411-.166.151.721-.584.455-.276-.371.172-.626.532-1.35,1.016.28-.26-.209.1.044-.133a3.119,3.119,0,0,0-.455.415l-.117.053a5.009,5.009,0,0,1-.688.656c.2-.188-.286.167-.134.022a5.543,5.543,0,0,0-.47.4l.021-.022c-.645.522-.56.386-1.135.877l.071-.031c-.749.648-1.755,1.39-2.548,2.038l.294-.209c-.092.06-.525.449-.795.621.049-.041.131-.116.18-.15-.021-.012-.139.039-.336.185l-.054.085-.095.04c-.3.23.116-.029-.179.2-.232.057-1.281.983-1.59,1.112-.157.214.567-.428.386-.2a3.74,3.74,0,0,0-.341.228l.092-.018c-.91.679-1.275.915-2.066,1.543l.026-.032a2.559,2.559,0,0,0-.546.462c-.072.029.126-.138,0-.067a3.423,3.423,0,0,1-.719.573c-.12.078-.236.15-.337.221a.624.624,0,0,0-.221.211c-.019-.046-.142.039-.217.173a.653.653,0,0,0,.251.7l.011.008h0a.654.654,0,0,0,.773-.012l8.548-6.47.075-.057.052-.038.366-.277.016-.013.026-.02.437-.331c.061-.047.1-.081.107-.088.078-.057,0,.007-.012.016l.031-.024.264-.2c.009-.005.008,0,0,0l2.09-1.582c.028-.025.142-.114.217-.174l1.4-1.052,2.067-1.564c.079-.068.124-.11.12-.115-.22.174-.661.522-.737.563.22-.174.6-.469.618-.491.241-.163-.419.323-.107.1.156-.119.221-.174.292-.232-.1.084.148-.1.2-.13l1.352-1.013.018-.011.34-.257c.177-.147.314-.269.244-.225l.6-.449c-.434.308.085-.061.119-.11a1.256,1.256,0,0,1,.227-.157c.044-.036.149-.123.153-.133.154-.1-.194.186-.142.167l.415-.314-.007,0,.078-.06-.013.019.4-.3c-.016-.019-.086,0-.211.076.014-.024.264-.186.384-.275.356-.247.518-.412.809-.624l-.212.175c.05-.032.469-.358.532-.415.015,0-.2.193-.062.1a7.284,7.284,0,0,0,.94-.782l-.777.618c-.038.007.55-.44.506-.432l.731-.549c-.091.07-.369.288-.253.212.312-.238.164-.121.377-.273-.2.168-.487.418-.74.638l.622-.471c.194-.176.34-.317.4-.378.284-.21.209-.1.147-.047.555-.418.513-.459,1.074-.879l-.215.152c.129-.1.613-.46.557-.427.117-.075.234-.132.115-.032l.47-.407c-.07.059,0,.049-.03.078.2-.149.314-.288.186-.2.4-.275.3-.213.63-.428.113-.089-.033-.021-.119.039.253-.2.408-.316.533-.407-.291.234-.211.216-.157.212l.284-.215.6-.546a.42.42,0,0,0-.072.111c.058-.084,1.109-.889,1.628-1.277l-.077.059a4.149,4.149,0,0,0,.526-.388,1.309,1.309,0,0,1-.147.119c.361-.241.415-.382.785-.624-.32.239-.374.3-.35.3.253-.208.866-.656.714-.593.173-.121.32-.239.318-.211l.626-.508c-.045.04-.079.081.111-.059-.363.268-.687.564-.893.686.006.028.15-.063-.009.085.687-.535,1.039-.861,1.457-1.218l.623-.448.018-.03.126-.055a1.51,1.51,0,0,1,.135-.115c.016-.008,0,.009-.028.036l.148-.122c.034,0-.062.093-.167.195l-.179.113a.563.563,0,0,0-.114.122l.231-.175.062-.06.057-.036-.06.051.105-.079-.045.028c.28-.238.6-.512.324-.332l.367-.255.714-.606c.035-.012-.021.044.04.008l.029-.03C-349.867,1493.957-349.912,1493.955-349.92,1493.948Zm-42.61,19.76-.129-.1.116.091Zm18.786,3.731-.011.014C-373.73,1517.439-373.721,1517.431-373.744,1517.438Zm-3.209-1.326c.032-.018.075-.047.136-.088Zm6.6-.608.07-.075C-370.419,1515.509-370.354,1515.486-370.357,1515.5Zm1.738-5.791-.005,0C-368.6,1509.7-368.608,1509.707-368.619,1509.713Zm3.122,2.978.016-.006C-365.42,1512.632-365.449,1512.652-365.5,1512.691Zm-7.9.727.007-.006-.01.007Zm-.219.182a1.166,1.166,0,0,1,.216-.182l-.1.02Zm-3.2,2.41a.043.043,0,0,1-.027.006C-376.856,1516.032-376.853,1516.036-376.813,1516.01Zm6.443-.492.008,0a.023.023,0,0,0,0-.009Zm.843-5.06s.021-.009.089-.059C-369.484,1510.431-369.51,1510.447-369.528,1510.458Zm4.336-3.341.155-.114-.047.033Zm-1.6,1.239.076-.064a.69.69,0,0,1-.078.05Zm-.409.308c-.015.015-.236.193-.025.031C-367.21,1508.68-367.044,1508.551-367.2,1508.665Zm-4.583,3.52c-.114.1-.179.142-.111.118.2-.144.034-.052.219-.181C-371.634,1512.08-371.826,1512.227-371.782,1512.185Zm-3.26,5.318a.318.318,0,0,0,.129.022.851.851,0,0,1-.117-.029Zm1.971-.377.074,0-.043-.014Zm1.359-.86c.135-.089.239-.1.2-.127Zm-19.94-10.909.034-.146Zm-.3,1.047,0,.029C-391.939,1506.382-391.937,1506.361-391.95,1506.4Zm-2.639,4.368.091-.274Zm4.526-11.146.021-.177C-390.116,1499.714-390.07,1499.6-390.062,1499.627Zm5.887-20.746.017-.046C-384.161,1478.828-384.168,1478.849-384.175,1478.88Zm-5.37,13.854,0,.012C-389.535,1492.706-389.537,1492.712-389.545,1492.734Zm2.31-2.71.011-.028C-387.2,1489.854-387.212,1489.915-387.234,1490.024Zm-5.181,13.092,0-.015-.006.02Zm-.126.491a3.644,3.644,0,0,1,.123-.487l-.09.149Zm-1.96,6.868a.1.1,0,0,1-.023.039C-394.533,1510.554-394.529,1510.557-394.5,1510.475Zm4.435-10.816,0-.016a.043.043,0,0,0,0-.017Zm-.006-4.9a.955.955,0,0,0,.058-.181Zm2.685-9.631-.066.232.1-.329Zm-.985,3.536c-.029.1-.034.1-.053.156l.009.015Zm-.3,1.117c.007-.037.106-.4.009-.069C-388.673,1489.749-388.8,1490.237-388.675,1489.781Zm-2.816,10.134c.127-.424.008-.107.126-.489.021-.1-.1.312-.074.208C-391.5,1499.893-391.546,1500.027-391.491,1499.915Zm.052-.281.032-.133Zm-1.221,9.1a1.56,1.56,0,0,0,.077-.232l-.079.209Zm1.07-3.73-.019.064.066-.11Zm.835-3.13-.109.406C-390.792,1502-390.7,1501.85-390.754,1501.872Zm.588,13.682.357.278-.314-.245Zm1.017.792-.183-.141,1.472,1.148-1.223-.955Zm.967.752.44.343-.235-.185Zm15.214-36.283-.181-.127Zm1.288.948.038.014C-371.706,1481.739-371.733,1481.725-371.68,1481.763Zm10.49,6.694.363.22Zm-18.6-13.1-.213-.148C-379.7,1475.478-379.824,1475.35-379.791,1475.361Zm-9.389,26.856-.024.067C-389.2,1502.293-389.192,1502.262-389.18,1502.217Zm21.94,1.529.014-.011C-367.276,1503.771-367.267,1503.765-367.24,1503.746Zm-17.394-17.877-.015.042C-384.693,1486.116-384.67,1486.027-384.634,1485.869ZM-354.8,1494l-.019.015.025-.018Zm.579-.466c-.238.21-.381.319-.573.463l.223-.115Zm-6.579-4.852a.216.216,0,0,1-.05-.042C-360.9,1488.615-360.9,1488.619-360.8,1488.684Zm-18.955-13.3-.018-.016a.088.088,0,0,0-.022-.012Zm14.91,26.44a1.941,1.941,0,0,0-.224.165Zm-11.564,9.028.281-.216-.4.306Zm4.441-3.457.005-.02-.2.162Zm1.064-.841c.041-.036.621-.5.074-.07C-370.869,1506.527-371.3,1506.866-370.9,1506.559Zm11.918-9.3c.3-.247.469-.37.314-.277-.517.393-.109.111-.578.463C-359.362,1497.549-358.863,1497.161-358.982,1497.263Zm-.155.127.155-.127Zm-9.644-13.534a3.453,3.453,0,0,0-.289-.213l.259.2Zm-4.554-3.267-.126-.136.048.077Zm-3.854-2.958.363.292C-377.078,1477.712-377.2,1477.571-377.188,1477.631Zm20.734,19.395-.119.1Zm.889-.691.015-.026C-355.587,1496.345-355.6,1496.362-355.565,1496.334Zm4.527-1.483-.246.17Zm-10.246,5.978-.126.133C-361.186,1500.788-361.293,1500.854-361.284,1500.829Zm-17.6,13.7-.042.027C-378.923,1514.56-378.906,1514.546-378.88,1514.526Zm12.444-7.929.01-.007C-366.462,1506.614-366.456,1506.609-366.436,1506.6Zm-3.077.512-.026.017C-369.647,1507.226-369.6,1507.185-369.513,1507.108Zm11.913-7.291-.013.011.017-.013Zm.41-.327a3.851,3.851,0,0,1-.405.325l.166-.068Zm5.895-4.449a.105.105,0,0,1,.044-.018C-351.221,1495-351.222,1494.991-351.295,1495.041Zm-9.966,5.763-.013.01a.049.049,0,0,0-.01.015Zm-3.477,4.451a1.044,1.044,0,0,0-.16.113Zm-8.215,6.276.2-.151-.284.212Zm3.156-2.4,0-.017-.142.114Zm.755-.586c.028-.026.44-.347.051-.051C-369.021,1508.519-369.327,1508.756-369.042,1508.544Zm8.277-6.335c-.08.071.274-.2.191-.126.215-.174.333-.258.219-.2C-360.724,1502.155-360.43,1501.966-360.765,1502.209Zm.081-.037.11-.089Zm7.121-7.326.013-.02a1.7,1.7,0,0,0-.206.146Zm-3.161,2.436.055-.042-.122.053Zm-2.611,2.1.339-.272C-359.227,1499.3-359.392,1499.367-359.335,1499.379Zm-32.3-4.066c-.035.136-.058.223-.074.288Zm-.661,2.359,0,.054C-392.278,1497.629-392.272,1497.589-392.3,1497.673Zm-6.437,13.307a2.272,2.272,0,0,0-.462.364A2.527,2.527,0,0,1-398.733,1510.98Zm10.19-26.7.067-.342C-388.623,1484.458-388.544,1484.233-388.543,1484.278Zm28.548-1.091.075.061C-359.909,1483.25-359.944,1483.224-359.995,1483.187Zm-17.328,34.892-.02-.013C-377.275,1518.112-377.287,1518.1-377.323,1518.079Zm-2.313-46.512.053.028C-379.321,1471.7-379.434,1471.651-379.636,1471.567Zm-10.91,50.476.026.018-.032-.025Zm-.8-.6c.352.242.543.392.8.591l-.235-.238Zm8.881,3.289a2.308,2.308,0,0,1-.262.285A2.168,2.168,0,0,0-382.469,1524.734Zm8.724-5.937-.055.012Zm-8.649,5.835c.017-.024.029-.043.042-.064-.038.057-.074.113-.117.166C-382.442,1524.7-382.416,1524.664-382.394,1524.631Zm8.977-5.918c.085-.025.181-.053.305-.095.345-.121.149-.044-.071.031s-.468.133-.2.07c.021-.011.257-.078.539-.2a5.675,5.675,0,0,0,.828-.443c-.075.035-.335.2-.659.354A5.14,5.14,0,0,1-373.417,1518.713Zm-25.8-7.33a.284.284,0,0,1,.07-.057C-399.089,1511.268-399.095,1511.258-399.217,1511.383Zm10.662-27.042.009-.031a.14.14,0,0,0,0-.033Zm8.042,34.432a3.666,3.666,0,0,0,.3-.221Zm16.668-5.6.582-.346-.172.1Zm-6.1,3.677.3-.184-.283.161Zm-1.659,1c.062-.041.694-.424.111-.078C-371.554,1517.817-372.405,1518.336-371.6,1517.854Zm-12.89,7.828c-.54.011-.816-.09-.576-.013a1.877,1.877,0,0,0,.544.033c.042-.012.075.006.477-.052.1-.025-.06.01-.224.024S-384.6,1525.686-384.493,1525.682Zm.274-.026c-.155.02-.228.022-.274.026C-384.406,1525.678-384.315,1525.67-384.219,1525.656Zm-9.429-23.409,0,.043c.032-.081.069-.208.141-.461Zm2.1-7.338-.036.126.1-.227Zm1.694-6.177-.22.8C-389.93,1488.984-389.8,1488.676-389.858,1488.732Z" transform="translate(399.952 -1465.028)" fill="#111"/>
    </g>
  </g>
</svg>
