<svg xmlns="http://www.w3.org/2000/svg" width="92.139" height="99.469" viewBox="0 0 92.139 99.469">
  <g id="Group_2457" data-name="Group 2457" transform="translate(26.432 -0.01) rotate(19)">
    <g id="Background" transform="translate(0.033 0)">
      <rect id="Rectangle_29" data-name="Rectangle 29" width="69.46" height="81.283" rx="10" transform="translate(0)" fill="#fadcd9"/>
    </g>
    <g id="Illustration" transform="translate(9.219 13.132)">
      <path id="Path_96" data-name="Path 96" d="M253.265-398.12v-20.3h-2.72v-1.921c.039-.348.08-.717.121-.663-.082-.918.118-2.421,0-3.927.018-.333.029.283.05.106a14.34,14.34,0,0,1-.03-1.7l.009.1c-.011-2.4.026-3.43.048-6.127l-.043.2c.005-.58.019-.7.029-.973-.066-.665,0,1.628-.075,1.022.087-.769,0-4.087.1-4.606,0-.891-.048.261-.049-.63l.026-.237L250.7-438a3.96,3.96,0,0,1,.059-.9c0,.142.007.4.009.555.028-.7-.007-1.944,0-2.325l-.014.784c0-1.218-.01-2.567-.015-3.908,0-.67-.006-1.338-.009-1.985q0-.485-.01-.953c0-.162,0-.323-.007-.481,0-.112,0-.223,0-.333v-.081a.586.586,0,0,0-.08,0l-.164,0,.123.009.06,0c.016.006.05-.008.039.024.009-.028-.023-.016-.04-.018h-.17l-.21,0-.279,0-.432,0-.626-.007c-.381-.007-.785-.016-1.77-.008l.072,0c-.394.019-.921.028-1.46.026.5-.022-.936-.041-.284-.065-1.946.038-.963.03-2.248.1l-.3-.03c-.438.027-.475.041-1.459.049.808-.026-.628-.045.276-.079-2.065-.062-3.067.067-4.015-.025-.948.081,1.787.043,1.256.061.445.026-.783.061-1.431.053s-1.122-.1-2.782-.1l.341-.006c-.621-.02-1.217.028-1.979,0-.427.047-.989,0-1.112.058l1.522-.015c-.863.017-1.672.087-3.094.053.111-.012.534-.028.824-.037-.416-.017-.8.012-1.231-.005.123-.059,1.85-.014,2.775-.061-.446-.025-1.749.045-1.284-.02-.668.082-1.635-.009-2.759.054l.074-.035c-.178.006-.546.023-.874.022l.593-.046c-.91.04-1.754-.031-2.627-.009,1.827,0,.41.041,1.183.066-2.205.047-1.345-.083-3.67-.07.4,0,1.067.022.6.036-.48-.007-1.115-.019-1.41-.036-1.672.009.257.035-.455.056-.569-.04-.821.017-1.554.031l-.005-.034c-1.905-.019-.505.071-2.221.046l.725-.047-.894.013.185-.038c-.973.029-1.276.022-2.229.013.222.023-.124.06-.968.061a4.309,4.309,0,0,0-.874-.026,7.146,7.146,0,0,1,1.087-.017c.053-.011.266-.021.321-.031-.62-.022-1.558,0-1.991,0l.468.007-1.734.046c-.273-.012-.056-.022.158-.032l-1.11.022a2.784,2.784,0,0,1,.832-.066l-1.652.031a6.19,6.19,0,0,1-.634-.039c-.916-.013-2.247.052-3.461.034l-.151.007-.353.007h-.265v.087l0,.338,0,.416c0,.276,0,.552-.007.834,0,.565,0,1.155.016,1.832l-.042.768c.011,1.059.053-1.039.072.725.015,1.249-.036.466-.048.9.022.621.067,1.7.034,2.848,0-.383,0-.678-.006-1.033l-.022.875c-.04-1.055-.028-1.819-.06-1a15.559,15.559,0,0,1,.048,1.761c0,.163,0,.324,0,.477.005.015-.014.007-.021.01h-.045l-.261,0a3.026,3.026,0,0,0-.584.037l-.576-.016.355,0a8.069,8.069,0,0,0-1.017.014c-.124.009-.259.018-.452.025l-.341.008h-.5c-.031,0-.009.057-.016.083-.005.286-.01.528-.012.655,0,.108-.01.11-.015-.062l.02,1.121c0,.271-.01.259-.013.062l.007,1.57,0-.013c.009.25.029.8.039,1.067-.011.435-.008-.218-.017-.106l.019.947c-.019.386-.039-.4-.036-1.053-.074.885.019.786-.022,2.695l-.011-.895c-.041.577-.025,1.275-.049,2.286.013-.24.062-2.024.082-1-.005.289-.007.671.008,1.226a11.3,11.3,0,0,0-.017,1.224l-.034-.046c.011.733.028.675.043,1.106a8.668,8.668,0,0,1-.049,1.178c0,1.307.04-.9.048.645-.012,1.088,0,1.851.023,3.152-.011.761-.02-.133-.028.14l.026.675c0,.165-.008.112-.012.085.01.569.032.047.041.941.017.12,0,.579-.007,1.146,0,.285-.009.6-.013.9,0,.154,0,.308,0,.458,0,.077,0,.216.009.3l.3-.005c.273.008-.13.019-.059.03,1.538-.026,1.307-.02,2.557-.054l.53.01.205,0c.028,0,.007.047.012.067l0,.1c0-.039,0-.072,0-.1s0-.041,0-.057,0-.023-.011-.022a.015.015,0,0,1-.008,0s.026-.015.036,0l.009.111c.008.27.022.731.035,1.162,0-.043,0-.083,0-.124v.308c0-.061,0-.121,0-.184,0,.051,0,.1-.006.158,0,.073.007.136.01.2v.689a3.029,3.029,0,0,1-.028-.391c.006-.169.012-.337.018-.5a2.334,2.334,0,0,0-.055-.595c0,.094,0,.267.008.457,0-.09-.009-.148-.012-.106s0,.193.011.42l-.032.317.013.077-.018,1.822c.033,1.3.08,2.438.092,4.508-.022-.514-.036-.11-.062-.138.028-.565-.013-1.6-.009-2.675,0,.56-.015.437-.02.294l.027,1.913a7.8,7.8,0,0,0-.024.906c.042-.378.029,1.426.043,2.2a5.157,5.157,0,0,1-.026-1.088c-.03,1.047.05,1.354.024,2.382,0-.232,0-.357-.005-.449.012.542,0,1.866-.009,1.554v-.231c0,1.539,0,4.686.036,4.916a1.937,1.937,0,0,1-.046-.295l.075,1.914v.843c-.028.11-.063.286-.074-.6,0,.366-.007.82,0,1.592,0-.25.038-.623.041-.281-.029.938-.015.651-.039,1.807.005-.375.047.041.045.634-.006-.093-.04.049-.044-.167l.02.737.01.4v.029c0,.008.018,0,.026,0h.059l.111,0,.184,0c-.368.007-.065.033.265.044-.153-.007,1.275,0,1.667,0l-.625-.009c1.665,0,1.644-.054,3.3-.052-.2.008-.494.047.346.051.206-.01.684-.035,1.3-.058h1.707l-2.171.062c.623.008.173.012,1.106.01a6.529,6.529,0,0,1-.783.017l2.172,0c-.1-.021,1.661-.023,1.578-.039l-2.359.024c-.1-.021,1.364-.061,2.9-.057.391.008-.293.036-.26.043.2-.007,1.46-.015,1.6-.01l-.653.011c.857.007,1.4-.027,2.428-.009.355,0,1.061.023,1.122.012a1.355,1.355,0,0,1-.529-.067H221.7l-.051.007h.233l-.009-.007h1.238c.124.015-.947.035-.51.047.022,0,.345-.011.479-.013.373,0-.154.015.656.013.135-.018,1.649,0,.384-.015l1.774,0a3.5,3.5,0,0,1,.776-.033H227.7l.05,0,4.014.009c.14,0,.871.008.56.015l.886-.009c.905.013-1.042,0-.353.018.059-.009,1.209-.013,1.875-.019-.2-.013-1.539,0-2.206,0a1.221,1.221,0,0,1,.2-.014l.229-.005h6.12l4.164.007c.229,0,.571,0,.661-.007h6.225c-.018,0-.021,0,0,0h.337c.018,0,.044,0,.062,0h.014v-.007c0-.005.006-.014,0-.029v-.445c0,.031,0,.283.005.054,0-.021,0-.145-.005-.324V-394.9c0-.022,0-.04,0-.06v-1.084c0-.037,0-.085,0-.148v-1.933Zm-50.882-32.269c-.006-.253-.023-.758-.008-.943A7.351,7.351,0,0,1,202.382-430.389Zm3.607,16.327c-.007-.188,0-.479,0-.808C205.992-414.632,205.991-414.364,205.989-414.062Zm44.556-3.189h1.534c.006,0,.012,0,.016.005v3.018h-.568c-.1-.039-.212-.08-.2-.121-.271.081-.716-.118-1.162,0-.1-.018.084-.029.031-.05a1.258,1.258,0,0,1-.5.031l.028-.009c-.71.011-1.015-.026-1.813-.048l.059.043a1.889,1.889,0,0,1-.288-.029c-.2.065.482,0,.3.075-.228-.087-1.209,0-1.363-.1-.264,0,.078.049-.186.049l-.07-.026-.066.034c-.173-.005-.26-.037-.267-.06.042,0,.119-.006.164-.009-.224-.03-.632.013-.71,0l.254.015c-.72.026-1.6,0-2.294.05l.053.018c-.531.036-.426-.02-1.009,0l.021,0a2.759,2.759,0,0,1-.432.026c.147-.022-.277-.041-.084-.065a2.505,2.505,0,0,0-.665.1l-.088-.03a1.557,1.557,0,0,1-.432.049c.239-.026-.186-.045.082-.078-.611-.063-.908.067-1.188-.026-.281.081.529.043.372.061.131.026-.232.061-.424.052a5.343,5.343,0,0,0-.823-.1l.1-.006c-.184-.02-.36.028-.586,0-.126.047-.293,0-.329.058l.451-.015a4.641,4.641,0,0,1-.916.053,1.839,1.839,0,0,1,.244-.037c-.123-.017-.237.012-.364-.005a7.148,7.148,0,0,1,.821-.061c-.132-.025-.518.045-.38-.02-.2.083-.484-.009-.817.054l.022-.035a2.156,2.156,0,0,1-.258.022l.175-.046c-.269.04-.519-.031-.777-.009.541,0,.121.041.35.066-.667.048-.384-.089-1.13-.069.1-.006.38.019.222.035a3.7,3.7,0,0,1-.417-.036c-.495.009.076.035-.135.056-.168-.04-.243.018-.46.031l0-.034c-.564-.02-.15.071-.657.046l.214-.047-.265.013L234-414.4a3.739,3.739,0,0,1-.66.013c.065.023-.037.06-.286.062-.17-.019.1-.032-.259-.026a.635.635,0,0,1,.321-.017c.015-.011.078-.021.095-.032a5.1,5.1,0,0,0-.589,0,1.363,1.363,0,0,1,.139.007l-.513.046c-.081-.012-.017-.022.047-.031-.1,0-.176.019-.329.022.039-.026.03-.052.246-.066l-.488.031c-.033-.011-.251-.03-.188-.039-.271-.013-.665.052-1.024.034a.78.78,0,0,1-.133.014,9.119,9.119,0,0,0-1.037,0l-.227-.042c-.313.011.307.053-.215.072-.369.015-.138-.036-.267-.048a3.774,3.774,0,0,1-.843.034c.113-.008.2,0,.306-.006l-.259-.022c.312-.04.538-.028.3-.06-.037.082-1.006.014-1.042.094l-.17-.016.1,0c-.332-.036-.246.058-.674.048-.149-.005-.253-.016-.151-.026l-.332.02c-.1,0-.073-.015.023-.013l-.506.008,0,0c-.072.012-.236.031-.316.039-.128-.011.065-.008.032-.017l-.28.019c-.114-.019.118-.039.311-.037a.642.642,0,0,0-.285-.023.935.935,0,0,1-.466-.056,1.41,1.41,0,0,0,.236.037,1.789,1.789,0,0,1-.543-.241c.03.061.463.268.2.191-.072-.032-.164-.078-.3-.149.015-.024-.114-.1-.237-.234l.034-.013c-.134-.141-.134-.123-.209-.214a.453.453,0,0,1-.079-.308c-.08-.338.017.247-.084-.158a1.634,1.634,0,0,1,.1-.846c.106-.181,0,.041.042-.022a1.472,1.472,0,0,1,.075-.171c.028-.037.025-.02.024-.012.088-.13-.024-.035.142-.223a.647.647,0,0,1,.262-.188,3.121,3.121,0,0,1,.47-.172c.076,0-.033.024-.008.032a1.95,1.95,0,0,1,.385-.05l.347-.029.314.019c-.231-.022.064-.049.322-.07l-.037,0h.092l-.054,0,.046.006.06-.011h.2c0,.009-.046.019-.11.028l-.149-.018c-.1.018-.2.038-.176.055.027,0,.078-.006.135-.008-.026,0-.043.009-.031.012a.851.851,0,0,0,.124-.011l.094.032.023-.013.539.018c.386-.033.721-.08,1.333-.092-.152.022-.033.037-.041.063-.167-.028-.474.013-.792.008.166,0,.129.016.087.02l.566-.027c-.013.022.12.016.268.024-.112-.042.422-.03.652-.043.014.014-.041.028-.322.026.31.03.4-.05.7-.024a.683.683,0,0,0-.132.005,2.054,2.054,0,0,1,.46.009h-.068c.455,0,1.386,0,1.454-.036a.247.247,0,0,1-.087.046l.566-.075h.25c.033.029.085.063-.178.074.109,0,.243.007.471,0-.074,0-.184-.038-.083-.041.277.029.192.015.534.039-.111-.005.012-.047.188-.046-.028.006.014.04-.05.044l.436-.04c-.109.007-.019.033.078.044-.046-.007.377,0,.493,0l-.185-.009c.493,0,.486-.054.975-.052-.059.008-.146.047.1.051.061-.011.2-.035.386-.059h.548c-.235.024-.5.048-.686.062a2.789,2.789,0,0,0,.328.011c.1.009-.151.015-.232.016l.643,0c-.029-.021.491-.023.467-.039l-.7.024a3.593,3.593,0,0,1,.859-.057c.115.008-.087.036-.077.043.059-.007.432-.015.474-.01l-.193.011c.253.007.413-.027.718-.009.1,0,.314.023.332.012-.1-.013-.15-.041-.151-.067h.353l-.015.007h.069l0-.007h.366c.037.015-.28.035-.15.047a1.1,1.1,0,0,1,.141-.013c.111,0-.046.015.194.013.04-.018.488,0,.113-.016.235-.005.25,0,.525,0-.058-.008.07-.022.231-.033h.3l.015,0,1.188.009c.041,0,.258.008.165.015.065,0,.124-.008.262-.009.268.013-.308,0-.1.018.017-.009.358-.013.555-.018-.061-.013-.455,0-.652,0,0-.006.043-.013.116-.019h1.826l1.229.007c.068,0,.169,0,.2-.007h1.843c-.005,0-.007,0,0,0l.24,0h.023c-.007,0-.083,0-.014.005a.916.916,0,0,1,.1-.005h4.406Zm-9.452,5.647a1.03,1.03,0,0,1-.093.193C241.024-411.469,241.055-411.533,241.093-411.6Zm-2.137,4.822a1.013,1.013,0,0,1-.1.231A.527.527,0,0,1,238.956-406.781Zm-14.429-7.594a.389.389,0,0,1-.249-.061C224.346-414.414,224.481-414.4,224.528-414.376Zm1.678-2.833c.071,0,.15,0,.239,0A1.318,1.318,0,0,1,226.205-417.209Zm2.838-1.323a2.315,2.315,0,0,1,.326,0C229.274-418.525,229.165-418.526,229.044-418.532Zm14.574-.007c.2-.006.61-.023.759-.008A4.768,4.768,0,0,1,243.618-418.538Zm-36.412-27.769h1.546c.28.039.577.079.534.121.739-.082,1.948.118,3.161,0,.268.018-.228.029-.085.05a9.217,9.217,0,0,1,1.366-.031l-.078.01c1.933-.011,2.761.026,4.931.048l-.161-.043c.467,0,.565.018.783.029.535-.066-1.31,0-.822-.075.619.087,3.289,0,3.707.1.718,0-.211-.049.507-.049l.19.026.181-.034a2.579,2.579,0,0,1,.725.06c-.114,0-.325.007-.447.009.61.03,1.72-.013,1.93,0l-.689-.015c1.958-.026,4.349,0,6.241-.05l-.143-.018c1.445-.036,1.157.02,2.743,0l-.058,0c.317-.019.742-.028,1.176-.026-.4.022.753.041.228.065a17.906,17.906,0,0,0,1.81-.1l.239.03a11.315,11.315,0,0,1,1.175-.05c-.65.026.506.045-.222.079,1.663.063,2.469-.067,3.231.026.763-.081-1.439-.043-1.011-.061-.358-.026.63-.061,1.152-.052s.9.1,2.239.1l-.274.006c.5.019.979-.028,1.593,0,.344-.048.8,0,.9-.058l-1.225.015c.695-.017,1.346-.087,2.491-.053-.089.012-.43.028-.664.037.334.017.644-.012.991.005-.1.059-1.489.014-2.234.061.359.024,1.408-.045,1.034.02.538-.083,1.316.009,2.221-.054l-.06.035c.143-.006.44-.022.7-.022l-.477.046c.183-.01.363-.013.541-.012l.265,0,.095.007c.017.013,0,.057,0,.079,0,0,0,.051,0,.1l0,.13c0,.174,0,.348,0,.523,0-.368,0-.572.005-.682,0-.065,0-.061.008-.069s.006-.007.009-.006.031.076.043-.093c.006.077.009.322.01.467s0,.282,0,.391c-.006.215-.018.352-.031.5a13.32,13.32,0,0,0-.046,1.5c0-.324.022-.857.036-.48-.006.387-.019.9-.036,1.134.009,1.346.035-.206.056.367a10.212,10.212,0,0,0,.031,1.251l-.034,0c-.02,1.534.071.407.046,1.787l-.047-.584.013.72-.038-.148c.029.783.022,1.027.013,1.794.023-.178.06.1.061.78a2.776,2.776,0,0,0-.026.7,4.568,4.568,0,0,1-.017-.875c-.011-.043-.021-.214-.031-.258-.022.5,0,1.254,0,1.6,0-.133.005-.291.007-.377l.046,1.4c-.011.219-.022.045-.031-.127.007.28.012.482.022.894a1.842,1.842,0,0,1-.066-.67l.031,1.33a4.056,4.056,0,0,1-.039.51c-.013.738.052,1.809.034,2.786,0,.051.01.152.013.361,0,.918-.033,1.732,0,2.821l-.043.618c.011.853.053-.836.072.583.015,1.005-.036.376-.048.728.023.5.067,1.369.034,2.293,0-.309,0-.545-.006-.831l-.022.7c-.04-.849-.028-1.464-.059-.8.081.1.014,2.735.094,2.833l-.016.464c0-.132,0-.154,0-.285a5.226,5.226,0,0,0,.014.819c.009.1.019.208.026.364,0,.08,0,.169.007.274,0,.078,0,.167,0,.274-.011.014-.047,0-.067.005l-.083,0-.187-.006c-.087,0-.089-.01.05-.015l-.9.02c-.218,0-.208-.011-.05-.013l-1.264.007.01,0-.859.039c-.35-.011.176-.008.086-.017l-.762.019c-.311-.019.321-.038.848-.036-.712-.074-.632.02-2.169-.022l.72-.011c-.464-.041-1.026-.025-1.839-.049.193.012,1.629.062.8.081-.233,0-.541-.007-.987.008a7.159,7.159,0,0,0-.985-.017l.037-.034c-.59.011-.543.028-.89.043a5.677,5.677,0,0,1-.948-.049c-1.052,0,.727.04-.519.048-.875-.011-1.49,0-2.537.024-.612-.011.107-.02-.113-.029l-.543.026c-.133,0-.09-.009-.068-.013-.458.011-.038.032-.757.041-.1.017-.466.005-.922-.007l-.356-.008-.168,0-.049,0c-.017,0-.036,0-.029-.02,0-.1,0-.2,0-.3,0-.118-.007-.234-.01-.349.009-.22.019.106.031.039-.026-1.221-.02-1.047-.054-2.05l.019-.854c-.022.628-.049-.174-.07-.877,0,.035,0,.067,0,.1v-.248c0,.049,0,.1,0,.148,0-.041,0-.084.006-.127,0-.059-.007-.109-.011-.163v-.555a1.945,1.945,0,0,1,.028.315c-.006.135-.012.272-.018.4.018.277.038.536.055.479,0-.077,0-.215-.008-.368,0,.072.009.119.012.085s0-.155-.011-.339l.032-.255-.013-.062.019-1.467c-.033-1.049-.08-1.962-.092-3.628.022.413.036.089.063.111-.028.454.013,1.29.008,2.154,0-.451.015-.352.02-.237l-.028-1.54a5,5,0,0,0,.024-.729c-.011.076-.017.042-.023-.061,0-.041,0-.091-.006-.151v-.019h.061l.122,0,1.236-.01a3.418,3.418,0,0,1-.876.026c.843.03,1.09-.05,1.917-.023-.187,0-.287,0-.361.005.436-.013,1.5,0,1.251.008H236.9c1.239,0,3.772,0,3.956-.035a1.277,1.277,0,0,1-.237.046l1.541-.075h.679c.089.029.23.063-.483.074.3,0,.66.008,1.282,0-.2,0-.5-.038-.227-.041l.7.022h.041a.2.2,0,0,0,0-.039c0-.028,0-.057,0-.088,0-.051,0-.107,0-.175,0-.12.007-.28.012-.514-.005.3-.047-.034-.046-.51.006.075.04-.04.045.135l-.041-1.187c.007.3.033.052.044-.213-.007.123,0-1.026,0-1.342l-.009.5c0-1.34-.054-1.323-.052-2.652.008.161.047.4.051-.278-.011-.166-.035-.551-.059-1.05v-1.374c.022.618.046,1.295.062,1.748.008-.5.012-.14.011-.89a4.268,4.268,0,0,1,.016.63l0-1.748c-.021.078-.023-1.337-.039-1.27l.024,1.9c-.022.077-.061-1.1-.057-2.336.008-.315.036.236.043.21-.007-.161-.015-1.176-.01-1.29l.011.526c0-.345,0-.626-.009-.925,0-.152,0-.3-.006-.471v-.27c0-.019,0-.035-.021-.029l-.337,0c-.286,0-.854-.024-.9-.012.279.013.421.041.426.067h-.975l.042-.008H242.2l.007.007h-1c-.1-.015.762-.035.411-.047-.017.005-.277.011-.386.013a4.566,4.566,0,0,0-.528-.013c-.109.018-1.327,0-.308.016l-1.428,0c.158.008-.189.022-.625.033h-.821l-.042,0-3.231-.008c-.113,0-.7-.008-.451-.015l-.713.009c-.728-.013.839,0,.284-.018-.047.009-.973.013-1.509.018.165.013,1.238,0,1.775,0a.717.717,0,0,1-.165.014l-.183.006h-4.954l-3.325-.007c-.183,0-.456,0-.53.007h-5.012c.014,0,.015,0,0,0l-.643,0h-.077c.024,0,.228,0,.044-.005-.017,0-.115,0-.257.005h-7.2v4.416h-4.122Zm26.517,21.842c.007.151,0,.386,0,.65C233.716-424.007,233.716-424.225,233.722-424.465ZM203.7-435.217l.008-.04a1.511,1.511,0,0,1,1.475-1.189H211.9c.1.039.212.08.2.121.271-.082.716.118,1.162,0,.1.018-.084.029-.031.05a1.266,1.266,0,0,1,.5-.031l-.028.01c.71-.011,1.015.026,1.813.048l-.059-.043a1.861,1.861,0,0,1,.288.029c.2-.065-.482,0-.3-.075.228.087,1.209,0,1.363.1.264,0-.077-.048.186-.048l.07.026.067-.034c.173.005.26.037.267.06-.042,0-.119.006-.165.009.224.03.632-.013.71,0l-.254-.015c.72-.026,1.6,0,2.294-.05l-.052-.018c.531-.036.425.02,1.008,0l-.021,0a2.717,2.717,0,0,1,.432-.027c-.147.022.277.041.084.065a2.488,2.488,0,0,0,.665-.1l.088.03a1.565,1.565,0,0,1,.432-.05c-.239.026.186.045-.082.079.611.063.908-.067,1.188.026.281-.081-.529-.043-.372-.061-.131-.026.232-.061.423-.053a5.275,5.275,0,0,0,.823.1l-.1.006c.184.019.36-.028.586,0,.126-.047.293,0,.329-.058l-.451.015a4.646,4.646,0,0,1,.916-.053,1.92,1.92,0,0,1-.244.037c.123.017.237-.012.364.005a7.086,7.086,0,0,1-.821.061c.132.025.518-.045.38.02.2-.082.484.009.816-.054l-.022.035a2.263,2.263,0,0,1,.258-.022l-.175.046c.269-.039.519.032.777.01-.541,0-.121-.041-.35-.066.667-.048.384.089,1.13.069-.1.005-.38-.019-.221-.035a3.692,3.692,0,0,1,.417.036c.495-.009-.076-.035.135-.056.168.041.243-.017.46-.03l0,.034c.564.02.15-.071.657-.046l-.214.047.265-.013-.055.038a3.738,3.738,0,0,1,.66-.013c-.065-.023.037-.06.287-.062.17.019-.1.032.258.026a.636.636,0,0,1-.321.017c-.016.011-.079.021-.1.032a5.093,5.093,0,0,0,.589,0c-.05,0-.109,0-.139-.007l.513-.047c.081.012.017.022-.047.031.1,0,.176-.019.329-.022-.04.026-.03.052-.247.066l.489-.031c.033.011.251.03.187.039.068,0,.143,0,.224,0l.125-.007a.164.164,0,0,0,.046-.008l.04-.009a.117.117,0,0,1,.007.033.485.485,0,0,1,0,.056c0,.045,0,.089,0,.136a.754.754,0,0,1,.013.133,9.107,9.107,0,0,0,0,1.037l-.042.227c.011.313.053-.308.072.215.015.369-.036.138-.047.267.011.092.028.218.037.363,0,.071.008.166.007.181s0,.032,0,.05-.035,0-.049,0c.051.007.032-.041.035-.075-.015.022,0,.065-.038.047.02,0-.008-.04-.006-.046s0,0-.006-.018,0-.044,0-.061c-.006-.065-.011-.061-.026.061.021.011.03.009.037.033s0,.016-.012.016l-.078,0a1.432,1.432,0,0,0-.52.046l-.171-.016.105,0c-.332-.036-.247.058-.674.048-.149-.006-.253-.016-.152-.026l-.332.02c-.1,0-.073-.015.023-.013l-.506.008,0,0c-.072.012-.236.031-.316.039-.128-.011.065-.008.032-.017l-.28.019c-.114-.019.118-.039.312-.037-.262-.074-.232.02-.8-.022l.265-.01a5.732,5.732,0,0,0-.677-.049c.071.013.6.063.3.082a2.359,2.359,0,0,0-.363.008c0-.026-.161-.019-.362-.017l.014-.034a2.139,2.139,0,0,0-.327.044.805.805,0,0,1-.349-.049c-.387,0,.267.04-.191.048-.322-.011-.547,0-.933.024-.225-.011.039-.02-.041-.029l-.2.026c-.049,0-.033-.008-.025-.012-.168.011-.014.032-.278.041-.071.035-.543-.049-.87-.009-.08-.009.039-.019.014-.031-.449.027-.385.02-.753.054l-.314-.019c.231.022-.064.048-.322.07l.037,0h-.091l.054,0-.046-.006-.06.011h-.2c0-.009.046-.018.109-.028l.149.018c.1-.018.2-.037.176-.054-.027,0-.078.006-.135.008.026-.005.044-.009.031-.012a.794.794,0,0,0-.124.011l-.094-.032-.023.013-.539-.018c-.386.033-.721.08-1.334.092.152-.022.033-.036.041-.063.167.028.474-.013.791-.008-.165,0-.129-.016-.087-.02l-.566.028c.013-.022-.12-.016-.268-.024.112.042-.422.029-.652.042-.014-.014.041-.028.322-.025-.31-.03-.4.049-.7.024a.635.635,0,0,0,.132-.006,2.036,2.036,0,0,1-.46-.008h.068c-.455,0-1.386,0-1.454.036a.239.239,0,0,1,.087-.046l-.566.075h-.25c-.032-.029-.085-.063.178-.074-.109,0-.243-.007-.471,0,.074,0,.184.039.083.041-.278-.029-.193-.016-.535-.04.111.006-.012.047-.187.046.027-.006-.015-.04.049-.044l-.436.04c.109-.007.019-.033-.078-.044.046.008-.377,0-.493,0l.185.009c-.493,0-.486.054-.975.052.059-.007.146-.047-.1-.051-.061.01-.2.035-.385.058h-.549c.235-.023.5-.048.686-.062a2.705,2.705,0,0,0-.327-.01c-.1-.009.15-.015.231-.017l-.642,0c.028.02-.491.022-.467.039l.7-.024a3.612,3.612,0,0,1-.859.057c-.116-.008.087-.036.077-.043-.059.007-.432.014-.474.009l.193-.011c-.254-.007-.414.027-.719.01-.1,0-.314-.024-.332-.012.1.013.15.041.151.066h-.353l.015-.007h-.069l0,.007h-.367c-.036-.015.28-.035.151-.047a1.092,1.092,0,0,1-.142.013c-.111,0,.046-.015-.194-.013-.04.018-.488,0-.113.015-.235.006-.25,0-.525,0,.058.007-.07.022-.232.032h-.3l-.015,0-1.188-.009c-.041,0-.258-.008-.166-.015-.065,0-.124.008-.262.009-.268-.013.308,0,.1-.018-.017.009-.358.013-.555.019.061.013.455,0,.653,0,0,.007-.043.013-.116.02h-1.835l-1.22-.007c-.067,0-.167,0-.195.007h-.275a1.506,1.506,0,0,1-.538-.1,1.429,1.429,0,0,1-.143-.066,1.509,1.509,0,0,1-.631-.606,1.335,1.335,0,0,1-.085-.173s0-.008-.007-.023a.038.038,0,0,1-.007-.011,1.447,1.447,0,0,1-.069-.224v0a1.534,1.534,0,0,1-.028-.278c0-.015,0-.032,0-.042A1.468,1.468,0,0,1,203.7-435.217Zm25.419,1.668a.651.651,0,0,1-.279.008A1.287,1.287,0,0,1,229.118-433.549Zm-5.917.085c-.071,0-.15,0-.239,0A1.276,1.276,0,0,1,223.2-433.465Zm-16.118,14.979-1.67-.007c-.092,0-.229,0-.266.007H203.67v-1.04c0,.007,0,.01,0,0l0-.321v-.037c0,.012,0,.112,0,.019,0-.008,0-.059,0-.131v-1.021c0-.015,0-.035,0-.06s0-.057,0-.084v-11.093h.775c.141.039.29.08.268.121.371-.082.978.118,1.586,0,.134.018-.115.029-.043.05a2.336,2.336,0,0,1,.685-.031l-.039.01c.97-.011,1.385.026,2.475.048l-.08-.043a3.477,3.477,0,0,1,.393.029c.269-.065-.657,0-.412-.075.311.087,1.65,0,1.86.1.361,0-.105-.048.255-.048l.1.026.091-.034c.236,0,.355.037.364.059-.057,0-.163.007-.224.009.306.03.863-.013.968,0l-.346-.015c.982-.026,2.182,0,3.132-.05l-.072-.018c.725-.036.581.02,1.377,0l-.029,0a5.123,5.123,0,0,1,.59-.026c-.2.022.378.041.115.065a4.523,4.523,0,0,0,.908-.1l.12.03a2.875,2.875,0,0,1,.589-.05c-.326.026.254.045-.112.079.834.063,1.239-.067,1.622.026.383-.081-.722-.043-.507-.061-.18-.026.316-.061.578-.053a9.8,9.8,0,0,0,1.123.1l-.138.005c.251.019.492-.028.8,0,.172-.048.4,0,.449-.058l-.615.015a8.608,8.608,0,0,1,1.25-.054,3.224,3.224,0,0,1-.333.037c.168.017.324-.012.5.006-.05.059-.747.014-1.121.061.18.025.706-.045.519.02.269-.083.66.009,1.114-.054l-.03.035c.072-.006.22-.022.353-.022l-.239.046c.367-.039.708.032,1.061.01-.738,0-.165-.041-.478-.066.91-.048.523.089,1.543.069-.138.005-.518-.019-.3-.035.194.007.45.019.569.037.675-.009-.1-.035.184-.056a2.592,2.592,0,0,0,.628-.031l0,.034c.769.02.2-.071.9-.046l-.293.047.361-.013-.074.038a7.094,7.094,0,0,1,.9-.013c-.089-.023.05-.06.391-.061.232.019-.13.031.353.026a1.17,1.17,0,0,1-.439.017c-.022.011-.108.021-.13.031.25.022.629,0,.8,0-.067,0-.148,0-.189-.007l.7-.047c.11.012.023.022-.064.032.142,0,.24-.019.448-.022-.054.026-.041.052-.336.066l.667-.031c.045.011.343.03.256.039.093,0,.2,0,.306,0l.17-.007.043,0,.01,0,.022,0c.047-.019.034.022.041.067,0,.125,0,.251,0,.374a1.381,1.381,0,0,1,.013.181c0,.461-.033.869,0,1.416l-.042.31c.011.428.053-.42.072.293.015.5-.036.189-.047.365a7.059,7.059,0,0,1,.034,1.15c-.009-.153,0-.274-.006-.417l-.022.353c-.04-.426-.028-.735-.059-.4.081.05.014,1.372.093,1.422l-.016.233c0-.066,0-.078,0-.143-.036.453.058.337.048.92-.005.2-.016.345-.026.206l.02.453c0,.132-.015.1-.013-.031l.008.691,0-.005c.01.109.03.327.039.431-.011.176-.008-.088-.017-.043l.019.383c-.019.156-.039-.161-.036-.426a8.814,8.814,0,0,0-.022,1.088l-.011-.361c-.041.233-.025.515-.049.923.013-.1.062-.818.082-.4a4.264,4.264,0,0,0,.008.495,1.854,1.854,0,0,0-.017.494l-.034-.019a3.858,3.858,0,0,0,.043.447,1.438,1.438,0,0,1-.05.475c0,.528.04-.364.048.26-.011.439,0,.748.023,1.273-.01.308-.02-.054-.028.057l.026.272c0,.067-.008.045-.012.034a3.054,3.054,0,0,1,.041.38.624.624,0,0,1,.007.164c0,.028,0,.061-.006.1l0,.046-.053,0c-.046-.007-.205-.012-.321-.013s-.249,0-.361.011c-.11-.009.053-.019.02-.031-.613.026-.525.02-1.029.054l-.429-.019c.315.022-.087.049-.44.07l.051,0h-.125l.074,0-.064-.006-.081.011H229.4a.517.517,0,0,1,.158-.028l.2.018c.139-.018.269-.038.24-.055-.037,0-.107.007-.185.008.036,0,.06-.009.043-.012a1.37,1.37,0,0,0-.169.011l-.128-.033-.031.013-.736-.018c-.526.033-.985.08-1.82.092.207-.022.044-.036.056-.063.228.028.647-.013,1.081-.008-.226,0-.176-.016-.119-.02l-.773.028c.017-.022-.164-.016-.366-.024.153.042-.576.029-.89.042-.02-.014.056-.028.439-.026-.423-.03-.547.05-.962.024a1.192,1.192,0,0,0,.181-.006,3.787,3.787,0,0,1-.628-.008h.093c-.621,0-1.892,0-1.985.035a.39.39,0,0,1,.119-.046l-.773.075H222.1c-.044-.029-.115-.063.243-.074-.148,0-.331-.007-.643,0,.1,0,.252.039.114.041-.379-.029-.263-.016-.73-.04.151.005-.017.047-.256.046.037-.006-.02-.04.067-.044l-.6.04c.149-.007.026-.033-.107-.044.062.007-.515,0-.673,0l.252.009c-.672,0-.664.054-1.331.052.081-.008.2-.047-.14-.051-.083.01-.276.035-.526.058h-.749c.321-.024.687-.048.936-.062-.252-.008-.07-.012-.447-.01-.133-.009.206-.015.316-.017l-.877,0c.039.021-.671.023-.637.039l.953-.024a6.681,6.681,0,0,1-1.173.057c-.158-.008.118-.036.105-.043-.08.007-.59.015-.647.01l.264-.011c-.346-.007-.564.027-.98.01-.143,0-.428-.024-.454-.012.141.013.2.041.206.066h-.482l.021-.007h-.094l0,.007h-.5c-.049-.015.382-.035.206-.047-.009,0-.139.011-.194.013a1.156,1.156,0,0,0-.265-.013c-.054.018-.666,0-.155.015-.32.006-.34,0-.717,0,.08.008-.1.022-.316.033h-.41l-.021,0-1.622-.009c-.056,0-.352-.008-.226-.015-.088,0-.169.008-.358.009-.365-.013.421,0,.143-.018-.024.009-.489.013-.758.019.083.013.622,0,.891,0a.526.526,0,0,1-.158.02h-2.5Zm25.305-4.56a2.4,2.4,0,0,1-.008-.381A1.2,1.2,0,0,1,232.388-423.046Zm-10.406,10.432c0,.131-.006.281-.011.478,0-.115-.007-.289-.012-.452,0-.083,0-.163,0-.233a.405.405,0,0,1,.006-.085.286.286,0,0,1,.015.1C221.979-412.739,221.98-412.679,221.982-412.613Zm-14.659,18.576c0-.006,0-.016,0-.024,0,.018.013.02.031.018h.054l.113,0Zm42.053.078v.029h-1.746c-.316-.039-.651-.08-.6-.121-.834.082-2.2-.118-3.57,0-.3-.018.258-.029.1-.05a11.84,11.84,0,0,1-1.543.03l.088-.009c-2.182.011-3.118-.026-5.569-.048l.182.043c-.527-.005-.638-.019-.884-.029-.6.066,1.479,0,.929.075-.7-.087-3.715,0-4.187-.1-.81,0,.237.048-.573.049l-.215-.026-.2.034a3.283,3.283,0,0,1-.819-.059c.129,0,.367-.007.5-.009-.641-.028-1.769.007-2.114,0l.713.014c-2.211.026-4.912,0-7.048.049l.162.018c-1.632.036-1.307-.019-3.1,0l.065,0c-.358.019-.838.028-1.328.026.452-.022-.851-.041-.258-.065-1.769.038-.875.029-2.044.1l-.269-.03c-.4.027-.432.041-1.326.05.734-.026-.571-.045.251-.079-1.878-.063-2.788.067-3.649-.026-.862.081,1.625.043,1.142.061.4.026-.712.061-1.3.053s-1.02-.1-2.529-.1l.31-.005c-.282-.01-.559,0-.851,0l-.454,0-.189,0-.058,0-.028,0a.224.224,0,0,1,0-.032.339.339,0,0,1-.014-.065l0-.039,0-.076c0-.105,0-.208,0-.3a1.271,1.271,0,0,0-.034-.4l.008.692,0,.247a1.448,1.448,0,0,1-.016-.148c-.008-.2-.017-.4-.026-.622-.015-.443-.024-.951-.008-1.6.012.1.028.485.037.749.017-.378-.012-.727.005-1.119.059.111.014,1.682.061,2.522.025-.406-.045-1.59.02-1.168-.083-.607.009-1.487-.054-2.508l.035.067c-.006-.161-.022-.5-.022-.794l.046.539c-.039-.827.032-1.595.01-2.388,0,1.661-.041.373-.066,1.075-.047-2,.083-1.222.07-3.336,0,.365-.022.97-.036.544.006-.436.019-1.013.036-1.281-.009-1.52-.035.233-.056-.413a13.232,13.232,0,0,0-.031-1.413l.034,0c.02-1.732-.071-.459-.046-2.018l.047.659-.013-.813.038.168c-.029-.884-.022-1.159-.013-2.026-.023.2-.06-.113-.061-.88a3.567,3.567,0,0,0,.026-.795,5.907,5.907,0,0,1,.017.988c.011.048.021.242.031.292.022-.564,0-1.416,0-1.81,0,.151-.006.33-.007.426l-.046-1.576c.012-.248.022-.051.031.144-.007-.317-.012-.544-.022-1.01a2.322,2.322,0,0,1,.066.757l-.031-1.5a5,5,0,0,1,.039-.576c.007-.417-.007-.927-.019-1.472,0-.233-.01-.473-.015-.713-.01-.03.019-.023.039-.024h.132l.418,0c.057,0,.173-.01.407-.013,1.037,0,1.956.033,3.186,0l.174.011.083.005.021.006c.035,0,.022.032.013.052.011.888.053-.934.072.63.015,1.135-.036.424-.048.822.01.284.023.675.038,1.115,0,.225.005.462.008.709,0,.124,0,.249,0,.378l0,.223,0,.157v.08c0,.022-.014.067.024.056a.126.126,0,0,1-.025,0v-.178c0-.067,0-.132,0-.2s0-.155,0-.23c0-.151,0-.3,0-.461l-.022.87c-.015-.521-.027-.955-.033-1.168s-.011-.187-.027.186a2.442,2.442,0,0,1,.038.532c0,.2,0,.436.007.685a2.394,2.394,0,0,0,.245.005h.507a13.217,13.217,0,0,0,1.6-.046l.524.016-.322,0c1.019.036.757-.058,2.069-.048.458.005.777.016.465.026l1.02-.02c.246,0,.235.01.056.013l1.427-.007-.011,0,.97-.039c.4.011-.2.008-.1.017l.861-.019c.351.019-.363.039-.958.037a5.883,5.883,0,0,0,.875.023l.572-.012h.2a.259.259,0,0,1,.085.007c0,.129-.006.277-.01.448l0-.384c0-.017.005-.047-.01-.052l-.072,0a.234.234,0,0,1,.058.013c.008.008,0,.031,0,.042,0,.144-.006.294-.009.456,0,.338-.011.722-.018,1.187.013-.218.062-1.84.082-.906-.005.263-.007.61.008,1.114a9.318,9.318,0,0,0-.017,1.112l-.034-.042a4.48,4.48,0,0,0,.02.512c.011.027,0,.029-.025.032l-.036.006-.128.006a7.228,7.228,0,0,1-1.071-.049c-1.188,0,.821.04-.586.048-.989-.011-1.683,0-2.865.023-.692-.01.121-.019-.127-.028l-.613.026c-.15,0-.1-.008-.077-.012-.517.011-.042.032-.855.041-.219.035-1.668-.049-2.673-.009-.247-.009.12-.019.044-.031l-.791.015-.2,0h-.046c-.009.006,0,.028,0,.041,0,.03,0,.059,0,.088,0,.093,0,.176,0,.258,0,.132.006.256.011.419,0,.081.005.173.008.279q0,.106.005.228a1.424,1.424,0,0,0,.252,0l.965.019c-.709-.022.2-.049.99-.07l-.115,0h.284l-.17,0,.143.006.184-.011h.627a2.465,2.465,0,0,1-.355.028l-.456-.018a1.927,1.927,0,0,0-.54.055l.415-.008c-.082,0-.134.009-.1.012s.175,0,.382-.011l.288.033.07-.013,1.657.018c1.185-.033,2.216-.08,4.1-.092-.467.022-.1.037-.126.063-.513-.028-1.457.013-2.432.008.509,0,.4.016.267.02l1.739-.028a6.358,6.358,0,0,0,.823.024c-.172-.021.152-.028.608-.032l.36,0h.174c.04,0,.1-.014.078.044,0,.235,0,.458.006.628-.007.022-.014-.009-.019-.154,0-.075,0-.174-.006-.31,0-.05,0-.108,0-.172,0-.007-.006-.005-.009-.008s0,.022,0,.031c0,.084,0,.16,0,.233.005.169.011.324.015.481.013.306.026.609.013,1.076,0-.211,0-.324-.005-.408.013.492,0,1.7-.008,1.413v-.21c0,.175,0,.373,0,.585,0,.106,0,.217,0,.329v.113c-.013.02-.059.006-.09.01l-1.422,0c-.916.006-1.683.015-1.788.031a1.629,1.629,0,0,1,.268-.046l-1.739.075h-.767c-.1-.029-.26-.063.545-.074-.333,0-.745-.007-1.448,0,.228,0,.567.038.256.041-.852-.029-.592-.015-1.643-.039.341.005-.038.046-.576.046.084-.007-.045-.04.152-.044l-1.34.04c.334-.007.059-.033-.241-.044.017,0,.012,0-.011,0h-.143c-.037,0-.1-.009-.127.01,0,.05,0,.1,0,.161v.259c0,.176,0,.367,0,.536,0,.1,0,.2,0,.282.008.019-.016.068.017.059h.186c-.053,0-.119,0-.168-.009h.074l.422-.006.607-.019c.372-.014.743-.028,1.493-.027-.182.007-.449.047.315.051.187-.011.622-.035,1.185-.058h1.553l-1.974.062c.566.008.158.013,1.005.011a5.376,5.376,0,0,1-.712.017l1.974,0c-.088-.021,1.509-.022,1.434-.039l-2.144.024c-.087-.021,1.24-.06,2.638-.057.356.008-.266.036-.237.043.182-.007,1.328-.014,1.456-.01l-.593.011c.389,0,.707,0,1.044-.009l.514-.006c.013,0,.027,0,.039,0v.041c0,.044,0,.09,0,.137,0,.1,0,.213,0,.332,0,.323-.023.964-.012,1.02.013-.315.041-.475.067-.48v1.1l-.007-.047v.212l.007-.008v1.126c-.015.113-.035-.861-.047-.464.005.02.011.313.013.436,0,.17-.006.135-.009.149a.706.706,0,0,0,0,.091c-.007.015.014.057-.015.061h-.188c-.123.018-1.5,0-.348.015l-1.613,0a2.983,2.983,0,0,1-.706.032h-.927l-.048,0-3.649-.009c-.127,0-.792-.008-.508-.015l-.806.009c-.823-.013.948,0,.321-.018-.027,0-.3.008-.645.011l-.545,0-.269,0a.57.57,0,0,0-.119.007c.017-.007.054.005.076,0h.644l1.16-.009a.942.942,0,0,1-.186.014l-.2.005H211.98v1.17h2.914l3.783.007c.208,0,.519,0,.6-.007h2.812v.02h2.826c-.016,0-.018,0,0,0l.736,0h.076c-.024,0-.261,0-.05.005.019,0,.132,0,.3-.005h23.4Zm-33.5-14.079c-.171.007-.436,0-.734,0Zm-3.954,4.918v.042c0,.011,0,.018.007.022s-.011,0-.014,0l0-.2,0-.284v.426Zm38.446,3.709c-.088-.018.075-.03.028-.05a1.026,1.026,0,0,1-.451.03l.026-.009c-.637.011-.91-.026-1.627-.048l.053.043a1.539,1.539,0,0,1-.258-.029c-.176.065.432,0,.271.075-.2-.087-1.085,0-1.223-.1-.237,0,.069.049-.167.049l-.063-.026-.06.034c-.155-.005-.234-.037-.239-.06.037,0,.107-.006.148-.009-.2-.03-.568.013-.637,0l.228.015c-.646.026-1.435,0-2.059.049l.047.019c-.476.036-.382-.019-.9,0l.019,0a2.146,2.146,0,0,1-.388.026c.132-.022-.248-.041-.075-.065a2.024,2.024,0,0,0-.6.1l-.079-.03a1.24,1.24,0,0,1-.387.05c.214-.026-.167-.045.074-.079-.549-.062-.814.067-1.066-.025-.252.081.475.043.334.061.118.026-.208.061-.38.052a4.314,4.314,0,0,0-.738-.1l.091-.006c-.165-.02-.323.028-.525,0-.114.047-.263,0-.3.058l.4-.015a3.739,3.739,0,0,1-.821.053,1.473,1.473,0,0,1,.219-.037c-.11-.017-.213.012-.327-.005.033-.06.491-.014.737-.061-.119-.025-.465.045-.341-.02-.178.083-.434-.008-.733.055l.02-.035a1.79,1.79,0,0,1-.232.022l.157-.046c-.242.04-.466-.031-.7-.009.485,0,.109.041.314.066-.579.046-.367-.079-.959-.069.107,0,.263.022.144.035a2.989,2.989,0,0,1-.374-.036c-.444.009.068.035-.121.056-.151-.04-.218.017-.413.031v-.034c-.506-.02-.134.071-.59.046l.193-.047-.238.013.049-.038a.986.986,0,0,0-.1.015.463.463,0,0,1-.056,0c-.033,0-.087.01-.037-.051-.042.039-.078.027-.017-.106.071-.108-.01.1.115-.189a.762.762,0,0,1-.025.12.464.464,0,0,1-.03.07.144.144,0,0,1-.03.034c.008.008.01.027.02.029a2.115,2.115,0,0,0,.176-.372,1.166,1.166,0,0,1-.059.11l.15-.438c.041-.061.026,0,.011.052.035-.087.049-.151.1-.277.009.043.037.046-.033.228l.155-.412c.022-.022.121-.192.106-.137.114-.215.2-.564.353-.849a.6.6,0,0,1,.037-.114,7.364,7.364,0,0,0,.386-.847l.124-.167c.107-.261-.164.228.015-.2.125-.308.085-.1.143-.2a3.065,3.065,0,0,1,.285-.7c-.035.1-.073.165-.109.252l.117-.2c-.081.271-.176.45-.056.265-.061-.064.364-.825.3-.888l.078-.133-.036.087c.157-.255.039-.225.208-.569.061-.119.11-.2.08-.113l.106-.279c.037-.078.04-.054,0,.024l.182-.416v0c.016-.064.06-.205.083-.274.058-.1-.017.056,0,.033l.088-.236c.06-.085-.009.112-.084.269.165-.182.07-.2.318-.641l-.089.22a4.708,4.708,0,0,0,.3-.531c-.038.052-.281.463-.185.206a1.83,1.83,0,0,0,.129-.3c.024.01.078-.124.151-.288l.026.025a1.723,1.723,0,0,0,.083-.285.651.651,0,0,1,.176-.263c.148-.314-.137.2.028-.176a7.769,7.769,0,0,0,.328-.77c.094-.179,0,.04.041-.022l.051-.174c.019-.04.02-.024.02-.015.054-.141-.024-.024.067-.244,0-.072.248-.422.334-.706.038-.062,0,.04.022.024.144-.377.126-.322.234-.637l.135-.248c-.106.179-.02-.073.057-.292l-.018.028.034-.075c-.005.016-.01.03-.016.046l.023-.036.013-.053.074-.161c.008,0,0,.045-.015.1l-.072.113c-.022.091-.04.176-.016.167.007-.024.024-.067.043-.114-.006.024-.008.039,0,.031a.7.7,0,0,0,.037-.106l.064-.063,0-.024.219-.432c.114-.329.2-.622.416-1.126-.037.133.02.042.041.059-.088.125-.166.392-.289.649.064-.134.062-.1.051-.063l.187-.473c.015.02.059-.091.122-.208-.02.018-.022,0-.012-.028l.014-.043c0-.019.012-.037.037-.031l.384-.01c.013.014-.037.028-.289.026.278.03.36-.049.633-.023a.552.552,0,0,0-.119.005,1.659,1.659,0,0,1,.413.009h-.061a12.044,12.044,0,0,0,1.305-.036.21.21,0,0,1-.078.046l.508-.075h.224c.029.028.076.063-.159.074.1,0,.218.007.423,0-.066,0-.165-.038-.074-.041.249.029.173.015.48.039-.1-.005.011-.046.168-.045-.024.006.013.04-.044.044l.391-.04c-.1.007-.017.033.07.044-.041-.007.339,0,.443,0l-.166-.009c.442,0,.437-.054.875-.052-.053.008-.131.048.092.051.055-.011.182-.035.346-.058h.492c-.211.023-.452.048-.615.062a2.179,2.179,0,0,0,.294.011c.087.009-.135.015-.208.016l.577,0c-.026-.021.441-.023.419-.039l-.626.024a2.893,2.893,0,0,1,.771-.057c.1.008-.078.036-.069.043.053-.007.388-.014.425-.01l-.173.011c.228.006.371-.027.645-.01.094,0,.282.024.3.012-.093-.013-.135-.041-.136-.066h.317l-.014.007H250l0-.007h.329c.033.015-.251.035-.135.047a.882.882,0,0,1,.127-.013c.1,0-.041.015.174.013.036-.018.438,0,.1-.016.211-.005.224,0,.471,0-.052-.007.063-.022.208-.032h.283l.536.006c0,.162,0,.319,0,.515,0,.037-.008.231-.015.149,0,.058.009.111.009.235-.013.24,0-.277-.018-.094.009.016.013.321.019.5.013-.054,0-.409,0-.586.007,0,.013.038.02.1v1.29c-.005.29,0,1.026-.007,1.451,0,.061,0,.15.007.174v1.656c0-.005,0-.007,0,0l0,.211v.025c0-.008,0-.074,0-.013,0,.006,0,.046,0,.1v.33c0,.009,0,.018,0,.026v.313c0,.01,0,.014,0,.03v7.348h-.51c-.092-.039-.19-.08-.176-.121C251.165-399.329,250.766-399.529,250.366-399.412Zm-33.41-13.51-.336.007Zm2.492-.013-.06.011C219.289-412.924,219.336-412.928,219.448-412.934ZM213.781-408l-.645-.012Zm-6.24-9.108.392-.029C207.885-417.121,208.154-417.107,207.541-417.106Zm23.829,22.961-.109,0C231.333-394.15,231.381-394.15,231.371-394.145Zm-13.146-5.166h0ZM207.3-395.617c0-.023,0-.046,0-.067C207.312-395.438,207.314-395.3,207.3-395.617Zm9.777-8.739h0Zm.374.046-.374-.046c.365,0,.639.006,1.121-.015ZM222-408v0s0,0,0,0Zm-10.041,8.69s.008,0,.013-.007a.014.014,0,0,0-.008.015l0,.125Q211.964-399.245,211.963-399.314ZM222-408.01s0,0,.006.005h-.037l-.136,0H222Zm-8.266-.01a.416.416,0,0,0,.1.012C213.637-408.012,213.639-408.016,213.729-408.02Zm-5.8-9.115a.182.182,0,0,1,.036-.006h.036Zm14.1,17.465c0-.335,0-.435.006-.423C222.041-400.006,222.039-399.884,222.036-399.67Zm.052,1.53h0Zm0,0h0v.019h.143l.226,0h-.368v-.021h0Zm-8.4.01.368.007-.393.005Zm-1.727-.371c0,.377,0,.4,0,.243,0-.123,0-.343-.005-.4C211.946-399.71,211.954-398.583,211.958-398.5Zm1.207-4.523c-.274-.022.039-.017.636-.026-.238.007.724.006.492.014C213.4-403.044,214.154-403.016,213.165-403.023Zm.734-.028.207,0Zm8.013-7.271-.009-.048.019-.5C221.921-410.569,221.921-410.42,221.912-410.322Zm-5.756-2.562-.129-.033.277.033Zm-4.322-2.369c0-.3,0-.644-.007-.939C211.872-416.273,211.826-415.9,211.834-415.254Zm37.364-3.308-.219.007Zm-2.425.019.052-.011C246.913-418.554,246.872-418.549,246.772-418.543Zm-13.022-3.5.007-.327Q233.753-422.167,233.75-422.04Zm15.415-8.091.029.347C249.181-429.827,249.167-429.589,249.166-430.132Zm-26.018-15.962.1,0C223.181-446.088,223.139-446.088,223.148-446.094Zm14.355,4.06h0Zm8.536-4.178.06,0C245.881-446.2,245.757-446.2,246.039-446.212Zm-3.722,17.153h0Zm-.332-.046.332.046c-.323,0-.566-.006-.993.015Zm-8.244,6.54a.358.358,0,0,0,.012-.087C233.749-422.484,233.745-422.485,233.741-422.565Zm15.453-7.219a.188.188,0,0,1,.006.033v.032Zm-7.952-12.3c.3,0,.385,0,.375.007Zm-19.4.053-.2,0,.678,0Zm7.586-.01-.326-.007.348-.005Zm1.828-.012c-.679,0,.061-.006.136-.01C232.328-442.066,231.329-442.059,231.256-442.055Zm12.939,8.112c-.022.243-.018-.035-.027-.563.007.211.007-.641.015-.436C244.173-434.151,244.2-434.818,244.195-433.943Zm-.032-.832q0,.144.005.269C244.167-434.552,244.166-434.624,244.163-434.776Zm-2.108,16.17.44.018c-.264,0-.4,0-.483-.01Zm7.164-.118c-.006.036-.011.1-.017.091v-.1l.033-.114Zm-.066-5.584c0-.263,0-.57-.006-.832C249.19-425.209,249.144-424.877,249.152-424.307Zm-16.781-1.429-.007-.149C232.367-425.816,232.369-425.771,232.371-425.736Zm.012,1.107-.011-.026C232.372-424.7,232.377-424.679,232.383-424.629Zm-2.409,6.056.287.012Zm2.322-13.239.029.174C232.311-431.659,232.3-431.539,232.3-431.811Zm-20.626-.228.048,0C211.687-432.034,211.665-432.034,211.67-432.039Zm.013,13.552h-.012C211.649-418.489,211.641-418.489,211.683-418.487Zm11.474-13.67.03,0C223.077-432.146,223.015-432.144,223.156-432.157Zm-.79,13.6h0Zm.166.046-.166-.046a3.479,3.479,0,0,0,.5-.015Zm7.465-.038a.1.1,0,0,0-.044-.012C230.038-418.559,230.038-418.555,230-418.551Zm2.328-13.086a.052.052,0,0,1,.006.016v.016Zm-18.765,13.1a.9.9,0,0,1,.188.007Zm-9.836.051.34,0h-.24Zm3.743-.016.175,0-.011.013C207.574-418.5,207.568-418.5,207.468-418.5Zm1.081,0c-.341,0,.03-.006.068-.01C209.086-418.519,208.585-418.512,208.548-418.508Zm10.507-.068c.122.022-.017.018-.282.027.106-.007-.322-.007-.219-.015C218.951-418.554,218.616-418.582,219.055-418.576Zm-.418.032.135-.005Zm13.692-3.7-.008-.022.018-.221A1.593,1.593,0,0,1,232.329-422.24Zm.037-3.909-.033.123v-.066Zm-.083-2.74c0-.132,0-.286-.007-.417C232.321-429.342,232.275-429.175,232.283-428.889Zm-1.364-4.676-.11.007Zm-.921.019.02-.011C230.05-433.557,230.035-433.552,230-433.546Zm-6.355.037.21.012Zm8.653-2.668.029.128C232.311-436.066,232.3-435.978,232.3-436.177Zm-15.109-.055.035,0C217.2-436.227,217.184-436.227,217.187-436.232Zm-6.943,2.808h0ZM225.6-436.35l.022,0C225.544-436.339,225.5-436.337,225.6-436.35Zm-7.532,2.854h0Zm.122.046-.122-.046a1.9,1.9,0,0,0,.365-.015Zm5.468-.038a.053.053,0,0,0-.032-.012C223.691-433.5,223.69-433.492,223.66-433.488Zm8.665-2.562a.03.03,0,0,1,.006.012v.012Zm-20.706,2.573a.49.49,0,0,1,.138.006Zm-4.343.043c-.041,0-.046-.006-.12-.008l.128,0Zm.672-.012c-.25,0,.022-.006.05-.01C208.342-433.457,207.975-433.449,207.948-433.445Zm7.329-.055c.291.009.046-.019.367-.013.089.022-.013.018-.207.027C215.515-433.494,215.2-433.493,215.277-433.5Zm.16.014-.1.005Zm12.989-.1a.864.864,0,0,1-.178-.01l.016-.008Zm2.686.027-.09-.033h.048Zm1.171-.473-.007-.306C232.321-434.368,232.275-434.246,232.283-434.036Zm6.244,28.2,0,.02C238.517-405.787,238.519-405.8,238.527-405.834Zm2.258-5.031.09-.166Zm-4.151,9.358.022-.116C236.662-401.6,236.708-401.67,236.634-401.507Zm10.2,2-.032,0C246.825-399.509,246.839-399.509,246.836-399.5Zm4.708-13.552h.008C251.567-413.054,251.572-413.054,251.544-413.056Zm-12.26,13.671-.02,0C239.337-399.4,239.377-399.4,239.285-399.385Zm5.237-13.6h0Zm-.11-.046.11.046a1.563,1.563,0,0,0-.328.015Zm-3.563,2a.052.052,0,0,0,.023-.021C240.845-411,240.841-411,240.849-411.026Zm-4.193,9.4a.019.019,0,0,1,0-.012l0-.01ZM250.31-413c-.1,0-.127,0-.124-.007Zm1.784,4.562,0,.066,0-.224Zm-.022-2.51.013.008c0,.037-.006.042-.008.107Zm-.009-.64c0-.309.006.02.01.045C252.07-411.323,252.066-411.567,252.063-411.592Zm-5.365-1.375c-.08-.022.011-.017.186-.026-.069.007.211.006.143.014C246.766-412.988,246.987-412.96,246.7-412.967Zm.275-.032-.089.006Zm-7.741,5.761,0,.016-.078.124A.675.675,0,0,1,239.231-407.238Zm-1.107,2.319.064-.06-.019.039Zm-.677,1.672-.109.252C237.29-402.993,237.377-403.073,237.448-403.247Zm-11.143-11.122-.109.007Zm-.921.019.02-.011C225.437-414.36,225.421-414.356,225.385-414.35Zm.168-2.826.21.012Zm5.094,2.739-.127.029C230.535-414.422,230.447-414.436,230.647-414.436Zm15.588,0-.035,0C246.222-414.447,246.238-414.446,246.234-414.441Zm-7.072-2.808h.009C239.188-417.247,239.193-417.247,239.162-417.249Zm-1.343,2.926-.022,0C237.878-414.334,237.923-414.337,237.82-414.323Zm-6.483-2.854h0Zm-.122-.046.122.046a1.941,1.941,0,0,0-.365.015Zm-5.468.038a.056.056,0,0,0,.032.012C225.716-417.177,225.716-417.181,225.746-417.185Zm4.773,2.777a.032.032,0,0,1-.012.005H230.5Zm7.268-2.79a.485.485,0,0,1-.137-.007Zm7.132-.052.074,0-.25,0Zm-2.789.01c.041,0,.046.005.12.007l-.128,0Zm-.672.012c.25,0-.023.006-.05.009C241.065-417.216,241.432-417.224,241.459-417.228Zm-7.33.055c-.291-.009-.046.019-.367.012-.089-.022.013-.018.207-.027C233.892-417.18,234.2-417.181,234.129-417.173Zm-.16-.015.1-.005Zm-10.093,2.426a.889.889,0,0,0,.1.1.426.426,0,0,1-.115-.108Zm2.58.361.042.033-.09-.033Zm2.05-.05.306-.007C228.838-414.412,228.715-414.458,228.506-414.45Zm-26.148-22.984.007.385C202.363-437.135,202.361-437.252,202.358-437.434Zm.02,3.126-.011-.066C202.367-434.482,202.371-434.431,202.377-434.307Zm3.576,17.679.008-.446C205.959-416.962,205.956-416.814,205.953-416.629Zm1.162-31.058-.432.029C206.736-447.672,206.44-447.686,207.114-447.687Zm43.645,9.46c0-.036,0-.081,0-.12C250.764-438.269,250.764-438.216,250.759-438.227Zm-23.042,45.467h.03C227.8-392.758,227.821-392.757,227.717-392.759Zm3.639-54.813-.074,0C231.552-447.584,231.705-447.587,231.356-447.573Zm-25.394,50.044v.011Zm.046-.412-.046.412c0-.4.006-.7-.015-1.233Zm-.038-18.481a.5.5,0,0,0-.012.108C205.962-416.523,205.966-416.521,205.97-416.422Zm.713-31.236a.184.184,0,0,1-.04.006h-.04Zm15.923,54.944.465.007C222.7-392.708,222.592-392.711,222.605-392.714Zm24.569-.046.249,0-.842,0Zm-9.425.01.4.008-.432,0Zm-2.271.012c.843,0-.076.006-.169.01C234.147-392.727,235.387-392.735,235.479-392.739Zm-24.772.055c-.983-.009-.154.019-1.241.012-.3-.022.043-.017.7-.026C209.9-392.69,210.962-392.691,210.707-392.683Zm-.4-.017.189,0Zm0,0-.146,0Zm-7.978-36.293c0,.328,0,.492-.01.6l-.009-.053Zm.393-8.788-.131-.008h.218l.142.033-.152-.017Zm3.085-3.539c0-.326,0-.708-.007-1.033A5.606,5.606,0,0,1,205.812-441.321Zm36.623,39.578-.014,0C242.412-401.758,242.42-401.754,242.434-401.743Zm1-1.87-.035.058C243.4-403.57,243.359-403.558,243.439-403.612Zm2.95-1.819-.011,0C246.406-405.457,246.423-405.471,246.389-405.432Zm.884,1.02.006,0,0,0Zm-.074-.006.074.006a.449.449,0,0,0-.139.11Zm2.134-1.485c-.035-.024-.073-.048-.116-.081s-.118-.1-.134-.1c.035.037.039.074.026.1l-.143-.091.01,0-.028-.017,0,.006-.149-.1c-.006-.022.133.044.087,0a.274.274,0,0,1-.065-.026c-.043-.032.027,0-.072-.061-.026,0-.2-.127-.054-.016-.1-.056-.1-.068-.213-.138.02.022-.043,0-.115-.035l-.119-.076,0,0-.479-.316c-.015-.014-.1-.074-.06-.055a1.136,1.136,0,0,1-.111-.061c-.1-.08.127.078.052.012a2.377,2.377,0,0,1-.236-.128,1.752,1.752,0,0,0,.267.167c0,.006-.029,0-.062-.017l-.581-.371c-.129-.089-.465-.3-.654-.426-.029-.015-.07-.039-.083-.044l-.563-.359h0l-.188-.12s0,0,0,0l-.1-.059-.01-.007s.036.018.008,0a.255.255,0,0,1-.047-.024l-.152-.1-.009-.007h0l-.139-.088-.014-.01-.028-.017-2.319-1.481-.537.841h0l-.09.142,0,0,0,0v0l.231.148c.021.06.044.122.015.153.154,0,.228.286.472.3.03.041-.05,0-.04.034a.314.314,0,0,1,.221.1h-.017a8.4,8.4,0,0,1,.712.512v-.052a.463.463,0,0,1,.1.1c.115,0-.195-.127-.083-.142.046.132.493.313.5.435.107.068-.005-.061.1.007l.014.04.046-.012c.068.05.086.1.076.12a.487.487,0,0,0-.072-.036,1.831,1.831,0,0,0,.291.182l-.1-.078c.307.165.649.419.96.555l-.011-.029c.236.108.163.127.41.264l-.011,0a.656.656,0,0,1,.19.09c-.072-.02.091.106,0,.076.255.118.132.05.324.091l.02.048a.4.4,0,0,1,.2.07c-.111-.04.052.086-.076.046a.466.466,0,0,0,.213.14c.052.019.112.046.06.068.21.037-.058-.089.007-.07-.011-.039.15.023.208.069-.008.022-.1.04-.162.056a.565.565,0,0,0-.176.059c.011-.007.006-.011.016-.017-.028.007-.034.018-.056.039a.36.36,0,0,1-.128.077c-.025.074-.119.077-.1.137l.173-.133a1.117,1.117,0,0,1-.339.289.478.478,0,0,1,.078-.1c-.059.018-.089.073-.15.092-.018-.059.213-.158.3-.269-.067.015-.183.176-.164.085-.034.121-.2.122-.3.263l-.011-.035a.571.571,0,0,1-.092.087l.045-.085c-.087.1-.226.112-.318.2.216-.147.072,0,.177-.039-.242.218-.2.028-.493.244.038-.031.163-.085.109-.03a.914.914,0,0,1-.188.081c-.194.139.05.009-.023.083-.09.011-.088.08-.168.149l-.019-.028c-.238.134-.021.1-.239.214l.06-.1-.1.081v-.046a.892.892,0,0,1-.258.187c.039,0,.018.06-.082.128-.079.03.021-.052-.118.048a.158.158,0,0,1,.12-.1c0-.013.02-.039.021-.052a1.208,1.208,0,0,0-.238.155.358.358,0,0,1,.059-.031l-.181.176c-.039.011-.019-.014,0-.039-.039.031-.061.063-.12.106,0-.032-.017-.052.063-.121l-.18.156c-.02,0-.117.042-.1.017-.117.061-.239.221-.393.3a.185.185,0,0,1-.046.046,2.14,2.14,0,0,0-.416.279l-.115.025c-.12.093.153-.037-.047.117-.14.111-.075.007-.134.032a.9.9,0,0,1-.321.253c.041-.037.079-.056.12-.087l-.116.05c.1-.116.2-.167.086-.128.015.039-.084.109-.184.179-.031.023-.149.1-.206.148s-.094.084-.075.095c-.069.017-.022.06-.011.1l-.049-.072a.48.48,0,0,0,.144.2.689.689,0,0,1,.156.174c.035.063.054.111.019.075l.105.123c.025.039.007.037-.017,0l.142.2h0a1.486,1.486,0,0,1,.117.106c.029.062-.026-.024-.023,0l.113.137c.016.041,0,.036-.031,0a1.246,1.246,0,0,1-.1-.14.289.289,0,0,0,.091.179c.024.028.052.059.087.109.01.007.016.037.031.029l.048-.029.123-.067-.18.126a.665.665,0,0,0,.208-.095l.126-.076c.027-.015.057-.031.09-.046-.024.008-.072.022-.151.054s-.117.037-.024-.036a.6.6,0,0,0,.154-.111c.015.022.075-.027.155-.082l.013.032c.081-.067.065-.076.108-.124.1-.062.133-.054.167-.052.158-.1-.13.038.05-.091a2.217,2.217,0,0,0,.363-.269c.1-.051,0,.027.033.013l.066-.075c.02-.013.018,0,.017,0,.062-.054-.012-.03.089-.108.009-.048.245-.1.355-.225.037-.014-.005.026.011.03a3.383,3.383,0,0,0,.274-.246l.137-.068c-.1.043,0-.058.091-.144l-.018.006.037-.024-.02.019.022-.008.019-.025.08-.053c0,.007-.008.028-.028.053l-.07.025c-.031.042-.058.084-.04.093a.371.371,0,0,1,.05-.043c-.008.011-.013.019-.006.018s.021-.018.044-.043l.056,0,0-.017.227-.129a3.874,3.874,0,0,1,.486-.433c-.049.059.007.039.018.063-.083.022-.184.137-.314.218.068-.042.061-.022.046-.006l.213-.174c.007.022.057-.019.121-.051-.068-.005.154-.137.239-.209.013.008,0,.035-.115.107.141-.058.134-.148.271-.208-.028.019-.044.027-.051.04.058-.053.22-.15.19-.116l-.027.019a3.52,3.52,0,0,0,.566-.418.133.133,0,0,1-.01.061l.186-.214.1-.067c.029.015.069.03-.031.109a1.273,1.273,0,0,0,.188-.128c-.032.017-.1.018-.056-.012a2.224,2.224,0,0,0,.237-.11c-.048.025-.021-.042.05-.088-.008.013.028.029,0,.05l.153-.15c-.04.035.011.033.056.016-.022.006.152-.1.2-.135l-.079.042c.2-.128.166-.175.364-.3-.02.022-.033.078.069.015.019-.025.063-.084.125-.152l.218-.145c-.082.083-.175.174-.241.234a.638.638,0,0,0,.137-.078c.044-.018-.052.053-.084.075l.26-.169c-.023-.01.185-.15.166-.157l-.268.206c-.023-.01.129-.158.315-.276.051-.024-.015.053-.007.056a1.026,1.026,0,0,1,.093-.073c.036-.026.113-.078.123-.082l-.1.081a1.822,1.822,0,0,0,.19-.138l.021-.017c0-.005-.016-.011-.023-.016Zm-6.559,4.535a.432.432,0,0,1,.176-.124A.7.7,0,0,1,242.774-401.368Zm2.417-1.7a.633.633,0,0,1,.1-.06A.3.3,0,0,1,245.191-403.069Zm-.172.142a.024.024,0,0,0,.02,0C245.011-402.912,245.009-402.916,245.019-402.927Zm-1.615-.628a.013.013,0,0,1,0,.008l0,0Zm5.478-2.635a.531.531,0,0,0-.053-.042C248.872-406.2,248.884-406.191,248.881-406.189Zm-2.984-1.85-.029-.021.1.067Zm1.1.679.054.029-.01.008A.366.366,0,0,0,246.993-407.361Zm.324.2c-.1-.067.013,0,.026,0C247.484-407.066,247.33-407.155,247.317-407.159Zm1.083,2.005c-.122.07-.008.028-.141.108-.048.006,0-.018.068-.078C248.3-405.1,248.426-405.18,248.4-405.154Zm-5.243,3.583a.207.207,0,0,1,.077-.039l0,.011Zm-1.05-.576.016-.035,0,.055Zm.462-.906.119-.087C242.724-403.109,242.65-403.115,242.57-403.052Zm-22.315-26.612.014,0C220.277-429.649,220.269-429.653,220.255-429.665Zm-1.036,1.852.037-.058C219.256-427.854,219.3-427.865,219.218-427.812Zm-2.981,1.768.011,0C216.22-426.019,216.2-426.006,216.238-426.044Zm-.867-1.035-.007,0,0,0Zm.075.007-.075-.007a.461.461,0,0,0,.141-.107Zm-1.919,1.536c.041.029.113.1.127.1-.035-.038-.037-.075-.024-.1l.142.094-.01,0,.028.018,0-.007.147.1c.007.023-.131-.046-.086,0a.245.245,0,0,1,.065.026c.042.033-.027,0,.071.062.026,0,.2.131.054.017.1.058.1.07.211.142-.02-.022.043,0,.114.037l.118.078,0,0,.473.324c.015.014.1.076.059.056a1.189,1.189,0,0,1,.11.063c.1.083-.126-.08-.052-.013a2.4,2.4,0,0,1,.234.133,1.735,1.735,0,0,0-.265-.171c0-.006.029,0,.062.017l.574.38c.127.09.46.305.647.438.028.016.069.04.082.046l.743.493s0,0,0,0l.1.06.011.007s-.035-.018-.009,0a.254.254,0,0,1,.047.025l.146.1.013.009,0,0,.136.091.013.009.026.017,2.3,1.522.646-.975-.228-.152c-.02-.06-.041-.123-.012-.153-.154,0-.223-.289-.467-.311-.03-.041.05,0,.04-.033a.314.314,0,0,1-.219-.108h.017a8.457,8.457,0,0,1-.7-.523v.052a.459.459,0,0,1-.1-.1c-.115,0,.193.13.08.143-.043-.133-.487-.322-.5-.444-.106-.07,0,.061-.1-.009l-.014-.041-.046.011c-.067-.05-.084-.1-.074-.121a.5.5,0,0,0,.071.037,1.829,1.829,0,0,0-.287-.187l.094.08c-.3-.17-.642-.43-.951-.571l.011.029c-.233-.112-.16-.129-.4-.271l.011,0a.644.644,0,0,1-.189-.094c.072.021-.089-.108,0-.076-.253-.122-.131-.051-.322-.1l-.019-.048a.4.4,0,0,1-.2-.074c.111.042-.05-.087.076-.044a.793.793,0,0,0-.153-.122.4.4,0,0,0-.086-.039c-.049-.018-.106-.045-.063-.072-.193-.03.065.1,0,.078.015.042-.137-.018-.2-.066-.016-.011-.02-.022-.017-.032s.062-.019.091-.028a.674.674,0,0,0,.186-.063c-.011.006-.005.01-.015.015.062-.016.025-.046.156-.092.026-.073.12-.074.1-.135l-.175.13a1.114,1.114,0,0,1,.344-.283.467.467,0,0,1-.079.094c.059-.017.09-.072.151-.09.017.059-.215.154-.3.265.067-.013.187-.172.166-.082.036-.12.2-.118.3-.258l.01.035a.558.558,0,0,1,.093-.085l-.046.084c.088-.1.228-.108.321-.194-.218.143-.072,0-.178.035.245-.214.2-.024.5-.235-.038.03-.165.083-.109.028a.894.894,0,0,1,.189-.078c.2-.137-.05-.009.025-.083.09-.009.089-.078.17-.145l.019.028c.24-.13.022-.1.243-.209l-.062.1.1-.08,0,.046a.876.876,0,0,1,.262-.182c-.039,0-.017-.06.083-.126.08-.028-.022.051.119-.046a.158.158,0,0,1-.122.1c0,.013-.021.038-.022.051a1.217,1.217,0,0,0,.241-.151.33.33,0,0,1-.06.03l.184-.172c.039-.011.018.014,0,.039.04-.03.061-.062.122-.1,0,.032.016.052-.065.12l.182-.153c.02,0,.118-.04.1-.015.118-.059.243-.217.4-.3a.2.2,0,0,1,.047-.046,2.1,2.1,0,0,0,.421-.271l.115-.024c.122-.091-.154.035.049-.116.142-.109.076-.006.135-.03a.9.9,0,0,1,.325-.247c-.041.036-.08.054-.121.084l.117-.049c-.106.115-.2.164-.089.127-.015-.039.086-.107.187-.176.032-.022.152-.1.208-.144s.1-.083.076-.094c.07-.016.023-.058.011-.094l.048.071a.506.506,0,0,0-.141-.2.745.745,0,0,1-.153-.181c-.034-.063-.052-.111-.017-.075l-.1-.124c-.024-.04-.007-.037.017,0l-.138-.2h0a1.489,1.489,0,0,1-.115-.108c-.028-.063.025.025.023,0l-.111-.138c-.015-.041,0-.035.031,0a1.219,1.219,0,0,1,.1.141.286.286,0,0,0-.088-.179,1.341,1.341,0,0,1-.085-.111c-.01-.007-.015-.038-.03-.03l-.047.028-.119.062.174-.119a.694.694,0,0,0-.2.087l-.132.074a1.012,1.012,0,0,1-.1.048c0,.013.38-.164.187-.021a.636.636,0,0,0-.166.114c-.015-.021-.076.026-.156.08l-.013-.032c-.083.065-.066.076-.11.122-.1.061-.134.052-.168.049-.159.1.13-.036-.052.09a2.211,2.211,0,0,0-.367.262c-.1.05.005-.027-.033-.013l-.067.074c-.02.012-.018,0-.017,0-.063.052.011.03-.091.107-.011.048-.247.1-.359.219-.037.013.006-.026-.011-.03a3.547,3.547,0,0,0-.278.241l-.138.065c.106-.041,0,.058-.094.143l.017-.005-.037.024.02-.018-.022.007-.019.024-.08.052c-.005-.007.009-.028.029-.052l.07-.024c.032-.041.06-.083.042-.092a.406.406,0,0,1-.051.042c.009-.011.013-.019.006-.018s-.022.018-.045.042l-.056,0,0,.017-.229.125a3.88,3.88,0,0,1-.493.424c.05-.058-.007-.039-.017-.063.083-.02.186-.134.317-.213-.069.041-.061.02-.046.006l-.216.17c-.006-.022-.057.018-.122.049.068.007-.156.135-.243.205-.013-.008,0-.034.117-.105-.143.055-.136.146-.274.2.028-.018.044-.026.051-.039-.059.052-.223.146-.192.113l.028-.018a3.536,3.536,0,0,0-.573.408.131.131,0,0,1,.011-.061l-.19.211-.1.065c-.029-.016-.068-.031.033-.109a1.284,1.284,0,0,0-.19.125c.032-.016.1-.016.056.013a2.4,2.4,0,0,0-.239.106c.048-.024.02.042-.052.087.008-.012-.028-.03,0-.05l-.156.148c.04-.034-.01-.033-.056-.017.023-.005-.153.1-.2.132l.08-.041c-.2.124-.169.172-.369.3.02-.022.034-.078-.069-.016-.019.024-.064.083-.127.15l-.221.141c.083-.081.178-.171.245-.23a.667.667,0,0,0-.139.076c-.045.018.053-.052.085-.074l-.263.164c.023.01-.188.147-.169.154l.271-.2c.023.011-.132.156-.319.271-.052.024.016-.053.008-.056a2.421,2.421,0,0,1-.245.169l.1-.08C213.12-425.707,213.44-425.633,213.526-425.536Zm6.4-4.509a.381.381,0,0,1-.171.115A.719.719,0,0,1,219.925-430.045Zm-2.449,1.659a.618.618,0,0,1-.1.059A.3.3,0,0,1,217.476-428.386Zm.174-.139a.026.026,0,0,0-.02,0C217.658-428.54,217.66-428.536,217.65-428.525Zm1.6.655a.022.022,0,0,1,0-.008l.005,0Zm-5.4,2.542a.564.564,0,0,0,.052.042C213.861-425.316,213.85-425.327,213.853-425.328Zm2.951,1.9.029.021-.1-.068Zm-1.128-.736a.288.288,0,0,0,.044.039l-.054-.03Zm-.277-.169c.1.069-.012,0-.025,0C215.234-424.428,215.387-424.336,215.4-424.332Zm-1.168-2.025c.123-.068.008-.028.143-.106.048,0,0,.018-.07.076C214.332-426.412,214.2-426.33,214.231-426.357Zm5.3-3.492a.2.2,0,0,1-.078.037l0-.011Zm1.04.594-.017.035,0-.055Zm-.478.9-.121.085C219.942-428.3,220.016-428.3,220.1-428.357Z" transform="translate(-202.3 447.688)" fill="#111"/>
    </g>
  </g>
</svg>
